<?xml version="1.0" standalone="no"?>
<!DOCTYPE svg PUBLIC "-//W3C//DTD SVG 1.1//EN" "http://www.w3.org/Graphics/SVG/1.1/DTD/svg11.dtd" >
<svg xmlns="http://www.w3.org/2000/svg" xmlns:xlink="http://www.w3.org/1999/xlink" version="1.1">
<metadata>
Created by FontForge 20170910 at Fri Jan  5 02:06:28 2018
 By Jimmy Wärting
(c) 1999-2009 Ray Larabie. See attached license agreement for more information. If EULA is missing, visit www.larabiefonts.com for an updated version of this font.
</metadata>
<defs>
<font id="EthnocentricW00-Light" horiz-adv-x="1023" >
  <font-face 
    font-family="EthnocentricW00-Light"
    font-weight="300"
    font-stretch="normal"
    units-per-em="1000"
    panose-1="2 0 4 0 0 0 0 0 0 0"
    ascent="800"
    descent="-200"
    cap-height="669"
    bbox="-156 -255 1779 945"
    underline-thickness="50"
    underline-position="-175"
    unicode-range="U+0017-2212"
  />
<missing-glyph horiz-adv-x="425" 
d="M120 0q-92 0 -92 79v510q0 80 92 80h183q45 0 69 -20t24 -60v-510q0 -40 -24 -59.5t-69 -19.5h-183zM346 589q0 37 -43 37h-183q-43 0 -43 -37v-510q0 -36 43 -36h183q43 0 43 36v510z" />
    <glyph glyph-name=".notdef" horiz-adv-x="425" 
d="M120 0q-92 0 -92 79v510q0 80 92 80h183q45 0 69 -20t24 -60v-510q0 -40 -24 -59.5t-69 -19.5h-183zM346 589q0 37 -43 37h-183q-43 0 -43 -37v-510q0 -36 43 -36h183q43 0 43 36v510z" />
    <glyph glyph-name=".null" horiz-adv-x="0" 
 />
    <glyph glyph-name="nonmarkingreturn" horiz-adv-x="333" 
 />
    <glyph glyph-name="glyph385" horiz-adv-x="0" 
 />
    <glyph glyph-name="glyph385" horiz-adv-x="0" 
 />
    <glyph glyph-name="uni0017" horiz-adv-x="363" 
 />
    <glyph glyph-name="space" unicode=" " horiz-adv-x="363" 
 />
    <glyph glyph-name="exclam" unicode="!" horiz-adv-x="221" 
d="M69 187l-13 203v279h112v-279l-14 -203h-85zM177 46q0 -26 -18.5 -40.5t-45.5 -14.5q-26 0 -45 14.5t-19 40.5t19 40.5t45 14.5q27 0 45.5 -14.5t18.5 -40.5z" />
    <glyph glyph-name="quotedbl" unicode="&#x22;" horiz-adv-x="304" 
d="M49 401l-33 268h101l-34 -268h-34zM220 401l-34 268h102l-34 -268h-34z" />
    <glyph glyph-name="numbersign" unicode="#" horiz-adv-x="645" 
d="M284 0l60 194h-140l-60 -194h-63l61 194h-115l24 76h115l48 152h-116l24 77h116l53 170h62l-53 -170h140l53 170h63l-54 -170h126l-23 -77h-126l-48 -152h127l-23 -76h-128l-61 -194h-62zM416 422h-140l-48 -152h140z" />
    <glyph glyph-name="dollar" unicode="$" horiz-adv-x="634" 
d="M302 0v108h-269l52 65h217v145h-70q-175 0 -175 127q0 66 45 100.5t142 34.5h58v89h46v-89h241l-52 -66h-189v-144h74q88 0 131.5 -29.5t43.5 -93.5q0 -69 -45 -104t-142 -35h-62v-108h-46zM404 173q61 0 89 17t28 57q0 42 -28 56.5t-88 14.5h-57v-145h56zM302 514h-63
q-107 0 -107 -74q0 -39 26 -54.5t80 -15.5h64v144z" />
    <glyph glyph-name="percent" unicode="%" horiz-adv-x="909" 
d="M40 0zM430 520q0 -91 -48 -132t-147 -41t-147 41t-48 132t48 131.5t147 40.5t147 -40.5t48 -131.5zM376 520q0 71 -34 99t-107 28q-74 0 -108 -28t-34 -99t34 -99.5t108 -28.5q73 0 107 28.5t34 99.5zM156 -38l550 744h48l-547 -744h-51zM870 158q0 -91 -48 -132
t-147 -41t-147 41t-48 132t48 131.5t147 40.5t147 -40.5t48 -131.5zM816 158q0 71 -34 99t-107 28q-74 0 -108 -28t-34 -99t34 -99.5t108 -28.5q73 0 107 28.5t34 99.5z" />
    <glyph glyph-name="ampersand" unicode="&#x26;" horiz-adv-x="787" 
d="M282 0q-68 0 -114 14.5t-74.5 39.5t-41 58.5t-12.5 72.5q0 34 10 61t26 46.5t37 32.5t44 19q-18 5 -37 17t-34 30t-24.5 42.5t-9.5 54.5q0 90 61 135.5t169 45.5h255l-70 -92h-190q-57 0 -89.5 -25t-32.5 -79q0 -22 8.5 -39.5t22.5 -30t31.5 -19t36.5 -6.5h515l-56 -77
h-147v-210h214l-70 -91h-428zM478 301h-222q-46 0 -77 -27.5t-31 -75.5q0 -51 36 -79t117 -28h177v210z" />
    <glyph glyph-name="quotesingle" unicode="'" horiz-adv-x="133" 
d="M49 401l-33 268h101l-34 -268h-34z" />
    <glyph glyph-name="parenleft" unicode="(" horiz-adv-x="297" 
d="M196 -129q-60 127 -87 239.5t-27 223.5q0 112 28 223t84 236h62q-60 -133 -89 -244t-29 -216q0 -104 27.5 -215.5t91.5 -246.5h-61z" />
    <glyph glyph-name="parenright" unicode=")" horiz-adv-x="297" 
d="M40 -129q63 135 91 246.5t28 215.5q0 105 -29 216t-89 244h62q56 -125 84 -236t28 -223q0 -111 -27 -223.5t-87 -239.5h-61z" />
    <glyph glyph-name="asterisk" unicode="*" horiz-adv-x="446" 
d="M313 318l-91 131l-90 -131l-37 28l90 130l-145 43l14 45l145 -43v148h48v-148l145 43l14 -45l-145 -43l91 -131z" />
    <glyph glyph-name="plus" unicode="+" horiz-adv-x="625" 
d="M282 67v243h-242v61h242v242h61v-242h243v-61h-243v-243h-61z" />
    <glyph glyph-name="comma" unicode="," horiz-adv-x="209" 
d="M45 -96l20 268h115l-73 -268h-62z" />
    <glyph glyph-name="hyphen" unicode="-" horiz-adv-x="397" 
d="M14 303l54 70h315l-54 -70h-315z" />
    <glyph glyph-name="period" unicode="." horiz-adv-x="206" 
d="M168 46q0 -26 -19 -40.5t-46 -14.5q-26 0 -44.5 14.5t-18.5 40.5t18.5 40.5t44.5 14.5q27 0 46 -14.5t19 -40.5z" />
    <glyph glyph-name="slash" unicode="/" horiz-adv-x="416" 
d="M0 -38l350 744h66l-347 -744h-69z" />
    <glyph glyph-name="zero" unicode="0" horiz-adv-x="859" 
d="M820 335q0 -180 -97.5 -263t-292.5 -83q-196 0 -293 83t-97 263q0 179 97.5 262t292.5 83q194 0 292 -83t98 -262zM713 335q0 70 -16.5 118.5t-51.5 78.5t-88.5 43.5t-126.5 13.5q-74 0 -127 -13.5t-88 -43.5t-51.5 -78.5t-16.5 -118.5q0 -71 16.5 -119.5t51.5 -78.5
t88 -43.5t127 -13.5q73 0 126.5 13.5t88.5 43.5t51.5 78.5t16.5 119.5z" />
    <glyph glyph-name="one" unicode="1" horiz-adv-x="343" 
d="M174 0v577l-59 -82h-104l125 174h147v-669h-109z" />
    <glyph glyph-name="two" unicode="2" horiz-adv-x="879" 
d="M45 0v198q0 91 60 134.5t175 43.5h292q81 0 117.5 25.5t36.5 73.5q0 59 -52.5 80.5t-156.5 21.5h-433l70 92h408q72 0 123 -14t83.5 -38.5t47 -59t14.5 -76.5t-14 -76t-44 -58t-77 -37.5t-113 -13.5h-292q-69 0 -104.5 -23t-35.5 -74v-108h690l-70 -91h-725z" />
    <glyph glyph-name="three" unicode="3" horiz-adv-x="844" 
d="M9 0l70 91h483q25 0 49.5 5t43.5 17.5t30.5 33t11.5 51.5q0 48 -31.5 73t-76.5 25h-398l58 81h341q17 0 34.5 7.5t31.5 20t23 30t9 38.5q0 52 -32.5 78t-89.5 26h-529l70 92h455q108 0 168.5 -45.5t60.5 -135.5q0 -30 -9.5 -55t-24.5 -43t-33.5 -30t-36.5 -17
q22 -6 43 -18.5t37.5 -32t26.5 -46.5t10 -61q0 -39 -12.5 -72.5t-41 -58.5t-75 -39.5t-114.5 -14.5h-552z" />
    <glyph glyph-name="four" unicode="4" horiz-adv-x="885" 
d="M609 0v120h-527q-26 0 -40.5 14.5t-14.5 33.5q0 26 24 46l535 432q14 11 30 21t36 10q24 0 42 -16.5t18 -51.5v-403h167l-64 -86h-103v-120h-103zM609 548l-425 -342h425v342z" />
    <glyph glyph-name="five" unicode="5" horiz-adv-x="829" 
d="M40 0l70 91h422q153 0 153 106q0 30 -13 49.5t-35 30.5t-49.5 15t-56.5 4h-462v373h704l-70 -92h-527v-201h366q247 0 247 -180q0 -196 -265 -196h-484z" />
    <glyph glyph-name="six" unicode="6" horiz-adv-x="910" 
d="M413 577q-53 0 -97.5 -14.5t-79 -40.5t-56.5 -63t-29 -82h485q109 0 172.5 -43.5t63.5 -130.5q0 -65 -33 -106.5t-87.5 -65.5t-125 -33t-146.5 -9q-218 0 -329 84.5t-111 267.5q0 73 28.5 133.5t78.5 104t119.5 67t150.5 23.5h404l-71 -92h-337zM151 297
q5 -61 28.5 -102.5t65 -67t102 -36.5t138.5 -11q67 0 119.5 6t89 20.5t56 38.5t19.5 60q0 51 -37.5 71.5t-103.5 20.5h-477z" />
    <glyph glyph-name="seven" unicode="7" horiz-adv-x="781" 
d="M151 0l477 577h-617l70 92h630q32 0 47 -15t15 -32t-10 -33.5t-24 -33.5l-451 -555h-137z" />
    <glyph glyph-name="eight" unicode="8" horiz-adv-x="876" 
d="M256 296q-46 0 -77 -25t-31 -73q0 -45 31.5 -76t102.5 -31h313q71 0 103 31t32 76q0 48 -31.5 73t-76.5 25h-366zM282 0q-68 0 -114 14.5t-74.5 39.5t-41 58.5t-12.5 72.5q0 34 10 61t26 46.5t37 32.5t44 19q-18 5 -37 17t-34 30t-24.5 42.5t-9.5 54.5q0 90 61 135.5
t169 45.5h313q108 0 168.5 -45.5t60.5 -135.5q0 -30 -9.5 -54.5t-24.5 -43t-33.5 -30t-36.5 -16.5q22 -6 43.5 -18.5t38 -32.5t26.5 -47t10 -61q0 -39 -12.5 -72.5t-41.5 -58.5t-75.5 -39.5t-114.5 -14.5h-312zM277 577q-57 0 -89.5 -26t-32.5 -78q0 -22 8.5 -40t22.5 -30.5
t31.5 -19.5t36.5 -7h369q19 0 36.5 7t31 19.5t22 30.5t8.5 40q0 52 -32.5 78t-89.5 26h-322z" />
    <glyph glyph-name="nine" unicode="9" horiz-adv-x="910" 
d="M99 0l70 91h330q66 0 114 16t80 45.5t48 70t18 90.5q-26 -6 -62.5 -11t-88 -8.5t-120 -5.5t-158.5 -2q-65 0 -118.5 9.5t-91.5 30.5t-59 55.5t-21 85.5q0 64 32.5 105.5t87 65.5t125 33t147.5 9q216 0 328 -83t112 -258q0 -78 -26.5 -140.5t-75.5 -106.5t-119 -68
t-157 -24h-395zM759 385q-6 56 -30.5 95t-66.5 63t-101.5 35t-135.5 11q-66 0 -118.5 -6t-89 -21t-56 -39t-19.5 -60q0 -51 44 -73.5t122 -22.5q91 0 161.5 1t125 3t94.5 5.5t70 8.5z" />
    <glyph glyph-name="colon" unicode=":" horiz-adv-x="263" 
d="M192 46q0 -26 -18.5 -40.5t-44.5 -14.5q-27 0 -46 14.5t-19 40.5t19 40.5t46 14.5q26 0 44.5 -14.5t18.5 -40.5zM192 403q0 -26 -18.5 -40.5t-44.5 -14.5q-27 0 -46 14.5t-19 40.5t19 40.5t46 14.5q26 0 44.5 -14.5t18.5 -40.5z" />
    <glyph glyph-name="semicolon" unicode=";" horiz-adv-x="223" 
d="M49 -96l20 268h115l-73 -268h-62zM188 403q0 -26 -18.5 -40.5t-45.5 -14.5q-26 0 -44.5 14.5t-18.5 40.5t18.5 40.5t44.5 14.5q27 0 45.5 -14.5t18.5 -40.5z" />
    <glyph glyph-name="less" unicode="&#x3c;" horiz-adv-x="600" 
d="M61 306q-11 5 -16 13.5t-5 17.5t5 17.5t16 13.5l499 239v-67l-427 -203l427 -204v-66z" />
    <glyph glyph-name="equal" unicode="=" horiz-adv-x="625" 
d="M40 175v61h546v-61h-546zM40 444v60h546v-60h-546z" />
    <glyph glyph-name="greater" unicode="&#x3e;" horiz-adv-x="600" 
d="M40 67v66l427 204l-427 203v67l499 -239q11 -5 16 -13.5t5 -17.5t-5 -17.5t-16 -13.5z" />
    <glyph glyph-name="question" unicode="?" horiz-adv-x="688" 
d="M349 287q-37 0 -52 -13.5t-15 -42.5v-45h-90v53q0 60 32.5 93.5t107.5 33.5h98q24 0 47 5.5t41 18t29 32.5t11 50q0 59 -45.5 82t-120.5 23h-381l71 92h325q125 0 190 -51t65 -141q0 -41 -14.5 -76t-42.5 -60.5t-70 -39.5t-96 -14h-90zM305 46q0 -26 -19 -40.5t-45 -14.5
q-27 0 -45.5 14.5t-18.5 40.5t18.5 40.5t45.5 14.5q26 0 45 -14.5t19 -40.5z" />
    <glyph glyph-name="at" unicode="@" horiz-adv-x="841" 
d="M421 0q-83 0 -153 23.5t-120.5 66t-79 103t-28.5 134.5q0 73 29 136t80 108.5t120.5 71.5t151.5 26h361v-489h-383q-34 0 -61.5 12t-47 32.5t-30.5 48.5t-11 60q0 31 10.5 58.5t30 48.5t47 33t62.5 12h195v-253h116v377h-289q-66 0 -123 -20.5t-98.5 -57.5t-65 -88
t-23.5 -111q0 -61 23 -111t64.5 -86t98 -55.5t124.5 -19.5h305l46 -60h-351zM532 437h-115q-48 0 -75 -29.5t-27 -72.5q0 -45 28.5 -74t73.5 -29h115v205z" />
    <glyph glyph-name="A" unicode="A" 
d="M289 0l66 91h466l-308 464l-375 -555h-128l434 637q11 16 28.5 28.5t42.5 12.5q24 0 42 -12t29 -29l428 -637h-725z" />
    <glyph glyph-name="B" unicode="B" horiz-adv-x="887" 
d="M60 0v376h562q51 0 80 26t29 71q0 52 -32.5 78t-89.5 26h-546l74 92h468q108 0 168.5 -45.5t60.5 -135.5q0 -30 -9.5 -54.5t-24.5 -43t-33.5 -30t-36.5 -16.5q22 -6 43 -18.5t37.5 -32.5t26.5 -47t10 -61q0 -39 -12.5 -72.5t-41 -58.5t-75 -39.5t-114.5 -14.5h-544z
M168 296v-205h437q35 0 60.5 8t42 22t24 32t7.5 39q0 48 -28.5 76t-86.5 28h-456z" />
    <glyph glyph-name="C" unicode="C" horiz-adv-x="856" 
d="M425 0q-83 0 -153.5 26t-122 71.5t-80.5 108t-29 135.5t29 133.5t80.5 104t122 67t153.5 23.5h423l-71 -92h-352q-49 0 -98.5 -14t-89 -43.5t-64.5 -75t-25 -108.5t26 -109t71 -76t106.5 -45t132.5 -15h364l-71 -91h-352z" />
    <glyph glyph-name="D" unicode="D" horiz-adv-x="890" 
d="M60 0v417h108v-326h308q57 0 106 18.5t85 51t56 77.5t20 98q0 52 -20.5 96.5t-56 76.5t-84.5 50t-106 18h-416l70 92h346q81 0 150 -24t118.5 -67.5t77.5 -104t28 -132.5q0 -73 -28 -135.5t-78 -108t-118.5 -71.5t-149.5 -26h-416z" />
    <glyph glyph-name="E" unicode="E" horiz-adv-x="782" 
d="M60 0v669h710l-71 -92h-531v-201h571l-62 -80h-509v-205h607l-71 -91h-644z" />
    <glyph glyph-name="F" unicode="F" horiz-adv-x="758" 
d="M168 284v-284h-108v669h692l-71 -92h-513v-207h547l-66 -86h-481z" />
    <glyph glyph-name="G" unicode="G" horiz-adv-x="890" 
d="M425 0q-83 0 -153.5 26t-122 71.5t-80.5 108t-29 135.5t29 133.5t80.5 104t122 67t153.5 23.5h430l-70 -92h-360q-60 0 -110.5 -17t-87.5 -48t-58 -76t-21 -100q0 -56 21 -101t57.5 -77t87.5 -49.5t111 -17.5h296v211h-390l66 82h432v-384h-404z" />
    <glyph glyph-name="H" unicode="H" horiz-adv-x="851" 
d="M682 0v301h-514v-301h-108v669h108v-276h514v276h108v-669h-108z" />
    <glyph glyph-name="I" unicode="I" horiz-adv-x="234" 
d="M62 0v669h108v-669h-108z" />
    <glyph glyph-name="J" unicode="J" horiz-adv-x="662" 
d="M10 0l71 91h136q151 0 218 54.5t67 158.5v365h108v-365q0 -304 -393 -304h-207z" />
    <glyph glyph-name="K" unicode="K" horiz-adv-x="838" 
d="M664 0l-496 321v-321h-108v669h108v-293l470 293h165l-532 -317l562 -352h-169z" />
    <glyph glyph-name="L" unicode="L" horiz-adv-x="732" 
d="M60 0v669h108v-578h558l-71 -91h-595z" />
    <glyph glyph-name="M" unicode="M" horiz-adv-x="1190" 
d="M1069 0l-187 538l-223 -505q-12 -27 -28.5 -34.5t-35.5 -7.5q-20 0 -36 7.5t-28 34.5l-223 505l-188 -538h-106l220 627q17 51 62 51q21 0 37.5 -11t24.5 -29l239 -526l239 526q8 18 23.5 29t37.5 11q43 0 63 -51l217 -627h-108z" />
    <glyph glyph-name="N" unicode="N" horiz-adv-x="856" 
d="M155 528v-528h-98v610q0 36 18 52t42 16q11 0 22 -4t25 -17l537 -514v526h99v-607q0 -36 -18.5 -52t-42.5 -16q-11 0 -21.5 3.5t-24.5 16.5z" />
    <glyph glyph-name="O" unicode="O" horiz-adv-x="978" 
d="M938 335q0 -179 -112.5 -262.5t-336.5 -83.5t-336.5 83.5t-112.5 262.5t112.5 262t336.5 83t336.5 -83t112.5 -262zM830 335q0 70 -20 118.5t-61.5 78.5t-106 43.5t-153.5 13.5t-153.5 -13.5t-106 -43.5t-61.5 -78.5t-20 -118.5q0 -71 20 -119.5t61.5 -78.5t106 -43.5
t153.5 -13.5t153.5 13.5t106 43.5t61.5 78.5t20 119.5z" />
    <glyph glyph-name="P" unicode="P" horiz-adv-x="916" 
d="M168 218v-218h-108v308h478q48 0 89.5 7t73 23t49.5 41.5t18 61.5q0 39 -17 65t-47.5 42t-73 22.5t-93.5 6.5h-479l72 92h445q69 0 124.5 -15.5t95 -45t60.5 -72t21 -96.5q0 -53 -21 -94.5t-60 -70t-95 -43t-125 -14.5h-407z" />
    <glyph glyph-name="Q" unicode="Q" horiz-adv-x="988" 
d="M411 0q-78 0 -146 21.5t-118 63.5t-78.5 104.5t-28.5 145.5q0 179 112.5 262t336.5 83q223 0 336 -83t113 -262q0 -32 -7 -60.5t-20 -51.5h-115q19 23 26.5 51t7.5 61q0 70 -20 118.5t-61.5 78.5t-106 43.5t-153.5 13.5t-153.5 -13.5t-106 -43.5t-61.5 -78.5t-20 -118.5
q0 -63 19.5 -109t54 -76t83 -44.5t106.5 -14.5h303l-217 196h143l320 -287h-549z" />
    <glyph glyph-name="R" unicode="R" horiz-adv-x="948" 
d="M791 0l-239 221h-384v-221h-108v308h479q47 0 90 7t76 23t52.5 41t19.5 61q0 40 -17.5 66t-49 42t-75.5 22.5t-96 6.5h-481l71 92h450q58 0 114 -12t99 -38.5t69.5 -69t26.5 -103.5q0 -90 -61 -143t-163 -62l274 -241h-147z" />
    <glyph glyph-name="S" unicode="S" horiz-adv-x="904" 
d="M22 0l71 91h525q153 0 153 106q0 33 -13.5 52.5t-39 30t-62.5 13.5t-83 3h-270q-129 0 -188.5 47t-59.5 135q0 91 64 141t202 50h541l-70 -92h-479q-153 0 -153 -106q0 -32 13 -51t38.5 -28.5t62 -12.5t84.5 -3h270q247 0 247 -180q0 -96 -63.5 -146t-201.5 -50h-588z
" />
    <glyph glyph-name="T" unicode="T" horiz-adv-x="847" 
d="M355 0v577h-355l73 92h774l-71 -92h-312v-577h-109z" />
    <glyph glyph-name="U" unicode="U" horiz-adv-x="918" 
d="M758 669h109v-377q0 -303 -388 -303q-224 0 -326 75.5t-102 227.5v377h108v-377q0 -56 17.5 -96.5t56 -66.5t99 -38t147.5 -12t141 12t85 38t42 66.5t11 96.5v377z" />
    <glyph glyph-name="V" unicode="V" 
d="M10 669h133l368 -554l375 554h127l-433 -637q-12 -17 -28.5 -29t-42.5 -12q-24 0 -42 12t-29 29z" />
    <glyph glyph-name="W" unicode="W" horiz-adv-x="1191" 
d="M593 557l-238 -526q-8 -17 -23.5 -28.5t-38.5 -11.5q-21 0 -37.5 13t-24.5 38l-218 627h108l188 -538l223 505q12 27 28.5 34.5t34.5 7.5q20 0 36.5 -7.5t28.5 -34.5l223 -505l187 538h106l-219 -627q-20 -51 -63 -51q-21 0 -37 11t-24 29z" />
    <glyph glyph-name="X" unicode="X" horiz-adv-x="965" 
d="M802 0l-324 282l-326 -282h-136l399 344l-373 325h150l296 -261l298 261h141l-373 -321l401 -348h-153z" />
    <glyph glyph-name="Y" unicode="Y" horiz-adv-x="961" 
d="M430 0v248l-423 421h140l339 -339l332 339h137l-417 -421v-248h-108z" />
    <glyph glyph-name="Z" unicode="Z" horiz-adv-x="857" 
d="M79 0q-22 0 -37.5 11.5t-15.5 34.5q0 13 7 24.5t18 21.5l587 485h-628l70 92h686q22 0 38 -12t16 -35q0 -13 -7 -25t-18 -21l-588 -485h643l-66 -91h-705z" />
    <glyph glyph-name="bracketleft" unicode="[" horiz-adv-x="278" 
d="M76 -129v922h157v-65h-93v-792h93v-65h-157z" />
    <glyph glyph-name="backslash" unicode="\" horiz-adv-x="416" 
d="M346 -38l-346 744h65l351 -744h-70z" />
    <glyph glyph-name="bracketright" unicode="]" horiz-adv-x="278" 
d="M44 -129v65h93v792h-93v65h159v-922h-159z" />
    <glyph glyph-name="asciicircum" unicode="^" horiz-adv-x="538" 
d="M422 296l-152 312l-154 -312h-74l183 373h86l184 -373h-73z" />
    <glyph glyph-name="underscore" unicode="_" horiz-adv-x="674" 
d="M0 -112v50h679v-50h-679z" />
    <glyph glyph-name="grave" unicode="`" horiz-adv-x="379" 
d="M44 805v62l289 -106v-46z" />
    <glyph glyph-name="a" unicode="a" 
d="M10 0zM289 0l66 91h466l-308 464l-375 -555h-128l434 637q11 16 28.5 28.5t42.5 12.5q24 0 42 -12t29 -29l428 -637h-725z" />
    <glyph glyph-name="b" unicode="b" horiz-adv-x="887" 
d="M60 0zM60 0v376h562q51 0 80 26t29 71q0 52 -32.5 78t-89.5 26h-546l74 92h468q108 0 168.5 -45.5t60.5 -135.5q0 -30 -9.5 -54.5t-24.5 -43t-33.5 -30t-36.5 -16.5q22 -6 43 -18.5t37.5 -32.5t26.5 -47t10 -61q0 -39 -12.5 -72.5t-41 -58.5t-75 -39.5t-114.5 -14.5h-544
zM168 296v-205h437q35 0 60.5 8t42 22t24 32t7.5 39q0 48 -28.5 76t-86.5 28h-456z" />
    <glyph glyph-name="c" unicode="c" horiz-adv-x="856" 
d="M40 0zM425 0q-83 0 -153.5 26t-122 71.5t-80.5 108t-29 135.5t29 133.5t80.5 104t122 67t153.5 23.5h423l-71 -92h-352q-49 0 -98.5 -14t-89 -43.5t-64.5 -75t-25 -108.5t26 -109t71 -76t106.5 -45t132.5 -15h364l-71 -91h-352z" />
    <glyph glyph-name="d" unicode="d" horiz-adv-x="890" 
d="M60 0zM60 0v417h108v-326h308q57 0 106 18.5t85 51t56 77.5t20 98q0 52 -20.5 96.5t-56 76.5t-84.5 50t-106 18h-416l70 92h346q81 0 150 -24t118.5 -67.5t77.5 -104t28 -132.5q0 -73 -28 -135.5t-78 -108t-118.5 -71.5t-149.5 -26h-416z" />
    <glyph glyph-name="e" unicode="e" horiz-adv-x="782" 
d="M60 0zM60 0v669h710l-71 -92h-531v-201h571l-62 -80h-509v-205h607l-71 -91h-644z" />
    <glyph glyph-name="f" unicode="f" horiz-adv-x="758" 
d="M60 0zM168 284v-284h-108v669h692l-71 -92h-513v-207h547l-66 -86h-481z" />
    <glyph glyph-name="g" unicode="g" horiz-adv-x="890" 
d="M40 0zM425 0q-83 0 -153.5 26t-122 71.5t-80.5 108t-29 135.5t29 133.5t80.5 104t122 67t153.5 23.5h430l-70 -92h-360q-60 0 -110.5 -17t-87.5 -48t-58 -76t-21 -100q0 -56 21 -101t57.5 -77t87.5 -49.5t111 -17.5h296v211h-390l66 82h432v-384h-404z" />
    <glyph glyph-name="h" unicode="h" horiz-adv-x="851" 
d="M60 0zM682 0v301h-514v-301h-108v669h108v-276h514v276h108v-669h-108z" />
    <glyph glyph-name="i" unicode="i" horiz-adv-x="234" 
d="M62 0zM62 0v669h108v-669h-108z" />
    <glyph glyph-name="j" unicode="j" horiz-adv-x="662" 
d="M10 0zM10 0l71 91h136q151 0 218 54.5t67 158.5v365h108v-365q0 -304 -393 -304h-207z" />
    <glyph glyph-name="k" unicode="k" horiz-adv-x="838" 
d="M60 0zM664 0l-496 321v-321h-108v669h108v-293l470 293h165l-532 -317l562 -352h-169z" />
    <glyph glyph-name="l" unicode="l" horiz-adv-x="732" 
d="M60 0zM60 0v669h108v-578h558l-71 -91h-595z" />
    <glyph glyph-name="m" unicode="m" horiz-adv-x="1190" 
d="M14 0zM1069 0l-187 538l-223 -505q-12 -27 -28.5 -34.5t-35.5 -7.5q-20 0 -36 7.5t-28 34.5l-223 505l-188 -538h-106l220 627q17 51 62 51q21 0 37.5 -11t24.5 -29l239 -526l239 526q8 18 23.5 29t37.5 11q43 0 63 -51l217 -627h-108z" />
    <glyph glyph-name="n" unicode="n" horiz-adv-x="856" 
d="M57 0zM155 528v-528h-98v610q0 36 18 52t42 16q11 0 22 -4t25 -17l537 -514v526h99v-607q0 -36 -18.5 -52t-42.5 -16q-11 0 -21.5 3.5t-24.5 16.5z" />
    <glyph glyph-name="o" unicode="o" horiz-adv-x="978" 
d="M40 0zM938 335q0 -179 -112.5 -262.5t-336.5 -83.5t-336.5 83.5t-112.5 262.5t112.5 262t336.5 83t336.5 -83t112.5 -262zM830 335q0 70 -20 118.5t-61.5 78.5t-106 43.5t-153.5 13.5t-153.5 -13.5t-106 -43.5t-61.5 -78.5t-20 -118.5q0 -71 20 -119.5t61.5 -78.5
t106 -43.5t153.5 -13.5t153.5 13.5t106 43.5t61.5 78.5t20 119.5z" />
    <glyph glyph-name="p" unicode="p" horiz-adv-x="916" 
d="M58 0zM168 218v-218h-108v308h478q48 0 89.5 7t73 23t49.5 41.5t18 61.5q0 39 -17 65t-47.5 42t-73 22.5t-93.5 6.5h-479l72 92h445q69 0 124.5 -15.5t95 -45t60.5 -72t21 -96.5q0 -53 -21 -94.5t-60 -70t-95 -43t-125 -14.5h-407z" />
    <glyph glyph-name="q" unicode="q" horiz-adv-x="988" 
d="M40 0zM411 0q-78 0 -146 21.5t-118 63.5t-78.5 104.5t-28.5 145.5q0 179 112.5 262t336.5 83q223 0 336 -83t113 -262q0 -32 -7 -60.5t-20 -51.5h-115q19 23 26.5 51t7.5 61q0 70 -20 118.5t-61.5 78.5t-106 43.5t-153.5 13.5t-153.5 -13.5t-106 -43.5t-61.5 -78.5
t-20 -118.5q0 -63 19.5 -109t54 -76t83 -44.5t106.5 -14.5h303l-217 196h143l320 -287h-549z" />
    <glyph glyph-name="r" unicode="r" horiz-adv-x="948" 
d="M58 0zM791 0l-239 221h-384v-221h-108v308h479q47 0 90 7t76 23t52.5 41t19.5 61q0 40 -17.5 66t-49 42t-75.5 22.5t-96 6.5h-481l71 92h450q58 0 114 -12t99 -38.5t69.5 -69t26.5 -103.5q0 -90 -61 -143t-163 -62l274 -241h-147z" />
    <glyph glyph-name="s" unicode="s" horiz-adv-x="904" 
d="M22 0zM22 0l71 91h525q153 0 153 106q0 33 -13.5 52.5t-39 30t-62.5 13.5t-83 3h-270q-129 0 -188.5 47t-59.5 135q0 91 64 141t202 50h541l-70 -92h-479q-153 0 -153 -106q0 -32 13 -51t38.5 -28.5t62 -12.5t84.5 -3h270q247 0 247 -180q0 -96 -63.5 -146t-201.5 -50
h-588z" />
    <glyph glyph-name="t" unicode="t" horiz-adv-x="847" 
d="M0 0zM355 0v577h-355l73 92h774l-71 -92h-312v-577h-109z" />
    <glyph glyph-name="u" unicode="u" horiz-adv-x="918" 
d="M51 0zM758 669h109v-377q0 -303 -388 -303q-224 0 -326 75.5t-102 227.5v377h108v-377q0 -56 17.5 -96.5t56 -66.5t99 -38t147.5 -12t141 12t85 38t42 66.5t11 96.5v377z" />
    <glyph glyph-name="v" unicode="v" 
d="M10 0zM10 669h133l368 -554l375 554h127l-433 -637q-12 -17 -28.5 -29t-42.5 -12q-24 0 -42 12t-29 29z" />
    <glyph glyph-name="w" unicode="w" horiz-adv-x="1191" 
d="M13 0zM593 557l-238 -526q-8 -17 -23.5 -28.5t-38.5 -11.5q-21 0 -37.5 13t-24.5 38l-218 627h108l188 -538l223 505q12 27 28.5 34.5t34.5 7.5q20 0 36.5 -7.5t28.5 -34.5l223 -505l187 538h106l-219 -627q-20 -51 -63 -51q-21 0 -37 11t-24 29z" />
    <glyph glyph-name="x" unicode="x" horiz-adv-x="965" 
d="M16 0zM802 0l-324 282l-326 -282h-136l399 344l-373 325h150l296 -261l298 261h141l-373 -321l401 -348h-153z" />
    <glyph glyph-name="y" unicode="y" horiz-adv-x="961" 
d="M7 0zM430 0v248l-423 421h140l339 -339l332 339h137l-417 -421v-248h-108z" />
    <glyph glyph-name="z" unicode="z" horiz-adv-x="857" 
d="M10 0zM79 0q-22 0 -37.5 11.5t-15.5 34.5q0 13 7 24.5t18 21.5l587 485h-628l70 92h686q22 0 38 -12t16 -35q0 -13 -7 -25t-18 -21l-588 -485h643l-66 -91h-705z" />
    <glyph glyph-name="braceleft" unicode="{" horiz-adv-x="337" 
d="M242 -129q-109 0 -109 124v254q0 56 -66 56v55q66 0 66 55v254q0 124 109 124h50v-65h-44q-26 0 -37.5 -16.5t-11.5 -54.5v-237q0 -38 -14 -58.5t-35 -29.5q21 -8 35 -29.5t14 -58.5v-236q0 -38 11.5 -54.5t37.5 -16.5h44v-66h-50z" />
    <glyph glyph-name="bar" unicode="|" horiz-adv-x="238" 
d="M89 -99v854h60v-854h-60z" />
    <glyph glyph-name="braceright" unicode="}" horiz-adv-x="338" 
d="M46 -129v66h45q26 0 37.5 16.5t11.5 54.5v236q0 37 14 58.5t35 29.5q-21 9 -35 29.5t-14 58.5v237q0 38 -11.5 54.5t-37.5 16.5h-45v65h51q108 0 108 -124v-254q0 -55 67 -55v-55q-67 0 -67 -56v-254q0 -124 -108 -124h-51z" />
    <glyph glyph-name="asciitilde" unicode="~" horiz-adv-x="562" 
d="M519 325q-38 -39 -72.5 -52.5t-66.5 -13.5q-28 0 -55 11t-53 24.5t-52 25t-52 11.5q-28 0 -60 -15t-70 -60v88q38 40 72 53t65 13q27 0 53 -11.5t52.5 -25t53 -24.5t54.5 -11q29 0 61 15t70 60v-88z" />
    <glyph glyph-name="uni00A0" unicode="&#xa0;" horiz-adv-x="363" 
 />
    <glyph glyph-name="exclamdown" unicode="&#xa1;" horiz-adv-x="221" 
d="M48 0zM156.004 482.012l13 -202.988v-278.982h-111.994v278.982l14 202.988h84.9941zM48.0107 623.003q0 25.998 18.499 40.4971t45.4971 14.499q25.998 0 44.9971 -14.499t18.999 -40.4971q0 -25.999 -18.999 -40.498t-44.9971 -14.499q-26.998 0 -45.4971 14.499
t-18.499 40.498z" />
    <glyph glyph-name="cent" unicode="&#xa2;" horiz-adv-x="606" 
d="M366 109v-109h-46v109q-59 0 -108.5 18t-86.5 50.5t-57.5 76.5t-20.5 95t20.5 93.5t57.5 73t86.5 47.5t108.5 17v89h46v-89h209l-50 -66h-159v-340h208l-50 -65h-158zM320 514q-42 0 -77.5 -12.5t-61.5 -34.5t-40.5 -53.5t-14.5 -68.5t14.5 -68.5t40.5 -54t61.5 -35.5
t77.5 -13v340z" />
    <glyph glyph-name="sterling" unicode="&#xa3;" horiz-adv-x="768" 
d="M35 0l71 91h101v212h-207l54 70h153v88q0 47 16 85.5t49.5 65.5t86 42t125.5 15h274l-70 -92h-212q-31 0 -60.5 -5t-52 -18.5t-36.5 -37.5t-14 -62v-81h269l-55 -70h-214v-212h448l-71 -91h-655z" />
    <glyph glyph-name="yen" unicode="&#xa5;" horiz-adv-x="961" 
d="M538 248v-85h321v-61h-321v-102h-108v102h-317v61h317v85h-317v60h256l-362 361h140l339 -339l332 339h137l-358 -361h262v-60h-321z" />
    <glyph glyph-name="brokenbar" unicode="&#xa6;" horiz-adv-x="238" 
d="M89 -99v383h60v-383h-60zM149 395h-60v360h60v-360z" />
    <glyph glyph-name="dieresis" unicode="&#xa8;" horiz-adv-x="373" 
d="M339 804q0 -20 -15 -31.5t-36 -11.5t-35.5 11.5t-14.5 31.5q0 21 14.5 32.5t35.5 11.5t36 -11.5t15 -32.5zM135 804q0 -20 -14.5 -31.5t-36.5 -11.5q-20 0 -35 11.5t-15 31.5q0 21 15 32.5t35 11.5q22 0 36.5 -11.5t14.5 -32.5z" />
    <glyph glyph-name="copyright" unicode="&#xa9;" horiz-adv-x="773" 
d="M387 -11q-72 0 -135 27t-110 74t-74 110t-27 135t27 135t74 110t110 74t135 27t135 -27t110 -74t74 -110t27 -135t-27 -135t-74 -110t-110 -74t-135 -27zM710 334q0 67 -25.5 125.5t-69 102.5t-102 69.5t-125.5 25.5t-125.5 -25.5t-102 -69.5t-69 -102.5t-25.5 -125.5
t25.5 -125.5t69 -102t102 -68.5t125.5 -25t125.5 25t102 68.5t69 102t25.5 125.5zM383 174q-37 0 -68.5 12.5t-54.5 34t-36 51.5t-13 65t13 64t36 49.5t54.5 32t68.5 11.5h109l-24 -32h-85q-29 0 -53.5 -9.5t-42.5 -26t-28.5 -40t-10.5 -51.5t10 -52t28 -41t43 -27t54 -10
h110l-25 -31h-85z" />
    <glyph glyph-name="ordfeminine" unicode="&#xaa;" horiz-adv-x="620" 
d="M187 284l36 50h257l-170 255l-206 -305h-70l239 350q5 8 14.5 15.5t23.5 7.5t23.5 -7t15.5 -16l236 -350h-399z" />
    <glyph glyph-name="guillemotleft" unicode="&#xab;" horiz-adv-x="432" 
d="M27 298v49l175 135v-54l-140 -103l140 -104v-53zM219 298v49l174 135v-54l-139 -103l139 -104v-53z" />
    <glyph glyph-name="registered" unicode="&#xae;" horiz-adv-x="499" 
d="M459 484q0 -39 -16 -74.5t-44.5 -62.5t-67 -43t-83.5 -16q-46 0 -84 16t-65.5 43t-43 62.5t-15.5 74.5t15.5 74.5t43 62.5t65.5 43t84 16t84.5 -15.5t66.5 -42t44 -62.5t16 -76zM438 484q0 34 -14.5 65t-40 55t-60.5 38t-75 14q-42 0 -76 -14.5t-58 -38.5t-37 -55
t-13 -64t13 -64.5t37 -56t58 -39t76 -14.5q39 0 74 14t60.5 38t40.5 55.5t15 66.5zM313 408l-57 54h-63v-51h-27v74h97q17 0 30.5 7.5t13.5 21.5q0 18 -15 24.5t-38 6.5h-86l19 25h74q30 0 52 -12.5t22 -41.5q0 -44 -48 -49l66 -59h-40z" />
    <glyph glyph-name="macron" unicode="&#xaf;" horiz-adv-x="379" 
d="M44 768v47h289v-47h-289z" />
    <glyph glyph-name="degree" unicode="&#xb0;" horiz-adv-x="359" 
d="M182 439q92 0 92 97q0 99 -92 99t-92 -98t92 -98zM182 394q-138 0 -138 143t138 143t138 -143t-138 -143z" />
    <glyph glyph-name="plusminus" unicode="&#xb1;" horiz-adv-x="625" 
d="M40 0zM282 67v243h-242v61h242v242h61v-242h243v-61h-243v-243h-61zM40 -76v61h546v-61h-546z" />
    <glyph glyph-name="uni00B2" unicode="&#xb2;" horiz-adv-x="468" 
d="M37 353zM37 353v98q0 46 30 67.5t87 21.5h146q42 0 59.5 13t17.5 37q0 29 -26 40t-78 11h-217l35 46h204q73 0 103.5 -26t30.5 -68t-29 -67.5t-95 -25.5h-146q-35 0 -52.5 -11t-17.5 -37v-54h345l-35 -45h-362z" />
    <glyph glyph-name="uni00B3" unicode="&#xb3;" horiz-adv-x="450" 
d="M18 353zM18 353l35 45h242q12 0 24 2.5t21.5 8.5t15.5 16t6 26q0 23 -15 36t-38 13h-199l28 41h171q17 0 33 14t16 34q0 52 -61 52h-265l35 46h228q54 0 84.5 -22.5t30.5 -67.5q0 -31 -17.5 -49.5t-34.5 -23.5q22 -6 40 -25t18 -54q0 -39 -27 -65.5t-95 -26.5h-276z" />
    <glyph glyph-name="acute" unicode="&#xb4;" horiz-adv-x="379" 
d="M44 715v46l289 106v-62z" />
    <glyph glyph-name="periodcentered" unicode="&#xb7;" horiz-adv-x="206" 
d="M168 325q0 -26 -19 -40.5t-46 -14.5q-26 0 -44.5 14.5t-18.5 40.5t18.5 40t44.5 14q27 0 46 -14t19 -40z" />
    <glyph glyph-name="cedilla" unicode="&#xb8;" horiz-adv-x="238" 
d="M62 -255l18 224h84l-62 -224h-40z" />
    <glyph glyph-name="uni00B9" unicode="&#xb9;" horiz-adv-x="200" 
d="M20 353zM101 353v288l-30 -41h-51l62 87h73v-334h-54z" />
    <glyph glyph-name="ordmasculine" unicode="&#xba;" horiz-adv-x="594" 
d="M544 468q0 -100 -60.5 -145.5t-186.5 -45.5q-125 0 -186 45.5t-61 145.5t61 145t186 45q126 0 186.5 -45t60.5 -145zM485 468q0 78 -45 109t-143 31t-142.5 -31t-44.5 -109t44.5 -109t142.5 -31t143 31t45 109z" />
    <glyph glyph-name="guillemotright" unicode="&#xbb;" horiz-adv-x="432" 
d="M235 168v53l139 104l-139 103v54l174 -135v-49zM44 168v53l139 104l-139 103v54l174 -135v-49z" />
    <glyph glyph-name="onequarter" unicode="&#xbc;" horiz-adv-x="856" 
d="M40 0zM173 353v288l-30 -41h-51l62 87h73v-334h-54zM40 -38l550 744h48l-547 -744h-51zM681 -9v59h-263q-13 0 -20.5 7.5t-7.5 17.5q0 12 13 22l267 216q7 6 14.5 10.5t18.5 4.5q12 0 21 -8t9 -25v-201h83l-32 -44h-51v-59h-52zM681 264l-212 -170h212v170z" />
    <glyph glyph-name="onehalf" unicode="&#xbd;" horiz-adv-x="862" 
d="M40 0zM169 353v288l-30 -41h-51l62 87h73v-334h-54zM40 -38l550 744h48l-547 -744h-51zM425 -9v98q0 46 30 67.5t87 21.5h146q42 0 59.5 13t17.5 37q0 29 -26 40t-78 11h-217l35 46h204q73 0 103.5 -26t30.5 -68t-29 -67.5t-95 -25.5h-146q-35 0 -52.5 -11t-17.5 -37v-54
h345l-35 -45h-362z" />
    <glyph glyph-name="threequarters" unicode="&#xbe;" horiz-adv-x="975" 
d="M40 0zM40 353l35 45h242q12 0 24 2.5t21.5 8.5t15.5 16t6 26q0 23 -15 36t-38 13h-199l28 41h171q17 0 33 14t16 34q0 52 -61 52h-265l35 46h228q54 0 84.5 -22.5t30.5 -67.5q0 -31 -17.5 -49.5t-34.5 -23.5q22 -6 40 -25t18 -54q0 -39 -27 -65.5t-95 -26.5h-276z
M204 -38l550 744h48l-547 -744h-51zM800 -9v59h-263q-13 0 -20.5 7.5t-7.5 17.5q0 12 13 22l267 216q7 6 14.5 10.5t18.5 4.5q12 0 21 -8t9 -25v-201h83l-32 -44h-51v-59h-52zM800 264l-212 -170h212v170z" />
    <glyph glyph-name="questiondown" unicode="&#xbf;" horiz-adv-x="688" 
d="M24 0zM337.021 382.018q36.998 0 51.9971 13.499t14.999 42.4971v44.998h89.9941v-52.9971q0 -59.9961 -32.498 -93.4941t-107.493 -33.498h-97.9941q-23.999 0 -46.9971 -5.5q-22.999 -5.49902 -40.998 -17.999q-17.998 -12.499 -28.998 -32.498
q-10.999 -19.998 -10.999 -49.9961q0 -58.9971 45.4971 -81.9951q45.4971 -22.999 120.492 -22.999h380.978l-70.9961 -91.9941h-324.98q-124.992 0 -189.988 50.9971q-64.9961 50.9961 -64.9961 140.991q0 40.9971 14.499 75.9951q14.5 34.998 42.498 60.4961
q27.998 25.499 69.9951 39.498q41.998 13.999 95.9941 13.999h89.9951zM381.019 623.003q0 25.998 18.999 40.4971t44.9971 14.499q26.998 0 45.4971 -14.499t18.499 -40.4971q0 -25.999 -18.499 -40.498t-45.4971 -14.499q-25.998 0 -44.9971 14.499t-18.999 40.498z" />
    <glyph glyph-name="Agrave" unicode="&#xc0;" 
d="M10 0zM289 0l66 91h466l-308 464l-375 -555h-128l434 637q11 16 28.5 28.5t42.5 12.5q24 0 42 -12t29 -29l428 -637h-725zM338 805v62l289 -106v-46z" />
    <glyph glyph-name="Aacute" unicode="&#xc1;" 
d="M10 0zM289 0l66 91h466l-308 464l-375 -555h-128l434 637q11 16 28.5 28.5t42.5 12.5q24 0 42 -12t29 -29l428 -637h-725zM395 715v46l289 106v-62z" />
    <glyph glyph-name="Acircumflex" unicode="&#xc2;" 
d="M10 0zM289 0l66 91h466l-308 464l-375 -555h-128l434 637q11 16 28.5 28.5t42.5 12.5q24 0 42 -12t29 -29l428 -637h-725zM609 715l-95 123h-5l-95 -123h-58l119 152h74l117 -152h-57z" />
    <glyph glyph-name="Atilde" unicode="&#xc3;" 
d="M10 0zM289 0l66 91h466l-308 464l-375 -555h-128l434 637q11 16 28.5 28.5t42.5 12.5q24 0 42 -12t29 -29l428 -637h-725zM656 782q-14 -24 -32.5 -33.5t-41.5 -9.5q-20 0 -37 9.5t-34 21t-34 21t-35 9.5q-22 0 -41 -12t-34 -40v52q14 24 33 33t42 9q19 0 36.5 -9.5
t34 -20.5t33.5 -20.5t36 -9.5q22 0 40.5 11.5t33.5 40.5v-52z" />
    <glyph glyph-name="Adieresis" unicode="&#xc4;" 
d="M10 0zM289 0l66 91h466l-308 464l-375 -555h-128l434 637q11 16 28.5 28.5t42.5 12.5q24 0 42 -12t29 -29l428 -637h-725zM664 804q0 -20 -15 -31.5t-36 -11.5t-35.5 11.5t-14.5 31.5q0 21 14.5 32.5t35.5 11.5t36 -11.5t15 -32.5zM460 804q0 -20 -14.5 -31.5
t-36.5 -11.5q-20 0 -35 11.5t-15 31.5q0 21 15 32.5t35 11.5q22 0 36.5 -11.5t14.5 -32.5z" />
    <glyph glyph-name="Aring" unicode="&#xc5;" 
d="M10 0zM289 0l66 91h466l-308 464l-375 -555h-128l434 637q11 16 28.5 28.5t42.5 12.5q24 0 42 -12t29 -29l428 -637h-725zM475 715q-104 0 -104 83v63q0 84 104 84h72q104 0 104 -84v-63q0 -83 -104 -83h-72zM607 849q0 35 -18 45t-55 10h-47q-36 0 -54 -10.5t-18 -44.5
v-40q0 -36 19.5 -45t52.5 -9h47q33 0 53 8.5t20 37.5v48z" />
    <glyph glyph-name="AE" unicode="&#xc6;" horiz-adv-x="1383" 
d="M660 0v577h-111l-411 -577h-128l447 627q11 17 29.5 29.5t45.5 12.5h838l-71 -92h-531v-201h571l-62 -80h-509v-205h607l-71 -91h-644z" />
    <glyph glyph-name="Ccedilla" unicode="&#xc7;" horiz-adv-x="856" 
d="M425 0q-83 0 -153.5 26t-122 71.5t-80.5 108t-29 135.5t29 133.5t80.5 104t122 67t153.5 23.5h423l-71 -92h-352q-49 0 -98.5 -14t-89 -43.5t-64.5 -75t-25 -108.5t26 -109t71 -76t106.5 -45t132.5 -15h364l-71 -91h-352zM412 -255l19 224h83l-62 -224h-40z" />
    <glyph glyph-name="Egrave" unicode="&#xc8;" horiz-adv-x="782" 
d="M60 0zM60 0v669h710l-71 -92h-531v-201h571l-62 -80h-509v-205h607l-71 -91h-644zM233 805v62l289 -106v-46z" />
    <glyph glyph-name="Eacute" unicode="&#xc9;" horiz-adv-x="782" 
d="M60 0zM60 0v669h710l-71 -92h-531v-201h571l-62 -80h-509v-205h607l-71 -91h-644zM281 715v46l289 106v-62z" />
    <glyph glyph-name="Ecircumflex" unicode="&#xca;" horiz-adv-x="782" 
d="M60 0zM60 0v669h710l-71 -92h-531v-201h571l-62 -80h-509v-205h607l-71 -91h-644zM506 715l-95 123h-5l-95 -123h-58l119 152h74l117 -152h-57z" />
    <glyph glyph-name="Edieresis" unicode="&#xcb;" horiz-adv-x="782" 
d="M60 0zM60 0v669h710l-71 -92h-531v-201h571l-62 -80h-509v-205h607l-71 -91h-644zM564 804q0 -20 -15 -31.5t-36 -11.5t-35.5 11.5t-14.5 31.5q0 21 14.5 32.5t35.5 11.5t36 -11.5t15 -32.5zM360 804q0 -20 -14.5 -31.5t-36.5 -11.5q-20 0 -35 11.5t-15 31.5
q0 21 15 32.5t35 11.5q22 0 36.5 -11.5t14.5 -32.5z" />
    <glyph glyph-name="Igrave" unicode="&#xcc;" horiz-adv-x="234" 
d="M0 0zM62 0v669h108v-669h-108zM-55 805v62l289 -106v-46z" />
    <glyph glyph-name="Iacute" unicode="&#xcd;" horiz-adv-x="234" 
d="M1 0zM62 0v669h108v-669h-108zM1 715v46l289 106v-62z" />
    <glyph glyph-name="Icircumflex" unicode="&#xce;" horiz-adv-x="234" 
d="M0 0zM62 0v669h108v-669h-108zM216 715l-95 123h-5l-95 -123h-58l119 152h74l117 -152h-57z" />
    <glyph glyph-name="Idieresis" unicode="&#xcf;" horiz-adv-x="234" 
d="M0 0zM62 0v669h108v-669h-108zM271 804q0 -20 -15 -31.5t-36 -11.5t-35.5 11.5t-14.5 31.5q0 21 14.5 32.5t35.5 11.5t36 -11.5t15 -32.5zM67 804q0 -20 -14.5 -31.5t-36.5 -11.5q-20 0 -35 11.5t-15 31.5q0 21 15 32.5t35 11.5q22 0 36.5 -11.5t14.5 -32.5z" />
    <glyph glyph-name="Eth" unicode="&#xd0;" horiz-adv-x="962" 
d="M132 0v300h-132l62 80h522l-63 -80h-282v-209h308q57 0 106 19t84.5 52t56 78t20.5 96q0 65 -20 111t-55.5 75t-84.5 42t-107 13h-415l69 92h346q81 0 150 -24t119 -67.5t78 -104t28 -132.5q0 -73 -28.5 -135.5t-78.5 -108t-118.5 -71.5t-149.5 -26h-415z" />
    <glyph glyph-name="Ntilde" unicode="&#xd1;" horiz-adv-x="856" 
d="M57 0zM155 528v-528h-98v610q0 36 18 52t42 16q11 0 22 -4t25 -17l537 -514v526h99v-607q0 -36 -18.5 -52t-42.5 -16q-11 0 -21.5 3.5t-24.5 16.5zM558 782q-14 -24 -32.5 -33.5t-41.5 -9.5q-20 0 -37 9.5t-34 21t-34 21t-35 9.5q-22 0 -41 -12t-34 -40v52q14 24 33 33
t42 9q19 0 36.5 -9.5t34 -20.5t33.5 -20.5t36 -9.5q22 0 40.5 11.5t33.5 40.5v-52z" />
    <glyph glyph-name="Ograve" unicode="&#xd2;" horiz-adv-x="978" 
d="M40 0zM938 335q0 -179 -112.5 -262.5t-336.5 -83.5t-336.5 83.5t-112.5 262.5t112.5 262t336.5 83t336.5 -83t112.5 -262zM830 335q0 70 -20 118.5t-61.5 78.5t-106 43.5t-153.5 13.5t-153.5 -13.5t-106 -43.5t-61.5 -78.5t-20 -118.5q0 -71 20 -119.5t61.5 -78.5
t106 -43.5t153.5 -13.5t153.5 13.5t106 43.5t61.5 78.5t20 119.5zM316 805v62l289 -106v-46z" />
    <glyph glyph-name="Oacute" unicode="&#xd3;" horiz-adv-x="978" 
d="M40 0zM938 335q0 -179 -112.5 -262.5t-336.5 -83.5t-336.5 83.5t-112.5 262.5t112.5 262t336.5 83t336.5 -83t112.5 -262zM830 335q0 70 -20 118.5t-61.5 78.5t-106 43.5t-153.5 13.5t-153.5 -13.5t-106 -43.5t-61.5 -78.5t-20 -118.5q0 -71 20 -119.5t61.5 -78.5
t106 -43.5t153.5 -13.5t153.5 13.5t106 43.5t61.5 78.5t20 119.5zM372 715v46l289 106v-62z" />
    <glyph glyph-name="Ocircumflex" unicode="&#xd4;" horiz-adv-x="978" 
d="M40 0zM938 335q0 -179 -112.5 -262.5t-336.5 -83.5t-336.5 83.5t-112.5 262.5t112.5 262t336.5 83t336.5 -83t112.5 -262zM830 335q0 70 -20 118.5t-61.5 78.5t-106 43.5t-153.5 13.5t-153.5 -13.5t-106 -43.5t-61.5 -78.5t-20 -118.5q0 -71 20 -119.5t61.5 -78.5
t106 -43.5t153.5 -13.5t153.5 13.5t106 43.5t61.5 78.5t20 119.5zM587 715l-95 123h-5l-95 -123h-58l119 152h74l117 -152h-57z" />
    <glyph glyph-name="Otilde" unicode="&#xd5;" horiz-adv-x="978" 
d="M40 0zM938 335q0 -179 -112.5 -262.5t-336.5 -83.5t-336.5 83.5t-112.5 262.5t112.5 262t336.5 83t336.5 -83t112.5 -262zM830 335q0 70 -20 118.5t-61.5 78.5t-106 43.5t-153.5 13.5t-153.5 -13.5t-106 -43.5t-61.5 -78.5t-20 -118.5q0 -71 20 -119.5t61.5 -78.5
t106 -43.5t153.5 -13.5t153.5 13.5t106 43.5t61.5 78.5t20 119.5zM633 782q-14 -24 -32.5 -33.5t-41.5 -9.5q-20 0 -37 9.5t-34 21t-34 21t-35 9.5q-22 0 -41 -12t-34 -40v52q14 24 33 33t42 9q19 0 36.5 -9.5t34 -20.5t33.5 -20.5t36 -9.5q22 0 40.5 11.5t33.5 40.5v-52z
" />
    <glyph glyph-name="Odieresis" unicode="&#xd6;" horiz-adv-x="978" 
d="M40 0zM938 335q0 -179 -112.5 -262.5t-336.5 -83.5t-336.5 83.5t-112.5 262.5t112.5 262t336.5 83t336.5 -83t112.5 -262zM830 335q0 70 -20 118.5t-61.5 78.5t-106 43.5t-153.5 13.5t-153.5 -13.5t-106 -43.5t-61.5 -78.5t-20 -118.5q0 -71 20 -119.5t61.5 -78.5
t106 -43.5t153.5 -13.5t153.5 13.5t106 43.5t61.5 78.5t20 119.5zM641 804q0 -20 -15 -31.5t-36 -11.5t-35.5 11.5t-14.5 31.5q0 21 14.5 32.5t35.5 11.5t36 -11.5t15 -32.5zM437 804q0 -20 -14.5 -31.5t-36.5 -11.5q-20 0 -35 11.5t-15 31.5q0 21 15 32.5t35 11.5
q22 0 36.5 -11.5t14.5 -32.5z" />
    <glyph glyph-name="multiply" unicode="&#xd7;" horiz-adv-x="625" 
d="M484 126l-173 171l-171 -171l-43 43l172 172l-172 171l43 43l171 -172l173 173l42 -44l-171 -171l171 -173z" />
    <glyph glyph-name="Oslash" unicode="&#xd8;" horiz-adv-x="978" 
d="M112 -21l70 72q-142 84 -142 284q0 179 112.5 262t336.5 83q164 0 266 -45l80 81l29 -26l-70 -72q144 -83 144 -283q0 -179 -112.5 -262.5t-336.5 -83.5q-84 0 -149.5 11t-119.5 34l-80 -81zM297 110q37 -16 84.5 -23t107.5 -7q89 0 153.5 13.5t106 43.5t61.5 78.5
t20 119.5q0 81 -25.5 133t-82.5 81zM678 560q-78 29 -189 29q-89 0 -153.5 -13.5t-106 -43.5t-61.5 -78.5t-20 -118.5q0 -81 25.5 -133t80.5 -81z" />
    <glyph glyph-name="Ugrave" unicode="&#xd9;" horiz-adv-x="918" 
d="M51 0zM758 669h109v-377q0 -303 -388 -303q-224 0 -326 75.5t-102 227.5v377h108v-377q0 -56 17.5 -96.5t56 -66.5t99 -38t147.5 -12t141 12t85 38t42 66.5t11 96.5v377zM285 805v62l289 -106v-46z" />
    <glyph glyph-name="Uacute" unicode="&#xda;" horiz-adv-x="918" 
d="M51 0zM758 669h109v-377q0 -303 -388 -303q-224 0 -326 75.5t-102 227.5v377h108v-377q0 -56 17.5 -96.5t56 -66.5t99 -38t147.5 -12t141 12t85 38t42 66.5t11 96.5v377zM342 715v46l289 106v-62z" />
    <glyph glyph-name="Ucircumflex" unicode="&#xdb;" horiz-adv-x="918" 
d="M51 0zM758 669h109v-377q0 -303 -388 -303q-224 0 -326 75.5t-102 227.5v377h108v-377q0 -56 17.5 -96.5t56 -66.5t99 -38t147.5 -12t141 12t85 38t42 66.5t11 96.5v377zM556 715l-95 123h-5l-95 -123h-58l119 152h74l117 -152h-57z" />
    <glyph glyph-name="Udieresis" unicode="&#xdc;" horiz-adv-x="918" 
d="M51 0zM758 669h109v-377q0 -303 -388 -303q-224 0 -326 75.5t-102 227.5v377h108v-377q0 -56 17.5 -96.5t56 -66.5t99 -38t147.5 -12t141 12t85 38t42 66.5t11 96.5v377zM612 804q0 -20 -15 -31.5t-36 -11.5t-35.5 11.5t-14.5 31.5q0 21 14.5 32.5t35.5 11.5t36 -11.5
t15 -32.5zM408 804q0 -20 -14.5 -31.5t-36.5 -11.5q-20 0 -35 11.5t-15 31.5q0 21 15 32.5t35 11.5q22 0 36.5 -11.5t14.5 -32.5z" />
    <glyph glyph-name="Yacute" unicode="&#xdd;" horiz-adv-x="961" 
d="M7 0zM430 0v248l-423 421h140l339 -339l332 339h137l-417 -421v-248h-108zM344 715v46l289 106v-62z" />
    <glyph glyph-name="Thorn" unicode="&#xde;" horiz-adv-x="878" 
d="M266 98l73 92h214q82 0 131.5 35t49.5 101t-49.5 99.5t-131.5 33.5h-385v-459h-108v669h108v-120h374q69 0 125 -14.5t95 -43t60 -70t21 -95.5q0 -53 -21 -95t-60 -71.5t-94.5 -45.5t-124.5 -16h-277z" />
    <glyph glyph-name="germandbls" unicode="&#xdf;" horiz-adv-x="1808" 
d="M22 0zM22 0l71 91h525q153 0 153 106q0 33 -13.5 52.5t-39 30t-62.5 13.5t-83 3h-270q-129 0 -188.5 47t-59.5 135q0 91 64 141t202 50h541l-70 -92h-479q-153 0 -153 -106q0 -32 13 -51t38.5 -28.5t62 -12.5t84.5 -3h270q247 0 247 -180q0 -96 -63.5 -146t-201.5 -50
h-588zM926 0l71 91h525q153 0 153 106q0 33 -13.5 52.5t-39 30t-62.5 13.5t-83 3h-270q-129 0 -188.5 47t-59.5 135q0 91 64 141t202 50h541l-70 -92h-479q-153 0 -153 -106q0 -32 13 -51t38.5 -28.5t62 -12.5t84.5 -3h270q247 0 247 -180q0 -96 -63.5 -146t-201.5 -50h-588
z" />
    <glyph glyph-name="agrave" unicode="&#xe0;" 
d="M10 0zM289 0l66 91h466l-308 464l-375 -555h-128l434 637q11 16 28.5 28.5t42.5 12.5q24 0 42 -12t29 -29l428 -637h-725zM338 805v62l289 -106v-46z" />
    <glyph glyph-name="aacute" unicode="&#xe1;" 
d="M10 0zM289 0l66 91h466l-308 464l-375 -555h-128l434 637q11 16 28.5 28.5t42.5 12.5q24 0 42 -12t29 -29l428 -637h-725zM395 715v46l289 106v-62z" />
    <glyph glyph-name="acircumflex" unicode="&#xe2;" 
d="M10 0zM289 0l66 91h466l-308 464l-375 -555h-128l434 637q11 16 28.5 28.5t42.5 12.5q24 0 42 -12t29 -29l428 -637h-725zM609 715l-95 123h-5l-95 -123h-58l119 152h74l117 -152h-57z" />
    <glyph glyph-name="atilde" unicode="&#xe3;" 
d="M10 0zM289 0l66 91h466l-308 464l-375 -555h-128l434 637q11 16 28.5 28.5t42.5 12.5q24 0 42 -12t29 -29l428 -637h-725zM656 782q-14 -24 -32.5 -33.5t-41.5 -9.5q-20 0 -37 9.5t-34 21t-34 21t-35 9.5q-22 0 -41 -12t-34 -40v52q14 24 33 33t42 9q19 0 36.5 -9.5
t34 -20.5t33.5 -20.5t36 -9.5q22 0 40.5 11.5t33.5 40.5v-52z" />
    <glyph glyph-name="adieresis" unicode="&#xe4;" 
d="M10 0zM289 0l66 91h466l-308 464l-375 -555h-128l434 637q11 16 28.5 28.5t42.5 12.5q24 0 42 -12t29 -29l428 -637h-725zM664 804q0 -20 -15 -31.5t-36 -11.5t-35.5 11.5t-14.5 31.5q0 21 14.5 32.5t35.5 11.5t36 -11.5t15 -32.5zM460 804q0 -20 -14.5 -31.5
t-36.5 -11.5q-20 0 -35 11.5t-15 31.5q0 21 15 32.5t35 11.5q22 0 36.5 -11.5t14.5 -32.5z" />
    <glyph glyph-name="aring" unicode="&#xe5;" 
d="M10 0zM289 0l66 91h466l-308 464l-375 -555h-128l434 637q11 16 28.5 28.5t42.5 12.5q24 0 42 -12t29 -29l428 -637h-725zM475 715q-104 0 -104 83v63q0 84 104 84h72q104 0 104 -84v-63q0 -83 -104 -83h-72zM607 849q0 35 -18 45t-55 10h-47q-36 0 -54 -10.5t-18 -44.5
v-40q0 -36 19.5 -45t52.5 -9h47q33 0 53 8.5t20 37.5v48z" />
    <glyph glyph-name="ae" unicode="&#xe6;" horiz-adv-x="1383" 
d="M10 0zM660 0v577h-111l-411 -577h-128l447 627q11 17 29.5 29.5t45.5 12.5h838l-71 -92h-531v-201h571l-62 -80h-509v-205h607l-71 -91h-644z" />
    <glyph glyph-name="ccedilla" unicode="&#xe7;" horiz-adv-x="856" 
d="M40 0zM425 0q-83 0 -153.5 26t-122 71.5t-80.5 108t-29 135.5t29 133.5t80.5 104t122 67t153.5 23.5h423l-71 -92h-352q-49 0 -98.5 -14t-89 -43.5t-64.5 -75t-25 -108.5t26 -109t71 -76t106.5 -45t132.5 -15h364l-71 -91h-352zM412 -255l19 224h83l-62 -224h-40z" />
    <glyph glyph-name="egrave" unicode="&#xe8;" horiz-adv-x="782" 
d="M60 0zM60 0v669h710l-71 -92h-531v-201h571l-62 -80h-509v-205h607l-71 -91h-644zM233 805v62l289 -106v-46z" />
    <glyph glyph-name="eacute" unicode="&#xe9;" horiz-adv-x="782" 
d="M60 0zM60 0v669h710l-71 -92h-531v-201h571l-62 -80h-509v-205h607l-71 -91h-644zM281 715v46l289 106v-62z" />
    <glyph glyph-name="ecircumflex" unicode="&#xea;" horiz-adv-x="782" 
d="M60 0zM60 0v669h710l-71 -92h-531v-201h571l-62 -80h-509v-205h607l-71 -91h-644zM506 715l-95 123h-5l-95 -123h-58l119 152h74l117 -152h-57z" />
    <glyph glyph-name="edieresis" unicode="&#xeb;" horiz-adv-x="782" 
d="M60 0zM60 0v669h710l-71 -92h-531v-201h571l-62 -80h-509v-205h607l-71 -91h-644zM564 804q0 -20 -15 -31.5t-36 -11.5t-35.5 11.5t-14.5 31.5q0 21 14.5 32.5t35.5 11.5t36 -11.5t15 -32.5zM360 804q0 -20 -14.5 -31.5t-36.5 -11.5q-20 0 -35 11.5t-15 31.5
q0 21 15 32.5t35 11.5q22 0 36.5 -11.5t14.5 -32.5z" />
    <glyph glyph-name="igrave" unicode="&#xec;" horiz-adv-x="234" 
d="M0 0zM62 0v669h108v-669h-108zM-55 805v62l289 -106v-46z" />
    <glyph glyph-name="iacute" unicode="&#xed;" horiz-adv-x="234" 
d="M1 0zM62 0v669h108v-669h-108zM1 715v46l289 106v-62z" />
    <glyph glyph-name="icircumflex" unicode="&#xee;" horiz-adv-x="234" 
d="M0 0zM62 0v669h108v-669h-108zM216 715l-95 123h-5l-95 -123h-58l119 152h74l117 -152h-57z" />
    <glyph glyph-name="idieresis" unicode="&#xef;" horiz-adv-x="234" 
d="M0 0zM62 0v669h108v-669h-108zM271 804q0 -20 -15 -31.5t-36 -11.5t-35.5 11.5t-14.5 31.5q0 21 14.5 32.5t35.5 11.5t36 -11.5t15 -32.5zM67 804q0 -20 -14.5 -31.5t-36.5 -11.5q-20 0 -35 11.5t-15 31.5q0 21 15 32.5t35 11.5q22 0 36.5 -11.5t14.5 -32.5z" />
    <glyph glyph-name="eth" unicode="&#xf0;" horiz-adv-x="962" 
d="M0 0zM132 0v300h-132l62 80h522l-63 -80h-282v-209h308q57 0 106 19t84.5 52t56 78t20.5 96q0 65 -20 111t-55.5 75t-84.5 42t-107 13h-415l69 92h346q81 0 150 -24t119 -67.5t78 -104t28 -132.5q0 -73 -28.5 -135.5t-78.5 -108t-118.5 -71.5t-149.5 -26h-415z" />
    <glyph glyph-name="ntilde" unicode="&#xf1;" horiz-adv-x="856" 
d="M57 0zM155 528v-528h-98v610q0 36 18 52t42 16q11 0 22 -4t25 -17l537 -514v526h99v-607q0 -36 -18.5 -52t-42.5 -16q-11 0 -21.5 3.5t-24.5 16.5zM558 782q-14 -24 -32.5 -33.5t-41.5 -9.5q-20 0 -37 9.5t-34 21t-34 21t-35 9.5q-22 0 -41 -12t-34 -40v52q14 24 33 33
t42 9q19 0 36.5 -9.5t34 -20.5t33.5 -20.5t36 -9.5q22 0 40.5 11.5t33.5 40.5v-52z" />
    <glyph glyph-name="ograve" unicode="&#xf2;" horiz-adv-x="978" 
d="M40 0zM938 335q0 -179 -112.5 -262.5t-336.5 -83.5t-336.5 83.5t-112.5 262.5t112.5 262t336.5 83t336.5 -83t112.5 -262zM830 335q0 70 -20 118.5t-61.5 78.5t-106 43.5t-153.5 13.5t-153.5 -13.5t-106 -43.5t-61.5 -78.5t-20 -118.5q0 -71 20 -119.5t61.5 -78.5
t106 -43.5t153.5 -13.5t153.5 13.5t106 43.5t61.5 78.5t20 119.5zM316 805v62l289 -106v-46z" />
    <glyph glyph-name="oacute" unicode="&#xf3;" horiz-adv-x="978" 
d="M40 0zM938 335q0 -179 -112.5 -262.5t-336.5 -83.5t-336.5 83.5t-112.5 262.5t112.5 262t336.5 83t336.5 -83t112.5 -262zM830 335q0 70 -20 118.5t-61.5 78.5t-106 43.5t-153.5 13.5t-153.5 -13.5t-106 -43.5t-61.5 -78.5t-20 -118.5q0 -71 20 -119.5t61.5 -78.5
t106 -43.5t153.5 -13.5t153.5 13.5t106 43.5t61.5 78.5t20 119.5zM372 715v46l289 106v-62z" />
    <glyph glyph-name="ocircumflex" unicode="&#xf4;" horiz-adv-x="978" 
d="M40 0zM938 335q0 -179 -112.5 -262.5t-336.5 -83.5t-336.5 83.5t-112.5 262.5t112.5 262t336.5 83t336.5 -83t112.5 -262zM830 335q0 70 -20 118.5t-61.5 78.5t-106 43.5t-153.5 13.5t-153.5 -13.5t-106 -43.5t-61.5 -78.5t-20 -118.5q0 -71 20 -119.5t61.5 -78.5
t106 -43.5t153.5 -13.5t153.5 13.5t106 43.5t61.5 78.5t20 119.5zM587 715l-95 123h-5l-95 -123h-58l119 152h74l117 -152h-57z" />
    <glyph glyph-name="otilde" unicode="&#xf5;" horiz-adv-x="978" 
d="M40 0zM938 335q0 -179 -112.5 -262.5t-336.5 -83.5t-336.5 83.5t-112.5 262.5t112.5 262t336.5 83t336.5 -83t112.5 -262zM830 335q0 70 -20 118.5t-61.5 78.5t-106 43.5t-153.5 13.5t-153.5 -13.5t-106 -43.5t-61.5 -78.5t-20 -118.5q0 -71 20 -119.5t61.5 -78.5
t106 -43.5t153.5 -13.5t153.5 13.5t106 43.5t61.5 78.5t20 119.5zM633 782q-14 -24 -32.5 -33.5t-41.5 -9.5q-20 0 -37 9.5t-34 21t-34 21t-35 9.5q-22 0 -41 -12t-34 -40v52q14 24 33 33t42 9q19 0 36.5 -9.5t34 -20.5t33.5 -20.5t36 -9.5q22 0 40.5 11.5t33.5 40.5v-52z
" />
    <glyph glyph-name="odieresis" unicode="&#xf6;" horiz-adv-x="978" 
d="M40 0zM938 335q0 -179 -112.5 -262.5t-336.5 -83.5t-336.5 83.5t-112.5 262.5t112.5 262t336.5 83t336.5 -83t112.5 -262zM830 335q0 70 -20 118.5t-61.5 78.5t-106 43.5t-153.5 13.5t-153.5 -13.5t-106 -43.5t-61.5 -78.5t-20 -118.5q0 -71 20 -119.5t61.5 -78.5
t106 -43.5t153.5 -13.5t153.5 13.5t106 43.5t61.5 78.5t20 119.5zM641 804q0 -20 -15 -31.5t-36 -11.5t-35.5 11.5t-14.5 31.5q0 21 14.5 32.5t35.5 11.5t36 -11.5t15 -32.5zM437 804q0 -20 -14.5 -31.5t-36.5 -11.5q-20 0 -35 11.5t-15 31.5q0 21 15 32.5t35 11.5
q22 0 36.5 -11.5t14.5 -32.5z" />
    <glyph glyph-name="divide" unicode="&#xf7;" horiz-adv-x="625" 
d="M40 78zM40 310v61h546v-61h-546zM376 529q0 -26 -19 -40.5t-46 -14.5q-26 0 -44.5 14.5t-18.5 40.5t18.5 40.5t44.5 14.5q27 0 46 -14.5t19 -40.5zM376 133q0 -26 -19 -40.5t-46 -14.5q-26 0 -44.5 14.5t-18.5 40.5t18.5 40.5t44.5 14.5q27 0 46 -14.5t19 -40.5z" />
    <glyph glyph-name="oslash" unicode="&#xf8;" horiz-adv-x="978" 
d="M40 0zM112 -21l70 72q-142 84 -142 284q0 179 112.5 262t336.5 83q164 0 266 -45l80 81l29 -26l-70 -72q144 -83 144 -283q0 -179 -112.5 -262.5t-336.5 -83.5q-84 0 -149.5 11t-119.5 34l-80 -81zM297 110q37 -16 84.5 -23t107.5 -7q89 0 153.5 13.5t106 43.5t61.5 78.5
t20 119.5q0 81 -25.5 133t-82.5 81zM678 560q-78 29 -189 29q-89 0 -153.5 -13.5t-106 -43.5t-61.5 -78.5t-20 -118.5q0 -81 25.5 -133t80.5 -81z" />
    <glyph glyph-name="ugrave" unicode="&#xf9;" horiz-adv-x="918" 
d="M51 0zM758 669h109v-377q0 -303 -388 -303q-224 0 -326 75.5t-102 227.5v377h108v-377q0 -56 17.5 -96.5t56 -66.5t99 -38t147.5 -12t141 12t85 38t42 66.5t11 96.5v377zM285 805v62l289 -106v-46z" />
    <glyph glyph-name="uacute" unicode="&#xfa;" horiz-adv-x="918" 
d="M51 0zM758 669h109v-377q0 -303 -388 -303q-224 0 -326 75.5t-102 227.5v377h108v-377q0 -56 17.5 -96.5t56 -66.5t99 -38t147.5 -12t141 12t85 38t42 66.5t11 96.5v377zM342 715v46l289 106v-62z" />
    <glyph glyph-name="ucircumflex" unicode="&#xfb;" horiz-adv-x="918" 
d="M51 0zM758 669h109v-377q0 -303 -388 -303q-224 0 -326 75.5t-102 227.5v377h108v-377q0 -56 17.5 -96.5t56 -66.5t99 -38t147.5 -12t141 12t85 38t42 66.5t11 96.5v377zM556 715l-95 123h-5l-95 -123h-58l119 152h74l117 -152h-57z" />
    <glyph glyph-name="udieresis" unicode="&#xfc;" horiz-adv-x="918" 
d="M51 0zM758 669h109v-377q0 -303 -388 -303q-224 0 -326 75.5t-102 227.5v377h108v-377q0 -56 17.5 -96.5t56 -66.5t99 -38t147.5 -12t141 12t85 38t42 66.5t11 96.5v377zM612 804q0 -20 -15 -31.5t-36 -11.5t-35.5 11.5t-14.5 31.5q0 21 14.5 32.5t35.5 11.5t36 -11.5
t15 -32.5zM408 804q0 -20 -14.5 -31.5t-36.5 -11.5q-20 0 -35 11.5t-15 31.5q0 21 15 32.5t35 11.5q22 0 36.5 -11.5t14.5 -32.5z" />
    <glyph glyph-name="yacute" unicode="&#xfd;" horiz-adv-x="961" 
d="M7 0zM430 0v248l-423 421h140l339 -339l332 339h137l-417 -421v-248h-108zM344 715v46l289 106v-62z" />
    <glyph glyph-name="thorn" unicode="&#xfe;" horiz-adv-x="878" 
d="M60 0zM266 98l73 92h214q82 0 131.5 35t49.5 101t-49.5 99.5t-131.5 33.5h-385v-459h-108v669h108v-120h374q69 0 125 -14.5t95 -43t60 -70t21 -95.5q0 -53 -21 -95t-60 -71.5t-94.5 -45.5t-124.5 -16h-277z" />
    <glyph glyph-name="ydieresis" unicode="&#xff;" horiz-adv-x="961" 
d="M7 0zM430 0v248l-423 421h140l339 -339l332 339h137l-417 -421v-248h-108zM632 804q0 -20 -15 -31.5t-36 -11.5t-35.5 11.5t-14.5 31.5q0 21 14.5 32.5t35.5 11.5t36 -11.5t15 -32.5zM428 804q0 -20 -14.5 -31.5t-36.5 -11.5q-20 0 -35 11.5t-15 31.5q0 21 15 32.5
t35 11.5q22 0 36.5 -11.5t14.5 -32.5z" />
    <glyph glyph-name="dotlessi" unicode="&#x131;" horiz-adv-x="234" 
d="M62 0zM62 0v669h108v-669h-108z" />
    <glyph glyph-name="OE" unicode="&#x152;" horiz-adv-x="1432" 
d="M724 0q-17 -3 -46.5 -5t-63.5 -3.5t-67.5 -2t-57.5 -0.5q-224 0 -336.5 83.5t-112.5 262.5t112.5 262t336.5 83q24 0 57.5 -0.5t67.5 -2t63.5 -3.5t46.5 -5h696l-70 -92h-518v-201h557l-63 -80h-494v-205h592l-70 -91h-630zM724 574q-17 4 -46.5 6.5t-63 4.5t-67 3
t-58.5 1q-89 0 -153.5 -13.5t-106 -43.5t-61.5 -78.5t-20 -118.5q0 -71 20 -119.5t61.5 -78.5t106 -43.5t153.5 -13.5q25 0 58.5 0.5t67 2.5t63 5t46.5 8v478z" />
    <glyph glyph-name="oe" unicode="&#x153;" horiz-adv-x="1432" 
d="M40 0zM724 0q-17 -3 -46.5 -5t-63.5 -3.5t-67.5 -2t-57.5 -0.5q-224 0 -336.5 83.5t-112.5 262.5t112.5 262t336.5 83q24 0 57.5 -0.5t67.5 -2t63.5 -3.5t46.5 -5h696l-70 -92h-518v-201h557l-63 -80h-494v-205h592l-70 -91h-630zM724 574q-17 4 -46.5 6.5t-63 4.5t-67 3
t-58.5 1q-89 0 -153.5 -13.5t-106 -43.5t-61.5 -78.5t-20 -118.5q0 -71 20 -119.5t61.5 -78.5t106 -43.5t153.5 -13.5q25 0 58.5 0.5t67 2.5t63 5t46.5 8v478z" />
    <glyph glyph-name="circumflex" unicode="&#x2c6;" horiz-adv-x="399" 
d="M297 715l-95 123h-5l-95 -123h-58l119 152h74l117 -152h-57z" />
    <glyph glyph-name="ring" unicode="&#x2da;" horiz-adv-x="369" 
d="M148 715q-104 0 -104 83v63q0 84 104 84h72q104 0 104 -84v-63q0 -83 -104 -83h-72zM280 849q0 35 -18 45t-55 10h-47q-36 0 -54 -10.5t-18 -44.5v-40q0 -36 19.5 -45t52.5 -9h47q33 0 53 8.5t20 37.5v48z" />
    <glyph glyph-name="tilde" unicode="&#x2dc;" horiz-adv-x="379" 
d="M333 782q-14 -24 -32.5 -33.5t-41.5 -9.5q-20 0 -37 9.5t-34 21t-34 21t-35 9.5q-22 0 -41 -12t-34 -40v52q14 24 33 33t42 9q19 0 36.5 -9.5t34 -20.5t33.5 -20.5t36 -9.5q22 0 40.5 11.5t33.5 40.5v-52z" />
    <glyph glyph-name="endash" unicode="&#x2013;" horiz-adv-x="561" 
d="M14 303l54 70h481l-55 -70h-480z" />
    <glyph glyph-name="emdash" unicode="&#x2014;" horiz-adv-x="938" 
d="M14 303l54 70h858l-55 -70h-857z" />
    <glyph glyph-name="quoteleft" unicode="&#x2018;" horiz-adv-x="152" 
d="M89 401l-73 268h100l20 -268h-47z" />
    <glyph glyph-name="quoteright" unicode="&#x2019;" horiz-adv-x="152" 
d="M16 401l20 268h100l-74 -268h-46z" />
    <glyph glyph-name="quotesinglbase" unicode="&#x201a;" horiz-adv-x="152" 
d="M16 -96l20 268h100l-74 -268h-46z" />
    <glyph glyph-name="quotedblleft" unicode="&#x201c;" horiz-adv-x="332" 
d="M269 401l-73 268h100l20 -268h-47zM89 401l-73 268h100l20 -268h-47z" />
    <glyph glyph-name="quotedblright" unicode="&#x201d;" horiz-adv-x="332" 
d="M16 401l20 268h100l-74 -268h-46zM196 401l20 268h100l-74 -268h-46z" />
    <glyph glyph-name="quotedblbase" unicode="&#x201e;" horiz-adv-x="332" 
d="M16 -96l20 268h100l-74 -268h-46zM196 -96l20 268h100l-74 -268h-46z" />
    <glyph glyph-name="dagger" unicode="&#x2020;" horiz-adv-x="411" 
d="M193 0l-15 429l-138 21l138 22l15 197h17l16 -197l137 -22l-137 -21l-15 -429h-18z" />
    <glyph glyph-name="daggerdbl" unicode="&#x2021;" horiz-adv-x="420" 
d="M197 0l-15 171l-137 17l136 29v235l-137 20l138 26l15 171h17l14 -171l137 -18l-136 -29v-234l136 -29l-137 -17l-14 -171h-17z" />
    <glyph glyph-name="bullet" unicode="&#x2022;" horiz-adv-x="372" 
d="M185 204q-26 0 -49.5 10.5t-41 28t-28 41.5t-10.5 51t10.5 50.5t28 41t41 28t49.5 10.5q27 0 51 -10.5t41.5 -28t28 -41t10.5 -50.5t-10.5 -51t-28 -41.5t-41.5 -28t-51 -10.5z" />
    <glyph glyph-name="ellipsis" unicode="&#x2026;" horiz-adv-x="1032" 
d="M40 0zM168 46q0 -26 -19 -40.5t-46 -14.5q-26 0 -44.5 14.5t-18.5 40.5t18.5 40.5t44.5 14.5q27 0 46 -14.5t19 -40.5zM581 46q0 -26 -19 -40.5t-46 -14.5q-26 0 -44.5 14.5t-18.5 40.5t18.5 40.5t44.5 14.5q27 0 46 -14.5t19 -40.5zM993 46q0 -26 -19 -40.5t-46 -14.5
q-26 0 -44.5 14.5t-18.5 40.5t18.5 40.5t44.5 14.5q27 0 46 -14.5t19 -40.5z" />
    <glyph glyph-name="perthousand" unicode="&#x2030;" horiz-adv-x="1244" 
d="M40 0zM430 520q0 -91 -48 -132t-147 -41t-147 41t-48 132t48 131.5t147 40.5t147 -40.5t48 -131.5zM376 520q0 71 -34 99t-107 28q-74 0 -108 -28t-34 -99t34 -99.5t108 -28.5q73 0 107 28.5t34 99.5zM116 -38l550 744h48l-547 -744h-51zM787 158q0 -91 -48 -132
t-147 -41t-147 41t-48 132t48 131.5t147 40.5t147 -40.5t48 -131.5zM733 158q0 71 -34 99t-107 28q-74 0 -108 -28t-34 -99t34 -99.5t108 -28.5q73 0 107 28.5t34 99.5zM1205 158q0 -91 -48 -132t-147 -41t-147 41t-48 132t48 131.5t147 40.5t147 -40.5t48 -131.5zM1151 158
q0 71 -34 99t-107 28q-74 0 -108 -28t-34 -99t34 -99.5t108 -28.5q73 0 107 28.5t34 99.5z" />
    <glyph glyph-name="guilsinglleft" unicode="&#x2039;" horiz-adv-x="241" 
d="M27 298v49l175 135v-54l-140 -103l140 -104v-53z" />
    <glyph glyph-name="guilsinglright" unicode="&#x203a;" horiz-adv-x="241" 
d="M44 168v53l139 104l-139 103v54l174 -135v-49z" />
    <glyph glyph-name="fraction" unicode="&#x2044;" horiz-adv-x="275" 
d="M-156 -38l550 744h48l-547 -744h-51z" />
    <glyph glyph-name="uni2074" unicode="&#x2074;" horiz-adv-x="470" 
d="M27 353zM318 353v59h-263q-13 0 -20.5 7.5t-7.5 17.5q0 12 13 22l267 216q7 6 14.5 10.5t18.5 4.5q12 0 21 -8t9 -25v-201h83l-32 -44h-51v-59h-52zM318 626l-212 -170h212v170z" />
    <glyph glyph-name="uni2080" horiz-adv-x="458" 
d="M424 158q0 -91 -48 -132t-147 -41t-147 41t-48 132t48 131.5t147 40.5t147 -40.5t48 -131.5zM370 158q0 71 -34 99t-107 28q-74 0 -108 -28t-34 -99t34 -99.5t108 -28.5q73 0 107 28.5t34 99.5z" />
    <glyph glyph-name="uni2081" horiz-adv-x="200" 
d="M101 -9v288l-30 -41h-51l62 87h73v-334h-54z" />
    <glyph glyph-name="uni2082" horiz-adv-x="468" 
d="M37 -9v98q0 46 30 67.5t87 21.5h146q42 0 59.5 13t17.5 37q0 29 -26 40t-78 11h-217l35 46h204q73 0 103.5 -26t30.5 -68t-29 -67.5t-95 -25.5h-146q-35 0 -52.5 -11t-17.5 -37v-54h345l-35 -45h-362z" />
    <glyph glyph-name="uni2083" horiz-adv-x="450" 
d="M18 -9l35 45h242q12 0 24 2.5t21.5 8.5t15.5 16t6 26q0 23 -15 36t-38 13h-199l28 41h171q17 0 33 14t16 34q0 52 -61 52h-265l35 46h228q54 0 84.5 -22.5t30.5 -67.5q0 -31 -17.5 -49.5t-34.5 -23.5q22 -6 40 -25t18 -54q0 -39 -27 -65.5t-95 -26.5h-276z" />
    <glyph glyph-name="uni2084" horiz-adv-x="470" 
d="M318 -9v59h-263q-13 0 -20.5 7.5t-7.5 17.5q0 12 13 22l267 216q7 6 14.5 10.5t18.5 4.5q12 0 21 -8t9 -25v-201h83l-32 -44h-51v-59h-52zM318 264l-212 -170h212v170z" />
    <glyph glyph-name="Euro" unicode="&#x20ac;" horiz-adv-x="821" 
d="M466 0q-67 0 -126 17t-107 48t-82.5 74t-52.5 95h-94l54 70h25q-3 16 -3 37q0 8 0.5 16t1.5 16h-78l54 70h39q18 52 52.5 93.5t82 71t107 45.5t127.5 16h333l-71 -92h-262q-38 0 -75 -8t-71 -24.5t-61.5 -42t-45.5 -59.5h411l-54 -70h-380q-2 -5 -2 -11v-11v-15v-13v-9.5
t2 -9.5h326l-54 -70h-251q18 -36 49 -63t71.5 -45t89.5 -26.5t103 -8.5h173l-71 -91h-160z" />
    <glyph glyph-name="minus" unicode="&#x2212;" horiz-adv-x="625" 
d="M40 310v61h546v-61h-546z" />
    <glyph glyph-name=".ttfautohint" horiz-adv-x="625" 
d="M0 0z" />
    </font>
</defs>
</svg>
