<?xml version="1.0" standalone="no"?>
<!DOCTYPE svg PUBLIC "-//W3C//DTD SVG 1.1//EN" "http://www.w3.org/Graphics/SVG/1.1/DTD/svg11.dtd" >
<svg xmlns="http://www.w3.org/2000/svg" xmlns:xlink="http://www.w3.org/1999/xlink" version="1.1">
<metadata>
Created by FontForge 20170910 at Fri Jan  5 02:06:29 2018
 By Jimmy Wärting
(c) 1999-2009 Ray Larabie. See attached license agreement for more information. If EULA is missing, visit www.larabiefonts.com for an updated version of this font.
</metadata>
<defs>
<font id="EthnocentricW00-LightIt" horiz-adv-x="1023" >
  <font-face 
    font-family="EthnocentricW00-LightIt"
    font-weight="300"
    font-style="italic"
    font-stretch="normal"
    units-per-em="1000"
    panose-1="2 0 4 0 0 0 0 0 0 0"
    ascent="800"
    descent="-200"
    cap-height="669"
    bbox="-163 -255 1884 945"
    underline-thickness="50"
    underline-position="-175"
    slope="-10"
    unicode-range="U+0017-2212"
  />
<missing-glyph horiz-adv-x="428" 
d="M122 0q-92 0 -92 79v510q0 80 92 80h183q92 0 92 -80v-510q0 -79 -92 -79h-183zM348 589q0 37 -43 37h-183q-43 0 -43 -37v-510q0 -36 43 -36h183q43 0 43 36v510z" />
    <glyph glyph-name=".notdef" horiz-adv-x="428" 
d="M122 0q-92 0 -92 79v510q0 80 92 80h183q92 0 92 -80v-510q0 -79 -92 -79h-183zM348 589q0 37 -43 37h-183q-43 0 -43 -37v-510q0 -36 43 -36h183q43 0 43 36v510z" />
    <glyph glyph-name=".null" horiz-adv-x="0" 
 />
    <glyph glyph-name="nonmarkingreturn" horiz-adv-x="333" 
 />
    <glyph glyph-name="glyph383" horiz-adv-x="0" 
 />
    <glyph glyph-name="glyph383" horiz-adv-x="0" 
 />
    <glyph glyph-name="uni0017" horiz-adv-x="363" 
 />
    <glyph glyph-name="space" unicode=" " horiz-adv-x="363" 
 />
    <glyph glyph-name="exclam" unicode="!" horiz-adv-x="221" 
d="M102 187l23 203l49 279h112l-49 -279l-50 -203h-85zM186 55q0 -30 -22.5 -47t-52.5 -17q-24 0 -39 12.5t-15 34.5q0 30 22.5 46.5t51.5 16.5q24 0 39.5 -12t15.5 -34z" />
    <glyph glyph-name="quotedbl" unicode="&#x22;" horiz-adv-x="304" 
d="M120 401l14 268h102l-82 -268h-34zM291 401l14 268h101l-81 -268h-34z" />
    <glyph glyph-name="numbersign" unicode="#" horiz-adv-x="645" 
d="M284 0l95 194h-141l-94 -194h-63l95 194h-114l36 76h115l76 152h-116l37 77h116l83 170h62l-83 -170h140l83 170h63l-84 -170h126l-37 -77h-125l-76 -152h128l-37 -76h-128l-95 -194h-62zM491 422h-140l-76 -152h140z" />
    <glyph glyph-name="dollar" unicode="$" horiz-adv-x="634" 
d="M302 0l19 108h-269l63 65h217l26 145h-70q-156 0 -156 105q0 75 52.5 116t161.5 41h58l16 89h47l-17 -89h241l-64 -66h-188l-25 -144h73q157 0 157 -101q0 -76 -51.5 -118.5t-163.5 -42.5h-62l-19 -108h-46zM434 173q70 0 101.5 21t31.5 66q0 34 -26 46t-80 12h-57
l-25 -145h55zM393 514h-63q-63 0 -92.5 -21t-29.5 -66q0 -32 24 -44.5t72 -12.5h63z" />
    <glyph glyph-name="percent" unicode="%" horiz-adv-x="909" 
d="M126 0zM524 565q0 -103 -60 -160.5t-169 -57.5q-85 0 -127 31t-42 97q0 56 16.5 97t46.5 67.5t72.5 39.5t94.5 13q85 0 126.5 -30.5t41.5 -96.5zM303 392q81 0 124 40.5t43 125.5q0 48 -29.5 68.5t-92.5 20.5q-79 0 -123.5 -37t-44.5 -130q0 -48 30 -68t93 -20zM149 -38
l682 744h48l-679 -744h-51zM901 203q0 -103 -60 -160.5t-169 -57.5q-85 0 -127 31t-42 97q0 56 16.5 97t46.5 67.5t72.5 39.5t94.5 13q85 0 126.5 -30.5t41.5 -96.5zM680 30q81 0 124 40.5t43 125.5q0 48 -29.5 68.5t-92.5 20.5q-79 0 -123.5 -37t-44.5 -130q0 -48 30 -68
t93 -20z" />
    <glyph glyph-name="ampersand" unicode="&#x26;" horiz-adv-x="787" 
d="M282 0q-59 0 -99.5 12t-66 32.5t-36.5 48.5t-11 60q0 42 13.5 74.5t34.5 56.5t47.5 39t53.5 21q-31 8 -57 39t-26 82q0 48 19 85.5t53.5 64t83.5 40.5t109 14h255l-86 -92h-190q-66 0 -103.5 -29t-37.5 -89q0 -37 24.5 -59t57.5 -22h516l-70 -77h-147l-37 -210h214
l-86 -91h-428zM531 301h-222q-26 0 -49 -8.5t-40.5 -24.5t-28 -38.5t-10.5 -50.5q0 -42 32 -65t104 -23h177z" />
    <glyph glyph-name="quotesingle" unicode="'" horiz-adv-x="133" 
d="M120 401l14 268h102l-82 -268h-34z" />
    <glyph glyph-name="parenleft" unicode="(" horiz-adv-x="297" 
d="M173 -129q-24 81 -35 168.5t-11 161.5q0 76 12 145.5t37.5 140t64.5 145.5t93 161h63q-56 -89 -96.5 -164t-66.5 -144t-38 -135t-12 -138q0 -73 12.5 -162t38.5 -179h-62z" />
    <glyph glyph-name="parenright" unicode=")" horiz-adv-x="297" 
d="M17 -129q60 93 101 170.5t66 146.5t35.5 132.5t10.5 129.5q0 75 -12 164t-37 179h62q22 -81 33.5 -168t11.5 -162q0 -69 -11 -136t-35.5 -138t-64.5 -149t-98 -169h-62z" />
    <glyph glyph-name="asterisk" unicode="*" horiz-adv-x="446" 
d="M396 318l-91 131l-90 -131l-38 28l90 130l-145 43l14 45l145 -43v148h48v-148l145 43l14 -45l-144 -43l90 -131z" />
    <glyph glyph-name="plus" unicode="+" horiz-adv-x="625" 
d="M294 67l43 243h-242l10 61h242l43 242h60l-42 -242h243l-10 -61h-244l-42 -243h-61z" />
    <glyph glyph-name="comma" unicode="," horiz-adv-x="209" 
d="M28 -96l68 268h114l-120 -268h-62z" />
    <glyph glyph-name="hyphen" unicode="-" horiz-adv-x="397" 
d="M67 303l66 70h316l-67 -70h-315z" />
    <glyph glyph-name="period" unicode="." horiz-adv-x="206" 
d="M177 55q0 -30 -22.5 -47t-53.5 -17q-23 0 -38.5 12.5t-15.5 34.5q0 30 22.5 46.5t51.5 16.5q24 0 40 -12t16 -34z" />
    <glyph glyph-name="slash" unicode="/" horiz-adv-x="416" 
d="M-7 -38l482 744h66l-479 -744h-69z" />
    <glyph glyph-name="zero" unicode="0" horiz-adv-x="859" 
d="M888 410q0 -211 -113.5 -316t-346.5 -105q-170 0 -254 65t-84 206q0 209 113.5 314.5t346.5 105.5q167 0 252.5 -65.5t85.5 -204.5zM779 398q0 105 -60.5 148t-184.5 43q-94 0 -158 -18.5t-103.5 -57t-57 -98.5t-17.5 -143q0 -105 60.5 -148.5t185.5 -43.5q93 0 157 18.5
t103.5 57.5t57 99t17.5 143z" />
    <glyph glyph-name="one" unicode="1" horiz-adv-x="343" 
d="M174 0l102 577l-74 -82h-104l157 174h146l-118 -669h-109z" />
    <glyph glyph-name="two" unicode="2" horiz-adv-x="879" 
d="M45 0l35 198q16 91 83.5 134.5t182.5 43.5h292q93 0 133 30t40 84q0 50 -48.5 68.5t-143.5 18.5h-433l87 92h407q64 0 109.5 -11.5t74 -32t41.5 -49.5t13 -64q0 -46 -15.5 -85.5t-50 -68.5t-88.5 -45.5t-130 -16.5h-292q-69 0 -108 -23t-49 -74l-18 -108h689l-86 -91
h-725z" />
    <glyph glyph-name="three" unicode="3" horiz-adv-x="844" 
d="M9 0l86 91h483q28 0 56 6t50 20t35.5 37.5t13.5 59.5q0 39 -25 60.5t-67 21.5h-398l72 81h341q19 0 39.5 8.5t37.5 23.5t28.5 36t11.5 47q0 42 -27 63.5t-78 21.5h-529l86 92h455q96 0 148.5 -39t52.5 -111q0 -39 -13 -69t-32.5 -51.5t-43 -35.5t-44.5 -20
q36 -10 64 -42.5t28 -87.5q0 -41 -14 -79t-46.5 -68t-86 -48t-132.5 -18h-552z" />
    <glyph glyph-name="four" unicode="4" horiz-adv-x="885" 
d="M609 0l20 120h-526q-23 0 -34.5 12.5t-11.5 29.5q0 12 6.5 25t25.5 27l610 432q17 12 34.5 21.5t37.5 9.5q22 0 36 -12.5t14 -38.5v-8t-1 -9l-72 -403h167l-79 -86h-104l-20 -120h-103zM705 548l-485 -342h424z" />
    <glyph glyph-name="five" unicode="5" horiz-adv-x="829" 
d="M40 0l86 91h422q88 0 131 31t43 91q0 25 -12 41t-31.5 25.5t-44.5 13t-51 3.5h-462l66 373h704l-86 -92h-527l-36 -201h367q218 0 218 -149q0 -111 -74 -169t-229 -58h-484z" />
    <glyph glyph-name="six" unicode="6" horiz-adv-x="910" 
d="M515 577q-53 0 -100 -14.5t-86 -40.5t-67.5 -63t-43.5 -82h484q99 0 153.5 -37t54.5 -109q0 -73 -36.5 -120t-97 -74t-138.5 -37.5t-160 -10.5q-192 0 -289 68.5t-97 214.5q0 90 35 163.5t95.5 125.5t141 80t172.5 28h403l-87 -92h-337zM203 297q0 -8 -0.5 -16t-0.5 -16
q0 -52 19 -87.5t56.5 -57t93 -31t129.5 -9.5q73 0 130 7t96.5 23.5t60 43.5t20.5 67t-33.5 58t-93.5 18h-477z" />
    <glyph glyph-name="seven" unicode="7" horiz-adv-x="781" 
d="M151 0l580 577h-617l86 92h629q29 0 42 -12.5t13 -29.5t-14 -35t-33 -37l-549 -555h-137z" />
    <glyph glyph-name="eight" unicode="8" horiz-adv-x="876" 
d="M308 296q-26 0 -49 -8t-40.5 -22.5t-27.5 -36t-10 -48.5q0 -38 27 -64t90 -26h313q40 0 69.5 10t49 27.5t28.5 39.5t9 46q0 39 -25.5 60.5t-67.5 21.5h-366zM282 0q-59 0 -99.5 12t-66 32.5t-36.5 48.5t-11 60q0 42 13.5 74.5t34.5 56.5t47.5 39t53.5 21q-31 8 -57 39
t-26 82q0 48 19 85.5t53.5 64t83.5 40.5t109 14h314q94 0 147 -39t53 -111q0 -38 -13 -68t-32.5 -52t-43 -35.5t-44.5 -19.5q37 -10 64.5 -42t27.5 -89q0 -41 -14 -79t-46.5 -68t-86 -48t-132.5 -18h-312zM379 577q-66 0 -103.5 -30.5t-37.5 -87.5q0 -37 24 -60t58 -23h369
q21 0 42 8.5t37.5 23.5t27 36.5t10.5 47.5q0 42 -27 63.5t-78 21.5h-322z" />
    <glyph glyph-name="nine" unicode="9" horiz-adv-x="910" 
d="M99 0l86 91h330q66 0 117 16t88.5 45.5t60.5 70t33 90.5q-27 -6 -64.5 -11t-89.5 -8.5t-121 -5.5t-159 -2q-59 0 -107 8t-82.5 26t-53 47t-18.5 71q0 73 36.5 120t97 74t138.5 37.5t161 10.5q191 0 289 -67.5t98 -209.5q0 -91 -32.5 -165t-91.5 -127t-141 -82t-180 -29
h-395zM827 385q0 5 0.5 9t0.5 9q0 102 -76.5 144t-222.5 42q-72 0 -129 -7t-96.5 -23t-60.5 -42.5t-21 -66.5q0 -42 39 -62.5t111 -20.5q91 0 162 1t125.5 3t95.5 5.5t72 8.5z" />
    <glyph glyph-name="colon" unicode=":" horiz-adv-x="263" 
d="M202 55q0 -30 -22.5 -47t-52.5 -17q-24 0 -39.5 12.5t-15.5 34.5q0 30 22.5 46.5t52.5 16.5q23 0 39 -12t16 -34zM264 412q0 -30 -22.5 -47t-51.5 -17q-24 0 -40 12t-16 35q0 29 22.5 46t52.5 17q24 0 39.5 -12t15.5 -34z" />
    <glyph glyph-name="semicolon" unicode=";" horiz-adv-x="223" 
d="M32 -96l67 268h115l-120 -268h-62zM260 412q0 -30 -22.5 -47t-52.5 -17q-23 0 -38.5 12t-15.5 35q0 29 22 46t51 17q25 0 40.5 -12t15.5 -34z" />
    <glyph glyph-name="less" unicode="&#x3c;" horiz-adv-x="600" 
d="M115 306q-17 7 -17 26q0 11 7 21t21 15l541 239l-11 -67l-463 -203l391 -204l-11 -66z" />
    <glyph glyph-name="equal" unicode="=" horiz-adv-x="625" 
d="M71 175l10 61h546l-10 -61h-546zM118 444l11 60h546l-11 -60h-546z" />
    <glyph glyph-name="greater" unicode="&#x3e;" horiz-adv-x="600" 
d="M52 67l11 66l463 204l-391 203l12 67l458 -239q15 -9 15 -26q0 -11 -6.5 -21t-20.5 -15z" />
    <glyph glyph-name="question" unicode="?" horiz-adv-x="688" 
d="M399 287q-37 0 -54 -13.5t-22 -42.5l-8 -45h-90l10 53q11 60 48.5 93.5t113.5 33.5h97q27 0 54 6.5t48 20.5t34.5 37.5t13.5 58.5q0 49 -40.5 68.5t-109.5 19.5h-380l87 92h324q111 0 167.5 -43.5t56.5 -119.5q0 -46 -17.5 -86t-50.5 -69.5t-81.5 -46.5t-110.5 -17h-90z
M314 55q0 -30 -22.5 -47t-52.5 -17q-24 0 -39 12.5t-15 34.5q0 30 22.5 46.5t51.5 16.5q24 0 39.5 -12t15.5 -34z" />
    <glyph glyph-name="at" unicode="@" horiz-adv-x="841" 
d="M421 0q-75 0 -135.5 20t-103.5 56t-66.5 87.5t-23.5 114.5q0 83 36 154.5t97 124t142.5 82.5t171.5 30h361l-86 -489h-382q-61 0 -94 37t-33 92q0 35 13 67t37 56t57 38.5t73 14.5h194l-44 -253h115l67 377h-289q-74 0 -139.5 -24t-115.5 -66.5t-79 -101t-29 -126.5
q0 -52 19 -94.5t54 -73t84.5 -47t109.5 -16.5h304l36 -60h-351zM609 437h-115q-26 0 -48.5 -9.5t-39 -26t-25.5 -38t-9 -45.5q0 -37 23 -61.5t63 -24.5h115z" />
    <glyph glyph-name="A" unicode="A" 
d="M289 0l82 91h466l-227 464l-472 -555h-128l546 637q14 16 33.5 28t44.5 13q24 0 40 -12t24 -29l316 -637h-725z" />
    <glyph glyph-name="B" unicode="B" horiz-adv-x="887" 
d="M60 0l66 376h562q57 0 92.5 32.5t35.5 83.5q0 42 -27 63.5t-78 21.5h-545l90 92h467q96 0 148.5 -39t52.5 -111q0 -38 -13 -68t-32.5 -52t-43 -35.5t-45.5 -19.5q37 -10 65 -42t28 -89q0 -41 -14 -79t-46.5 -68t-86 -48t-132.5 -18h-544zM221 296l-36 -205h436
q40 0 69 9.5t48 26t28 38.5t9 46q0 38 -24 61.5t-75 23.5h-455z" />
    <glyph glyph-name="C" unicode="C" horiz-adv-x="856" 
d="M425 0q-75 0 -135.5 22t-104 61.5t-67 93t-23.5 116.5q0 83 35.5 152t96.5 119t142.5 77.5t173.5 27.5h423l-87 -92h-352q-54 0 -111.5 -16.5t-105 -50.5t-77.5 -86.5t-30 -123.5q0 -53 22 -92t62 -65t94 -39t119 -13h364l-87 -91h-352z" />
    <glyph glyph-name="D" unicode="D" horiz-adv-x="890" 
d="M60 0l73 417h109l-57 -326h307q64 0 121 21.5t100 59t68 89t25 110.5q0 45 -16.5 83t-46.5 65.5t-72 42.5t-93 15h-416l86 92h346q73 0 132 -20.5t101 -57.5t65 -88.5t23 -113.5q0 -81 -35 -152t-95 -123.5t-139.5 -83t-169.5 -30.5h-416z" />
    <glyph glyph-name="E" unicode="E" horiz-adv-x="782" 
d="M60 0l118 669h711l-87 -92h-531l-36 -201h570l-76 -80h-508l-36 -205h606l-87 -91h-644z" />
    <glyph glyph-name="F" unicode="F" horiz-adv-x="758" 
d="M219 284l-51 -284h-108l118 669h693l-87 -92h-513l-37 -207h547l-82 -86h-480z" />
    <glyph glyph-name="G" unicode="G" horiz-adv-x="890" 
d="M425 0q-75 0 -135.5 22t-104 61.5t-67 93t-23.5 116.5q0 83 35.5 152t96.5 119t142.5 77.5t173.5 27.5h430l-86 -92h-360q-67 0 -126 -20t-103 -56t-69.5 -87.5t-25.5 -114.5q0 -47 17 -85.5t48.5 -65.5t75 -42t97.5 -15h296l37 211h-390l81 82h432l-68 -384h-404z" />
    <glyph glyph-name="H" unicode="H" horiz-adv-x="851" 
d="M682 0l53 301h-514l-53 -301h-108l118 669h109l-49 -276h513l50 276h108l-119 -669h-108z" />
    <glyph glyph-name="I" unicode="I" horiz-adv-x="234" 
d="M62 0l119 669h108l-119 -669h-108z" />
    <glyph glyph-name="J" unicode="J" horiz-adv-x="662" 
d="M10 0l87 91h136q76 0 132.5 13.5t95.5 40.5t62.5 66.5t32.5 92.5l64 365h109l-65 -365q-54 -304 -447 -304h-207z" />
    <glyph glyph-name="K" unicode="K" horiz-adv-x="838" 
d="M672 0l-447 321l-57 -321h-108l118 669h109l-52 -293l515 293h172l-595 -323l506 -346h-161z" />
    <glyph glyph-name="L" unicode="L" horiz-adv-x="732" 
d="M60 0l118 669h108l-102 -578h558l-87 -91h-595z" />
    <glyph glyph-name="M" unicode="M" horiz-adv-x="1190" 
d="M1069 0l-90 538l-315 -505q-17 -27 -34.5 -34.5t-36.5 -7.5q-20 0 -34.5 7.5t-21.5 34.5l-132 505l-285 -538h-106l330 627q27 51 71 51q20 0 35 -11t20 -29l140 -526l338 526q11 17 27 28.5t41 11.5q45 0 54 -51l107 -627h-108z" />
    <glyph glyph-name="N" unicode="N" horiz-adv-x="856" 
d="M249 534l-94 -534h-98l108 610q6 36 26 52t46 16q9 0 20 -4.5t22 -16.5l447 -521l94 536h98l-108 -610q-7 -36 -27 -52t-45 -16q-11 0 -21.5 3.5t-20.5 16.5z" />
    <glyph glyph-name="O" unicode="O" horiz-adv-x="978" 
d="M1005 402q0 -209 -127.5 -311t-390.5 -102q-199 0 -297.5 67t-98.5 212q0 209 127.5 310.5t390.5 101.5q199 0 297.5 -66.5t98.5 -211.5zM895 391q0 54 -18 92t-55.5 61.5t-94.5 34t-134 10.5q-108 0 -183 -17.5t-121.5 -55t-67 -96.5t-20.5 -141q0 -54 18 -92t55.5 -62
t94 -34.5t134.5 -10.5q108 0 182.5 17.5t121 55t67.5 96.5t21 142z" />
    <glyph glyph-name="P" unicode="P" horiz-adv-x="916" 
d="M206 218l-38 -218h-108l54 308h477q52 0 99 8t82 26t55.5 47.5t20.5 72.5q0 33 -15 55t-42.5 35.5t-66 19t-85.5 5.5h-479l88 92h446q61 0 110 -13.5t83.5 -38.5t52.5 -61.5t18 -81.5q0 -60 -25 -107.5t-70 -80.5t-108.5 -50.5t-140.5 -17.5h-408z" />
    <glyph glyph-name="Q" unicode="Q" horiz-adv-x="988" 
d="M411 0q-70 0 -128.5 18t-100.5 53t-65.5 87t-23.5 120q0 200 127 301t389 101q199 0 297.5 -67t98.5 -211q0 -64 -15.5 -105.5t-38.5 -73.5h-115q36 38 47.5 79t11.5 89q0 54 -18 92t-55.5 61.5t-94.5 34t-134 10.5q-108 0 -182.5 -17t-121 -54t-67 -94t-20.5 -136
q0 -101 61.5 -149t163.5 -48h303l-183 196h143l270 -287h-549z" />
    <glyph glyph-name="R" unicode="R" horiz-adv-x="948" 
d="M791 0l-200 221h-385l-38 -221h-108l54 308h479q51 0 98.5 8t84 26.5t58.5 47.5t22 71q0 33 -15.5 55.5t-44 36t-68 19t-86.5 5.5h-482l87 92h450q53 0 102.5 -10.5t87.5 -33t60.5 -58.5t22.5 -88t-19.5 -93.5t-54 -72t-83 -49t-106.5 -23.5l231 -241h-147z" />
    <glyph glyph-name="S" unicode="S" horiz-adv-x="904" 
d="M22 0l87 91h525q88 0 131 32t43 92q0 27 -12.5 43t-36 24.5t-57.5 11t-77 2.5h-270q-112 0 -166 39t-54 112q0 102 73 162t231 60h541l-86 -92h-479q-88 0 -131 -31.5t-43 -91.5q0 -26 12.5 -41.5t36 -23.5t57.5 -10.5t77 -2.5h271q218 0 218 -149q0 -53 -17.5 -95
t-54 -71.5t-94 -45t-137.5 -15.5h-588z" />
    <glyph glyph-name="T" unicode="T" horiz-adv-x="847" 
d="M355 0l102 577h-355l89 92h774l-87 -92h-312l-102 -577h-109z" />
    <glyph glyph-name="U" unicode="U" horiz-adv-x="918" 
d="M876 669h109l-67 -377q-54 -303 -441 -303q-198 0 -289.5 58.5t-91.5 177.5q0 31 6 67l67 377h108l-67 -377q-6 -30 -5 -52q0 -84 68 -122.5t220 -38.5q87 0 143.5 12t91.5 38t53 66.5t28 96.5z" />
    <glyph glyph-name="V" unicode="V" 
d="M129 669h132l270 -554l473 554h127l-545 -637q-15 -17 -34 -29t-45 -12q-24 0 -39.5 12t-23.5 29z" />
    <glyph glyph-name="W" unicode="W" horiz-adv-x="1191" 
d="M239 669l90 -538l315 505q17 27 35 34.5t36 7.5q20 0 34.5 -7.5t22.5 -34.5l132 -505l285 538h106l-331 -627q-27 -51 -71 -51q-20 0 -35 11t-20 29l-140 526l-337 -526q-11 -17 -27 -28.5t-42 -11.5q-43 0 -54 51l-106 627h107z" />
    <glyph glyph-name="X" unicode="X" horiz-adv-x="965" 
d="M806 0l-274 282l-375 -282h-141l460 344l-316 325h146l250 -261l344 261h146l-431 -321l340 -348h-149z" />
    <glyph glyph-name="Y" unicode="Y" horiz-adv-x="961" 
d="M430 0l43 248l-348 421h136l280 -339l391 339h141l-492 -421l-43 -248h-108z" />
    <glyph glyph-name="Z" unicode="Z" horiz-adv-x="857" 
d="M79 0q-20 0 -32.5 9.5t-12.5 29.5q0 16 9 29t24 24l670 485h-624l86 92h685q19 0 32.5 -10t13.5 -30q0 -16 -9 -29t-25 -24l-670 -485h640l-82 -91h-705z" />
    <glyph glyph-name="bracketleft" unicode="[" horiz-adv-x="278" 
d="M53 -129l163 922h157l-11 -65h-93l-140 -792h92l-11 -65h-157z" />
    <glyph glyph-name="backslash" unicode="\" horiz-adv-x="416" 
d="M340 -38l-215 744h65l220 -744h-70z" />
    <glyph glyph-name="bracketright" unicode="]" horiz-adv-x="278" 
d="M22 -129l11 65h93l140 792h-93l12 65h158l-163 -922h-158z" />
    <glyph glyph-name="asciicircum" unicode="^" horiz-adv-x="538" 
d="M474 296l-97 312l-209 -312h-74l250 373h86l117 -373h-73z" />
    <glyph glyph-name="underscore" unicode="_" horiz-adv-x="674" 
d="M-20 -112l10 50h678l-9 -50h-679z" />
    <glyph glyph-name="grave" unicode="`" horiz-adv-x="379" 
d="M186 805l11 62l270 -106l-8 -46z" />
    <glyph glyph-name="a" unicode="a" 
d="M10 0zM289 0l82 91h466l-227 464l-472 -555h-128l546 637q14 16 33.5 28t44.5 13q24 0 40 -12t24 -29l316 -637h-725z" />
    <glyph glyph-name="b" unicode="b" horiz-adv-x="887" 
d="M60 0zM60 0l66 376h562q57 0 92.5 32.5t35.5 83.5q0 42 -27 63.5t-78 21.5h-545l90 92h467q96 0 148.5 -39t52.5 -111q0 -38 -13 -68t-32.5 -52t-43 -35.5t-45.5 -19.5q37 -10 65 -42t28 -89q0 -41 -14 -79t-46.5 -68t-86 -48t-132.5 -18h-544zM221 296l-36 -205h436
q40 0 69 9.5t48 26t28 38.5t9 46q0 38 -24 61.5t-75 23.5h-455z" />
    <glyph glyph-name="c" unicode="c" horiz-adv-x="856" 
d="M95 0zM425 0q-75 0 -135.5 22t-104 61.5t-67 93t-23.5 116.5q0 83 35.5 152t96.5 119t142.5 77.5t173.5 27.5h423l-87 -92h-352q-54 0 -111.5 -16.5t-105 -50.5t-77.5 -86.5t-30 -123.5q0 -53 22 -92t62 -65t94 -39t119 -13h364l-87 -91h-352z" />
    <glyph glyph-name="d" unicode="d" horiz-adv-x="890" 
d="M60 0zM60 0l73 417h109l-57 -326h307q64 0 121 21.5t100 59t68 89t25 110.5q0 45 -16.5 83t-46.5 65.5t-72 42.5t-93 15h-416l86 92h346q73 0 132 -20.5t101 -57.5t65 -88.5t23 -113.5q0 -81 -35 -152t-95 -123.5t-139.5 -83t-169.5 -30.5h-416z" />
    <glyph glyph-name="e" unicode="e" horiz-adv-x="782" 
d="M60 0zM60 0l118 669h711l-87 -92h-531l-36 -201h570l-76 -80h-508l-36 -205h606l-87 -91h-644z" />
    <glyph glyph-name="f" unicode="f" horiz-adv-x="758" 
d="M60 0zM219 284l-51 -284h-108l118 669h693l-87 -92h-513l-37 -207h547l-82 -86h-480z" />
    <glyph glyph-name="g" unicode="g" horiz-adv-x="890" 
d="M95 0zM425 0q-75 0 -135.5 22t-104 61.5t-67 93t-23.5 116.5q0 83 35.5 152t96.5 119t142.5 77.5t173.5 27.5h430l-86 -92h-360q-67 0 -126 -20t-103 -56t-69.5 -87.5t-25.5 -114.5q0 -47 17 -85.5t48.5 -65.5t75 -42t97.5 -15h296l37 211h-390l81 82h432l-68 -384h-404z
" />
    <glyph glyph-name="h" unicode="h" horiz-adv-x="851" 
d="M60 0zM682 0l53 301h-514l-53 -301h-108l118 669h109l-49 -276h513l50 276h108l-119 -669h-108z" />
    <glyph glyph-name="i" unicode="i" horiz-adv-x="234" 
d="M62 0zM62 0l119 669h108l-119 -669h-108z" />
    <glyph glyph-name="j" unicode="j" horiz-adv-x="662" 
d="M10 0zM10 0l87 91h136q76 0 132.5 13.5t95.5 40.5t62.5 66.5t32.5 92.5l64 365h109l-65 -365q-54 -304 -447 -304h-207z" />
    <glyph glyph-name="k" unicode="k" horiz-adv-x="838" 
d="M60 0zM672 0l-447 321l-57 -321h-108l118 669h109l-52 -293l515 293h172l-595 -323l506 -346h-161z" />
    <glyph glyph-name="l" unicode="l" horiz-adv-x="732" 
d="M60 0zM60 0l118 669h108l-102 -578h558l-87 -91h-595z" />
    <glyph glyph-name="m" unicode="m" horiz-adv-x="1190" 
d="M14 0zM1069 0l-90 538l-315 -505q-17 -27 -34.5 -34.5t-36.5 -7.5q-20 0 -34.5 7.5t-21.5 34.5l-132 505l-285 -538h-106l330 627q27 51 71 51q20 0 35 -11t20 -29l140 -526l338 526q11 17 27 28.5t41 11.5q45 0 54 -51l107 -627h-108z" />
    <glyph glyph-name="n" unicode="n" horiz-adv-x="856" 
d="M57 0zM249 534l-94 -534h-98l108 610q6 36 26 52t46 16q9 0 20 -4.5t22 -16.5l447 -521l94 536h98l-108 -610q-7 -36 -27 -52t-45 -16q-11 0 -21.5 3.5t-20.5 16.5z" />
    <glyph glyph-name="o" unicode="o" horiz-adv-x="978" 
d="M91 0zM1005 402q0 -209 -127.5 -311t-390.5 -102q-199 0 -297.5 67t-98.5 212q0 209 127.5 310.5t390.5 101.5q199 0 297.5 -66.5t98.5 -211.5zM895 391q0 54 -18 92t-55.5 61.5t-94.5 34t-134 10.5q-108 0 -183 -17.5t-121.5 -55t-67 -96.5t-20.5 -141q0 -54 18 -92
t55.5 -62t94 -34.5t134.5 -10.5q108 0 182.5 17.5t121 55t67.5 96.5t21 142z" />
    <glyph glyph-name="p" unicode="p" horiz-adv-x="916" 
d="M60 0zM206 218l-38 -218h-108l54 308h477q52 0 99 8t82 26t55.5 47.5t20.5 72.5q0 33 -15 55t-42.5 35.5t-66 19t-85.5 5.5h-479l88 92h446q61 0 110 -13.5t83.5 -38.5t52.5 -61.5t18 -81.5q0 -60 -25 -107.5t-70 -80.5t-108.5 -50.5t-140.5 -17.5h-408z" />
    <glyph glyph-name="q" unicode="q" horiz-adv-x="988" 
d="M93 0zM411 0q-70 0 -128.5 18t-100.5 53t-65.5 87t-23.5 120q0 200 127 301t389 101q199 0 297.5 -67t98.5 -211q0 -64 -15.5 -105.5t-38.5 -73.5h-115q36 38 47.5 79t11.5 89q0 54 -18 92t-55.5 61.5t-94.5 34t-134 10.5q-108 0 -182.5 -17t-121 -54t-67 -94t-20.5 -136
q0 -101 61.5 -149t163.5 -48h303l-183 196h143l270 -287h-549z" />
    <glyph glyph-name="r" unicode="r" horiz-adv-x="948" 
d="M60 0zM791 0l-200 221h-385l-38 -221h-108l54 308h479q51 0 98.5 8t84 26.5t58.5 47.5t22 71q0 33 -15.5 55.5t-44 36t-68 19t-86.5 5.5h-482l87 92h450q53 0 102.5 -10.5t87.5 -33t60.5 -58.5t22.5 -88t-19.5 -93.5t-54 -72t-83 -49t-106.5 -23.5l231 -241h-147z" />
    <glyph glyph-name="s" unicode="s" horiz-adv-x="904" 
d="M22 0zM22 0l87 91h525q88 0 131 32t43 92q0 27 -12.5 43t-36 24.5t-57.5 11t-77 2.5h-270q-112 0 -166 39t-54 112q0 102 73 162t231 60h541l-86 -92h-479q-88 0 -131 -31.5t-43 -91.5q0 -26 12.5 -41.5t36 -23.5t57.5 -10.5t77 -2.5h271q218 0 218 -149q0 -53 -17.5 -95
t-54 -71.5t-94 -45t-137.5 -15.5h-588z" />
    <glyph glyph-name="t" unicode="t" horiz-adv-x="847" 
d="M102 0zM355 0l102 577h-355l89 92h774l-87 -92h-312l-102 -577h-109z" />
    <glyph glyph-name="u" unicode="u" horiz-adv-x="918" 
d="M96 0zM876 669h109l-67 -377q-54 -303 -441 -303q-198 0 -289.5 58.5t-91.5 177.5q0 31 6 67l67 377h108l-67 -377q-6 -30 -5 -52q0 -84 68 -122.5t220 -38.5q87 0 143.5 12t91.5 38t53 66.5t28 96.5z" />
    <glyph glyph-name="v" unicode="v" 
d="M129 0zM129 669h132l270 -554l473 554h127l-545 -637q-15 -17 -34 -29t-45 -12q-24 0 -39.5 12t-23.5 29z" />
    <glyph glyph-name="w" unicode="w" horiz-adv-x="1191" 
d="M132 0zM239 669l90 -538l315 505q17 27 35 34.5t36 7.5q20 0 34.5 -7.5t22.5 -34.5l132 -505l285 538h106l-331 -627q-27 -51 -71 -51q-20 0 -35 11t-20 29l-140 526l-337 -526q-11 -17 -27 -28.5t-42 -11.5q-43 0 -54 51l-106 627h107z" />
    <glyph glyph-name="x" unicode="x" horiz-adv-x="965" 
d="M16 0zM806 0l-274 282l-375 -282h-141l460 344l-316 325h146l250 -261l344 261h146l-431 -321l340 -348h-149z" />
    <glyph glyph-name="y" unicode="y" horiz-adv-x="961" 
d="M125 0zM430 0l43 248l-348 421h136l280 -339l391 339h141l-492 -421l-43 -248h-108z" />
    <glyph glyph-name="z" unicode="z" horiz-adv-x="857" 
d="M34 0zM79 0q-20 0 -32.5 9.5t-12.5 29.5q0 16 9 29t24 24l670 485h-624l86 92h685q19 0 32.5 -10t13.5 -30q0 -16 -9 -29t-25 -24l-670 -485h640l-82 -91h-705z" />
    <glyph glyph-name="braceleft" unicode="{" horiz-adv-x="337" 
d="M220 -129q-91 0 -91 85q0 9 0.5 18.5t2.5 20.5l45 254q1 3 1 13q0 43 -58 43l11 55q65 0 75 55l45 254q11 63 42.5 93.5t87.5 30.5h51l-12 -65h-44q-26 0 -40.5 -16.5t-21.5 -54.5l-41 -237q-7 -38 -25 -58.5t-41 -29.5q20 -8 28 -24.5t8 -48.5q0 -10 -2 -15l-41 -236
q-3 -18 -3 -29q0 -23 9.5 -32.5t30.5 -9.5h44l-11 -66h-50z" />
    <glyph glyph-name="bar" unicode="|" horiz-adv-x="238" 
d="M71 -99l151 854h60l-151 -854h-60z" />
    <glyph glyph-name="braceright" unicode="}" horiz-adv-x="338" 
d="M24 -129l11 66h44q27 0 41 16.5t21 54.5l42 236q7 37 23.5 58.5t40.5 29.5q-16 8 -26 22.5t-10 39.5q0 12 3 26l42 237q1 8 1.5 15t0.5 13q0 43 -39 43h-45l11 65h51q90 0 90 -85q0 -9 -0.5 -20t-3.5 -28l-44 -245q-1 -3 -1 -14q0 -41 58 -41l-10 -55q-67 0 -76 -56
l-45 -254q-22 -124 -130 -124h-50z" />
    <glyph glyph-name="asciitilde" unicode="~" horiz-adv-x="562" 
d="M575 325q-45 -39 -81 -52.5t-68 -13.5q-28 0 -53 11t-49 24.5t-48 25t-49 11.5q-29 0 -63.5 -15.5t-80.5 -59.5l15 88q46 40 82 53t67 13q27 0 51.5 -11.5t48.5 -25t48.5 -24.5t52.5 -11q29 0 63.5 15.5t79.5 59.5z" />
    <glyph glyph-name="uni00A0" unicode="&#xa0;" horiz-adv-x="363" 
 />
    <glyph glyph-name="exclamdown" unicode="&#xa1;" horiz-adv-x="221" 
d="M57 0zM241.006 482.012l-22.998 -202.988l-48.9971 -278.982h-111.993l48.9971 278.982l49.9971 202.988h84.9941zM157.012 614.003q0 29.999 22.498 46.9971q22.499 16.999 52.4971 16.999q23.998 0 38.9971 -12.499q15 -12.499 15 -34.498q0 -29.998 -22.499 -46.4971
t-51.4971 -16.499q-23.998 0 -39.4971 12q-15.499 11.999 -15.499 33.9971z" />
    <glyph glyph-name="cent" unicode="&#xa2;" horiz-adv-x="606" 
d="M385 109l-19 -109h-46l19 109q-53 0 -96 15.5t-73.5 43.5t-47.5 65.5t-17 82.5q0 58 25 106.5t68.5 83.5t101 54.5t122.5 19.5l16 89h47l-17 -89h210l-62 -66h-159l-60 -340h208l-62 -65h-158zM411 514q-46 0 -87 -14.5t-72 -40.5t-49 -61t-18 -77q0 -32 12 -59
t33.5 -46.5t52 -30.5t67.5 -11z" />
    <glyph glyph-name="sterling" unicode="&#xa3;" horiz-adv-x="768" 
d="M35 0l87 91h101l37 212h-207l66 70h154l16 88q9 47 31 85.5t60.5 65.5t93 42t128.5 15h274l-86 -92h-212q-32 0 -62 -5t-54.5 -18.5t-42.5 -37.5t-25 -62l-15 -81h268l-67 -70h-214l-37 -212h448l-87 -91h-655z" />
    <glyph glyph-name="yen" unicode="&#xa5;" horiz-adv-x="961" 
d="M581 248l-15 -85h321l-11 -61h-321l-17 -102h-108l17 102h-317l11 61h317l15 85h-317l11 60h256l-299 361h137l280 -339l391 339h140l-421 -361h262l-11 -60h-321z" />
    <glyph glyph-name="brokenbar" unicode="&#xa6;" horiz-adv-x="238" 
d="M71 -99l67 383h60l-67 -383h-60zM218 395h-60l63 360h60z" />
    <glyph glyph-name="dieresis" unicode="&#xa8;" horiz-adv-x="373" 
d="M481 811q0 -23 -18 -36.5t-41 -13.5q-19 0 -31 10t-12 27q0 23 17.5 36.5t40.5 13.5q20 0 32 -10t12 -27zM277 811q0 -23 -17.5 -36.5t-40.5 -13.5q-19 0 -31.5 10t-12.5 27q0 23 18 36.5t41 13.5q19 0 31 -10t12 -27z" />
    <glyph glyph-name="copyright" unicode="&#xa9;" horiz-adv-x="773" 
d="M447 -11q-72 0 -135 27t-110 74t-74.5 110t-27.5 135t27.5 135t74.5 110t110 74t135 27t135 -27t110 -74t74 -110t27 -135t-27 -135t-74 -110t-110 -74t-135 -27zM769 334q0 67 -25 125.5t-68.5 102.5t-102 69.5t-125.5 25.5t-125.5 -25.5t-102 -69.5t-69 -102.5
t-25.5 -125.5t25.5 -125.5t69 -102t102 -68.5t125.5 -25t125.5 25t102 68.5t68.5 102t25 125.5zM443 174q-37 0 -68.5 12.5t-54.5 34t-36 51.5t-13 65t13 64t36 49.5t54.5 32t68.5 11.5h109l-25 -32h-84q-30 0 -54.5 -9t-42.5 -26t-28 -40.5t-10 -51.5q0 -57 37.5 -93.5
t97.5 -36.5h110l-25 -31h-85z" />
    <glyph glyph-name="ordfeminine" unicode="&#xaa;" horiz-adv-x="620" 
d="M237 284l45 50h256l-124 255l-261 -305h-70l301 350q8 8 18.5 15.5t24.5 7.5t22 -7t13 -16l173 -350h-398z" />
    <glyph glyph-name="guillemotleft" unicode="&#xab;" horiz-adv-x="432" 
d="M80 298l9 49l198 135l-10 -54l-158 -103l121 -104l-9 -53zM272 298l8 49l198 135l-10 -54l-158 -103l122 -104l-10 -53z" />
    <glyph glyph-name="registered" unicode="&#xae;" horiz-adv-x="499" 
d="M544 484q0 -39 -16 -74.5t-44.5 -62.5t-67 -43t-83.5 -16q-46 0 -84 16t-65.5 43t-43 62.5t-15.5 74.5t15.5 74.5t43 62.5t65.5 43t84 16t84.5 -15.5t66.5 -42t44 -62.5t16 -76zM523 484q0 34 -14.5 65t-40 55t-60.5 38t-75 14q-42 0 -75.5 -14.5t-57.5 -38.5t-37 -55
t-13 -64t13 -64.5t37 -56t57.5 -39t75.5 -14.5q39 0 74 14t60.5 38t40.5 55.5t15 66.5zM398 408l-57 54h-63v-51h-27v74h97q17 0 30.5 7.5t13.5 21.5q0 18 -15 24.5t-38 6.5h-85l19 25h73q30 0 52 -12.5t22 -41.5q0 -44 -48 -49l66 -59h-40z" />
    <glyph glyph-name="macron" unicode="&#xaf;" horiz-adv-x="379" 
d="M180 768l7 47h289l-8 -47h-288z" />
    <glyph glyph-name="degree" unicode="&#xb0;" horiz-adv-x="359" 
d="M276 439q93 0 93 97q0 99 -93 99q-91 0 -91 -98t91 -98zM276 394q-137 0 -137 143t137 143q139 0 139 -143t-139 -143z" />
    <glyph glyph-name="plusminus" unicode="&#xb1;" horiz-adv-x="625" 
d="M27 0zM294 67l43 243h-242l10 61h242l43 242h60l-42 -242h243l-10 -61h-244l-42 -243h-61zM27 -76l11 61h546l-11 -61h-546z" />
    <glyph glyph-name="uni00B2" unicode="&#xb2;" horiz-adv-x="468" 
d="M98 353zM98 353l17 98q8 46 42 67.5t91 21.5h146q86 0 86 60q0 23 -23.5 32t-71.5 9h-217l43 46h204q64 0 91.5 -20.5t27.5 -55.5q0 -49 -35.5 -80t-107.5 -31h-145q-35 0 -54.5 -11t-24.5 -37l-9 -54h345l-43 -45h-362z" />
    <glyph glyph-name="uni00B3" unicode="&#xb3;" horiz-adv-x="450" 
d="M79 353zM79 353l43 45h242q12 0 26 3t25.5 10t19 19t7.5 30q0 20 -13.5 30t-33.5 10h-199l36 41h171q10 0 20.5 4.5t18.5 12.5t13.5 19t5.5 23q0 41 -52 41h-265l43 46h228q48 0 74 -18.5t26 -53.5q0 -19 -6 -34.5t-16 -27t-21.5 -19t-22.5 -10.5q18 -5 32 -21t14 -42
q0 -22 -8 -41.5t-25 -34.5t-43.5 -23.5t-63.5 -8.5h-276z" />
    <glyph glyph-name="acute" unicode="&#xb4;" horiz-adv-x="379" 
d="M170 715l8 46l307 106l-10 -62z" />
    <glyph glyph-name="periodcentered" unicode="&#xb7;" horiz-adv-x="206" 
d="M224 325q-5 -26 -26 -40.5t-48 -14.5q-23 0 -38.5 11.5t-15.5 32.5q0 32 22.5 48.5t50.5 16.5q25 0 40.5 -11.5t15.5 -32.5q0 -8 -1 -10z" />
    <glyph glyph-name="cedilla" unicode="&#xb8;" horiz-adv-x="238" 
d="M17 -255l58 224h83l-100 -224h-41z" />
    <glyph glyph-name="uni00B9" unicode="&#xb9;" horiz-adv-x="200" 
d="M125 353zM162 353l51 288l-37 -41h-51l77 87h73l-59 -334h-54z" />
    <glyph glyph-name="ordmasculine" unicode="&#xba;" horiz-adv-x="594" 
d="M626 468q-17 -100 -86 -145.5t-195 -45.5q-109 0 -163 35.5t-54 110.5q0 61 20 105.5t56.5 73.5t89.5 42.5t119 13.5q109 0 163 -35t54 -110q0 -25 -4 -45zM567 468q4 20 4 37q0 57 -40 80t-127 23q-105 0 -160.5 -39.5t-55.5 -138.5q0 -57 40 -79.5t127 -22.5
q97 0 147.5 31t64.5 109z" />
    <glyph glyph-name="guillemotright" unicode="&#xbb;" horiz-adv-x="432" 
d="M264 168l10 53l157 104l-121 103l10 54l150 -135l-8 -49zM73 168l9 53l157 104l-120 103l10 54l150 -135l-8 -49z" />
    <glyph glyph-name="onequarter" unicode="&#xbc;" horiz-adv-x="856" 
d="M33 0zM234 353l51 288l-37 -41h-51l77 87h73l-59 -334h-54zM33 -38l682 744h48l-679 -744h-51zM679 -9l10 59h-263q-11 0 -17 6.5t-6 14.5q-1 13 17 26l305 216q8 6 16.5 10.5t18.5 4.5q11 0 18.5 -6t7.5 -19q0 -2 -0.5 -4t-0.5 -4l-36 -201h83l-39 -44h-51l-11 -59h-52z
M727 264l-242 -170h212z" />
    <glyph glyph-name="onehalf" unicode="&#xbd;" horiz-adv-x="862" 
d="M33 0zM231 353l51 288l-37 -41h-51l77 87h73l-59 -334h-54zM33 -38l682 744h48l-679 -744h-51zM423 -9l17 98q8 46 42 67.5t91 21.5h146q86 0 86 60q0 23 -23.5 32t-71.5 9h-217l43 46h204q64 0 91.5 -20.5t27.5 -55.5q0 -49 -35.5 -80t-107.5 -31h-145q-35 0 -54.5 -11
t-24.5 -37l-9 -54h345l-43 -45h-362z" />
    <glyph glyph-name="threequarters" unicode="&#xbe;" horiz-adv-x="975" 
d="M101 0zM101 353l43 45h242q12 0 26 3t25.5 10t19 19t7.5 30q0 20 -13.5 30t-33.5 10h-199l36 41h171q10 0 20.5 4.5t18.5 12.5t13.5 19t5.5 23q0 41 -52 41h-265l43 46h228q48 0 74 -18.5t26 -53.5q0 -19 -6 -34.5t-16 -27t-21.5 -19t-22.5 -10.5q18 -5 32 -21t14 -42
q0 -22 -8 -41.5t-25 -34.5t-43.5 -23.5t-63.5 -8.5h-276zM197 -38l682 744h48l-679 -744h-51zM798 -9l10 59h-263q-11 0 -17 6.5t-6 14.5q-1 13 17 26l305 216q8 6 16.5 10.5t18.5 4.5q11 0 18.5 -6t7.5 -19q0 -2 -0.5 -4t-0.5 -4l-36 -201h83l-39 -44h-51l-11 -59h-52z
M846 264l-242 -170h212z" />
    <glyph glyph-name="questiondown" unicode="&#xbf;" horiz-adv-x="688" 
d="M54 0zM404.024 382.018q36.998 0 53.9971 13.499q16.998 13.499 21.998 42.4971l8 44.998h89.9941l-9.99902 -52.9971q-11 -59.9961 -48.4971 -93.4941q-37.498 -33.498 -113.493 -33.498h-96.9941q-26.998 0 -53.9971 -6.5q-26.998 -6.49902 -47.9971 -20.498
q-20.998 -14 -34.498 -37.498q-13.499 -23.499 -13.499 -58.4961q0 -48.9971 40.498 -68.4961q40.4971 -19.499 109.493 -19.499h379.977l-86.9941 -91.9941h-323.98q-110.993 0 -167.49 43.4971q-56.4961 43.4971 -56.4961 119.493q0 45.9971 17.499 85.9941
q17.499 39.998 50.4971 69.4961q32.9971 29.498 81.4941 46.4971t110.494 16.999h89.9941zM489.02 614.003q0 29.999 22.498 46.9971q22.499 16.999 52.4971 16.999q23.998 0 38.9971 -12.499q15 -12.499 15 -34.498q0 -29.998 -22.499 -46.4971t-51.4971 -16.499
q-23.998 0 -39.4971 12q-15.499 11.999 -15.499 33.9971z" />
    <glyph glyph-name="Agrave" unicode="&#xc0;" 
d="M10 0zM289 0l82 91h466l-227 464l-472 -555h-128l546 637q14 16 33.5 28t44.5 13q24 0 40 -12t24 -29l316 -637h-725zM480 805l11 62l270 -106l-8 -46z" />
    <glyph glyph-name="Aacute" unicode="&#xc1;" 
d="M10 0zM289 0l82 91h466l-227 464l-472 -555h-128l546 637q14 16 33.5 28t44.5 13q24 0 40 -12t24 -29l316 -637h-725zM521 715l8 46l307 106l-10 -62z" />
    <glyph glyph-name="Acircumflex" unicode="&#xc2;" 
d="M10 0zM289 0l82 91h466l-227 464l-472 -555h-128l546 637q14 16 33.5 28t44.5 13q24 0 40 -12t24 -29l316 -637h-725zM735 715l-74 123h-5l-116 -123h-58l145 152h74l91 -152h-57z" />
    <glyph glyph-name="Atilde" unicode="&#xc3;" 
d="M10 0zM289 0l82 91h466l-227 464l-472 -555h-128l546 637q14 16 33.5 28t44.5 13q24 0 40 -12t24 -29l316 -637h-725zM793 782q-18 -24 -38 -33.5t-43 -9.5q-20 0 -35.5 9.5t-30.5 21t-30.5 21t-33.5 9.5q-22 0 -42.5 -12t-40.5 -40l9 52q18 24 38.5 33t43.5 9
q19 0 35 -9.5t30.5 -20.5t30 -20.5t34.5 -9.5q21 0 42 11.5t41 40.5z" />
    <glyph glyph-name="Adieresis" unicode="&#xc4;" 
d="M10 0zM289 0l82 91h466l-227 464l-472 -555h-128l546 637q14 16 33.5 28t44.5 13q24 0 40 -12t24 -29l316 -637h-725zM806 811q0 -23 -18 -36.5t-41 -13.5q-19 0 -31 10t-12 27q0 23 17.5 36.5t40.5 13.5q20 0 32 -10t12 -27zM602 811q0 -23 -17.5 -36.5t-40.5 -13.5
q-19 0 -31.5 10t-12.5 27q0 23 18 36.5t41 13.5q19 0 31 -10t12 -27z" />
    <glyph glyph-name="Aring" unicode="&#xc5;" 
d="M10 0zM289 0l82 91h466l-227 464l-472 -555h-128l546 637q14 16 33.5 28t44.5 13q24 0 40 -12t24 -29l316 -637h-725zM601 715q-91 0 -91 64q0 5 0.5 9.5t1.5 9.5l11 63q8 42 36 63t82 21h72q91 0 91 -64q0 -5 -0.5 -10t-1.5 -10l-11 -63q-15 -83 -119 -83h-71zM757 849
q1 5 1.5 9t0.5 8q0 23 -17 30.5t-49 7.5h-47q-37 0 -56 -10.5t-25 -44.5l-7 -40q-1 -5 -1.5 -8.5t-0.5 -7.5q0 -25 18 -31.5t46 -6.5h48q32 0 53.5 8.5t26.5 37.5z" />
    <glyph glyph-name="AE" unicode="&#xc6;" horiz-adv-x="1383" 
d="M660 0l102 577h-111l-513 -577h-128l558 627q14 17 34.5 29.5t47.5 12.5h839l-87 -92h-531l-36 -201h570l-76 -80h-508l-36 -205h606l-87 -91h-644z" />
    <glyph glyph-name="Ccedilla" unicode="&#xc7;" horiz-adv-x="856" 
d="M425 0q-75 0 -136 21t-104.5 58.5t-67 89.5t-23.5 114q0 85 36.5 156t98 122t142.5 79.5t171 28.5h423l-87 -92h-352q-51 0 -108 -17t-105 -52t-79 -89t-31 -128q0 -51 22 -88.5t61.5 -62.5t93.5 -37t119 -12h364l-86 -91h-352zM366 -255l59 224h83l-101 -224h-41z" />
    <glyph glyph-name="Egrave" unicode="&#xc8;" horiz-adv-x="782" 
d="M60 0zM60 0l118 669h711l-87 -92h-531l-36 -201h570l-76 -80h-508l-36 -205h606l-87 -91h-644zM375 805l11 62l270 -106l-8 -46z" />
    <glyph glyph-name="Eacute" unicode="&#xc9;" horiz-adv-x="782" 
d="M60 0zM60 0l118 669h711l-87 -92h-531l-36 -201h570l-76 -80h-508l-36 -205h606l-87 -91h-644zM407 715l8 46l307 106l-10 -62z" />
    <glyph glyph-name="Ecircumflex" unicode="&#xca;" horiz-adv-x="782" 
d="M60 0zM60 0l118 669h711l-87 -92h-531l-36 -201h570l-76 -80h-508l-36 -205h606l-87 -91h-644zM632 715l-74 123h-5l-116 -123h-58l145 152h74l91 -152h-57z" />
    <glyph glyph-name="Edieresis" unicode="&#xcb;" horiz-adv-x="782" 
d="M60 0zM60 0l118 669h711l-87 -92h-531l-36 -201h570l-76 -80h-508l-36 -205h606l-87 -91h-644zM706 811q0 -23 -18 -36.5t-41 -13.5q-19 0 -31 10t-12 27q0 23 17.5 36.5t40.5 13.5q20 0 32 -10t12 -27zM502 811q0 -23 -17.5 -36.5t-40.5 -13.5q-19 0 -31.5 10t-12.5 27
q0 23 18 36.5t41 13.5q19 0 31 -10t12 -27z" />
    <glyph glyph-name="Igrave" unicode="&#xcc;" horiz-adv-x="234" 
d="M62 0zM62 0l119 669h108l-119 -669h-108zM87 805l11 62l270 -106l-8 -46z" />
    <glyph glyph-name="Iacute" unicode="&#xcd;" horiz-adv-x="234" 
d="M62 0zM62 0l119 669h108l-119 -669h-108zM127 715l8 46l307 106l-10 -62z" />
    <glyph glyph-name="Icircumflex" unicode="&#xce;" horiz-adv-x="234" 
d="M62 0zM62 0l119 669h108l-119 -669h-108zM342 715l-74 123h-5l-116 -123h-58l145 152h74l91 -152h-57z" />
    <glyph glyph-name="Idieresis" unicode="&#xcf;" horiz-adv-x="234" 
d="M62 0zM62 0l119 669h108l-119 -669h-108zM413 811q0 -23 -18 -36.5t-41 -13.5q-19 0 -31 10t-12 27q0 23 17.5 36.5t40.5 13.5q20 0 32 -10t12 -27zM209 811q0 -23 -17.5 -36.5t-40.5 -13.5q-19 0 -31.5 10t-12.5 27q0 23 18 36.5t41 13.5q19 0 31 -10t12 -27z" />
    <glyph glyph-name="Eth" unicode="&#xd0;" horiz-adv-x="962" 
d="M132 0l53 300h-132l77 80h521l-77 -80h-282l-36 -209h307q63 0 120.5 22.5t100.5 61.5t68.5 92.5t25.5 116.5q0 51 -16.5 88t-47 60t-72.5 34t-93 11h-415l85 92h346q73 0 132.5 -20.5t101.5 -57.5t65 -89t23 -114q0 -81 -35.5 -152t-95.5 -123.5t-140 -82.5t-169 -30
h-415z" />
    <glyph glyph-name="Ntilde" unicode="&#xd1;" horiz-adv-x="856" 
d="M57 0zM249 534l-94 -534h-98l108 610q6 36 26 52t46 16q9 0 20 -4.5t22 -16.5l447 -521l94 536h98l-108 -610q-7 -36 -27 -52t-45 -16q-11 0 -21.5 3.5t-20.5 16.5zM695 782q-18 -24 -38 -33.5t-43 -9.5q-20 0 -35.5 9.5t-30.5 21t-30.5 21t-33.5 9.5q-22 0 -42.5 -12
t-40.5 -40l9 52q18 24 38.5 33t43.5 9q19 0 35 -9.5t30.5 -20.5t30 -20.5t34.5 -9.5q21 0 42 11.5t41 40.5z" />
    <glyph glyph-name="Ograve" unicode="&#xd2;" horiz-adv-x="978" 
d="M91 0zM1005 402q0 -209 -127.5 -311t-390.5 -102q-199 0 -297.5 67t-98.5 212q0 209 127.5 310.5t390.5 101.5q199 0 297.5 -66.5t98.5 -211.5zM895 391q0 54 -18 92t-55.5 61.5t-94.5 34t-134 10.5q-108 0 -183 -17.5t-121.5 -55t-67 -96.5t-20.5 -141q0 -54 18 -92
t55.5 -62t94 -34.5t134.5 -10.5q108 0 182.5 17.5t121 55t67.5 96.5t21 142zM458 805l11 62l270 -106l-8 -46z" />
    <glyph glyph-name="Oacute" unicode="&#xd3;" horiz-adv-x="978" 
d="M91 0zM1005 402q0 -209 -127.5 -311t-390.5 -102q-199 0 -297.5 67t-98.5 212q0 209 127.5 310.5t390.5 101.5q199 0 297.5 -66.5t98.5 -211.5zM895 391q0 54 -18 92t-55.5 61.5t-94.5 34t-134 10.5q-108 0 -183 -17.5t-121.5 -55t-67 -96.5t-20.5 -141q0 -54 18 -92
t55.5 -62t94 -34.5t134.5 -10.5q108 0 182.5 17.5t121 55t67.5 96.5t21 142zM498 715l8 46l307 106l-10 -62z" />
    <glyph glyph-name="Ocircumflex" unicode="&#xd4;" horiz-adv-x="978" 
d="M91 0zM1005 402q0 -209 -127.5 -311t-390.5 -102q-199 0 -297.5 67t-98.5 212q0 209 127.5 310.5t390.5 101.5q199 0 297.5 -66.5t98.5 -211.5zM895 391q0 54 -18 92t-55.5 61.5t-94.5 34t-134 10.5q-108 0 -183 -17.5t-121.5 -55t-67 -96.5t-20.5 -141q0 -54 18 -92
t55.5 -62t94 -34.5t134.5 -10.5q108 0 182.5 17.5t121 55t67.5 96.5t21 142zM713 715l-74 123h-5l-116 -123h-58l145 152h74l91 -152h-57z" />
    <glyph glyph-name="Otilde" unicode="&#xd5;" horiz-adv-x="978" 
d="M91 0zM1005 402q0 -209 -127.5 -311t-390.5 -102q-199 0 -297.5 67t-98.5 212q0 209 127.5 310.5t390.5 101.5q199 0 297.5 -66.5t98.5 -211.5zM895 391q0 54 -18 92t-55.5 61.5t-94.5 34t-134 10.5q-108 0 -183 -17.5t-121.5 -55t-67 -96.5t-20.5 -141q0 -54 18 -92
t55.5 -62t94 -34.5t134.5 -10.5q108 0 182.5 17.5t121 55t67.5 96.5t21 142zM770 782q-18 -24 -38 -33.5t-43 -9.5q-20 0 -35.5 9.5t-30.5 21t-30.5 21t-33.5 9.5q-22 0 -42.5 -12t-40.5 -40l9 52q18 24 38.5 33t43.5 9q19 0 35 -9.5t30.5 -20.5t30 -20.5t34.5 -9.5
q21 0 42 11.5t41 40.5z" />
    <glyph glyph-name="Odieresis" unicode="&#xd6;" horiz-adv-x="978" 
d="M91 0zM1005 402q0 -209 -127.5 -311t-390.5 -102q-199 0 -297.5 67t-98.5 212q0 209 127.5 310.5t390.5 101.5q199 0 297.5 -66.5t98.5 -211.5zM895 391q0 54 -18 92t-55.5 61.5t-94.5 34t-134 10.5q-108 0 -183 -17.5t-121.5 -55t-67 -96.5t-20.5 -141q0 -54 18 -92
t55.5 -62t94 -34.5t134.5 -10.5q108 0 182.5 17.5t121 55t67.5 96.5t21 142zM783 811q0 -23 -18 -36.5t-41 -13.5q-19 0 -31 10t-12 27q0 23 17.5 36.5t40.5 13.5q20 0 32 -10t12 -27zM579 811q0 -23 -17.5 -36.5t-40.5 -13.5q-19 0 -31.5 10t-12.5 27q0 23 18 36.5t41 13.5
q19 0 31 -10t12 -27z" />
    <glyph glyph-name="multiply" unicode="&#xd7;" horiz-adv-x="625" 
d="M505 126l-142 171l-201 -171l-35 43l201 172l-141 171l51 43l141 -172l202 173l35 -44l-201 -171l141 -173z" />
    <glyph glyph-name="Oslash" unicode="&#xd8;" horiz-adv-x="978" 
d="M108 -21l83 72q-51 33 -75.5 87.5t-24.5 129.5q0 209 127.5 310.5t390.5 101.5q163 0 258 -45l94 81l25 -26l-83 -72q102 -68 102 -217q0 -208 -127.5 -310t-390.5 -102q-84 0 -147.5 11t-114.5 34l-93 -81zM316 110q35 -16 81 -23t106 -7q108 0 182.5 17.5t121 55
t67.5 96.5t21 142q0 113 -76 158zM776 560q-70 29 -183 29q-108 0 -183 -17.5t-121.5 -55t-67.5 -96.5t-21 -142q0 -114 75 -157z" />
    <glyph glyph-name="Ugrave" unicode="&#xd9;" horiz-adv-x="918" 
d="M96 0zM876 669h109l-67 -377q-54 -303 -441 -303q-198 0 -289.5 58.5t-91.5 177.5q0 31 6 67l67 377h108l-67 -377q-6 -30 -5 -52q0 -84 68 -122.5t220 -38.5q87 0 143.5 12t91.5 38t53 66.5t28 96.5zM427 805l11 62l270 -106l-8 -46z" />
    <glyph glyph-name="Uacute" unicode="&#xda;" horiz-adv-x="918" 
d="M96 0zM876 669h109l-67 -377q-54 -303 -441 -303q-198 0 -289.5 58.5t-91.5 177.5q0 31 6 67l67 377h108l-67 -377q-6 -30 -5 -52q0 -84 68 -122.5t220 -38.5q87 0 143.5 12t91.5 38t53 66.5t28 96.5zM468 715l8 46l307 106l-10 -62z" />
    <glyph glyph-name="Ucircumflex" unicode="&#xdb;" horiz-adv-x="918" 
d="M96 0zM876 669h109l-67 -377q-54 -303 -441 -303q-198 0 -289.5 58.5t-91.5 177.5q0 31 6 67l67 377h108l-67 -377q-6 -30 -5 -52q0 -84 68 -122.5t220 -38.5q87 0 143.5 12t91.5 38t53 66.5t28 96.5zM682 715l-74 123h-5l-116 -123h-58l145 152h74l91 -152h-57z" />
    <glyph glyph-name="Udieresis" unicode="&#xdc;" horiz-adv-x="918" 
d="M96 0zM876 669h109l-67 -377q-54 -303 -441 -303q-198 0 -289.5 58.5t-91.5 177.5q0 31 6 67l67 377h108l-67 -377q-6 -30 -5 -52q0 -84 68 -122.5t220 -38.5q87 0 143.5 12t91.5 38t53 66.5t28 96.5zM754 811q0 -23 -18 -36.5t-41 -13.5q-19 0 -31 10t-12 27
q0 23 17.5 36.5t40.5 13.5q20 0 32 -10t12 -27zM550 811q0 -23 -17.5 -36.5t-40.5 -13.5q-19 0 -31.5 10t-12.5 27q0 23 18 36.5t41 13.5q19 0 31 -10t12 -27z" />
    <glyph glyph-name="Yacute" unicode="&#xdd;" horiz-adv-x="961" 
d="M125 0zM430 0l43 248l-348 421h136l280 -339l391 339h141l-492 -421l-43 -248h-108zM470 715l8 46l307 106l-10 -62z" />
    <glyph glyph-name="Thorn" unicode="&#xde;" horiz-adv-x="878" 
d="M283 98l89 92h214q46 0 84 10.5t65.5 30.5t43 49t15.5 66q0 57 -42.5 85t-117.5 28h-385l-81 -459h-108l118 669h108l-22 -120h375q126 0 196 -48.5t70 -139.5q0 -60 -25 -108.5t-70.5 -83t-109 -53t-140.5 -18.5h-277z" />
    <glyph glyph-name="germandbls" unicode="&#xdf;" horiz-adv-x="1808" 
d="M22 0zM22 0l87 91h525q88 0 131 32t43 92q0 27 -12.5 43t-36 24.5t-57.5 11t-77 2.5h-270q-112 0 -166 39t-54 112q0 102 73 162t231 60h541l-86 -92h-479q-88 0 -131 -31.5t-43 -91.5q0 -26 12.5 -41.5t36 -23.5t57.5 -10.5t77 -2.5h271q218 0 218 -149q0 -53 -17.5 -95
t-54 -71.5t-94 -45t-137.5 -15.5h-588zM926 0l87 91h525q88 0 131 32t43 92q0 27 -12.5 43t-36 24.5t-57.5 11t-77 2.5h-270q-112 0 -166 39t-54 112q0 102 73 162t231 60h541l-86 -92h-479q-88 0 -131 -31.5t-43 -91.5q0 -26 12.5 -41.5t36 -23.5t57.5 -10.5t77 -2.5h271
q218 0 218 -149q0 -53 -17.5 -95t-54 -71.5t-94 -45t-137.5 -15.5h-588z" />
    <glyph glyph-name="agrave" unicode="&#xe0;" 
d="M10 0zM289 0l82 91h466l-227 464l-472 -555h-128l546 637q14 16 33.5 28t44.5 13q24 0 40 -12t24 -29l316 -637h-725zM480 805l11 62l270 -106l-8 -46z" />
    <glyph glyph-name="aacute" unicode="&#xe1;" 
d="M10 0zM289 0l82 91h466l-227 464l-472 -555h-128l546 637q14 16 33.5 28t44.5 13q24 0 40 -12t24 -29l316 -637h-725zM521 715l8 46l307 106l-10 -62z" />
    <glyph glyph-name="acircumflex" unicode="&#xe2;" 
d="M10 0zM289 0l82 91h466l-227 464l-472 -555h-128l546 637q14 16 33.5 28t44.5 13q24 0 40 -12t24 -29l316 -637h-725zM735 715l-74 123h-5l-116 -123h-58l145 152h74l91 -152h-57z" />
    <glyph glyph-name="atilde" unicode="&#xe3;" 
d="M10 0zM289 0l82 91h466l-227 464l-472 -555h-128l546 637q14 16 33.5 28t44.5 13q24 0 40 -12t24 -29l316 -637h-725zM793 782q-18 -24 -38 -33.5t-43 -9.5q-20 0 -35.5 9.5t-30.5 21t-30.5 21t-33.5 9.5q-22 0 -42.5 -12t-40.5 -40l9 52q18 24 38.5 33t43.5 9
q19 0 35 -9.5t30.5 -20.5t30 -20.5t34.5 -9.5q21 0 42 11.5t41 40.5z" />
    <glyph glyph-name="adieresis" unicode="&#xe4;" 
d="M10 0zM289 0l82 91h466l-227 464l-472 -555h-128l546 637q14 16 33.5 28t44.5 13q24 0 40 -12t24 -29l316 -637h-725zM806 811q0 -23 -18 -36.5t-41 -13.5q-19 0 -31 10t-12 27q0 23 17.5 36.5t40.5 13.5q20 0 32 -10t12 -27zM602 811q0 -23 -17.5 -36.5t-40.5 -13.5
q-19 0 -31.5 10t-12.5 27q0 23 18 36.5t41 13.5q19 0 31 -10t12 -27z" />
    <glyph glyph-name="aring" unicode="&#xe5;" 
d="M10 0zM289 0l82 91h466l-227 464l-472 -555h-128l546 637q14 16 33.5 28t44.5 13q24 0 40 -12t24 -29l316 -637h-725zM601 715q-91 0 -91 64q0 5 0.5 9.5t1.5 9.5l11 63q8 42 36 63t82 21h72q91 0 91 -64q0 -5 -0.5 -10t-1.5 -10l-11 -63q-15 -83 -119 -83h-71zM757 849
q1 5 1.5 9t0.5 8q0 23 -17 30.5t-49 7.5h-47q-37 0 -56 -10.5t-25 -44.5l-7 -40q-1 -5 -1.5 -8.5t-0.5 -7.5q0 -25 18 -31.5t46 -6.5h48q32 0 53.5 8.5t26.5 37.5z" />
    <glyph glyph-name="ae" unicode="&#xe6;" horiz-adv-x="1383" 
d="M10 0zM660 0l102 577h-111l-513 -577h-128l558 627q14 17 34.5 29.5t47.5 12.5h839l-87 -92h-531l-36 -201h570l-76 -80h-508l-36 -205h606l-87 -91h-644z" />
    <glyph glyph-name="ccedilla" unicode="&#xe7;" horiz-adv-x="856" 
d="M94 0zM425 0q-75 0 -136 21t-104.5 58.5t-67 89.5t-23.5 114q0 85 36.5 156t98 122t142.5 79.5t171 28.5h423l-87 -92h-352q-51 0 -108 -17t-105 -52t-79 -89t-31 -128q0 -51 22 -88.5t61.5 -62.5t93.5 -37t119 -12h364l-86 -91h-352zM366 -255l59 224h83l-101 -224h-41z
" />
    <glyph glyph-name="egrave" unicode="&#xe8;" horiz-adv-x="782" 
d="M60 0zM60 0l118 669h711l-87 -92h-531l-36 -201h570l-76 -80h-508l-36 -205h606l-87 -91h-644zM375 805l11 62l270 -106l-8 -46z" />
    <glyph glyph-name="eacute" unicode="&#xe9;" horiz-adv-x="782" 
d="M60 0zM60 0l118 669h711l-87 -92h-531l-36 -201h570l-76 -80h-508l-36 -205h606l-87 -91h-644zM407 715l8 46l307 106l-10 -62z" />
    <glyph glyph-name="ecircumflex" unicode="&#xea;" horiz-adv-x="782" 
d="M60 0zM60 0l118 669h711l-87 -92h-531l-36 -201h570l-76 -80h-508l-36 -205h606l-87 -91h-644zM632 715l-74 123h-5l-116 -123h-58l145 152h74l91 -152h-57z" />
    <glyph glyph-name="edieresis" unicode="&#xeb;" horiz-adv-x="782" 
d="M60 0zM60 0l118 669h711l-87 -92h-531l-36 -201h570l-76 -80h-508l-36 -205h606l-87 -91h-644zM706 811q0 -23 -18 -36.5t-41 -13.5q-19 0 -31 10t-12 27q0 23 17.5 36.5t40.5 13.5q20 0 32 -10t12 -27zM502 811q0 -23 -17.5 -36.5t-40.5 -13.5q-19 0 -31.5 10t-12.5 27
q0 23 18 36.5t41 13.5q19 0 31 -10t12 -27z" />
    <glyph glyph-name="igrave" unicode="&#xec;" horiz-adv-x="234" 
d="M62 0zM62 0l119 669h108l-119 -669h-108zM87 805l11 62l270 -106l-8 -46z" />
    <glyph glyph-name="iacute" unicode="&#xed;" horiz-adv-x="234" 
d="M62 0zM62 0l119 669h108l-119 -669h-108zM127 715l8 46l307 106l-10 -62z" />
    <glyph glyph-name="icircumflex" unicode="&#xee;" horiz-adv-x="234" 
d="M62 0zM62 0l119 669h108l-119 -669h-108zM342 715l-74 123h-5l-116 -123h-58l145 152h74l91 -152h-57z" />
    <glyph glyph-name="idieresis" unicode="&#xef;" horiz-adv-x="234" 
d="M62 0zM62 0l119 669h108l-119 -669h-108zM413 811q0 -23 -18 -36.5t-41 -13.5q-19 0 -31 10t-12 27q0 23 17.5 36.5t40.5 13.5q20 0 32 -10t12 -27zM209 811q0 -23 -17.5 -36.5t-40.5 -13.5q-19 0 -31.5 10t-12.5 27q0 23 18 36.5t41 13.5q19 0 31 -10t12 -27z" />
    <glyph glyph-name="eth" unicode="&#xf0;" horiz-adv-x="962" 
d="M53 0zM132 0l53 300h-132l77 80h521l-77 -80h-282l-36 -209h307q63 0 120.5 22.5t100.5 61.5t68.5 92.5t25.5 116.5q0 51 -16.5 88t-47 60t-72.5 34t-93 11h-415l85 92h346q73 0 132.5 -20.5t101.5 -57.5t65 -89t23 -114q0 -81 -35.5 -152t-95.5 -123.5t-140 -82.5
t-169 -30h-415z" />
    <glyph glyph-name="ntilde" unicode="&#xf1;" horiz-adv-x="856" 
d="M57 0zM249 534l-94 -534h-98l108 610q6 36 26 52t46 16q9 0 20 -4.5t22 -16.5l447 -521l94 536h98l-108 -610q-7 -36 -27 -52t-45 -16q-11 0 -21.5 3.5t-20.5 16.5zM695 782q-18 -24 -38 -33.5t-43 -9.5q-20 0 -35.5 9.5t-30.5 21t-30.5 21t-33.5 9.5q-22 0 -42.5 -12
t-40.5 -40l9 52q18 24 38.5 33t43.5 9q19 0 35 -9.5t30.5 -20.5t30 -20.5t34.5 -9.5q21 0 42 11.5t41 40.5z" />
    <glyph glyph-name="ograve" unicode="&#xf2;" horiz-adv-x="978" 
d="M91 0zM1005 402q0 -209 -127.5 -311t-390.5 -102q-199 0 -297.5 67t-98.5 212q0 209 127.5 310.5t390.5 101.5q199 0 297.5 -66.5t98.5 -211.5zM895 391q0 54 -18 92t-55.5 61.5t-94.5 34t-134 10.5q-108 0 -183 -17.5t-121.5 -55t-67 -96.5t-20.5 -141q0 -54 18 -92
t55.5 -62t94 -34.5t134.5 -10.5q108 0 182.5 17.5t121 55t67.5 96.5t21 142zM458 805l11 62l270 -106l-8 -46z" />
    <glyph glyph-name="oacute" unicode="&#xf3;" horiz-adv-x="978" 
d="M91 0zM1005 402q0 -209 -127.5 -311t-390.5 -102q-199 0 -297.5 67t-98.5 212q0 209 127.5 310.5t390.5 101.5q199 0 297.5 -66.5t98.5 -211.5zM895 391q0 54 -18 92t-55.5 61.5t-94.5 34t-134 10.5q-108 0 -183 -17.5t-121.5 -55t-67 -96.5t-20.5 -141q0 -54 18 -92
t55.5 -62t94 -34.5t134.5 -10.5q108 0 182.5 17.5t121 55t67.5 96.5t21 142zM498 715l8 46l307 106l-10 -62z" />
    <glyph glyph-name="ocircumflex" unicode="&#xf4;" horiz-adv-x="978" 
d="M91 0zM1005 402q0 -209 -127.5 -311t-390.5 -102q-199 0 -297.5 67t-98.5 212q0 209 127.5 310.5t390.5 101.5q199 0 297.5 -66.5t98.5 -211.5zM895 391q0 54 -18 92t-55.5 61.5t-94.5 34t-134 10.5q-108 0 -183 -17.5t-121.5 -55t-67 -96.5t-20.5 -141q0 -54 18 -92
t55.5 -62t94 -34.5t134.5 -10.5q108 0 182.5 17.5t121 55t67.5 96.5t21 142zM713 715l-74 123h-5l-116 -123h-58l145 152h74l91 -152h-57z" />
    <glyph glyph-name="otilde" unicode="&#xf5;" horiz-adv-x="978" 
d="M91 0zM1005 402q0 -209 -127.5 -311t-390.5 -102q-199 0 -297.5 67t-98.5 212q0 209 127.5 310.5t390.5 101.5q199 0 297.5 -66.5t98.5 -211.5zM895 391q0 54 -18 92t-55.5 61.5t-94.5 34t-134 10.5q-108 0 -183 -17.5t-121.5 -55t-67 -96.5t-20.5 -141q0 -54 18 -92
t55.5 -62t94 -34.5t134.5 -10.5q108 0 182.5 17.5t121 55t67.5 96.5t21 142zM770 782q-18 -24 -38 -33.5t-43 -9.5q-20 0 -35.5 9.5t-30.5 21t-30.5 21t-33.5 9.5q-22 0 -42.5 -12t-40.5 -40l9 52q18 24 38.5 33t43.5 9q19 0 35 -9.5t30.5 -20.5t30 -20.5t34.5 -9.5
q21 0 42 11.5t41 40.5z" />
    <glyph glyph-name="odieresis" unicode="&#xf6;" horiz-adv-x="978" 
d="M91 0zM1005 402q0 -209 -127.5 -311t-390.5 -102q-199 0 -297.5 67t-98.5 212q0 209 127.5 310.5t390.5 101.5q199 0 297.5 -66.5t98.5 -211.5zM895 391q0 54 -18 92t-55.5 61.5t-94.5 34t-134 10.5q-108 0 -183 -17.5t-121.5 -55t-67 -96.5t-20.5 -141q0 -54 18 -92
t55.5 -62t94 -34.5t134.5 -10.5q108 0 182.5 17.5t121 55t67.5 96.5t21 142zM783 811q0 -23 -18 -36.5t-41 -13.5q-19 0 -31 10t-12 27q0 23 17.5 36.5t40.5 13.5q20 0 32 -10t12 -27zM579 811q0 -23 -17.5 -36.5t-40.5 -13.5q-19 0 -31.5 10t-12.5 27q0 23 18 36.5t41 13.5
q19 0 31 -10t12 -27z" />
    <glyph glyph-name="divide" unicode="&#xf7;" horiz-adv-x="625" 
d="M94 78zM94 310l11 61h546l-11 -61h-546zM469 538q0 -30 -22.5 -47t-53.5 -17q-23 0 -38.5 12.5t-15.5 34.5q0 30 22.5 46.5t51.5 16.5q24 0 40 -12t16 -34zM400 142q0 -30 -22.5 -47t-53.5 -17q-23 0 -38.5 12.5t-15.5 34.5q0 30 22.5 46.5t51.5 16.5q24 0 40 -12t16 -34
z" />
    <glyph glyph-name="oslash" unicode="&#xf8;" horiz-adv-x="978" 
d="M91 0zM108 -21l83 72q-51 33 -75.5 87.5t-24.5 129.5q0 209 127.5 310.5t390.5 101.5q163 0 258 -45l94 81l25 -26l-83 -72q102 -68 102 -217q0 -208 -127.5 -310t-390.5 -102q-84 0 -147.5 11t-114.5 34l-93 -81zM316 110q35 -16 81 -23t106 -7q108 0 182.5 17.5t121 55
t67.5 96.5t21 142q0 113 -76 158zM776 560q-70 29 -183 29q-108 0 -183 -17.5t-121.5 -55t-67.5 -96.5t-21 -142q0 -114 75 -157z" />
    <glyph glyph-name="ugrave" unicode="&#xf9;" horiz-adv-x="918" 
d="M96 0zM876 669h109l-67 -377q-54 -303 -441 -303q-198 0 -289.5 58.5t-91.5 177.5q0 31 6 67l67 377h108l-67 -377q-6 -30 -5 -52q0 -84 68 -122.5t220 -38.5q87 0 143.5 12t91.5 38t53 66.5t28 96.5zM427 805l11 62l270 -106l-8 -46z" />
    <glyph glyph-name="uacute" unicode="&#xfa;" horiz-adv-x="918" 
d="M96 0zM876 669h109l-67 -377q-54 -303 -441 -303q-198 0 -289.5 58.5t-91.5 177.5q0 31 6 67l67 377h108l-67 -377q-6 -30 -5 -52q0 -84 68 -122.5t220 -38.5q87 0 143.5 12t91.5 38t53 66.5t28 96.5zM468 715l8 46l307 106l-10 -62z" />
    <glyph glyph-name="ucircumflex" unicode="&#xfb;" horiz-adv-x="918" 
d="M96 0zM876 669h109l-67 -377q-54 -303 -441 -303q-198 0 -289.5 58.5t-91.5 177.5q0 31 6 67l67 377h108l-67 -377q-6 -30 -5 -52q0 -84 68 -122.5t220 -38.5q87 0 143.5 12t91.5 38t53 66.5t28 96.5zM682 715l-74 123h-5l-116 -123h-58l145 152h74l91 -152h-57z" />
    <glyph glyph-name="udieresis" unicode="&#xfc;" horiz-adv-x="918" 
d="M96 0zM876 669h109l-67 -377q-54 -303 -441 -303q-198 0 -289.5 58.5t-91.5 177.5q0 31 6 67l67 377h108l-67 -377q-6 -30 -5 -52q0 -84 68 -122.5t220 -38.5q87 0 143.5 12t91.5 38t53 66.5t28 96.5zM754 811q0 -23 -18 -36.5t-41 -13.5q-19 0 -31 10t-12 27
q0 23 17.5 36.5t40.5 13.5q20 0 32 -10t12 -27zM550 811q0 -23 -17.5 -36.5t-40.5 -13.5q-19 0 -31.5 10t-12.5 27q0 23 18 36.5t41 13.5q19 0 31 -10t12 -27z" />
    <glyph glyph-name="yacute" unicode="&#xfd;" horiz-adv-x="961" 
d="M125 0zM430 0l43 248l-348 421h136l280 -339l391 339h141l-492 -421l-43 -248h-108zM470 715l8 46l307 106l-10 -62z" />
    <glyph glyph-name="thorn" unicode="&#xfe;" horiz-adv-x="878" 
d="M60 0zM283 98l89 92h214q46 0 84 10.5t65.5 30.5t43 49t15.5 66q0 57 -42.5 85t-117.5 28h-385l-81 -459h-108l118 669h108l-22 -120h375q126 0 196 -48.5t70 -139.5q0 -60 -25 -108.5t-70.5 -83t-109 -53t-140.5 -18.5h-277z" />
    <glyph glyph-name="ydieresis" unicode="&#xff;" horiz-adv-x="961" 
d="M125 0zM430 0l43 248l-348 421h136l280 -339l391 339h141l-492 -421l-43 -248h-108zM774 811q0 -23 -18 -36.5t-41 -13.5q-19 0 -31 10t-12 27q0 23 17.5 36.5t40.5 13.5q20 0 32 -10t12 -27zM570 811q0 -23 -17.5 -36.5t-40.5 -13.5q-19 0 -31.5 10t-12.5 27
q0 23 18 36.5t41 13.5q19 0 31 -10t12 -27z" />
    <glyph glyph-name="dotlessi" unicode="&#x131;" horiz-adv-x="234" 
d="M62 0zM62 0l119 669h108l-119 -669h-108z" />
    <glyph glyph-name="OE" unicode="&#x152;" horiz-adv-x="1432" 
d="M724 0q-17 -3 -47 -5t-64 -3.5t-68 -2t-58 -0.5q-199 0 -297.5 67t-98.5 212q0 209 127.5 310.5t390.5 101.5q24 0 57.5 -0.5t67 -2t63 -3.5t45.5 -5h696l-86 -92h-518l-36 -201h558l-78 -80h-494l-36 -205h592l-86 -91h-630zM825 574q-15 4 -44 7t-62.5 4.5t-67 2.5
t-58.5 1q-108 0 -183 -17.5t-121.5 -55t-67 -96.5t-20.5 -141q0 -54 18 -92t55.5 -62t94 -34.5t134.5 -10.5q25 0 59 0.5t68 2.5t64 5t47 8z" />
    <glyph glyph-name="oe" unicode="&#x153;" horiz-adv-x="1432" 
d="M91 0zM724 0q-17 -3 -47 -5t-64 -3.5t-68 -2t-58 -0.5q-199 0 -297.5 67t-98.5 212q0 209 127.5 310.5t390.5 101.5q24 0 57.5 -0.5t67 -2t63 -3.5t45.5 -5h696l-86 -92h-518l-36 -201h558l-78 -80h-494l-36 -205h592l-86 -91h-630zM825 574q-15 4 -44 7t-62.5 4.5
t-67 2.5t-58.5 1q-108 0 -183 -17.5t-121.5 -55t-67 -96.5t-20.5 -141q0 -54 18 -92t55.5 -62t94 -34.5t134.5 -10.5q25 0 59 0.5t68 2.5t64 5t47 8z" />
    <glyph glyph-name="circumflex" unicode="&#x2c6;" horiz-adv-x="399" 
d="M423 715l-74 123h-5l-116 -123h-58l145 152h74l91 -152h-57z" />
    <glyph glyph-name="ring" unicode="&#x2da;" horiz-adv-x="369" 
d="M274 715q-91 0 -91 64q0 5 0.5 9.5t1.5 9.5l11 63q8 42 36 63t82 21h72q91 0 91 -64q0 -5 -0.5 -10t-1.5 -10l-11 -63q-15 -83 -119 -83h-71zM430 849q1 5 1.5 9t0.5 8q0 23 -17 30.5t-49 7.5h-47q-37 0 -56 -10.5t-25 -44.5l-7 -40q-1 -5 -1.5 -8.5t-0.5 -7.5
q0 -25 18 -31.5t46 -6.5h48q32 0 53.5 8.5t26.5 37.5z" />
    <glyph glyph-name="tilde" unicode="&#x2dc;" horiz-adv-x="379" 
d="M470 782q-18 -24 -38 -33.5t-43 -9.5q-20 0 -35.5 9.5t-30.5 21t-30.5 21t-33.5 9.5q-22 0 -42.5 -12t-40.5 -40l9 52q18 24 38.5 33t43.5 9q19 0 35 -9.5t30.5 -20.5t30 -20.5t34.5 -9.5q21 0 42 11.5t41 40.5z" />
    <glyph glyph-name="endash" unicode="&#x2013;" horiz-adv-x="561" 
d="M67 303l66 70h481l-67 -70h-480z" />
    <glyph glyph-name="emdash" unicode="&#x2014;" horiz-adv-x="938" 
d="M67 303l66 70h858l-67 -70h-857z" />
    <glyph glyph-name="quoteleft" unicode="&#x2018;" horiz-adv-x="152" 
d="M160 401l-26 268h101l-28 -268h-47z" />
    <glyph glyph-name="quoteright" unicode="&#x2019;" horiz-adv-x="152" 
d="M87 401l67 268h101l-122 -268h-46z" />
    <glyph glyph-name="quotesinglbase" unicode="&#x201a;" horiz-adv-x="152" 
d="M-1 -96l67 268h101l-122 -268h-46z" />
    <glyph glyph-name="quotedblleft" unicode="&#x201c;" horiz-adv-x="332" 
d="M340 401l-26 268h101l-28 -268h-47zM160 401l-26 268h101l-28 -268h-47z" />
    <glyph glyph-name="quotedblright" unicode="&#x201d;" horiz-adv-x="332" 
d="M87 401l67 268h101l-122 -268h-46zM267 401l67 268h100l-121 -268h-46z" />
    <glyph glyph-name="quotedblbase" unicode="&#x201e;" horiz-adv-x="332" 
d="M-1 -96l67 268h101l-122 -268h-46zM179 -96l67 268h100l-121 -268h-46z" />
    <glyph glyph-name="dagger" unicode="&#x2020;" horiz-adv-x="411" 
d="M259 0l-15 429l-138 21l138 22l15 197h17l16 -197l138 -22l-138 -21l-15 -429h-18z" />
    <glyph glyph-name="daggerdbl" unicode="&#x2021;" horiz-adv-x="420" 
d="M273 0l-16 171l-136 17l135 29v235l-136 20l137 26l16 171h17l14 -171l137 -18l-136 -29v-234l136 -29l-137 -17l-14 -171h-17z" />
    <glyph glyph-name="bullet" unicode="&#x2022;" horiz-adv-x="372" 
d="M245 204q-27 0 -50.5 10.5t-41 28t-28 41.5t-10.5 51t10.5 50.5t28 41t41 28t50.5 10.5t51 -10.5t41.5 -28t28 -41t10.5 -50.5t-10.5 -51t-28 -41.5t-41.5 -28t-51 -10.5z" />
    <glyph glyph-name="ellipsis" unicode="&#x2026;" horiz-adv-x="1032" 
d="M47 0zM177 55q0 -30 -22.5 -47t-53.5 -17q-23 0 -38.5 12.5t-15.5 34.5q0 30 22.5 46.5t51.5 16.5q24 0 40 -12t16 -34zM590 55q0 -30 -22.5 -47t-53.5 -17q-23 0 -38.5 12.5t-15.5 34.5q0 30 22.5 46.5t51.5 16.5q24 0 40 -12t16 -34zM1002 55q0 -30 -22.5 -47
t-53.5 -17q-23 0 -38.5 12.5t-15.5 34.5q0 30 22.5 46.5t51.5 16.5q24 0 40 -12t16 -34z" />
    <glyph glyph-name="perthousand" unicode="&#x2030;" horiz-adv-x="1244" 
d="M109 0zM524 565q0 -103 -60 -160.5t-169 -57.5q-85 0 -127 31t-42 97q0 56 16.5 97t46.5 67.5t72.5 39.5t94.5 13q85 0 126.5 -30.5t41.5 -96.5zM303 392q81 0 124 40.5t43 125.5q0 48 -29.5 68.5t-92.5 20.5q-79 0 -123.5 -37t-44.5 -130q0 -48 30 -68t93 -20zM109 -38
l682 744h48l-679 -744h-51zM818 203q0 -103 -60 -160.5t-169 -57.5q-85 0 -127 31t-42 97q0 56 16.5 97t46.5 67.5t72.5 39.5t94.5 13q85 0 126.5 -30.5t41.5 -96.5zM597 30q81 0 124 40.5t43 125.5q0 48 -29.5 68.5t-92.5 20.5q-79 0 -123.5 -37t-44.5 -130q0 -48 30 -68
t93 -20zM1236 203q0 -103 -60 -160.5t-169 -57.5q-85 0 -127 31t-42 97q0 56 16.5 97t46.5 67.5t72.5 39.5t94.5 13q85 0 126.5 -30.5t41.5 -96.5zM1015 30q81 0 124 40.5t43 125.5q0 48 -29.5 68.5t-92.5 20.5q-79 0 -123.5 -37t-44.5 -130q0 -48 30 -68t93 -20z" />
    <glyph glyph-name="guilsinglleft" unicode="&#x2039;" horiz-adv-x="241" 
d="M79 298l9 49l198 135l-10 -54l-157 -103l121 -104l-9 -53z" />
    <glyph glyph-name="guilsinglright" unicode="&#x203a;" horiz-adv-x="241" 
d="M73 168l9 53l157 104l-121 103l10 54l150 -135l-8 -49z" />
    <glyph glyph-name="fraction" unicode="&#x2044;" horiz-adv-x="275" 
d="M-163 -38l682 744h48l-679 -744h-51z" />
    <glyph glyph-name="uni2074" unicode="&#x2074;" horiz-adv-x="470" 
d="M102 353zM379 353l10 59h-263q-11 0 -17 6.5t-6 14.5q-1 13 17 26l305 216q8 6 16.5 10.5t18.5 4.5q11 0 18.5 -6t7.5 -19q0 -2 -0.5 -4t-0.5 -4l-36 -201h83l-39 -44h-51l-11 -59h-52zM427 626l-242 -170h212z" />
    <glyph glyph-name="uni2080" horiz-adv-x="458" 
d="M455 203q0 -103 -60 -160.5t-169 -57.5q-85 0 -127 31t-42 97q0 56 16.5 97t46.5 67.5t72.5 39.5t94.5 13q85 0 126.5 -30.5t41.5 -96.5zM234 30q81 0 124 40.5t43 125.5q0 48 -29.5 68.5t-92.5 20.5q-79 0 -123.5 -37t-44.5 -130q0 -48 30 -68t93 -20z" />
    <glyph glyph-name="uni2081" horiz-adv-x="200" 
d="M99 -9l51 288l-37 -41h-51l77 87h73l-59 -334h-54z" />
    <glyph glyph-name="uni2082" horiz-adv-x="468" 
d="M35 -9l17 98q8 46 42 67.5t91 21.5h146q86 0 86 60q0 23 -23.5 32t-71.5 9h-217l43 46h204q64 0 91.5 -20.5t27.5 -55.5q0 -49 -35.5 -80t-107.5 -31h-145q-35 0 -54.5 -11t-24.5 -37l-9 -54h345l-43 -45h-362z" />
    <glyph glyph-name="uni2083" horiz-adv-x="450" 
d="M16 -9l43 45h242q12 0 26 3t25.5 10t19 19t7.5 30q0 20 -13.5 30t-33.5 10h-199l36 41h171q10 0 20.5 4.5t18.5 12.5t13.5 19t5.5 23q0 41 -52 41h-265l43 46h228q48 0 74 -18.5t26 -53.5q0 -19 -6 -34.5t-16 -27t-21.5 -19t-22.5 -10.5q18 -5 32 -21t14 -42
q0 -22 -8 -41.5t-25 -34.5t-43.5 -23.5t-63.5 -8.5h-276z" />
    <glyph glyph-name="uni2084" horiz-adv-x="470" 
d="M316 -9l10 59h-263q-11 0 -17 6.5t-6 14.5q-1 13 17 26l305 216q8 6 16.5 10.5t18.5 4.5q11 0 18.5 -6t7.5 -19q0 -2 -0.5 -4t-0.5 -4l-36 -201h83l-39 -44h-51l-11 -59h-52zM364 264l-242 -170h212z" />
    <glyph glyph-name="Euro" unicode="&#x20ac;" horiz-adv-x="821" 
d="M466 0q-67 0 -123 17t-98 48t-69 74t-36 95h-95l67 70h25q0 17 3.5 33.5t7.5 35.5h-79l67 70h39q27 52 68.5 93.5t94.5 71t115.5 45.5t130.5 16h333l-87 -92h-262q-37 0 -76 -8t-75.5 -24.5t-69 -42t-56.5 -59.5h411l-67 -70h-379q-2 -5 -4 -13.5t-4 -18t-3 -18t-1 -13.5
v-6h326l-67 -70h-250q12 -36 38 -63t63.5 -45t84.5 -26.5t101 -8.5h174l-88 -91h-160z" />
    <glyph glyph-name="minus" unicode="&#x2212;" horiz-adv-x="625" 
d="M94 310l11 61h546l-11 -61h-546z" />
    <glyph glyph-name=".ttfautohint" horiz-adv-x="625" 
d="M0 0z" />
    </font>
</defs>
</svg>
