<?xml version="1.0" standalone="no"?>
<!DOCTYPE svg PUBLIC "-//W3C//DTD SVG 1.1//EN" "http://www.w3.org/Graphics/SVG/1.1/DTD/svg11.dtd" >
<svg xmlns="http://www.w3.org/2000/svg" xmlns:xlink="http://www.w3.org/1999/xlink" version="1.1">
<metadata>
Created by FontForge 20170910 at Tue Sep  9 13:10:15 2014
 By Jimmy Wärting
(c) 1999-2009 Ray Larabie. See attached license agreement for more information. If EULA is missing, visit www.larabiefonts.com for an updated version of this font.
</metadata>
<defs>
<font id="EthnocentricW00-ExtraLight" horiz-adv-x="967" >
  <font-face 
    font-family="EthnocentricW00-ExtraLight"
    font-weight="250"
    font-stretch="normal"
    units-per-em="1000"
    panose-1="2 0 4 0 0 0 0 0 0 0"
    ascent="800"
    descent="-200"
    x-height="669"
    cap-height="669"
    bbox="-152 -255 1719 946"
    underline-thickness="50"
    underline-position="-175"
    unicode-range="U+0017-F8FF"
  />
<missing-glyph horiz-adv-x="423" 
d="M119 0q-92 0 -92 79v510q0 80 92 80h183q45 0 69 -20t24 -60v-510q0 -40 -24 -59.5t-69 -19.5h-183zM345 589q0 37 -43 37h-183q-43 0 -43 -37v-510q0 -36 43 -36h183q43 0 43 36v510z" />
    <glyph glyph-name=".notdef" horiz-adv-x="423" 
d="M119 0q-92 0 -92 79v510q0 80 92 80h183q45 0 69 -20t24 -60v-510q0 -40 -24 -59.5t-69 -19.5h-183zM345 589q0 37 -43 37h-183q-43 0 -43 -37v-510q0 -36 43 -36h183q43 0 43 36v510z" />
    <glyph glyph-name=".null" horiz-adv-x="0" 
 />
    <glyph glyph-name="nonmarkingreturn" horiz-adv-x="333" 
 />
    <glyph glyph-name="glyph385" horiz-adv-x="0" 
 />
    <glyph glyph-name="glyph385" horiz-adv-x="0" 
 />
    <glyph glyph-name="uni0017" horiz-adv-x="354" 
 />
    <glyph glyph-name="space" unicode=" " horiz-adv-x="354" 
 />
    <glyph glyph-name="exclam" unicode="!" horiz-adv-x="170" 
d="M63 156l-9 172v341h64v-341l-9 -172h-46zM127 26q0 -16 -11.5 -25t-28.5 -9t-28.5 9t-11.5 25q0 17 11.5 26t28.5 9t28.5 -9t11.5 -26z" />
    <glyph glyph-name="quotedbl" unicode="&#x22;" horiz-adv-x="233" 
d="M35 401l-20 268h60l-20 -268h-20zM177 401l-20 268h60l-20 -268h-20z" />
    <glyph glyph-name="numbersign" unicode="#" horiz-adv-x="633" 
d="M291 0l67 211h-172l-66 -211h-37l67 211h-124l14 43h123l59 186h-125l14 43h125l58 186h37l-58 -186h171l59 186h36l-59 -186h137l-13 -43h-136l-60 -186h139l-13 -43h-139l-67 -211h-37zM431 440h-172l-59 -186h171z" />
    <glyph glyph-name="dollar" unicode="$" horiz-adv-x="613" 
d="M302 0v108h-270l30 37h240v183h-69q-88 0 -130.5 29.5t-42.5 92.5q0 130 179 130h63v89h28v-89h241l-31 -38h-210v-182h73q88 0 131 -28.5t43 -92.5q0 -66 -43.5 -98.5t-136.5 -32.5h-67v-108h-28zM394 145q72 0 106.5 21.5t34.5 72.5t-34 70t-106 19h-65v-183h64z
M302 542h-64q-69 0 -102.5 -22.5t-33.5 -71.5q0 -51 33 -69.5t102 -18.5h65v182z" />
    <glyph glyph-name="percent" unicode="%" horiz-adv-x="888" 
d="M410 520q0 -91 -45.5 -132t-139.5 -41t-140 41t-46 132t46 131.5t140 40.5t139.5 -40.5t45.5 -131.5zM382 520q0 79 -38 113t-119 34t-119 -34t-38 -113q0 -81 38 -115t119 -34t119 34t38 115zM148 -38l555 744h30l-554 -744h-31zM849 158q0 -91 -45.5 -132t-139.5 -41
t-140 41t-46 132t46 131.5t140 40.5t139.5 -40.5t45.5 -131.5zM821 158q0 79 -38 113t-119 34t-119 -34t-38 -113q0 -81 38 -115t119 -34t119 34t38 115z" />
    <glyph glyph-name="ampersand" unicode="&#x26;" horiz-adv-x="745" 
d="M267 0q-62 0 -105.5 14t-70.5 39t-39.5 57.5t-12.5 70.5q0 36 10.5 64t28 48.5t39.5 33t45 17.5q-19 4 -38.5 15.5t-35.5 30.5t-26.5 44.5t-10.5 56.5q0 87 56.5 132.5t156.5 45.5h242l-38 -51h-207q-73 0 -113.5 -34t-40.5 -100q0 -26 10.5 -48.5t27 -39t38 -25.5
t43.5 -9h503l-32 -42h-165v-270h205l-39 -50h-431zM483 320h-256q-26 0 -49.5 -9.5t-41.5 -27t-28.5 -42t-10.5 -54.5q0 -29 10 -54t32 -43.5t56 -29t81 -10.5h207v270z" />
    <glyph glyph-name="quotesingle" unicode="'" horiz-adv-x="91" 
d="M35 401l-20 268h60l-20 -268h-20z" />
    <glyph glyph-name="parenleft" unicode="(" horiz-adv-x="271" 
d="M196 -129q-61 127 -88.5 239.5t-27.5 223.5q0 112 28 223t86 236h36q-60 -131 -88.5 -242t-28.5 -218q0 -53 6.5 -107t21 -110.5t37 -117t54.5 -127.5h-36z" />
    <glyph glyph-name="parenright" unicode=")" horiz-adv-x="271" 
d="M39 -129q62 134 90 244.5t28 217.5t-28.5 218t-88.5 242h37q56 -125 84.5 -236t28.5 -223q0 -111 -27.5 -223.5t-87.5 -239.5h-36z" />
    <glyph glyph-name="asterisk" unicode="*" horiz-adv-x="436" 
d="M316 324l-98 144l-98 -144l-23 17l98 144l-156 43l7 28l157 -45v158h30v-158l157 45l7 -28l-156 -43l99 -145z" />
    <glyph glyph-name="plus" unicode="+" horiz-adv-x="623" 
d="M293 67v257h-254v35h254v254h35v-254h257v-35h-257v-257h-35z" />
    <glyph glyph-name="comma" unicode="," horiz-adv-x="168" 
d="M44 -96l30 268h65l-60 -268h-35z" />
    <glyph glyph-name="hyphen" unicode="-" horiz-adv-x="362" 
d="M13 318l31 40h306l-31 -40h-306z" />
    <glyph glyph-name="period" unicode="." horiz-adv-x="155" 
d="M117 26q0 -16 -11 -25t-28 -9t-28 9t-11 25q0 17 11 26t28 9t28 -9t11 -26z" />
    <glyph glyph-name="slash" unicode="/" horiz-adv-x="388" 
d="M0 -38l350 744h38l-348 -744h-40z" />
    <glyph glyph-name="zero" unicode="0" horiz-adv-x="820" 
d="M781 335q0 -180 -92.5 -263t-278.5 -83t-278.5 83t-92.5 263q0 179 93 262t278 83t278 -83t93 -262zM723 335q0 79 -19 134.5t-58 91t-98 52t-138 16.5q-80 0 -138.5 -16.5t-97.5 -52t-58 -91t-19 -134.5q0 -158 77 -227t236 -69t236 69t77 227z" />
    <glyph glyph-name="one" unicode="1" horiz-adv-x="291" 
d="M174 0v618h-19l-87 -123h-57l125 174h97v-669h-59z" />
    <glyph glyph-name="two" unicode="2" horiz-adv-x="852" 
d="M44 0v187q0 91 57.5 131.5t169.5 40.5h278q106 0 151 33t45 96q0 64 -53 97t-171 33h-432l38 51h416q70 0 119.5 -13t80.5 -37t45 -56.5t14 -71.5q0 -41 -13.5 -74t-43.5 -56t-77 -35t-113 -12h-280q-85 0 -129.5 -28.5t-44.5 -97.5v-138h713l-38 -50h-732z" />
    <glyph glyph-name="three" unicode="3" horiz-adv-x="810" 
d="M9 0l38 50h496q81 0 125.5 35.5t44.5 101.5q0 30 -10.5 54t-28.5 41t-41.5 26t-49.5 9h-395l33 45h363q21 0 42.5 9.5t38 26t27 38.5t10.5 48q0 66 -39.5 100t-114.5 34h-514l39 51h473q100 0 156.5 -45.5t56.5 -132.5q0 -31 -10.5 -56.5t-26.5 -44.5t-36 -31t-38 -16
q22 -5 44 -17.5t39.5 -33t28.5 -48t11 -63.5q0 -38 -12.5 -70.5t-39.5 -57.5t-70.5 -39t-105.5 -14h-534z" />
    <glyph glyph-name="four" unicode="4" horiz-adv-x="848" 
d="M630 0v140h-571q-15 0 -24 8.5t-9 19.5q0 15 15 27l574 464q8 6 17 11t20 6q14 0 24 -9.5t10 -29.5v-450h156l-36 -47h-120v-140h-56zM630 607l-520 -420h520v420z" />
    <glyph glyph-name="five" unicode="5" horiz-adv-x="794" 
d="M39 0l39 50h426q100 0 147 33t47 102q0 37 -13.5 61.5t-39 39.5t-61.5 21t-80 6h-439v356h678l-39 -51h-581v-260h387q124 0 184.5 -41t60.5 -132q0 -185 -254 -185h-462z" />
    <glyph glyph-name="six" unicode="6" horiz-adv-x="880" 
d="M401 618q-61 0 -114.5 -18.5t-93.5 -52t-65 -80.5t-29 -104h516q104 0 165.5 -42t61.5 -126q0 -63 -31.5 -103t-84 -63t-121 -31.5t-141.5 -8.5q-209 0 -317 84.5t-108 267.5q0 73 27.5 133.5t76 104t115 67t145.5 23.5h389l-39 -51h-352zM99 319q4 -150 97.5 -215
t270.5 -65q67 0 125.5 7t101.5 25t67.5 48.5t24.5 77.5q0 63 -47 92.5t-128 29.5h-512z" />
    <glyph glyph-name="seven" unicode="7" horiz-adv-x="749" 
d="M170 0l493 618h-652l39 51h655q19 0 27.5 -8t8.5 -19t-5.5 -19.5t-13.5 -18.5l-478 -604h-74z" />
    <glyph glyph-name="eight" unicode="8" horiz-adv-x="838" 
d="M227 317q-26 0 -49.5 -9t-41.5 -26t-28.5 -41t-10.5 -54q0 -27 9.5 -52t30.5 -44t53 -30t77 -11h306q45 0 77 11t52.5 30t30 44t9.5 52q0 30 -11 54t-29 41t-41.5 26t-48.5 9h-385zM267 0q-62 0 -105.5 14t-70.5 39t-39.5 57.5t-12.5 70.5q0 36 10.5 64t28 48.5t39.5 33
t45 17.5q-19 4 -38.5 15.5t-35.5 30.5t-26.5 44.5t-10.5 56.5q0 87 56.5 132.5t156.5 45.5h311q100 0 156 -45.5t56 -132.5q0 -31 -10 -56.5t-26 -44t-35.5 -30.5t-38.5 -16q22 -5 44 -17.5t40 -33t29 -48.5t11 -64q0 -38 -12.5 -70.5t-40 -57.5t-71 -39t-105.5 -14h-305z
M261 618q-73 0 -113.5 -34t-40.5 -100q0 -26 10.5 -48.5t27 -39t38 -25.5t43.5 -9h386q22 0 44 9t38.5 25.5t27 39t10.5 48.5q0 66 -40 100t-115 34h-316z" />
    <glyph glyph-name="nine" unicode="9" horiz-adv-x="880" 
d="M97 0q10 12 19 24.5t19 25.5h345q68 0 123.5 19t95 55t61 88.5t21.5 119.5q-77 -12 -182 -21t-250 -9q-69 0 -126 7t-98 25.5t-63.5 52t-22.5 86.5q0 63 31.5 103t84 63t120.5 32t142 9q211 0 318 -83.5t107 -263.5q0 -75 -26.5 -136.5t-74.5 -105t-115 -67.5t-148 -24
h-381zM781 373q-11 136 -104 196t-263 60q-68 0 -126 -7t-101 -25t-67.5 -48.5t-24.5 -77.5q0 -63 49.5 -93.5t137.5 -30.5q160 0 282 6t217 20z" />
    <glyph glyph-name="colon" unicode=":" horiz-adv-x="211" 
d="M142 26q0 -16 -11.5 -25t-28.5 -9t-28.5 9t-11.5 25q0 17 11.5 26t28.5 9t28.5 -9t11.5 -26zM142 400q0 -16 -11.5 -25t-28.5 -9t-28.5 9t-11.5 25q0 17 11.5 25.5t28.5 8.5t28.5 -8.5t11.5 -25.5z" />
    <glyph glyph-name="semicolon" unicode=";" horiz-adv-x="181" 
d="M45 -96l30 268h65l-61 -268h-34zM147 400q0 -16 -11.5 -25t-28.5 -9t-28.5 9t-11.5 25q0 17 11.5 25.5t28.5 8.5t28.5 -8.5t11.5 -25.5z" />
    <glyph glyph-name="less" unicode="&#x3c;" horiz-adv-x="594" 
d="M52 316q-13 7 -13 21q0 13 13 20l504 242v-38l-466 -224l466 -224v-39z" />
    <glyph glyph-name="equal" unicode="=" horiz-adv-x="623" 
d="M39 186v35h546v-35h-546zM39 457v35h546v-35h-546z" />
    <glyph glyph-name="greater" unicode="&#x3e;" horiz-adv-x="594" 
d="M39 74v39l465 224l-465 224v38l503 -242q7 -3 10.5 -9t3.5 -11q0 -13 -14 -21z" />
    <glyph glyph-name="question" unicode="?" horiz-adv-x="661" 
d="M342 299q-51 0 -71 -20t-20 -59v-65h-50v69q0 57 30 88.5t102 31.5h88q73 0 115.5 34t42.5 100q0 140 -191 140h-377l39 51h346q121 0 180.5 -50.5t59.5 -138.5q0 -40 -13 -73t-39.5 -57t-66 -37.5t-91.5 -13.5h-84zM267 26q0 -16 -11 -25t-28 -9t-28.5 9t-11.5 25
q0 17 11.5 26t28.5 9t28 -9t11 -26z" />
    <glyph glyph-name="at" unicode="@" horiz-adv-x="805" 
d="M408 0q-80 0 -148 23.5t-117 66t-76.5 103t-27.5 134.5q0 73 28 136t77.5 108.5t117 71.5t146.5 26h340v-489h-361q-33 0 -60 12t-46 32.5t-29.5 48.5t-10.5 60q0 31 10 59t29 48.5t46 32.5t61 12h183v-275h137v424h-299q-70 0 -130 -23t-104.5 -63.5t-69.5 -96.5
t-25 -122t24.5 -120.5t68.5 -93.5t104.5 -60t131.5 -21h307l27 -34h-334zM534 456h-137q-55 0 -86.5 -35.5t-31.5 -86.5q0 -26 8.5 -48.5t24 -39.5t37 -26.5t48.5 -9.5h137v246z" />
    <glyph glyph-name="A" unicode="A" 
d="M259 0l37 50h557l-368 559l-406 -609h-69l436 653q5 8 15.5 15.5t23.5 7.5q14 0 24 -7t16 -16l433 -653h-699z" />
    <glyph glyph-name="B" unicode="B" horiz-adv-x="848" 
d="M58 0v362h558q25 0 48 9t39.5 25.5t26.5 39t10 48.5q0 66 -39.5 100t-114.5 34h-523l41 51h480q100 0 156 -45.5t56 -132.5q0 -31 -10.5 -56.5t-26.5 -44.5t-35.5 -30.5t-38.5 -15.5q22 -5 44.5 -18t40 -33t28.5 -48t11 -64q0 -38 -12.5 -70.5t-40 -57.5t-71 -39
t-105.5 -14h-522zM117 317v-267h464q45 0 77 11t52.5 29.5t30 43t9.5 51.5q0 60 -37.5 96t-95.5 36h-500z" />
    <glyph glyph-name="C" unicode="C" horiz-adv-x="822" 
d="M415 0q-81 0 -150 26t-119 71.5t-78.5 108t-28.5 135.5t28.5 133.5t78.5 104t119 67t150 23.5h400l-40 -51h-360q-63 0 -120.5 -18.5t-101.5 -54.5t-70 -88t-26 -119q0 -66 26.5 -119.5t73 -91t110 -57.5t137.5 -20h371l-40 -50h-360z" />
    <glyph glyph-name="D" unicode="D" horiz-adv-x="856" 
d="M58 0v417h59v-367h341q64 0 119.5 22t96 60.5t63.5 91t23 114.5t-23 113.5t-63.5 88.5t-96 57.5t-119.5 20.5h-400l39 51h361q78 0 144 -24t114 -67.5t75 -104t27 -132.5q0 -73 -27.5 -135.5t-75.5 -108t-114 -71.5t-143 -26h-400z" />
    <glyph glyph-name="E" unicode="E" horiz-adv-x="749" 
d="M58 0v669h678l-39 -51h-580v-257h592l-35 -45h-557v-266h625l-39 -50h-645z" />
    <glyph glyph-name="F" unicode="F" horiz-adv-x="728" 
d="M117 304v-304h-59v669h664l-40 -51h-565v-267h569l-37 -47h-532z" />
    <glyph glyph-name="G" unicode="G" horiz-adv-x="855" 
d="M415 0q-81 0 -150 26t-119 71.5t-78.5 108t-28.5 135.5t28.5 133.5t78.5 104t119 67t150 23.5h406l-39 -51h-367q-68 0 -126.5 -20t-101 -56.5t-66.5 -88.5t-24 -115t24 -116t66.5 -91t100.5 -59.5t127 -21.5h317v271h-411l36 46h434v-367h-376z" />
    <glyph glyph-name="H" unicode="H" horiz-adv-x="806" 
d="M689 0v322h-572v-322h-59v669h59v-296h572v296h59v-669h-59z" />
    <glyph glyph-name="I" unicode="I" horiz-adv-x="181" 
d="M61 0v669h58v-669h-58z" />
    <glyph glyph-name="J" unicode="J" horiz-adv-x="626" 
d="M517 669h59v-365q0 -304 -381 -304h-185q11 12 20 24.5t19 25.5h146q166 0 244 63.5t78 190.5v365z" />
    <glyph glyph-name="K" unicode="K" horiz-adv-x="802" 
d="M699 0l-582 331v-331h-59v669h59v-297l547 297h100l-590 -315l622 -354h-97z" />
    <glyph glyph-name="L" unicode="L" horiz-adv-x="700" 
d="M58 0v669h58v-619h579l-39 -50h-598z" />
    <glyph glyph-name="M" unicode="M" horiz-adv-x="1155" 
d="M1085 0l-228 602l-243 -585q-7 -16 -16.5 -20.5t-19.5 -4.5q-11 0 -20.5 4.5t-16.5 20.5l-243 585l-227 -602h-58l243 647q11 29 36 29q24 0 35 -24l252 -594l251 594q10 24 35 24t36 -29l242 -647h-58z" />
    <glyph glyph-name="N" unicode="N" horiz-adv-x="827" 
d="M718 669h54v-634q0 -20 -10 -29t-24 -9q-6 0 -13 2.5t-14 9.5l-602 587v-596h-54v638q0 20 10 29t24 9q6 0 13 -2.5t15 -10.5l601 -586v592z" />
    <glyph glyph-name="O" unicode="O" horiz-adv-x="936" 
d="M897 335q0 -180 -106.5 -263t-322.5 -83q-215 0 -322 83t-107 263q0 179 107.5 262t321.5 83t321.5 -83t107.5 -262zM838 335q0 79 -22.5 134.5t-68.5 91t-115.5 52t-163.5 16.5q-95 0 -164.5 -16.5t-115.5 -52t-68.5 -91t-22.5 -134.5q0 -158 91.5 -227t279.5 -69
t279 69t91 227z" />
    <glyph glyph-name="P" unicode="P" horiz-adv-x="880" 
d="M117 241v-241h-58v291h477q53 0 98 9t78 28.5t51.5 50t18.5 72.5q0 44 -18 75.5t-51 52t-78.5 30t-99.5 9.5h-479l40 51h459q64 0 117 -14.5t90.5 -42t58 -68.5t20.5 -93t-20.5 -91.5t-58 -65.5t-90.5 -39.5t-117 -13.5h-438z" />
    <glyph glyph-name="Q" unicode="Q" horiz-adv-x="951" 
d="M393 0q-75 0 -139.5 21.5t-112.5 63.5t-75 104.5t-27 145.5q0 179 107.5 262t321.5 83t321.5 -83t107.5 -262q0 -65 -25 -112h-63q16 26 22.5 53t6.5 59q0 79 -22.5 134.5t-68.5 91t-115.5 52t-163.5 16.5q-95 0 -164.5 -16.5t-115.5 -52t-68.5 -91t-22.5 -134.5
q0 -72 22.5 -125.5t62 -89t93.5 -53t118 -17.5h395l-249 237h79l306 -287h-531z" />
    <glyph glyph-name="R" unicode="R" horiz-adv-x="911" 
d="M820 0l-285 242h-418v-242h-58v291h478q52 0 97.5 9t79 28.5t53 50t19.5 72.5q0 44 -18.5 75.5t-51.5 52t-79 30t-100 9.5h-481l40 51h460q60 0 112.5 -12.5t92.5 -39t63 -67t23 -96.5q0 -48 -18 -84.5t-50.5 -62t-78.5 -39t-101 -15.5l302 -253h-81z" />
    <glyph glyph-name="S" unicode="S" horiz-adv-x="873" 
d="M21 0l40 50h534q100 0 147 33t47 102q0 38 -14 63t-41 39.5t-67.5 20t-93.5 5.5h-268q-127 0 -186.5 41.5t-59.5 131.5q0 91 61 137t193 46h523l-39 -51h-487q-99 0 -147 -33t-48 -102q0 -38 14 -62t41 -38t67.5 -19.5t94.5 -5.5h269q124 0 184.5 -41t60.5 -132
q0 -94 -61 -139.5t-194 -45.5h-570z" />
    <glyph glyph-name="T" unicode="T" horiz-adv-x="823" 
d="M376 0v618h-376l42 51h781l-39 -51h-350v-618h-58z" />
    <glyph glyph-name="U" unicode="U" horiz-adv-x="884" 
d="M775 669h59v-377q0 -303 -373 -303q-216 0 -314 75.5t-98 227.5v377h59v-377q0 -65 20 -112.5t62.5 -79t109.5 -46.5t161 -15q87 0 147 15t97 46.5t53.5 79t16.5 112.5v377z" />
    <glyph glyph-name="V" unicode="V" 
d="M889 669h68l-435 -653q-6 -9 -15.5 -16t-23.5 -7t-24 6.5t-16 16.5l-433 653h71l403 -610z" />
    <glyph glyph-name="W" unicode="W" horiz-adv-x="1156" 
d="M1085 669h57l-243 -647q-11 -29 -36 -29q-26 0 -35 23l-252 595l-250 -595q-11 -23 -35 -23q-27 0 -36 29l-243 647h59l227 -602l243 584q7 16 16.5 20.5t19.5 4.5q11 0 20.5 -4.5t16.5 -20.5l243 -584z" />
    <glyph glyph-name="X" unicode="X" horiz-adv-x="928" 
d="M834 0l-371 312l-372 -312h-76l413 346l-381 323h83l338 -288l339 288h78l-381 -320l414 -349h-84z" />
    <glyph glyph-name="Y" unicode="Y" horiz-adv-x="927" 
d="M436 0v261l-429 408h76l384 -362l379 362h76l-427 -408v-261h-59z" />
    <glyph glyph-name="Z" unicode="Z" horiz-adv-x="837" 
d="M53 0q-31 0 -31 27q0 17 14 28l669 563h-695l39 51h719q14 0 23.5 -7t9.5 -21q0 -16 -15 -28l-670 -563h713l-37 -50h-739z" />
    <glyph glyph-name="bracketleft" unicode="[" horiz-adv-x="258" 
d="M74 -129v922h140v-38h-103v-847h103v-37h-140z" />
    <glyph glyph-name="backslash" unicode="\" horiz-adv-x="388" 
d="M348 -38l-348 744h38l350 -744h-40z" />
    <glyph glyph-name="bracketright" unicode="]" horiz-adv-x="258" 
d="M44 -129v37h103v847h-103v38h141v-922h-141z" />
    <glyph glyph-name="asciicircum" unicode="^" horiz-adv-x="521" 
d="M437 296l-177 338l-177 -338h-42l195 373h48l195 -373h-42z" />
    <glyph glyph-name="underscore" unicode="_" horiz-adv-x="674" 
d="M0 -102v30h679v-30h-679z" />
    <glyph glyph-name="grave" unicode="`" horiz-adv-x="371" 
d="M44 831v36l283 -125v-27z" />
    <glyph glyph-name="a" unicode="a" 
d="M259 0l37 50h557l-368 559l-406 -609h-69l436 653q5 8 15.5 15.5t23.5 7.5q14 0 24 -7t16 -16l433 -653h-699z" />
    <glyph glyph-name="b" unicode="b" horiz-adv-x="848" 
d="M58 0v362h558q25 0 48 9t39.5 25.5t26.5 39t10 48.5q0 66 -39.5 100t-114.5 34h-523l41 51h480q100 0 156 -45.5t56 -132.5q0 -31 -10.5 -56.5t-26.5 -44.5t-35.5 -30.5t-38.5 -15.5q22 -5 44.5 -18t40 -33t28.5 -48t11 -64q0 -38 -12.5 -70.5t-40 -57.5t-71 -39
t-105.5 -14h-522zM117 317v-267h464q45 0 77 11t52.5 29.5t30 43t9.5 51.5q0 60 -37.5 96t-95.5 36h-500z" />
    <glyph glyph-name="c" unicode="c" horiz-adv-x="822" 
d="M415 0q-81 0 -150 26t-119 71.5t-78.5 108t-28.5 135.5t28.5 133.5t78.5 104t119 67t150 23.5h400l-40 -51h-360q-63 0 -120.5 -18.5t-101.5 -54.5t-70 -88t-26 -119q0 -66 26.5 -119.5t73 -91t110 -57.5t137.5 -20h371l-40 -50h-360z" />
    <glyph glyph-name="d" unicode="d" horiz-adv-x="856" 
d="M58 0v417h59v-367h341q64 0 119.5 22t96 60.5t63.5 91t23 114.5t-23 113.5t-63.5 88.5t-96 57.5t-119.5 20.5h-400l39 51h361q78 0 144 -24t114 -67.5t75 -104t27 -132.5q0 -73 -27.5 -135.5t-75.5 -108t-114 -71.5t-143 -26h-400z" />
    <glyph glyph-name="e" unicode="e" horiz-adv-x="749" 
d="M58 0v669h678l-39 -51h-580v-257h592l-35 -45h-557v-266h625l-39 -50h-645z" />
    <glyph glyph-name="f" unicode="f" horiz-adv-x="728" 
d="M117 304v-304h-59v669h664l-40 -51h-565v-267h569l-37 -47h-532z" />
    <glyph glyph-name="g" unicode="g" horiz-adv-x="855" 
d="M415 0q-81 0 -150 26t-119 71.5t-78.5 108t-28.5 135.5t28.5 133.5t78.5 104t119 67t150 23.5h406l-39 -51h-367q-68 0 -126.5 -20t-101 -56.5t-66.5 -88.5t-24 -115t24 -116t66.5 -91t100.5 -59.5t127 -21.5h317v271h-411l36 46h434v-367h-376z" />
    <glyph glyph-name="h" unicode="h" horiz-adv-x="806" 
d="M689 0v322h-572v-322h-59v669h59v-296h572v296h59v-669h-59z" />
    <glyph glyph-name="i" unicode="i" horiz-adv-x="181" 
d="M61 0v669h58v-669h-58z" />
    <glyph glyph-name="j" unicode="j" horiz-adv-x="626" 
d="M517 669h59v-365q0 -304 -381 -304h-185q11 12 20 24.5t19 25.5h146q166 0 244 63.5t78 190.5v365z" />
    <glyph glyph-name="k" unicode="k" horiz-adv-x="802" 
d="M699 0l-582 331v-331h-59v669h59v-297l547 297h100l-590 -315l622 -354h-97z" />
    <glyph glyph-name="l" unicode="l" horiz-adv-x="700" 
d="M58 0v669h58v-619h579l-39 -50h-598z" />
    <glyph glyph-name="m" unicode="m" horiz-adv-x="1155" 
d="M1085 0l-228 602l-243 -585q-7 -16 -16.5 -20.5t-19.5 -4.5q-11 0 -20.5 4.5t-16.5 20.5l-243 585l-227 -602h-58l243 647q11 29 36 29q24 0 35 -24l252 -594l251 594q10 24 35 24t36 -29l242 -647h-58z" />
    <glyph glyph-name="n" unicode="n" horiz-adv-x="827" 
d="M718 669h54v-634q0 -20 -10 -29t-24 -9q-6 0 -13 2.5t-14 9.5l-602 587v-596h-54v638q0 20 10 29t24 9q6 0 13 -2.5t15 -10.5l601 -586v592z" />
    <glyph glyph-name="o" unicode="o" horiz-adv-x="936" 
d="M897 335q0 -180 -106.5 -263t-322.5 -83q-215 0 -322 83t-107 263q0 179 107.5 262t321.5 83t321.5 -83t107.5 -262zM838 335q0 79 -22.5 134.5t-68.5 91t-115.5 52t-163.5 16.5q-95 0 -164.5 -16.5t-115.5 -52t-68.5 -91t-22.5 -134.5q0 -158 91.5 -227t279.5 -69
t279 69t91 227z" />
    <glyph glyph-name="p" unicode="p" horiz-adv-x="880" 
d="M117 241v-241h-58v291h477q53 0 98 9t78 28.5t51.5 50t18.5 72.5q0 44 -18 75.5t-51 52t-78.5 30t-99.5 9.5h-479l40 51h459q64 0 117 -14.5t90.5 -42t58 -68.5t20.5 -93t-20.5 -91.5t-58 -65.5t-90.5 -39.5t-117 -13.5h-438z" />
    <glyph glyph-name="q" unicode="q" horiz-adv-x="951" 
d="M393 0q-75 0 -139.5 21.5t-112.5 63.5t-75 104.5t-27 145.5q0 179 107.5 262t321.5 83t321.5 -83t107.5 -262q0 -65 -25 -112h-63q16 26 22.5 53t6.5 59q0 79 -22.5 134.5t-68.5 91t-115.5 52t-163.5 16.5q-95 0 -164.5 -16.5t-115.5 -52t-68.5 -91t-22.5 -134.5
q0 -72 22.5 -125.5t62 -89t93.5 -53t118 -17.5h395l-249 237h79l306 -287h-531z" />
    <glyph glyph-name="r" unicode="r" horiz-adv-x="911" 
d="M820 0l-285 242h-418v-242h-58v291h478q52 0 97.5 9t79 28.5t53 50t19.5 72.5q0 44 -18.5 75.5t-51.5 52t-79 30t-100 9.5h-481l40 51h460q60 0 112.5 -12.5t92.5 -39t63 -67t23 -96.5q0 -48 -18 -84.5t-50.5 -62t-78.5 -39t-101 -15.5l302 -253h-81z" />
    <glyph glyph-name="s" unicode="s" horiz-adv-x="873" 
d="M21 0l40 50h534q100 0 147 33t47 102q0 38 -14 63t-41 39.5t-67.5 20t-93.5 5.5h-268q-127 0 -186.5 41.5t-59.5 131.5q0 91 61 137t193 46h523l-39 -51h-487q-99 0 -147 -33t-48 -102q0 -38 14 -62t41 -38t67.5 -19.5t94.5 -5.5h269q124 0 184.5 -41t60.5 -132
q0 -94 -61 -139.5t-194 -45.5h-570z" />
    <glyph glyph-name="t" unicode="t" horiz-adv-x="823" 
d="M376 0v618h-376l42 51h781l-39 -51h-350v-618h-58z" />
    <glyph glyph-name="u" unicode="u" horiz-adv-x="884" 
d="M775 669h59v-377q0 -303 -373 -303q-216 0 -314 75.5t-98 227.5v377h59v-377q0 -65 20 -112.5t62.5 -79t109.5 -46.5t161 -15q87 0 147 15t97 46.5t53.5 79t16.5 112.5v377z" />
    <glyph glyph-name="v" unicode="v" 
d="M889 669h68l-435 -653q-6 -9 -15.5 -16t-23.5 -7t-24 6.5t-16 16.5l-433 653h71l403 -610z" />
    <glyph glyph-name="w" unicode="w" horiz-adv-x="1156" 
d="M1085 669h57l-243 -647q-11 -29 -36 -29q-26 0 -35 23l-252 595l-250 -595q-11 -23 -35 -23q-27 0 -36 29l-243 647h59l227 -602l243 584q7 16 16.5 20.5t19.5 4.5q11 0 20.5 -4.5t16.5 -20.5l243 -584z" />
    <glyph glyph-name="x" unicode="x" horiz-adv-x="928" 
d="M834 0l-371 312l-372 -312h-76l413 346l-381 323h83l338 -288l339 288h78l-381 -320l414 -349h-84z" />
    <glyph glyph-name="y" unicode="y" horiz-adv-x="927" 
d="M436 0v261l-429 408h76l384 -362l379 362h76l-427 -408v-261h-59z" />
    <glyph glyph-name="z" unicode="z" horiz-adv-x="837" 
d="M53 0q-31 0 -31 27q0 17 14 28l669 563h-695l39 51h719q14 0 23.5 -7t9.5 -21q0 -16 -15 -28l-670 -563h713l-37 -50h-739z" />
    <glyph glyph-name="braceleft" unicode="{" horiz-adv-x="326" 
d="M240 -129q-106 0 -106 124v255q0 66 -69 66v32q69 0 69 67v254q0 124 106 124h42v-38h-39q-36 0 -53.5 -22.5t-17.5 -70.5v-246q0 -38 -15.5 -57.5t-35.5 -26.5q20 -6 35.5 -26.5t15.5 -58.5v-246q0 -93 71 -93h39v-37h-42z" />
    <glyph glyph-name="bar" unicode="|" horiz-adv-x="208" 
d="M86 -99v854h35v-854h-35z" />
    <glyph glyph-name="braceright" unicode="}" horiz-adv-x="326" 
d="M44 -129v37h39q71 0 71 93v246q0 38 15 58.5t35 26.5q-20 7 -35 26.5t-15 57.5v246q0 48 -17 70.5t-54 22.5h-39v38h42q105 0 105 -124v-254q0 -67 70 -67v-32q-70 0 -70 -66v-255q0 -124 -105 -124h-42z" />
    <glyph glyph-name="asciitilde" unicode="~" horiz-adv-x="560" 
d="M518 344q-38 -40 -72.5 -53t-66.5 -13q-28 0 -54.5 11t-52.5 24.5t-51.5 24.5t-50.5 11q-27 0 -60.5 -14.5t-72.5 -58.5v50q38 40 72 53.5t65 13.5q27 0 53 -11t52 -24.5t51.5 -24.5t52.5 -11q28 0 61 14t74 58v-50z" />
    <glyph glyph-name="uni00A0" unicode="&#xa0;" horiz-adv-x="354" 
 />
    <glyph glyph-name="exclamdown" unicode="&#xa1;" horiz-adv-x="170" 
d="M109.004 513.01l8.99902 -171.99v-340.979h-63.9961v340.979l9 171.99h45.9971zM45.0078 643.002q0 15.999 11.499 24.998q11.499 9 28.498 9t28.499 -9q11.499 -8.99902 11.499 -24.998q0 -16.999 -11.499 -25.999q-11.5 -8.99902 -28.499 -8.99902t-28.498 8.99902
q-11.499 9 -11.499 25.999z" />
    <glyph glyph-name="cent" unicode="&#xa2;" horiz-adv-x="579" 
d="M341 109v-109h-28v109q-57 0 -106 18t-85 50.5t-56 76.5t-20 95t20 93.5t56 73t85 47.5t106 17v89h28v-89h209l-29 -38h-180v-396h208l-29 -37h-179zM313 542q-48 0 -89 -14t-70.5 -40t-46.5 -62t-17 -79q0 -44 17 -80.5t46.5 -63.5t70.5 -42t89 -15v396z" />
    <glyph glyph-name="sterling" unicode="&#xa3;" horiz-adv-x="746" 
d="M37 0l40 50h132v268h-209l30 40h179v103q0 47 15.5 85.5t48.5 65.5t84 42t122 15h256l-38 -51h-222q-99 0 -153.5 -38.5t-54.5 -122.5v-99h294l-31 -40h-263v-268h472l-40 -50h-662z" />
    <glyph glyph-name="yen" unicode="&#xa5;" horiz-adv-x="927" 
d="M495 261v-107h345v-35h-345v-119h-59v119h-342v35h342v107h-342v35h305l-392 373h76l384 -362l379 362h76l-391 -373h309v-35h-345z" />
    <glyph glyph-name="brokenbar" unicode="&#xa6;" horiz-adv-x="208" 
d="M86 -99v381h35v-381h-35zM121 416h-35v339h35v-339z" />
    <glyph glyph-name="dieresis" unicode="&#xa8;" horiz-adv-x="344" 
d="M306 804q0 -14 -9.5 -21t-23.5 -7t-23.5 7t-9.5 21t9.5 21.5t23.5 7.5t23.5 -7.5t9.5 -21.5zM104 804q0 -14 -9.5 -21t-23.5 -7t-23.5 7t-9.5 21t9.5 21.5t23.5 7.5t23.5 -7.5t9.5 -21.5z" />
    <glyph glyph-name="copyright" unicode="&#xa9;" horiz-adv-x="771" 
d="M386 -11q-72 0 -135 27t-110 74t-74 110t-27 135t27 135t74 110t110 74t135 27t135 -27t110 -74t74 -110t27 -135t-27 -135t-74 -110t-110 -74t-135 -27zM715 334q0 69 -26 129t-70.5 104.5t-104.5 70.5t-128 26t-128 -26t-104.5 -70.5t-70.5 -104.5t-26 -129
q0 -68 26 -128t70.5 -104.5t104.5 -70t128 -25.5t128 25.5t104.5 70t70.5 104.5t26 128zM382 174q-37 0 -68.5 12.5t-54.5 34t-36 51.5t-13 65t13 64t36 49.5t54.5 32t68.5 11.5h104l-16 -21h-88q-32 0 -59.5 -10t-47.5 -28t-31 -43.5t-11 -55.5t11 -56t31 -45t47.5 -30
t59.5 -11h105l-16 -20h-89z" />
    <glyph glyph-name="ordfeminine" unicode="&#xaa;" horiz-adv-x="589" 
d="M171 284l20 27h307l-203 308l-223 -335h-38l240 360q2 4 8 8t13 4q8 0 13 -3.5t9 -8.5l239 -360h-385z" />
    <glyph glyph-name="guillemotleft" unicode="&#xab;" horiz-adv-x="420" 
d="M26 309v29l175 138v-33l-152 -118l152 -120v-33zM207 309v29l174 138v-33l-151 -118l151 -120v-33z" />
    <glyph glyph-name="registered" unicode="&#xae;" horiz-adv-x="497" 
d="M458 484q0 -39 -16 -74.5t-44.5 -62.5t-67 -43t-83.5 -16q-46 0 -84 16t-65.5 43t-43 62.5t-15.5 74.5t15.5 74.5t43 62.5t65.5 43t84 16t84.5 -15.5t66.5 -42t44 -62.5t16 -76zM443 484q0 36 -14.5 68.5t-41 57t-62.5 39t-78 14.5q-43 0 -78 -15t-60 -39.5t-39 -57
t-14 -67.5t14 -67.5t39 -57.5t60 -40t78 -15q40 0 76 14.5t62.5 39t42 57.5t15.5 69zM326 406l-70 61h-75v-57h-19v73h100q22 0 37 9t15 26q0 20 -15.5 29t-41.5 9h-90l13 17h81q32 0 52 -13t20 -41q0 -23 -14 -35.5t-39 -15.5l75 -62h-29z" />
    <glyph glyph-name="macron" unicode="&#xaf;" horiz-adv-x="371" 
d="M44 778v27h283v-27h-283z" />
    <glyph glyph-name="degree" unicode="&#xb0;" horiz-adv-x="341" 
d="M173 432q102 0 102 109q0 112 -102 112t-102 -112q0 -109 102 -109zM173 404q-129 0 -129 137q0 139 129 139q130 0 130 -139q0 -137 -130 -137z" />
    <glyph glyph-name="plusminus" unicode="&#xb1;" horiz-adv-x="623" 
d="M293 67v257h-254v35h254v254h35v-254h257v-35h-257v-257h-35zM39 -47v35h546v-35h-546z" />
    <glyph glyph-name="uni00B2" unicode="&#xb2;" horiz-adv-x="454" 
d="M36 353v93q0 45 28.5 65t85.5 20h139q54 0 75.5 17t21.5 49q0 31 -26 47.5t-86 16.5h-215l19 26h208q70 0 99.5 -25t29.5 -64q0 -42 -28.5 -65t-95.5 -23h-140q-42 0 -64.5 -14.5t-22.5 -49.5v-69h357l-19 -24h-366z" />
    <glyph glyph-name="uni00B3" unicode="&#xb3;" horiz-adv-x="433" 
d="M18 353l20 24h248q40 0 62 18.5t22 50.5q0 29 -19 47t-45 18h-198l16 22h182q21 0 40 17.5t19 43.5q0 32 -20 49.5t-57 17.5h-257l19 26h237q51 0 79 -23.5t28 -65.5q0 -32 -19 -50.5t-37 -23.5q22 -5 41.5 -25t19.5 -57t-26 -63t-87 -26h-268z" />
    <glyph glyph-name="acute" unicode="&#xb4;" horiz-adv-x="371" 
d="M44 715v27l283 125v-36z" />
    <glyph glyph-name="periodcentered" unicode="&#xb7;" horiz-adv-x="155" 
d="M117 351q0 -17 -11 -25.5t-28 -8.5t-28 8.5t-11 25.5t11 25.5t28 8.5t28 -8.5t11 -25.5z" />
    <glyph glyph-name="cedilla" unicode="&#xb8;" horiz-adv-x="208" 
d="M60 -255l28 224h48l-52 -224h-24z" />
    <glyph glyph-name="uni00B9" unicode="&#xb9;" horiz-adv-x="174" 
d="M101 353v308h-9l-44 -61h-28l62 87h49v-334h-30z" />
    <glyph glyph-name="ordmasculine" unicode="&#xba;" horiz-adv-x="572" 
d="M521 468q0 -100 -58.5 -145.5t-176.5 -45.5t-177 45.5t-59 145.5t59 145t177 45t176.5 -45t58.5 -145zM489 468q0 87 -50 124.5t-153 37.5q-104 0 -154 -37.5t-50 -124.5t50 -124.5t154 -37.5q103 0 153 37.5t50 124.5z" />
    <glyph glyph-name="guillemotright" unicode="&#xbb;" horiz-adv-x="420" 
d="M223 172v33l152 120l-152 118v33l174 -138v-29zM43 172v33l151 120l-151 118v33l174 -138v-29z" />
    <glyph glyph-name="onequarter" unicode="&#xbc;" horiz-adv-x="824" 
d="M156 353v308h-9l-44 -61h-28l62 87h49v-334h-30zM39 -38l555 744h30l-554 -744h-31zM679 -9v70h-285q-17 0 -17 13q0 7 7 14l288 232q8 8 18 8q7 0 12 -4.5t5 -14.5v-225h78l-18 -23h-60v-70h-28zM679 293l-260 -209h260v209z" />
    <glyph glyph-name="onehalf" unicode="&#xbd;" horiz-adv-x="868" 
d="M189 353v308h-9l-44 -61h-28l62 87h49v-334h-30zM39 -38l555 744h30l-554 -744h-31zM444 -9v93q0 45 28.5 65t85.5 20h139q54 0 75.5 17t21.5 49q0 31 -26 47.5t-86 16.5h-215l19 26h208q70 0 99.5 -25t29.5 -64q0 -42 -28.5 -65t-95.5 -23h-140q-42 0 -64.5 -14.5
t-22.5 -49.5v-69h357l-19 -24h-366z" />
    <glyph glyph-name="threequarters" unicode="&#xbe;" horiz-adv-x="930" 
d="M39 346l20 24h248q40 0 62 18.5t22 50.5q0 29 -19 47t-45 18h-198l16 22h182q21 0 40 17.5t19 43.5q0 32 -20 49.5t-57 17.5h-257l19 26h237q51 0 79 -23.5t28 -65.5q0 -32 -19 -50.5t-37 -23.5q22 -5 41.5 -25t19.5 -57t-26 -63t-87 -26h-268zM189 -38l555 744h30
l-554 -744h-31zM785 -9v70h-285q-17 0 -17 13q0 7 7 14l288 232q8 8 18 8q7 0 12 -4.5t5 -14.5v-225h78l-18 -23h-60v-70h-28zM785 293l-260 -209h260v209z" />
    <glyph glyph-name="questiondown" unicode="&#xbf;" horiz-adv-x="661" 
d="M317.021 370.019q50.9971 0 70.9961 19.998q19.999 19.999 19.999 58.9971v64.9961h49.9971v-68.9961q0 -56.9961 -29.999 -88.4941q-29.998 -31.498 -101.993 -31.498h-87.9951q-72.9951 0 -115.492 -33.998q-42.498 -33.998 -42.498 -99.9941
q0 -139.991 190.988 -139.991h376.978l-38.998 -50.9971h-345.979q-120.993 0 -180.489 50.4971t-59.4961 138.491q0 39.998 12.999 72.9951q12.999 32.998 39.4971 56.9971q26.499 23.998 65.9961 37.498q39.498 13.499 91.4951 13.499h83.9941zM392.017 643.002
q0 15.999 10.999 24.998q10.999 9 27.998 9t28.498 -9q11.5 -8.99902 11.5 -24.998q0 -16.999 -11.5 -25.999q-11.499 -8.99902 -28.498 -8.99902t-27.998 8.99902q-10.999 9 -10.999 25.999z" />
    <glyph glyph-name="Agrave" unicode="&#xc0;" 
d="M259 0l37 50h557l-368 559l-406 -609h-69l436 653q5 8 15.5 15.5t23.5 7.5q14 0 24 -7t16 -16l433 -653h-699zM314 831v36l283 -125v-27z" />
    <glyph glyph-name="Aacute" unicode="&#xc1;" 
d="M259 0l37 50h557l-368 559l-406 -609h-69l436 653q5 8 15.5 15.5t23.5 7.5q14 0 24 -7t16 -16l433 -653h-699zM370 715v27l283 125v-36z" />
    <glyph glyph-name="Acircumflex" unicode="&#xc2;" 
d="M259 0l37 50h557l-368 559l-406 -609h-69l436 653q5 8 15.5 15.5t23.5 7.5q14 0 24 -7t16 -16l433 -653h-699zM600 715l-115 133h-3l-115 -133h-35l129 152h46l129 -152h-36z" />
    <glyph glyph-name="Atilde" unicode="&#xc3;" 
d="M259 0l37 50h557l-368 559l-406 -609h-69l436 653q5 8 15.5 15.5t23.5 7.5q14 0 24 -7t16 -16l433 -653h-699zM625 792q-14 -29 -31.5 -39t-40.5 -10q-20 0 -37.5 11t-34 24t-33 24t-34.5 11q-20 0 -38.5 -12.5t-33.5 -47.5v36q14 29 31.5 39t40.5 10q19 0 36.5 -11
t34 -24t33 -24t35.5 -11q20 0 38 12.5t34 47.5v-36z" />
    <glyph glyph-name="Adieresis" unicode="&#xc4;" 
d="M259 0l37 50h557l-368 559l-406 -609h-69l436 653q5 8 15.5 15.5t23.5 7.5q14 0 24 -7t16 -16l433 -653h-699zM617 804q0 -14 -9.5 -21t-23.5 -7t-23.5 7t-9.5 21t9.5 21.5t23.5 7.5t23.5 -7.5t9.5 -21.5zM415 804q0 -14 -9.5 -21t-23.5 -7t-23.5 7t-9.5 21t9.5 21.5
t23.5 7.5t23.5 -7.5t9.5 -21.5z" />
    <glyph glyph-name="Aring" unicode="&#xc5;" 
d="M259 0l37 50h557l-368 559l-406 -609h-69l436 653q5 8 15.5 15.5t23.5 7.5q14 0 24 -7t16 -16l433 -653h-699zM450 715q-103 0 -103 83v63q0 84 103 84h67q104 0 104 -84v-63q0 -83 -104 -83h-67zM594 855q0 36 -21 50.5t-63 14.5h-55q-42 0 -62 -15t-20 -50v-52
q0 -37 21 -50.5t61 -13.5h55q40 0 62 13.5t22 46.5v56z" />
    <glyph glyph-name="AE" unicode="&#xc6;" horiz-adv-x="1352" 
d="M661 0v618h-140l-442 -618h-69l459 644q8 11 19 18t27 7h824l-39 -51h-580v-257h592l-35 -45h-557v-266h625l-39 -50h-645z" />
    <glyph glyph-name="Ccedilla" unicode="&#xc7;" horiz-adv-x="822" 
d="M415 0q-81 0 -150 26t-119 71.5t-78.5 108t-28.5 135.5t28.5 133.5t78.5 104t119 67t150 23.5h400l-40 -51h-360q-63 0 -120.5 -18.5t-101.5 -54.5t-70 -88t-26 -119q0 -66 26.5 -119.5t73 -91t110 -57.5t137.5 -20h371l-40 -50h-360zM419 -255l29 224h48l-52 -224h-25z
" />
    <glyph glyph-name="Egrave" unicode="&#xc8;" horiz-adv-x="749" 
d="M58 0v669h678l-39 -51h-580v-257h592l-35 -45h-557v-266h625l-39 -50h-645zM227 831v36l283 -125v-27z" />
    <glyph glyph-name="Eacute" unicode="&#xc9;" horiz-adv-x="749" 
d="M58 0v669h678l-39 -51h-580v-257h592l-35 -45h-557v-266h625l-39 -50h-645zM253 715v27l283 125v-36z" />
    <glyph glyph-name="Ecircumflex" unicode="&#xca;" horiz-adv-x="749" 
d="M58 0v669h678l-39 -51h-580v-257h592l-35 -45h-557v-266h625l-39 -50h-645zM493 715l-115 133h-3l-115 -133h-35l129 152h46l129 -152h-36z" />
    <glyph glyph-name="Edieresis" unicode="&#xcb;" horiz-adv-x="749" 
d="M58 0v669h678l-39 -51h-580v-257h592l-35 -45h-557v-266h625l-39 -50h-645zM516 804q0 -14 -9.5 -21t-23.5 -7t-23.5 7t-9.5 21t9.5 21.5t23.5 7.5t23.5 -7.5t9.5 -21.5zM314 804q0 -14 -9.5 -21t-23.5 -7t-23.5 7t-9.5 21t9.5 21.5t23.5 7.5t23.5 -7.5t9.5 -21.5z" />
    <glyph glyph-name="Igrave" unicode="&#xcc;" horiz-adv-x="181" 
d="M61 0v669h58v-669h-58zM-78 831v36l283 -125v-27z" />
    <glyph glyph-name="Iacute" unicode="&#xcd;" horiz-adv-x="181" 
d="M61 0v669h58v-669h-58zM-21 715v27l283 125v-36z" />
    <glyph glyph-name="Icircumflex" unicode="&#xce;" horiz-adv-x="181" 
d="M61 0v669h58v-669h-58zM208 715l-115 133h-3l-115 -133h-35l129 152h46l129 -152h-36z" />
    <glyph glyph-name="Idieresis" unicode="&#xcf;" horiz-adv-x="181" 
d="M61 0v669h58v-669h-58zM226 804q0 -14 -9.5 -21t-23.5 -7t-23.5 7t-9.5 21t9.5 21.5t23.5 7.5t23.5 -7.5t9.5 -21.5zM24 804q0 -14 -9.5 -21t-23.5 -7t-23.5 7t-9.5 21t9.5 21.5t23.5 7.5t23.5 -7.5t9.5 -21.5z" />
    <glyph glyph-name="Eth" unicode="&#xd0;" horiz-adv-x="922" 
d="M123 0v318h-123l35 45h542l-36 -45h-359v-268h340q64 0 119.5 22t96 61t63.5 91.5t23 113.5q0 67 -22.5 119.5t-63 88t-95.5 54t-121 18.5h-399l38 51h361q78 0 144.5 -24t114.5 -67.5t75 -104t27 -132.5q0 -73 -27.5 -135.5t-75.5 -108t-114 -71.5t-144 -26h-399z" />
    <glyph glyph-name="Ntilde" unicode="&#xd1;" horiz-adv-x="827" 
d="M718 669h54v-634q0 -20 -10 -29t-24 -9q-6 0 -13 2.5t-14 9.5l-602 587v-596h-54v638q0 20 10 29t24 9q6 0 13 -2.5t15 -10.5l601 -586v592zM567 792q-14 -29 -31.5 -39t-40.5 -10q-20 0 -37.5 11t-34 24t-33 24t-34.5 11q-20 0 -38.5 -12.5t-33.5 -47.5v36
q14 29 31.5 39t40.5 10q19 0 36.5 -11t34 -24t33 -24t35.5 -11q20 0 38 12.5t34 47.5v-36z" />
    <glyph glyph-name="Ograve" unicode="&#xd2;" horiz-adv-x="936" 
d="M897 335q0 -180 -106.5 -263t-322.5 -83q-215 0 -322 83t-107 263q0 179 107.5 262t321.5 83t321.5 -83t107.5 -262zM838 335q0 79 -22.5 134.5t-68.5 91t-115.5 52t-163.5 16.5q-95 0 -164.5 -16.5t-115.5 -52t-68.5 -91t-22.5 -134.5q0 -158 91.5 -227t279.5 -69
t279 69t91 227zM298 831v36l283 -125v-27z" />
    <glyph glyph-name="Oacute" unicode="&#xd3;" horiz-adv-x="936" 
d="M897 335q0 -180 -106.5 -263t-322.5 -83q-215 0 -322 83t-107 263q0 179 107.5 262t321.5 83t321.5 -83t107.5 -262zM838 335q0 79 -22.5 134.5t-68.5 91t-115.5 52t-163.5 16.5q-95 0 -164.5 -16.5t-115.5 -52t-68.5 -91t-22.5 -134.5q0 -158 91.5 -227t279.5 -69
t279 69t91 227zM354 715v27l283 125v-36z" />
    <glyph glyph-name="Ocircumflex" unicode="&#xd4;" horiz-adv-x="936" 
d="M897 335q0 -180 -106.5 -263t-322.5 -83q-215 0 -322 83t-107 263q0 179 107.5 262t321.5 83t321.5 -83t107.5 -262zM838 335q0 79 -22.5 134.5t-68.5 91t-115.5 52t-163.5 16.5q-95 0 -164.5 -16.5t-115.5 -52t-68.5 -91t-22.5 -134.5q0 -158 91.5 -227t279.5 -69
t279 69t91 227zM584 715l-115 133h-3l-115 -133h-35l129 152h46l129 -152h-36z" />
    <glyph glyph-name="Otilde" unicode="&#xd5;" horiz-adv-x="936" 
d="M897 335q0 -180 -106.5 -263t-322.5 -83q-215 0 -322 83t-107 263q0 179 107.5 262t321.5 83t321.5 -83t107.5 -262zM838 335q0 79 -22.5 134.5t-68.5 91t-115.5 52t-163.5 16.5q-95 0 -164.5 -16.5t-115.5 -52t-68.5 -91t-22.5 -134.5q0 -158 91.5 -227t279.5 -69
t279 69t91 227zM609 792q-14 -29 -31.5 -39t-40.5 -10q-20 0 -37.5 11t-34 24t-33 24t-34.5 11q-20 0 -38.5 -12.5t-33.5 -47.5v36q14 29 31.5 39t40.5 10q19 0 36.5 -11t34 -24t33 -24t35.5 -11q20 0 38 12.5t34 47.5v-36z" />
    <glyph glyph-name="Odieresis" unicode="&#xd6;" horiz-adv-x="936" 
d="M897 335q0 -180 -106.5 -263t-322.5 -83q-215 0 -322 83t-107 263q0 179 107.5 262t321.5 83t321.5 -83t107.5 -262zM838 335q0 79 -22.5 134.5t-68.5 91t-115.5 52t-163.5 16.5q-95 0 -164.5 -16.5t-115.5 -52t-68.5 -91t-22.5 -134.5q0 -158 91.5 -227t279.5 -69
t279 69t91 227zM602 804q0 -14 -9.5 -21t-23.5 -7t-23.5 7t-9.5 21t9.5 21.5t23.5 7.5t23.5 -7.5t9.5 -21.5zM400 804q0 -14 -9.5 -21t-23.5 -7t-23.5 7t-9.5 21t9.5 21.5t23.5 7.5t23.5 -7.5t9.5 -21.5z" />
    <glyph glyph-name="multiply" unicode="&#xd7;" horiz-adv-x="623" 
d="M491 134l-181 182l-180 -181l-25 25l180 181l-180 180l25 24l180 -180l181 181l25 -25l-181 -180l181 -182z" />
    <glyph glyph-name="Oslash" unicode="&#xd8;" horiz-adv-x="936" 
d="M897 335q0 -180 -106.5 -263t-322.5 -83q-169 0 -268 49l-82 -85l-18 16l78 81q-70 42 -104.5 112t-34.5 173q0 179 107.5 262t321.5 83q163 0 264 -48l81 84l19 -16l-77 -80q142 -82 142 -285zM838 335q0 179 -121 245l-479 -502q45 -20 101.5 -29.5t128.5 -9.5
q188 0 279 69t91 227zM97 335q0 -179 118 -246l479 502q-87 38 -226 38q-95 0 -164.5 -16.5t-115.5 -52t-68.5 -91t-22.5 -134.5z" />
    <glyph glyph-name="Ugrave" unicode="&#xd9;" horiz-adv-x="884" 
d="M775 669h59v-377q0 -303 -373 -303q-216 0 -314 75.5t-98 227.5v377h59v-377q0 -65 20 -112.5t62.5 -79t109.5 -46.5t161 -15q87 0 147 15t97 46.5t53.5 79t16.5 112.5v377zM272 831v36l283 -125v-27z" />
    <glyph glyph-name="Uacute" unicode="&#xda;" horiz-adv-x="884" 
d="M775 669h59v-377q0 -303 -373 -303q-216 0 -314 75.5t-98 227.5v377h59v-377q0 -65 20 -112.5t62.5 -79t109.5 -46.5t161 -15q87 0 147 15t97 46.5t53.5 79t16.5 112.5v377zM329 715v27l283 125v-36z" />
    <glyph glyph-name="Ucircumflex" unicode="&#xdb;" horiz-adv-x="884" 
d="M775 669h59v-377q0 -303 -373 -303q-216 0 -314 75.5t-98 227.5v377h59v-377q0 -65 20 -112.5t62.5 -79t109.5 -46.5t161 -15q87 0 147 15t97 46.5t53.5 79t16.5 112.5v377zM558 715l-115 133h-3l-115 -133h-35l129 152h46l129 -152h-36z" />
    <glyph glyph-name="Udieresis" unicode="&#xdc;" horiz-adv-x="884" 
d="M775 669h59v-377q0 -303 -373 -303q-216 0 -314 75.5t-98 227.5v377h59v-377q0 -65 20 -112.5t62.5 -79t109.5 -46.5t161 -15q87 0 147 15t97 46.5t53.5 79t16.5 112.5v377zM576 804q0 -14 -9.5 -21t-23.5 -7t-23.5 7t-9.5 21t9.5 21.5t23.5 7.5t23.5 -7.5t9.5 -21.5z
M374 804q0 -14 -9.5 -21t-23.5 -7t-23.5 7t-9.5 21t9.5 21.5t23.5 7.5t23.5 -7.5t9.5 -21.5z" />
    <glyph glyph-name="Yacute" unicode="&#xdd;" horiz-adv-x="927" 
d="M436 0v261l-429 408h76l384 -362l379 362h76l-427 -408v-261h-59zM327 715v27l283 125v-36z" />
    <glyph glyph-name="Thorn" unicode="&#xde;" horiz-adv-x="838" 
d="M239 109l41 50h243q49 0 90.5 11t70.5 32t45.5 52t16.5 72q0 40 -16.5 70t-45.5 50t-70.5 30t-90.5 10h-407v-486h-58v669h58v-133h402q64 0 117 -13t90.5 -39.5t58 -66t20.5 -91.5q0 -53 -20.5 -93t-58 -68t-90 -42t-116.5 -14h-280z" />
    <glyph glyph-name="germandbls" unicode="&#xdf;" horiz-adv-x="1747" 
d="M21 0l40 50h534q100 0 147 33t47 102q0 38 -14 63t-41 39.5t-67.5 20t-93.5 5.5h-268q-127 0 -186.5 41.5t-59.5 131.5q0 91 61 137t193 46h523l-39 -51h-487q-99 0 -147 -33t-48 -102q0 -38 14 -62t41 -38t67.5 -19.5t94.5 -5.5h269q124 0 184.5 -41t60.5 -132
q0 -94 -61 -139.5t-194 -45.5h-570zM894 0l40 50h534q100 0 147 33t47 102q0 38 -14 63t-41 39.5t-67.5 20t-93.5 5.5h-268q-127 0 -186.5 41.5t-59.5 131.5q0 91 61 137t193 46h523l-39 -51h-487q-99 0 -147 -33t-48 -102q0 -38 14 -62t41 -38t67.5 -19.5t94.5 -5.5h269
q124 0 184.5 -41t60.5 -132q0 -94 -61 -139.5t-194 -45.5h-570z" />
    <glyph glyph-name="agrave" unicode="&#xe0;" 
d="M259 0l37 50h557l-368 559l-406 -609h-69l436 653q5 8 15.5 15.5t23.5 7.5q14 0 24 -7t16 -16l433 -653h-699zM314 831v36l283 -125v-27z" />
    <glyph glyph-name="aacute" unicode="&#xe1;" 
d="M259 0l37 50h557l-368 559l-406 -609h-69l436 653q5 8 15.5 15.5t23.5 7.5q14 0 24 -7t16 -16l433 -653h-699zM370 715v27l283 125v-36z" />
    <glyph glyph-name="acircumflex" unicode="&#xe2;" 
d="M259 0l37 50h557l-368 559l-406 -609h-69l436 653q5 8 15.5 15.5t23.5 7.5q14 0 24 -7t16 -16l433 -653h-699zM600 715l-115 133h-3l-115 -133h-35l129 152h46l129 -152h-36z" />
    <glyph glyph-name="atilde" unicode="&#xe3;" 
d="M259 0l37 50h557l-368 559l-406 -609h-69l436 653q5 8 15.5 15.5t23.5 7.5q14 0 24 -7t16 -16l433 -653h-699zM625 792q-14 -29 -31.5 -39t-40.5 -10q-20 0 -37.5 11t-34 24t-33 24t-34.5 11q-20 0 -38.5 -12.5t-33.5 -47.5v36q14 29 31.5 39t40.5 10q19 0 36.5 -11
t34 -24t33 -24t35.5 -11q20 0 38 12.5t34 47.5v-36z" />
    <glyph glyph-name="adieresis" unicode="&#xe4;" 
d="M259 0l37 50h557l-368 559l-406 -609h-69l436 653q5 8 15.5 15.5t23.5 7.5q14 0 24 -7t16 -16l433 -653h-699zM617 804q0 -14 -9.5 -21t-23.5 -7t-23.5 7t-9.5 21t9.5 21.5t23.5 7.5t23.5 -7.5t9.5 -21.5zM415 804q0 -14 -9.5 -21t-23.5 -7t-23.5 7t-9.5 21t9.5 21.5
t23.5 7.5t23.5 -7.5t9.5 -21.5z" />
    <glyph glyph-name="aring" unicode="&#xe5;" 
d="M259 0l37 50h557l-368 559l-406 -609h-69l436 653q5 8 15.5 15.5t23.5 7.5q14 0 24 -7t16 -16l433 -653h-699zM450 715q-103 0 -103 83v63q0 84 103 84h67q104 0 104 -84v-63q0 -83 -104 -83h-67zM594 855q0 36 -21 50.5t-63 14.5h-55q-42 0 -62 -15t-20 -50v-52
q0 -37 21 -50.5t61 -13.5h55q40 0 62 13.5t22 46.5v56z" />
    <glyph glyph-name="ae" unicode="&#xe6;" horiz-adv-x="1352" 
d="M661 0v618h-140l-442 -618h-69l459 644q8 11 19 18t27 7h824l-39 -51h-580v-257h592l-35 -45h-557v-266h625l-39 -50h-645z" />
    <glyph glyph-name="ccedilla" unicode="&#xe7;" horiz-adv-x="822" 
d="M415 0q-81 0 -150 26t-119 71.5t-78.5 108t-28.5 135.5t28.5 133.5t78.5 104t119 67t150 23.5h400l-40 -51h-360q-63 0 -120.5 -18.5t-101.5 -54.5t-70 -88t-26 -119q0 -66 26.5 -119.5t73 -91t110 -57.5t137.5 -20h371l-40 -50h-360zM419 -255l29 224h48l-52 -224h-25z
" />
    <glyph glyph-name="egrave" unicode="&#xe8;" horiz-adv-x="749" 
d="M58 0v669h678l-39 -51h-580v-257h592l-35 -45h-557v-266h625l-39 -50h-645zM227 831v36l283 -125v-27z" />
    <glyph glyph-name="eacute" unicode="&#xe9;" horiz-adv-x="749" 
d="M58 0v669h678l-39 -51h-580v-257h592l-35 -45h-557v-266h625l-39 -50h-645zM253 715v27l283 125v-36z" />
    <glyph glyph-name="ecircumflex" unicode="&#xea;" horiz-adv-x="749" 
d="M58 0v669h678l-39 -51h-580v-257h592l-35 -45h-557v-266h625l-39 -50h-645zM493 715l-115 133h-3l-115 -133h-35l129 152h46l129 -152h-36z" />
    <glyph glyph-name="edieresis" unicode="&#xeb;" horiz-adv-x="749" 
d="M58 0v669h678l-39 -51h-580v-257h592l-35 -45h-557v-266h625l-39 -50h-645zM516 804q0 -14 -9.5 -21t-23.5 -7t-23.5 7t-9.5 21t9.5 21.5t23.5 7.5t23.5 -7.5t9.5 -21.5zM314 804q0 -14 -9.5 -21t-23.5 -7t-23.5 7t-9.5 21t9.5 21.5t23.5 7.5t23.5 -7.5t9.5 -21.5z" />
    <glyph glyph-name="igrave" unicode="&#xec;" horiz-adv-x="181" 
d="M61 0v669h58v-669h-58zM-78 831v36l283 -125v-27z" />
    <glyph glyph-name="iacute" unicode="&#xed;" horiz-adv-x="181" 
d="M61 0v669h58v-669h-58zM-21 715v27l283 125v-36z" />
    <glyph glyph-name="icircumflex" unicode="&#xee;" horiz-adv-x="181" 
d="M61 0v669h58v-669h-58zM208 715l-115 133h-3l-115 -133h-35l129 152h46l129 -152h-36z" />
    <glyph glyph-name="idieresis" unicode="&#xef;" horiz-adv-x="181" 
d="M61 0v669h58v-669h-58zM226 804q0 -14 -9.5 -21t-23.5 -7t-23.5 7t-9.5 21t9.5 21.5t23.5 7.5t23.5 -7.5t9.5 -21.5zM24 804q0 -14 -9.5 -21t-23.5 -7t-23.5 7t-9.5 21t9.5 21.5t23.5 7.5t23.5 -7.5t9.5 -21.5z" />
    <glyph glyph-name="eth" unicode="&#xf0;" horiz-adv-x="922" 
d="M123 0v318h-123l35 45h542l-36 -45h-359v-268h340q64 0 119.5 22t96 61t63.5 91.5t23 113.5q0 67 -22.5 119.5t-63 88t-95.5 54t-121 18.5h-399l38 51h361q78 0 144.5 -24t114.5 -67.5t75 -104t27 -132.5q0 -73 -27.5 -135.5t-75.5 -108t-114 -71.5t-144 -26h-399z" />
    <glyph glyph-name="ntilde" unicode="&#xf1;" horiz-adv-x="827" 
d="M718 669h54v-634q0 -20 -10 -29t-24 -9q-6 0 -13 2.5t-14 9.5l-602 587v-596h-54v638q0 20 10 29t24 9q6 0 13 -2.5t15 -10.5l601 -586v592zM567 792q-14 -29 -31.5 -39t-40.5 -10q-20 0 -37.5 11t-34 24t-33 24t-34.5 11q-20 0 -38.5 -12.5t-33.5 -47.5v36
q14 29 31.5 39t40.5 10q19 0 36.5 -11t34 -24t33 -24t35.5 -11q20 0 38 12.5t34 47.5v-36z" />
    <glyph glyph-name="ograve" unicode="&#xf2;" horiz-adv-x="936" 
d="M897 335q0 -180 -106.5 -263t-322.5 -83q-215 0 -322 83t-107 263q0 179 107.5 262t321.5 83t321.5 -83t107.5 -262zM838 335q0 79 -22.5 134.5t-68.5 91t-115.5 52t-163.5 16.5q-95 0 -164.5 -16.5t-115.5 -52t-68.5 -91t-22.5 -134.5q0 -158 91.5 -227t279.5 -69
t279 69t91 227zM298 831v36l283 -125v-27z" />
    <glyph glyph-name="oacute" unicode="&#xf3;" horiz-adv-x="936" 
d="M897 335q0 -180 -106.5 -263t-322.5 -83q-215 0 -322 83t-107 263q0 179 107.5 262t321.5 83t321.5 -83t107.5 -262zM838 335q0 79 -22.5 134.5t-68.5 91t-115.5 52t-163.5 16.5q-95 0 -164.5 -16.5t-115.5 -52t-68.5 -91t-22.5 -134.5q0 -158 91.5 -227t279.5 -69
t279 69t91 227zM354 715v27l283 125v-36z" />
    <glyph glyph-name="ocircumflex" unicode="&#xf4;" horiz-adv-x="936" 
d="M897 335q0 -180 -106.5 -263t-322.5 -83q-215 0 -322 83t-107 263q0 179 107.5 262t321.5 83t321.5 -83t107.5 -262zM838 335q0 79 -22.5 134.5t-68.5 91t-115.5 52t-163.5 16.5q-95 0 -164.5 -16.5t-115.5 -52t-68.5 -91t-22.5 -134.5q0 -158 91.5 -227t279.5 -69
t279 69t91 227zM584 715l-115 133h-3l-115 -133h-35l129 152h46l129 -152h-36z" />
    <glyph glyph-name="otilde" unicode="&#xf5;" horiz-adv-x="936" 
d="M897 335q0 -180 -106.5 -263t-322.5 -83q-215 0 -322 83t-107 263q0 179 107.5 262t321.5 83t321.5 -83t107.5 -262zM838 335q0 79 -22.5 134.5t-68.5 91t-115.5 52t-163.5 16.5q-95 0 -164.5 -16.5t-115.5 -52t-68.5 -91t-22.5 -134.5q0 -158 91.5 -227t279.5 -69
t279 69t91 227zM609 792q-14 -29 -31.5 -39t-40.5 -10q-20 0 -37.5 11t-34 24t-33 24t-34.5 11q-20 0 -38.5 -12.5t-33.5 -47.5v36q14 29 31.5 39t40.5 10q19 0 36.5 -11t34 -24t33 -24t35.5 -11q20 0 38 12.5t34 47.5v-36z" />
    <glyph glyph-name="odieresis" unicode="&#xf6;" horiz-adv-x="936" 
d="M897 335q0 -180 -106.5 -263t-322.5 -83q-215 0 -322 83t-107 263q0 179 107.5 262t321.5 83t321.5 -83t107.5 -262zM838 335q0 79 -22.5 134.5t-68.5 91t-115.5 52t-163.5 16.5q-95 0 -164.5 -16.5t-115.5 -52t-68.5 -91t-22.5 -134.5q0 -158 91.5 -227t279.5 -69
t279 69t91 227zM602 804q0 -14 -9.5 -21t-23.5 -7t-23.5 7t-9.5 21t9.5 21.5t23.5 7.5t23.5 -7.5t9.5 -21.5zM400 804q0 -14 -9.5 -21t-23.5 -7t-23.5 7t-9.5 21t9.5 21.5t23.5 7.5t23.5 -7.5t9.5 -21.5z" />
    <glyph glyph-name="divide" unicode="&#xf7;" horiz-adv-x="623" 
d="M39 324v35h546v-35h-546zM350 518q0 -16 -11 -25t-28 -9t-28 9t-11 25q0 17 11 26t28 9t28 -9t11 -26zM350 148q0 -16 -11 -25t-28 -9t-28 9t-11 25q0 17 11 26t28 9t28 -9t11 -26z" />
    <glyph glyph-name="oslash" unicode="&#xf8;" horiz-adv-x="936" 
d="M897 335q0 -180 -106.5 -263t-322.5 -83q-169 0 -268 49l-82 -85l-18 16l78 81q-70 42 -104.5 112t-34.5 173q0 179 107.5 262t321.5 83q163 0 264 -48l81 84l19 -16l-77 -80q142 -82 142 -285zM838 335q0 179 -121 245l-479 -502q45 -20 101.5 -29.5t128.5 -9.5
q188 0 279 69t91 227zM97 335q0 -179 118 -246l479 502q-87 38 -226 38q-95 0 -164.5 -16.5t-115.5 -52t-68.5 -91t-22.5 -134.5z" />
    <glyph glyph-name="ugrave" unicode="&#xf9;" horiz-adv-x="884" 
d="M775 669h59v-377q0 -303 -373 -303q-216 0 -314 75.5t-98 227.5v377h59v-377q0 -65 20 -112.5t62.5 -79t109.5 -46.5t161 -15q87 0 147 15t97 46.5t53.5 79t16.5 112.5v377zM272 831v36l283 -125v-27z" />
    <glyph glyph-name="uacute" unicode="&#xfa;" horiz-adv-x="884" 
d="M775 669h59v-377q0 -303 -373 -303q-216 0 -314 75.5t-98 227.5v377h59v-377q0 -65 20 -112.5t62.5 -79t109.5 -46.5t161 -15q87 0 147 15t97 46.5t53.5 79t16.5 112.5v377zM329 715v27l283 125v-36z" />
    <glyph glyph-name="ucircumflex" unicode="&#xfb;" horiz-adv-x="884" 
d="M775 669h59v-377q0 -303 -373 -303q-216 0 -314 75.5t-98 227.5v377h59v-377q0 -65 20 -112.5t62.5 -79t109.5 -46.5t161 -15q87 0 147 15t97 46.5t53.5 79t16.5 112.5v377zM558 715l-115 133h-3l-115 -133h-35l129 152h46l129 -152h-36z" />
    <glyph glyph-name="udieresis" unicode="&#xfc;" horiz-adv-x="884" 
d="M775 669h59v-377q0 -303 -373 -303q-216 0 -314 75.5t-98 227.5v377h59v-377q0 -65 20 -112.5t62.5 -79t109.5 -46.5t161 -15q87 0 147 15t97 46.5t53.5 79t16.5 112.5v377zM576 804q0 -14 -9.5 -21t-23.5 -7t-23.5 7t-9.5 21t9.5 21.5t23.5 7.5t23.5 -7.5t9.5 -21.5z
M374 804q0 -14 -9.5 -21t-23.5 -7t-23.5 7t-9.5 21t9.5 21.5t23.5 7.5t23.5 -7.5t9.5 -21.5z" />
    <glyph glyph-name="yacute" unicode="&#xfd;" horiz-adv-x="927" 
d="M436 0v261l-429 408h76l384 -362l379 362h76l-427 -408v-261h-59zM327 715v27l283 125v-36z" />
    <glyph glyph-name="thorn" unicode="&#xfe;" horiz-adv-x="838" 
d="M239 109l41 50h243q49 0 90.5 11t70.5 32t45.5 52t16.5 72q0 40 -16.5 70t-45.5 50t-70.5 30t-90.5 10h-407v-486h-58v669h58v-133h402q64 0 117 -13t90.5 -39.5t58 -66t20.5 -91.5q0 -53 -20.5 -93t-58 -68t-90 -42t-116.5 -14h-280z" />
    <glyph glyph-name="ydieresis" unicode="&#xff;" horiz-adv-x="927" 
d="M436 0v261l-429 408h76l384 -362l379 362h76l-427 -408v-261h-59zM600 804q0 -14 -9.5 -21t-23.5 -7t-23.5 7t-9.5 21t9.5 21.5t23.5 7.5t23.5 -7.5t9.5 -21.5zM398 804q0 -14 -9.5 -21t-23.5 -7t-23.5 7t-9.5 21t9.5 21.5t23.5 7.5t23.5 -7.5t9.5 -21.5z" />
    <glyph glyph-name="Amacron" unicode="&#x100;" 
d="M259 0l37 50h557l-368 559l-406 -609h-69l436 653q5 8 15.5 15.5t23.5 7.5q14 0 24 -7t16 -16l433 -653h-699zM342 778v27h283v-27h-283z" />
    <glyph glyph-name="amacron" unicode="&#x101;" 
d="M259 0l37 50h557l-368 559l-406 -609h-69l436 653q5 8 15.5 15.5t23.5 7.5q14 0 24 -7t16 -16l433 -653h-699zM342 778v27h283v-27h-283z" />
    <glyph glyph-name="Abreve" unicode="&#x102;" 
d="M259 0l37 50h557l-368 559l-406 -609h-69l436 653q5 8 15.5 15.5t23.5 7.5q14 0 24 -7t16 -16l433 -653h-699zM461 715q-33 0 -56.5 16.5t-37.5 40t-20.5 49.5t-6.5 46h32q1 -20 6.5 -43t16.5 -42.5t29 -32.5t44 -13h33q24 0 41.5 12.5t28.5 32t17 42.5t7 44h32
q0 -20 -6.5 -46t-20.5 -49.5t-37.5 -40t-56.5 -16.5h-45z" />
    <glyph glyph-name="abreve" unicode="&#x103;" 
d="M259 0l37 50h557l-368 559l-406 -609h-69l436 653q5 8 15.5 15.5t23.5 7.5q14 0 24 -7t16 -16l433 -653h-699zM461 715q-33 0 -56.5 16.5t-37.5 40t-20.5 49.5t-6.5 46h32q1 -20 6.5 -43t16.5 -42.5t29 -32.5t44 -13h33q24 0 41.5 12.5t28.5 32t17 42.5t7 44h32
q0 -20 -6.5 -46t-20.5 -49.5t-37.5 -40t-56.5 -16.5h-45z" />
    <glyph glyph-name="Aogonek" unicode="&#x104;" 
d="M801 -250q-34 0 -52.5 15.5t-18.5 36.5q0 30 34 60l162 138h-667l37 50h557l-368 559l-406 -609h-69l436 653q5 8 15.5 15.5t23.5 7.5q14 0 24 -7t16 -16l433 -653l-179 -154q-17 -17 -17 -30q0 -11 10 -19t30 -8h156v-39h-157z" />
    <glyph glyph-name="aogonek" unicode="&#x105;" 
d="M801 -250q-34 0 -52.5 15.5t-18.5 36.5q0 30 34 60l162 138h-667l37 50h557l-368 559l-406 -609h-69l436 653q5 8 15.5 15.5t23.5 7.5q14 0 24 -7t16 -16l433 -653l-179 -154q-17 -17 -17 -30q0 -11 10 -19t30 -8h156v-39h-157z" />
    <glyph glyph-name="Cacute" unicode="&#x106;" horiz-adv-x="822" 
d="M415 0q-81 0 -150 26t-119 71.5t-78.5 108t-28.5 135.5t28.5 133.5t78.5 104t119 67t150 23.5h400l-40 -51h-360q-63 0 -120.5 -18.5t-101.5 -54.5t-70 -88t-26 -119q0 -66 26.5 -119.5t73 -91t110 -57.5t137.5 -20h371l-40 -50h-360zM312 715v27l283 125v-36z" />
    <glyph glyph-name="cacute" unicode="&#x107;" horiz-adv-x="822" 
d="M415 0q-81 0 -150 26t-119 71.5t-78.5 108t-28.5 135.5t28.5 133.5t78.5 104t119 67t150 23.5h400l-40 -51h-360q-63 0 -120.5 -18.5t-101.5 -54.5t-70 -88t-26 -119q0 -66 26.5 -119.5t73 -91t110 -57.5t137.5 -20h371l-40 -50h-360zM312 715v27l283 125v-36z" />
    <glyph glyph-name="Ccircumflex" unicode="&#x108;" horiz-adv-x="822" 
d="M415 0q-81 0 -150 26t-119 71.5t-78.5 108t-28.5 135.5t28.5 133.5t78.5 104t119 67t150 23.5h400l-40 -51h-360q-63 0 -120.5 -18.5t-101.5 -54.5t-70 -88t-26 -119q0 -66 26.5 -119.5t73 -91t110 -57.5t137.5 -20h371l-40 -50h-360zM603 715l-115 133h-3l-115 -133h-35
l129 152h46l129 -152h-36z" />
    <glyph glyph-name="ccircumflex" unicode="&#x109;" horiz-adv-x="822" 
d="M415 0q-81 0 -150 26t-119 71.5t-78.5 108t-28.5 135.5t28.5 133.5t78.5 104t119 67t150 23.5h400l-40 -51h-360q-63 0 -120.5 -18.5t-101.5 -54.5t-70 -88t-26 -119q0 -66 26.5 -119.5t73 -91t110 -57.5t137.5 -20h371l-40 -50h-360zM603 715l-115 133h-3l-115 -133h-35
l129 152h46l129 -152h-36z" />
    <glyph glyph-name="Cdotaccent" unicode="&#x10a;" horiz-adv-x="822" 
d="M415 0q-81 0 -150 26t-119 71.5t-78.5 108t-28.5 135.5t28.5 133.5t78.5 104t119 67t150 23.5h400l-40 -51h-360q-63 0 -120.5 -18.5t-101.5 -54.5t-70 -88t-26 -119q0 -66 26.5 -119.5t73 -91t110 -57.5t137.5 -20h371l-40 -50h-360zM515 804q0 -14 -9.5 -21t-23.5 -7
t-23.5 7t-9.5 21t9.5 21.5t23.5 7.5t23.5 -7.5t9.5 -21.5z" />
    <glyph glyph-name="cdotaccent" unicode="&#x10b;" horiz-adv-x="822" 
d="M415 0q-81 0 -150 26t-119 71.5t-78.5 108t-28.5 135.5t28.5 133.5t78.5 104t119 67t150 23.5h400l-40 -51h-360q-63 0 -120.5 -18.5t-101.5 -54.5t-70 -88t-26 -119q0 -66 26.5 -119.5t73 -91t110 -57.5t137.5 -20h371l-40 -50h-360zM515 804q0 -14 -9.5 -21t-23.5 -7
t-23.5 7t-9.5 21t9.5 21.5t23.5 7.5t23.5 -7.5t9.5 -21.5z" />
    <glyph glyph-name="Ccaron" unicode="&#x10c;" horiz-adv-x="822" 
d="M415 0q-81 0 -150 26t-119 71.5t-78.5 108t-28.5 135.5t28.5 133.5t78.5 104t119 67t150 23.5h400l-40 -51h-360q-63 0 -120.5 -18.5t-101.5 -54.5t-70 -88t-26 -119q0 -66 26.5 -119.5t73 -91t110 -57.5t137.5 -20h371l-40 -50h-360zM479 715l-129 152h35l115 -135h4
l114 135h36l-130 -152h-45z" />
    <glyph glyph-name="ccaron" unicode="&#x10d;" horiz-adv-x="822" 
d="M415 0q-81 0 -150 26t-119 71.5t-78.5 108t-28.5 135.5t28.5 133.5t78.5 104t119 67t150 23.5h400l-40 -51h-360q-63 0 -120.5 -18.5t-101.5 -54.5t-70 -88t-26 -119q0 -66 26.5 -119.5t73 -91t110 -57.5t137.5 -20h371l-40 -50h-360zM479 715l-129 152h35l115 -135h4
l114 135h36l-130 -152h-45z" />
    <glyph glyph-name="Dcaron" unicode="&#x10e;" horiz-adv-x="856" 
d="M58 0v417h59v-367h341q64 0 119.5 22t96 60.5t63.5 91t23 114.5t-23 113.5t-63.5 88.5t-96 57.5t-119.5 20.5h-400l39 51h361q78 0 144 -24t114 -67.5t75 -104t27 -132.5q0 -73 -27.5 -135.5t-75.5 -108t-114 -71.5t-143 -26h-400zM347 715l-129 152h35l115 -135h4
l114 135h36l-130 -152h-45z" />
    <glyph glyph-name="dcaron" unicode="&#x10f;" horiz-adv-x="856" 
d="M58 0v417h59v-367h341q64 0 119.5 22t96 60.5t63.5 91t23 114.5t-23 113.5t-63.5 88.5t-96 57.5t-119.5 20.5h-400l39 51h361q78 0 144 -24t114 -67.5t75 -104t27 -132.5q0 -73 -27.5 -135.5t-75.5 -108t-114 -71.5t-143 -26h-400zM347 715l-129 152h35l115 -135h4
l114 135h36l-130 -152h-45z" />
    <glyph glyph-name="Dcroat" unicode="&#x110;" horiz-adv-x="922" 
d="M123 0v318h-123l35 45h542l-36 -45h-359v-268h340q64 0 119.5 22t96 61t63.5 91.5t23 113.5q0 67 -22.5 119.5t-63 88t-95.5 54t-121 18.5h-399l38 51h361q78 0 144.5 -24t114.5 -67.5t75 -104t27 -132.5q0 -73 -27.5 -135.5t-75.5 -108t-114 -71.5t-144 -26h-399z" />
    <glyph glyph-name="dcroat" unicode="&#x111;" horiz-adv-x="922" 
d="M123 0v318h-123l35 45h542l-36 -45h-359v-268h340q64 0 119.5 22t96 61t63.5 91.5t23 113.5q0 67 -22.5 119.5t-63 88t-95.5 54t-121 18.5h-399l38 51h361q78 0 144.5 -24t114.5 -67.5t75 -104t27 -132.5q0 -73 -27.5 -135.5t-75.5 -108t-114 -71.5t-144 -26h-399z" />
    <glyph glyph-name="Emacron" unicode="&#x112;" horiz-adv-x="749" 
d="M58 0v669h678l-39 -51h-580v-257h592l-35 -45h-557v-266h625l-39 -50h-645zM262 778v27h283v-27h-283z" />
    <glyph glyph-name="emacron" unicode="&#x113;" horiz-adv-x="749" 
d="M58 0v669h678l-39 -51h-580v-257h592l-35 -45h-557v-266h625l-39 -50h-645zM262 778v27h283v-27h-283z" />
    <glyph glyph-name="Ebreve" unicode="&#x114;" horiz-adv-x="749" 
d="M58 0v669h678l-39 -51h-580v-257h592l-35 -45h-557v-266h625l-39 -50h-645zM373 715q-33 0 -56.5 16.5t-37.5 40t-20.5 49.5t-6.5 46h32q1 -20 6.5 -43t16.5 -42.5t29 -32.5t44 -13h33q24 0 41.5 12.5t28.5 32t17 42.5t7 44h32q0 -20 -6.5 -46t-20.5 -49.5t-37.5 -40
t-56.5 -16.5h-45z" />
    <glyph glyph-name="ebreve" unicode="&#x115;" horiz-adv-x="749" 
d="M58 0v669h678l-39 -51h-580v-257h592l-35 -45h-557v-266h625l-39 -50h-645zM373 715q-33 0 -56.5 16.5t-37.5 40t-20.5 49.5t-6.5 46h32q1 -20 6.5 -43t16.5 -42.5t29 -32.5t44 -13h33q24 0 41.5 12.5t28.5 32t17 42.5t7 44h32q0 -20 -6.5 -46t-20.5 -49.5t-37.5 -40
t-56.5 -16.5h-45z" />
    <glyph glyph-name="Edotaccent" unicode="&#x116;" horiz-adv-x="749" 
d="M58 0v669h678l-39 -51h-580v-257h592l-35 -45h-557v-266h625l-39 -50h-645zM428 804q0 -14 -9.5 -21t-23.5 -7t-23.5 7t-9.5 21t9.5 21.5t23.5 7.5t23.5 -7.5t9.5 -21.5z" />
    <glyph glyph-name="edotaccent" unicode="&#x117;" horiz-adv-x="749" 
d="M58 0v669h678l-39 -51h-580v-257h592l-35 -45h-557v-266h625l-39 -50h-645zM428 804q0 -14 -9.5 -21t-23.5 -7t-23.5 7t-9.5 21t9.5 21.5t23.5 7.5t23.5 -7.5t9.5 -21.5z" />
    <glyph glyph-name="Eogonek" unicode="&#x118;" horiz-adv-x="749" 
d="M595 -250q-33 0 -52 15.5t-19 36.5q0 14 8.5 28t23.5 32l115 138h-613v669h678l-39 -51h-580v-257h592l-35 -45h-557v-266h625l-171 -204q-15 -18 -15 -30q0 -11 10.5 -19t29.5 -8h107v-39h-108z" />
    <glyph glyph-name="eogonek" unicode="&#x119;" horiz-adv-x="749" 
d="M595 -250q-33 0 -52 15.5t-19 36.5q0 14 8.5 28t23.5 32l115 138h-613v669h678l-39 -51h-580v-257h592l-35 -45h-557v-266h625l-171 -204q-15 -18 -15 -30q0 -11 10.5 -19t29.5 -8h107v-39h-108z" />
    <glyph glyph-name="Ecaron" unicode="&#x11a;" horiz-adv-x="749" 
d="M58 0v669h678l-39 -51h-580v-257h592l-35 -45h-557v-266h625l-39 -50h-645zM371 715l-129 152h35l115 -135h4l114 135h36l-130 -152h-45z" />
    <glyph glyph-name="ecaron" unicode="&#x11b;" horiz-adv-x="749" 
d="M58 0v669h678l-39 -51h-580v-257h592l-35 -45h-557v-266h625l-39 -50h-645zM371 715l-129 152h35l115 -135h4l114 135h36l-130 -152h-45z" />
    <glyph glyph-name="Gcircumflex" unicode="&#x11c;" horiz-adv-x="855" 
d="M415 0q-81 0 -150 26t-119 71.5t-78.5 108t-28.5 135.5t28.5 133.5t78.5 104t119 67t150 23.5h406l-39 -51h-367q-68 0 -126.5 -20t-101 -56.5t-66.5 -88.5t-24 -115t24 -116t66.5 -91t100.5 -59.5t127 -21.5h317v271h-411l36 46h434v-367h-376zM600 715l-115 133h-3
l-115 -133h-35l129 152h46l129 -152h-36z" />
    <glyph glyph-name="gcircumflex" unicode="&#x11d;" horiz-adv-x="855" 
d="M415 0q-81 0 -150 26t-119 71.5t-78.5 108t-28.5 135.5t28.5 133.5t78.5 104t119 67t150 23.5h406l-39 -51h-367q-68 0 -126.5 -20t-101 -56.5t-66.5 -88.5t-24 -115t24 -116t66.5 -91t100.5 -59.5t127 -21.5h317v271h-411l36 46h434v-367h-376zM600 715l-115 133h-3
l-115 -133h-35l129 152h46l129 -152h-36z" />
    <glyph glyph-name="Gbreve" unicode="&#x11e;" horiz-adv-x="855" 
d="M415 0q-81 0 -150 26t-119 71.5t-78.5 108t-28.5 135.5t28.5 133.5t78.5 104t119 67t150 23.5h406l-39 -51h-367q-68 0 -126.5 -20t-101 -56.5t-66.5 -88.5t-24 -115t24 -116t66.5 -91t100.5 -59.5t127 -21.5h317v271h-411l36 46h434v-367h-376zM438 715
q-33 0 -56.5 16.5t-37.5 40t-20.5 49.5t-6.5 46h32q1 -20 6.5 -43t16.5 -42.5t29 -32.5t44 -13h33q24 0 41.5 12.5t28.5 32t17 42.5t7 44h32q0 -20 -6.5 -46t-20.5 -49.5t-37.5 -40t-56.5 -16.5h-45z" />
    <glyph glyph-name="gbreve" unicode="&#x11f;" horiz-adv-x="855" 
d="M415 0q-81 0 -150 26t-119 71.5t-78.5 108t-28.5 135.5t28.5 133.5t78.5 104t119 67t150 23.5h406l-39 -51h-367q-68 0 -126.5 -20t-101 -56.5t-66.5 -88.5t-24 -115t24 -116t66.5 -91t100.5 -59.5t127 -21.5h317v271h-411l36 46h434v-367h-376zM438 715
q-33 0 -56.5 16.5t-37.5 40t-20.5 49.5t-6.5 46h32q1 -20 6.5 -43t16.5 -42.5t29 -32.5t44 -13h33q24 0 41.5 12.5t28.5 32t17 42.5t7 44h32q0 -20 -6.5 -46t-20.5 -49.5t-37.5 -40t-56.5 -16.5h-45z" />
    <glyph glyph-name="Gdotaccent" unicode="&#x120;" horiz-adv-x="855" 
d="M415 0q-81 0 -150 26t-119 71.5t-78.5 108t-28.5 135.5t28.5 133.5t78.5 104t119 67t150 23.5h406l-39 -51h-367q-68 0 -126.5 -20t-101 -56.5t-66.5 -88.5t-24 -115t24 -116t66.5 -91t100.5 -59.5t127 -21.5h317v271h-411l36 46h434v-367h-376zM515 804q0 -14 -9.5 -21
t-23.5 -7t-23.5 7t-9.5 21t9.5 21.5t23.5 7.5t23.5 -7.5t9.5 -21.5z" />
    <glyph glyph-name="gdotaccent" unicode="&#x121;" horiz-adv-x="855" 
d="M415 0q-81 0 -150 26t-119 71.5t-78.5 108t-28.5 135.5t28.5 133.5t78.5 104t119 67t150 23.5h406l-39 -51h-367q-68 0 -126.5 -20t-101 -56.5t-66.5 -88.5t-24 -115t24 -116t66.5 -91t100.5 -59.5t127 -21.5h317v271h-411l36 46h434v-367h-376zM515 804q0 -14 -9.5 -21
t-23.5 -7t-23.5 7t-9.5 21t9.5 21.5t23.5 7.5t23.5 -7.5t9.5 -21.5z" />
    <glyph glyph-name="uni0122" unicode="&#x122;" horiz-adv-x="855" 
d="M415 0q-81 0 -150 26t-119 71.5t-78.5 108t-28.5 135.5t28.5 133.5t78.5 104t119 67t150 23.5h406l-39 -51h-367q-68 0 -126.5 -20t-101 -56.5t-66.5 -88.5t-24 -115t24 -116t66.5 -91t100.5 -59.5t127 -21.5h317v271h-411l36 46h434v-367h-376zM415 -255l28 224h48
l-52 -224h-24z" />
    <glyph glyph-name="uni0123" unicode="&#x123;" horiz-adv-x="855" 
d="M415 0q-81 0 -150 26t-119 71.5t-78.5 108t-28.5 135.5t28.5 133.5t78.5 104t119 67t150 23.5h406l-39 -51h-367q-68 0 -126.5 -20t-101 -56.5t-66.5 -88.5t-24 -115t24 -116t66.5 -91t100.5 -59.5t127 -21.5h317v271h-411l36 46h434v-367h-376zM415 -255l28 224h48
l-52 -224h-24z" />
    <glyph glyph-name="Hcircumflex" unicode="&#x124;" horiz-adv-x="806" 
d="M689 0v322h-572v-322h-59v669h59v-296h572v296h59v-669h-59zM519 715l-115 133h-3l-115 -133h-35l129 152h46l129 -152h-36z" />
    <glyph glyph-name="hcircumflex" unicode="&#x125;" horiz-adv-x="806" 
d="M689 0v322h-572v-322h-59v669h59v-296h572v296h59v-669h-59zM519 715l-115 133h-3l-115 -133h-35l129 152h46l129 -152h-36z" />
    <glyph glyph-name="Hbar" unicode="&#x126;" horiz-adv-x="806" 
d="M689 0v322h-572v-322h-59v669h59v-105h572v105h59v-669h-59zM689 373v164h-572v-164h572z" />
    <glyph glyph-name="hbar" unicode="&#x127;" horiz-adv-x="806" 
d="M689 0v322h-572v-322h-59v669h59v-105h572v105h59v-669h-59zM689 373v164h-572v-164h572z" />
    <glyph glyph-name="Itilde" unicode="&#x128;" horiz-adv-x="181" 
d="M61 0v669h58v-669h-58zM233 792q-14 -29 -31.5 -39t-40.5 -10q-20 0 -37.5 11t-34 24t-33 24t-34.5 11q-20 0 -38.5 -12.5t-33.5 -47.5v36q14 29 31.5 39t40.5 10q19 0 36.5 -11t34 -24t33 -24t35.5 -11q20 0 38 12.5t34 47.5v-36z" />
    <glyph glyph-name="itilde" unicode="&#x129;" horiz-adv-x="181" 
d="M61 0v669h58v-669h-58zM233 792q-14 -29 -31.5 -39t-40.5 -10q-20 0 -37.5 11t-34 24t-33 24t-34.5 11q-20 0 -38.5 -12.5t-33.5 -47.5v36q14 29 31.5 39t40.5 10q19 0 36.5 -11t34 -24t33 -24t35.5 -11q20 0 38 12.5t34 47.5v-36z" />
    <glyph glyph-name="Imacron" unicode="&#x12a;" horiz-adv-x="181" 
d="M61 0v669h58v-669h-58zM-50 778v27h283v-27h-283z" />
    <glyph glyph-name="imacron" unicode="&#x12b;" horiz-adv-x="181" 
d="M61 0v669h58v-669h-58zM-50 778v27h283v-27h-283z" />
    <glyph glyph-name="Ibreve" unicode="&#x12c;" horiz-adv-x="181" 
d="M61 0v669h58v-669h-58zM69 715q-33 0 -56.5 16.5t-37.5 40t-20.5 49.5t-6.5 46h32q1 -20 6.5 -43t16.5 -42.5t29 -32.5t44 -13h33q24 0 41.5 12.5t28.5 32t17 42.5t7 44h32q0 -20 -6.5 -46t-20.5 -49.5t-37.5 -40t-56.5 -16.5h-45z" />
    <glyph glyph-name="ibreve" unicode="&#x12d;" horiz-adv-x="181" 
d="M61 0v669h58v-669h-58zM69 715q-33 0 -56.5 16.5t-37.5 40t-20.5 49.5t-6.5 46h32q1 -20 6.5 -43t16.5 -42.5t29 -32.5t44 -13h33q24 0 41.5 12.5t28.5 32t17 42.5t7 44h32q0 -20 -6.5 -46t-20.5 -49.5t-37.5 -40t-56.5 -16.5h-45z" />
    <glyph glyph-name="Iogonek" unicode="&#x12e;" horiz-adv-x="181" 
d="M-38 -250q-33 0 -52 15.5t-19 36.5q0 14 8 29.5t26 30.5l162 138h-26v669h58v-669l-179 -154q-17 -17 -17 -30q0 -11 10.5 -19t29.5 -8h156v-39h-157z" />
    <glyph glyph-name="iogonek" unicode="&#x12f;" horiz-adv-x="181" 
d="M-38 -250q-33 0 -52 15.5t-19 36.5q0 14 8 29.5t26 30.5l162 138h-26v669h58v-669l-179 -154q-17 -17 -17 -30q0 -11 10.5 -19t29.5 -8h156v-39h-157z" />
    <glyph glyph-name="Idotaccent" unicode="&#x130;" horiz-adv-x="181" 
d="M61 0v669h58v-669h-58zM123 804q0 -14 -9.5 -21t-23.5 -7t-23.5 7t-9.5 21t9.5 21.5t23.5 7.5t23.5 -7.5t9.5 -21.5z" />
    <glyph glyph-name="dotlessi" unicode="&#x131;" horiz-adv-x="181" 
d="M61 0v669h58v-669h-58z" />
    <glyph glyph-name="IJ" unicode="&#x132;" horiz-adv-x="807" 
d="M61 0v669h58v-669h-58zM698 669h59v-365q0 -304 -381 -304h-185q11 12 20 24.5t19 25.5h146q166 0 244 63.5t78 190.5v365z" />
    <glyph glyph-name="ij" unicode="&#x133;" horiz-adv-x="807" 
d="M61 0v669h58v-669h-58zM698 669h59v-365q0 -304 -381 -304h-185q11 12 20 24.5t19 25.5h146q166 0 244 63.5t78 190.5v365z" />
    <glyph glyph-name="Jcircumflex" unicode="&#x134;" horiz-adv-x="626" 
d="M517 669h59v-365q0 -304 -381 -304h-185q11 12 20 24.5t19 25.5h146q166 0 244 63.5t78 190.5v365zM538 715l-115 133h-3l-115 -133h-35l129 152h46l129 -152h-36z" />
    <glyph glyph-name="jcircumflex" unicode="&#x135;" horiz-adv-x="626" 
d="M517 669h59v-365q0 -304 -381 -304h-185q11 12 20 24.5t19 25.5h146q166 0 244 63.5t78 190.5v365zM538 715l-115 133h-3l-115 -133h-35l129 152h46l129 -152h-36z" />
    <glyph glyph-name="uni0136" unicode="&#x136;" horiz-adv-x="802" 
d="M699 0l-582 331v-331h-59v669h59v-297l547 297h100l-590 -315l622 -354h-97zM375 -255l28 224h48l-52 -224h-24z" />
    <glyph glyph-name="uni0137" unicode="&#x137;" horiz-adv-x="802" 
d="M699 0l-582 331v-331h-59v669h59v-297l547 297h100l-590 -315l622 -354h-97zM375 -255l28 224h48l-52 -224h-24z" />
    <glyph glyph-name="Lacute" unicode="&#x139;" horiz-adv-x="700" 
d="M58 0v669h58v-619h579l-39 -50h-598zM57 715v27l283 125v-36z" />
    <glyph glyph-name="lacute" unicode="&#x13a;" horiz-adv-x="700" 
d="M58 0v669h58v-619h579l-39 -50h-598zM57 715v27l283 125v-36z" />
    <glyph glyph-name="uni013B" unicode="&#x13b;" horiz-adv-x="700" 
d="M58 0v669h58v-619h579l-39 -50h-598zM310 -255l28 224h48l-52 -224h-24z" />
    <glyph glyph-name="uni013C" unicode="&#x13c;" horiz-adv-x="700" 
d="M58 0v669h58v-619h579l-39 -50h-598zM310 -255l28 224h48l-52 -224h-24z" />
    <glyph glyph-name="Lcaron" unicode="&#x13d;" horiz-adv-x="700" 
d="M58 0v669h58v-619h579l-39 -50h-598zM218 401l30 268h58l-60 -268h-28z" />
    <glyph glyph-name="lcaron" unicode="&#x13e;" horiz-adv-x="700" 
d="M58 0v669h58v-619h579l-39 -50h-598zM218 401l30 268h58l-60 -268h-28z" />
    <glyph glyph-name="Ldot" unicode="&#x13f;" horiz-adv-x="700" 
d="M58 0v669h58v-619h579l-39 -50h-598zM324 297q0 -14 -9.5 -21t-23.5 -7t-23.5 7t-9.5 21t9.5 21.5t23.5 7.5t23.5 -7.5t9.5 -21.5z" />
    <glyph glyph-name="ldot" unicode="&#x140;" horiz-adv-x="700" 
d="M58 0v669h58v-619h579l-39 -50h-598zM324 297q0 -14 -9.5 -21t-23.5 -7t-23.5 7t-9.5 21t9.5 21.5t23.5 7.5t23.5 -7.5t9.5 -21.5z" />
    <glyph glyph-name="Lslash" unicode="&#x141;" horiz-adv-x="700" 
d="M58 0v669h58v-283h387l-35 -44h-352v-292h579l-39 -50h-598z" />
    <glyph glyph-name="lslash" unicode="&#x142;" horiz-adv-x="700" 
d="M58 0v669h58v-283h387l-35 -44h-352v-292h579l-39 -50h-598z" />
    <glyph glyph-name="Nacute" unicode="&#x143;" horiz-adv-x="827" 
d="M718 669h54v-634q0 -20 -10 -29t-24 -9q-6 0 -13 2.5t-14 9.5l-602 587v-596h-54v638q0 20 10 29t24 9q6 0 13 -2.5t15 -10.5l601 -586v592zM307 715v27l283 125v-36z" />
    <glyph glyph-name="nacute" unicode="&#x144;" horiz-adv-x="827" 
d="M718 669h54v-634q0 -20 -10 -29t-24 -9q-6 0 -13 2.5t-14 9.5l-602 587v-596h-54v638q0 20 10 29t24 9q6 0 13 -2.5t15 -10.5l601 -586v592zM307 715v27l283 125v-36z" />
    <glyph glyph-name="uni0145" unicode="&#x145;" horiz-adv-x="827" 
d="M718 669h54v-634q0 -20 -10 -29t-24 -9q-6 0 -13 2.5t-14 9.5l-602 587v-596h-54v638q0 20 10 29t24 9q6 0 13 -2.5t15 -10.5l601 -586v592zM364 -255l28 224h48l-52 -224h-24z" />
    <glyph glyph-name="uni0146" unicode="&#x146;" horiz-adv-x="827" 
d="M718 669h54v-634q0 -20 -10 -29t-24 -9q-6 0 -13 2.5t-14 9.5l-602 587v-596h-54v638q0 20 10 29t24 9q6 0 13 -2.5t15 -10.5l601 -586v592zM364 -255l28 224h48l-52 -224h-24z" />
    <glyph glyph-name="Ncaron" unicode="&#x147;" horiz-adv-x="827" 
d="M718 669h54v-634q0 -20 -10 -29t-24 -9q-6 0 -13 2.5t-14 9.5l-602 587v-596h-54v638q0 20 10 29t24 9q6 0 13 -2.5t15 -10.5l601 -586v592zM403 715l-129 152h35l115 -135h4l114 135h36l-130 -152h-45z" />
    <glyph glyph-name="ncaron" unicode="&#x148;" horiz-adv-x="827" 
d="M718 669h54v-634q0 -20 -10 -29t-24 -9q-6 0 -13 2.5t-14 9.5l-602 587v-596h-54v638q0 20 10 29t24 9q6 0 13 -2.5t15 -10.5l601 -586v592zM403 715l-129 152h35l115 -135h4l114 135h36l-130 -152h-45z" />
    <glyph glyph-name="Eng" unicode="&#x14a;" horiz-adv-x="827" 
d="M718 673h54v-644q0 -149 -95.5 -216.5t-285.5 -67.5h-88q10 13 19 25.5t20 25.5h49q156 0 236 48.5t89 159.5l-607 592v-596h-54v638q0 20 10 29t24 9q6 0 13 -2.5t15 -10.5l601 -586v596z" />
    <glyph glyph-name="eng" unicode="&#x14b;" horiz-adv-x="827" 
d="M718 673h54v-644q0 -149 -95.5 -216.5t-285.5 -67.5h-88q10 13 19 25.5t20 25.5h49q156 0 236 48.5t89 159.5l-607 592v-596h-54v638q0 20 10 29t24 9q6 0 13 -2.5t15 -10.5l601 -586v596z" />
    <glyph glyph-name="Omacron" unicode="&#x14c;" horiz-adv-x="936" 
d="M897 335q0 -180 -106.5 -263t-322.5 -83q-215 0 -322 83t-107 263q0 179 107.5 262t321.5 83t321.5 -83t107.5 -262zM838 335q0 79 -22.5 134.5t-68.5 91t-115.5 52t-163.5 16.5q-95 0 -164.5 -16.5t-115.5 -52t-68.5 -91t-22.5 -134.5q0 -158 91.5 -227t279.5 -69
t279 69t91 227zM326 778v27h283v-27h-283z" />
    <glyph glyph-name="omacron" unicode="&#x14d;" horiz-adv-x="936" 
d="M897 335q0 -180 -106.5 -263t-322.5 -83q-215 0 -322 83t-107 263q0 179 107.5 262t321.5 83t321.5 -83t107.5 -262zM838 335q0 79 -22.5 134.5t-68.5 91t-115.5 52t-163.5 16.5q-95 0 -164.5 -16.5t-115.5 -52t-68.5 -91t-22.5 -134.5q0 -158 91.5 -227t279.5 -69
t279 69t91 227zM326 778v27h283v-27h-283z" />
    <glyph glyph-name="Obreve" unicode="&#x14e;" horiz-adv-x="936" 
d="M897 335q0 -180 -106.5 -263t-322.5 -83q-215 0 -322 83t-107 263q0 179 107.5 262t321.5 83t321.5 -83t107.5 -262zM838 335q0 79 -22.5 134.5t-68.5 91t-115.5 52t-163.5 16.5q-95 0 -164.5 -16.5t-115.5 -52t-68.5 -91t-22.5 -134.5q0 -158 91.5 -227t279.5 -69
t279 69t91 227zM445 715q-33 0 -56.5 16.5t-37.5 40t-20.5 49.5t-6.5 46h32q1 -20 6.5 -43t16.5 -42.5t29 -32.5t44 -13h33q24 0 41.5 12.5t28.5 32t17 42.5t7 44h32q0 -20 -6.5 -46t-20.5 -49.5t-37.5 -40t-56.5 -16.5h-45z" />
    <glyph glyph-name="obreve" unicode="&#x14f;" horiz-adv-x="936" 
d="M897 335q0 -180 -106.5 -263t-322.5 -83q-215 0 -322 83t-107 263q0 179 107.5 262t321.5 83t321.5 -83t107.5 -262zM838 335q0 79 -22.5 134.5t-68.5 91t-115.5 52t-163.5 16.5q-95 0 -164.5 -16.5t-115.5 -52t-68.5 -91t-22.5 -134.5q0 -158 91.5 -227t279.5 -69
t279 69t91 227zM445 715q-33 0 -56.5 16.5t-37.5 40t-20.5 49.5t-6.5 46h32q1 -20 6.5 -43t16.5 -42.5t29 -32.5t44 -13h33q24 0 41.5 12.5t28.5 32t17 42.5t7 44h32q0 -20 -6.5 -46t-20.5 -49.5t-37.5 -40t-56.5 -16.5h-45z" />
    <glyph glyph-name="Ohungarumlaut" unicode="&#x150;" horiz-adv-x="936" 
d="M897 335q0 -180 -106.5 -263t-322.5 -83q-215 0 -322 83t-107 263q0 179 107.5 262t321.5 83t321.5 -83t107.5 -262zM838 335q0 79 -22.5 134.5t-68.5 91t-115.5 52t-163.5 16.5q-95 0 -164.5 -16.5t-115.5 -52t-68.5 -91t-22.5 -134.5q0 -158 91.5 -227t279.5 -69
t279 69t91 227zM522 725l68 142h39l-81 -142h-26zM359 725l68 142h38l-81 -142h-25z" />
    <glyph glyph-name="ohungarumlaut" unicode="&#x151;" horiz-adv-x="936" 
d="M897 335q0 -180 -106.5 -263t-322.5 -83q-215 0 -322 83t-107 263q0 179 107.5 262t321.5 83t321.5 -83t107.5 -262zM838 335q0 79 -22.5 134.5t-68.5 91t-115.5 52t-163.5 16.5q-95 0 -164.5 -16.5t-115.5 -52t-68.5 -91t-22.5 -134.5q0 -158 91.5 -227t279.5 -69
t279 69t91 227zM522 725l68 142h39l-81 -142h-26zM359 725l68 142h38l-81 -142h-25z" />
    <glyph glyph-name="OE" unicode="&#x152;" horiz-adv-x="1395" 
d="M725 0q-16 -3 -50 -5t-73 -3.5t-76 -2t-58 -0.5q-215 0 -322 83t-107 263q0 179 107.5 262t321.5 83q21 0 58 -0.5t76 -2t73 -3.5t50 -5h657l-39 -51h-559v-257h570l-35 -45h-535v-266h603l-38 -50h-624zM725 616q-16 3 -50 5.5t-73 4t-75.5 2.5t-58.5 1
q-95 0 -164.5 -16.5t-115.5 -52t-68.5 -91t-22.5 -134.5q0 -158 91.5 -227t279.5 -69q22 0 58.5 1t75.5 2.5t73 4t50 5.5v564z" />
    <glyph glyph-name="oe" unicode="&#x153;" horiz-adv-x="1395" 
d="M725 0q-16 -3 -50 -5t-73 -3.5t-76 -2t-58 -0.5q-215 0 -322 83t-107 263q0 179 107.5 262t321.5 83q21 0 58 -0.5t76 -2t73 -3.5t50 -5h657l-39 -51h-559v-257h570l-35 -45h-535v-266h603l-38 -50h-624zM725 616q-16 3 -50 5.5t-73 4t-75.5 2.5t-58.5 1
q-95 0 -164.5 -16.5t-115.5 -52t-68.5 -91t-22.5 -134.5q0 -158 91.5 -227t279.5 -69q22 0 58.5 1t75.5 2.5t73 4t50 5.5v564z" />
    <glyph glyph-name="Racute" unicode="&#x154;" horiz-adv-x="911" 
d="M820 0l-285 242h-418v-242h-58v291h478q52 0 97.5 9t79 28.5t53 50t19.5 72.5q0 44 -18.5 75.5t-51.5 52t-79 30t-100 9.5h-481l40 51h460q60 0 112.5 -12.5t92.5 -39t63 -67t23 -96.5q0 -48 -18 -84.5t-50.5 -62t-78.5 -39t-101 -15.5l302 -253h-81zM254 715v27l283 125
v-36z" />
    <glyph glyph-name="racute" unicode="&#x155;" horiz-adv-x="911" 
d="M820 0l-285 242h-418v-242h-58v291h478q52 0 97.5 9t79 28.5t53 50t19.5 72.5q0 44 -18.5 75.5t-51.5 52t-79 30t-100 9.5h-481l40 51h460q60 0 112.5 -12.5t92.5 -39t63 -67t23 -96.5q0 -48 -18 -84.5t-50.5 -62t-78.5 -39t-101 -15.5l302 -253h-81zM254 715v27l283 125
v-36z" />
    <glyph glyph-name="uni0156" unicode="&#x156;" horiz-adv-x="911" 
d="M820 0l-285 242h-418v-242h-58v291h478q52 0 97.5 9t79 28.5t53 50t19.5 72.5q0 44 -18.5 75.5t-51.5 52t-79 30t-100 9.5h-481l40 51h460q60 0 112.5 -12.5t92.5 -39t63 -67t23 -96.5q0 -48 -18 -84.5t-50.5 -62t-78.5 -39t-101 -15.5l302 -253h-81zM376 -255l28 224h48
l-52 -224h-24z" />
    <glyph glyph-name="uni0157" unicode="&#x157;" horiz-adv-x="911" 
d="M820 0l-285 242h-418v-242h-58v291h478q52 0 97.5 9t79 28.5t53 50t19.5 72.5q0 44 -18.5 75.5t-51.5 52t-79 30t-100 9.5h-481l40 51h460q60 0 112.5 -12.5t92.5 -39t63 -67t23 -96.5q0 -48 -18 -84.5t-50.5 -62t-78.5 -39t-101 -15.5l302 -253h-81zM376 -255l28 224h48
l-52 -224h-24z" />
    <glyph glyph-name="Rcaron" unicode="&#x158;" horiz-adv-x="911" 
d="M820 0l-285 242h-418v-242h-58v291h478q52 0 97.5 9t79 28.5t53 50t19.5 72.5q0 44 -18.5 75.5t-51.5 52t-79 30t-100 9.5h-481l40 51h460q60 0 112.5 -12.5t92.5 -39t63 -67t23 -96.5q0 -48 -18 -84.5t-50.5 -62t-78.5 -39t-101 -15.5l302 -253h-81zM407 715l-129 152
h35l115 -135h4l114 135h36l-130 -152h-45z" />
    <glyph glyph-name="rcaron" unicode="&#x159;" horiz-adv-x="911" 
d="M820 0l-285 242h-418v-242h-58v291h478q52 0 97.5 9t79 28.5t53 50t19.5 72.5q0 44 -18.5 75.5t-51.5 52t-79 30t-100 9.5h-481l40 51h460q60 0 112.5 -12.5t92.5 -39t63 -67t23 -96.5q0 -48 -18 -84.5t-50.5 -62t-78.5 -39t-101 -15.5l302 -253h-81zM407 715l-129 152
h35l115 -135h4l114 135h36l-130 -152h-45z" />
    <glyph glyph-name="Sacute" unicode="&#x15a;" horiz-adv-x="873" 
d="M21 0l40 50h534q100 0 147 33t47 102q0 38 -14 63t-41 39.5t-67.5 20t-93.5 5.5h-268q-127 0 -186.5 41.5t-59.5 131.5q0 91 61 137t193 46h523l-39 -51h-487q-99 0 -147 -33t-48 -102q0 -38 14 -62t41 -38t67.5 -19.5t94.5 -5.5h269q124 0 184.5 -41t60.5 -132
q0 -94 -61 -139.5t-194 -45.5h-570zM312 715v27l283 125v-36z" />
    <glyph glyph-name="sacute" unicode="&#x15b;" horiz-adv-x="873" 
d="M21 0l40 50h534q100 0 147 33t47 102q0 38 -14 63t-41 39.5t-67.5 20t-93.5 5.5h-268q-127 0 -186.5 41.5t-59.5 131.5q0 91 61 137t193 46h523l-39 -51h-487q-99 0 -147 -33t-48 -102q0 -38 14 -62t41 -38t67.5 -19.5t94.5 -5.5h269q124 0 184.5 -41t60.5 -132
q0 -94 -61 -139.5t-194 -45.5h-570zM312 715v27l283 125v-36z" />
    <glyph glyph-name="Scircumflex" unicode="&#x15c;" horiz-adv-x="873" 
d="M21 0l40 50h534q100 0 147 33t47 102q0 38 -14 63t-41 39.5t-67.5 20t-93.5 5.5h-268q-127 0 -186.5 41.5t-59.5 131.5q0 91 61 137t193 46h523l-39 -51h-487q-99 0 -147 -33t-48 -102q0 -38 14 -62t41 -38t67.5 -19.5t94.5 -5.5h269q124 0 184.5 -41t60.5 -132
q0 -94 -61 -139.5t-194 -45.5h-570zM580 715l-115 133h-3l-115 -133h-35l129 152h46l129 -152h-36z" />
    <glyph glyph-name="scircumflex" unicode="&#x15d;" horiz-adv-x="873" 
d="M21 0l40 50h534q100 0 147 33t47 102q0 38 -14 63t-41 39.5t-67.5 20t-93.5 5.5h-268q-127 0 -186.5 41.5t-59.5 131.5q0 91 61 137t193 46h523l-39 -51h-487q-99 0 -147 -33t-48 -102q0 -38 14 -62t41 -38t67.5 -19.5t94.5 -5.5h269q124 0 184.5 -41t60.5 -132
q0 -94 -61 -139.5t-194 -45.5h-570zM580 715l-115 133h-3l-115 -133h-35l129 152h46l129 -152h-36z" />
    <glyph glyph-name="Scedilla" unicode="&#x15e;" horiz-adv-x="873" 
d="M21 0l40 50h534q100 0 147 33t47 102q0 38 -14 63t-41 39.5t-67.5 20t-93.5 5.5h-268q-127 0 -186.5 41.5t-59.5 131.5q0 91 61 137t193 46h523l-39 -51h-487q-99 0 -147 -33t-48 -102q0 -38 14 -62t41 -38t67.5 -19.5t94.5 -5.5h269q124 0 184.5 -41t60.5 -132
q0 -94 -61 -139.5t-194 -45.5h-570zM391 -255l28 224h49l-53 -224h-24z" />
    <glyph glyph-name="scedilla" unicode="&#x15f;" horiz-adv-x="873" 
d="M21 0l40 50h534q100 0 147 33t47 102q0 38 -14 63t-41 39.5t-67.5 20t-93.5 5.5h-268q-127 0 -186.5 41.5t-59.5 131.5q0 91 61 137t193 46h523l-39 -51h-487q-99 0 -147 -33t-48 -102q0 -38 14 -62t41 -38t67.5 -19.5t94.5 -5.5h269q124 0 184.5 -41t60.5 -132
q0 -94 -61 -139.5t-194 -45.5h-570zM391 -255l28 224h49l-53 -224h-24z" />
    <glyph glyph-name="Scaron" unicode="&#x160;" horiz-adv-x="873" 
d="M21 0l40 50h534q100 0 147 33t47 102q0 38 -14 63t-41 39.5t-67.5 20t-93.5 5.5h-268q-127 0 -186.5 41.5t-59.5 131.5q0 91 61 137t193 46h523l-39 -51h-487q-99 0 -147 -33t-48 -102q0 -38 14 -62t41 -38t67.5 -19.5t94.5 -5.5h269q124 0 184.5 -41t60.5 -132
q0 -94 -61 -139.5t-194 -45.5h-570zM438 715l-129 152h35l115 -135h4l114 135h36l-130 -152h-45z" />
    <glyph glyph-name="scaron" unicode="&#x161;" horiz-adv-x="873" 
d="M21 0l40 50h534q100 0 147 33t47 102q0 38 -14 63t-41 39.5t-67.5 20t-93.5 5.5h-268q-127 0 -186.5 41.5t-59.5 131.5q0 91 61 137t193 46h523l-39 -51h-487q-99 0 -147 -33t-48 -102q0 -38 14 -62t41 -38t67.5 -19.5t94.5 -5.5h269q124 0 184.5 -41t60.5 -132
q0 -94 -61 -139.5t-194 -45.5h-570zM438 715l-129 152h35l115 -135h4l114 135h36l-130 -152h-45z" />
    <glyph glyph-name="uni0162" unicode="&#x162;" horiz-adv-x="823" 
d="M376 0v618h-376l42 51h781l-39 -51h-350v-618h-58zM353 -255l28 224h48l-52 -224h-24z" />
    <glyph glyph-name="uni0163" unicode="&#x163;" horiz-adv-x="823" 
d="M376 0v618h-376l42 51h781l-39 -51h-350v-618h-58zM353 -255l28 224h48l-52 -224h-24z" />
    <glyph glyph-name="Tcaron" unicode="&#x164;" horiz-adv-x="823" 
d="M376 0v618h-376l42 51h781l-39 -51h-350v-618h-58zM384 715l-129 152h35l115 -135h4l114 135h36l-130 -152h-45z" />
    <glyph glyph-name="tcaron" unicode="&#x165;" horiz-adv-x="823" 
d="M376 0v618h-376l42 51h781l-39 -51h-350v-618h-58zM384 715l-129 152h35l115 -135h4l114 135h36l-130 -152h-45z" />
    <glyph glyph-name="Tbar" unicode="&#x166;" horiz-adv-x="823" 
d="M376 0v618h-376l42 51h781l-39 -51h-350v-618h-58zM215 318l31 40h346l-31 -40h-346z" />
    <glyph glyph-name="tbar" unicode="&#x167;" horiz-adv-x="823" 
d="M376 0v618h-376l42 51h781l-39 -51h-350v-618h-58zM215 318l31 40h346l-31 -40h-346z" />
    <glyph glyph-name="Utilde" unicode="&#x168;" horiz-adv-x="884" 
d="M775 669h59v-377q0 -303 -373 -303q-216 0 -314 75.5t-98 227.5v377h59v-377q0 -65 20 -112.5t62.5 -79t109.5 -46.5t161 -15q87 0 147 15t97 46.5t53.5 79t16.5 112.5v377zM583 792q-14 -29 -31.5 -39t-40.5 -10q-20 0 -37.5 11t-34 24t-33 24t-34.5 11
q-20 0 -38.5 -12.5t-33.5 -47.5v36q14 29 31.5 39t40.5 10q19 0 36.5 -11t34 -24t33 -24t35.5 -11q20 0 38 12.5t34 47.5v-36z" />
    <glyph glyph-name="utilde" unicode="&#x169;" horiz-adv-x="884" 
d="M775 669h59v-377q0 -303 -373 -303q-216 0 -314 75.5t-98 227.5v377h59v-377q0 -65 20 -112.5t62.5 -79t109.5 -46.5t161 -15q87 0 147 15t97 46.5t53.5 79t16.5 112.5v377zM583 792q-14 -29 -31.5 -39t-40.5 -10q-20 0 -37.5 11t-34 24t-33 24t-34.5 11
q-20 0 -38.5 -12.5t-33.5 -47.5v36q14 29 31.5 39t40.5 10q19 0 36.5 -11t34 -24t33 -24t35.5 -11q20 0 38 12.5t34 47.5v-36z" />
    <glyph glyph-name="Umacron" unicode="&#x16a;" horiz-adv-x="884" 
d="M775 669h59v-377q0 -303 -373 -303q-216 0 -314 75.5t-98 227.5v377h59v-377q0 -65 20 -112.5t62.5 -79t109.5 -46.5t161 -15q87 0 147 15t97 46.5t53.5 79t16.5 112.5v377zM300 778v27h283v-27h-283z" />
    <glyph glyph-name="umacron" unicode="&#x16b;" horiz-adv-x="884" 
d="M775 669h59v-377q0 -303 -373 -303q-216 0 -314 75.5t-98 227.5v377h59v-377q0 -65 20 -112.5t62.5 -79t109.5 -46.5t161 -15q87 0 147 15t97 46.5t53.5 79t16.5 112.5v377zM300 778v27h283v-27h-283z" />
    <glyph glyph-name="Ubreve" unicode="&#x16c;" horiz-adv-x="884" 
d="M775 669h59v-377q0 -303 -373 -303q-216 0 -314 75.5t-98 227.5v377h59v-377q0 -65 20 -112.5t62.5 -79t109.5 -46.5t161 -15q87 0 147 15t97 46.5t53.5 79t16.5 112.5v377zM420 715q-33 0 -56.5 16.5t-37.5 40t-20.5 49.5t-6.5 46h32q1 -20 6.5 -43t16.5 -42.5t29 -32.5
t44 -13h33q24 0 41.5 12.5t28.5 32t17 42.5t7 44h32q0 -20 -6.5 -46t-20.5 -49.5t-37.5 -40t-56.5 -16.5h-45z" />
    <glyph glyph-name="ubreve" unicode="&#x16d;" horiz-adv-x="884" 
d="M775 669h59v-377q0 -303 -373 -303q-216 0 -314 75.5t-98 227.5v377h59v-377q0 -65 20 -112.5t62.5 -79t109.5 -46.5t161 -15q87 0 147 15t97 46.5t53.5 79t16.5 112.5v377zM420 715q-33 0 -56.5 16.5t-37.5 40t-20.5 49.5t-6.5 46h32q1 -20 6.5 -43t16.5 -42.5t29 -32.5
t44 -13h33q24 0 41.5 12.5t28.5 32t17 42.5t7 44h32q0 -20 -6.5 -46t-20.5 -49.5t-37.5 -40t-56.5 -16.5h-45z" />
    <glyph glyph-name="Uring" unicode="&#x16e;" horiz-adv-x="884" 
d="M775 669h59v-377q0 -303 -373 -303q-216 0 -314 75.5t-98 227.5v377h59v-377q0 -65 20 -112.5t62.5 -79t109.5 -46.5t161 -15q87 0 147 15t97 46.5t53.5 79t16.5 112.5v377zM408 715q-103 0 -103 83v63q0 84 103 84h67q104 0 104 -84v-63q0 -83 -104 -83h-67zM552 855
q0 36 -21 50.5t-63 14.5h-55q-42 0 -62 -15t-20 -50v-52q0 -37 21 -50.5t61 -13.5h55q40 0 62 13.5t22 46.5v56z" />
    <glyph glyph-name="uring" unicode="&#x16f;" horiz-adv-x="884" 
d="M775 669h59v-377q0 -303 -373 -303q-216 0 -314 75.5t-98 227.5v377h59v-377q0 -65 20 -112.5t62.5 -79t109.5 -46.5t161 -15q87 0 147 15t97 46.5t53.5 79t16.5 112.5v377zM408 715q-103 0 -103 83v63q0 84 103 84h67q104 0 104 -84v-63q0 -83 -104 -83h-67zM552 855
q0 36 -21 50.5t-63 14.5h-55q-42 0 -62 -15t-20 -50v-52q0 -37 21 -50.5t61 -13.5h55q40 0 62 13.5t22 46.5v56z" />
    <glyph glyph-name="Uhungarumlaut" unicode="&#x170;" horiz-adv-x="884" 
d="M775 669h59v-377q0 -303 -373 -303q-216 0 -314 75.5t-98 227.5v377h59v-377q0 -65 20 -112.5t62.5 -79t109.5 -46.5t161 -15q87 0 147 15t97 46.5t53.5 79t16.5 112.5v377zM481 725l68 142h39l-81 -142h-26zM318 725l68 142h38l-81 -142h-25z" />
    <glyph glyph-name="uhungarumlaut" unicode="&#x171;" horiz-adv-x="884" 
d="M775 669h59v-377q0 -303 -373 -303q-216 0 -314 75.5t-98 227.5v377h59v-377q0 -65 20 -112.5t62.5 -79t109.5 -46.5t161 -15q87 0 147 15t97 46.5t53.5 79t16.5 112.5v377zM481 725l68 142h39l-81 -142h-26zM318 725l68 142h38l-81 -142h-25z" />
    <glyph glyph-name="Uogonek" unicode="&#x172;" horiz-adv-x="884" 
d="M432 -250q-33 0 -51.5 15.5t-18.5 36.5q0 30 34 60l154 131q-21 -2 -43.5 -3t-45.5 -1q-216 0 -314 75.5t-98 227.5v377h59v-377q0 -65 20 -112.5t62.5 -79t109.5 -46.5t161 -15q87 0 147 15t97 46.5t53.5 79t16.5 112.5v377h59v-377q0 -246 -244 -292l-179 -154
q-17 -17 -17 -30q0 -11 10 -19t29 -8h157v-39h-158z" />
    <glyph glyph-name="uogonek" unicode="&#x173;" horiz-adv-x="884" 
d="M432 -250q-33 0 -51.5 15.5t-18.5 36.5q0 30 34 60l154 131q-21 -2 -43.5 -3t-45.5 -1q-216 0 -314 75.5t-98 227.5v377h59v-377q0 -65 20 -112.5t62.5 -79t109.5 -46.5t161 -15q87 0 147 15t97 46.5t53.5 79t16.5 112.5v377h59v-377q0 -246 -244 -292l-179 -154
q-17 -17 -17 -30q0 -11 10 -19t29 -8h157v-39h-158z" />
    <glyph glyph-name="Wcircumflex" unicode="&#x174;" horiz-adv-x="1156" 
d="M1085 669h57l-243 -647q-11 -29 -36 -29q-26 0 -35 23l-252 595l-250 -595q-11 -23 -35 -23q-27 0 -36 29l-243 647h59l227 -602l243 584q7 16 16.5 20.5t19.5 4.5q11 0 20.5 -4.5t16.5 -20.5l243 -584zM694 715l-115 133h-3l-115 -133h-35l129 152h46l129 -152h-36z" />
    <glyph glyph-name="wcircumflex" unicode="&#x175;" horiz-adv-x="1156" 
d="M1085 669h57l-243 -647q-11 -29 -36 -29q-26 0 -35 23l-252 595l-250 -595q-11 -23 -35 -23q-27 0 -36 29l-243 647h59l227 -602l243 584q7 16 16.5 20.5t19.5 4.5q11 0 20.5 -4.5t16.5 -20.5l243 -584zM694 715l-115 133h-3l-115 -133h-35l129 152h46l129 -152h-36z" />
    <glyph glyph-name="Ycircumflex" unicode="&#x176;" horiz-adv-x="927" 
d="M436 0v261l-429 408h76l384 -362l379 362h76l-427 -408v-261h-59zM583 715l-115 133h-3l-115 -133h-35l129 152h46l129 -152h-36z" />
    <glyph glyph-name="ycircumflex" unicode="&#x177;" horiz-adv-x="927" 
d="M436 0v261l-429 408h76l384 -362l379 362h76l-427 -408v-261h-59zM583 715l-115 133h-3l-115 -133h-35l129 152h46l129 -152h-36z" />
    <glyph glyph-name="Ydieresis" unicode="&#x178;" horiz-adv-x="927" 
d="M436 0v261l-429 408h76l384 -362l379 362h76l-427 -408v-261h-59zM600 804q0 -14 -9.5 -21t-23.5 -7t-23.5 7t-9.5 21t9.5 21.5t23.5 7.5t23.5 -7.5t9.5 -21.5zM398 804q0 -14 -9.5 -21t-23.5 -7t-23.5 7t-9.5 21t9.5 21.5t23.5 7.5t23.5 -7.5t9.5 -21.5z" />
    <glyph glyph-name="Zacute" unicode="&#x179;" horiz-adv-x="837" 
d="M53 0q-31 0 -31 27q0 17 14 28l669 563h-695l39 51h719q14 0 23.5 -7t9.5 -21q0 -16 -15 -28l-670 -563h713l-37 -50h-739zM305 715v27l283 125v-36z" />
    <glyph glyph-name="zacute" unicode="&#x17a;" horiz-adv-x="837" 
d="M53 0q-31 0 -31 27q0 17 14 28l669 563h-695l39 51h719q14 0 23.5 -7t9.5 -21q0 -16 -15 -28l-670 -563h713l-37 -50h-739zM305 715v27l283 125v-36z" />
    <glyph glyph-name="Zdotaccent" unicode="&#x17b;" horiz-adv-x="837" 
d="M53 0q-31 0 -31 27q0 17 14 28l669 563h-695l39 51h719q14 0 23.5 -7t9.5 -21q0 -16 -15 -28l-670 -563h713l-37 -50h-739zM451 804q0 -14 -9.5 -21t-23.5 -7t-23.5 7t-9.5 21t9.5 21.5t23.5 7.5t23.5 -7.5t9.5 -21.5z" />
    <glyph glyph-name="zdotaccent" unicode="&#x17c;" horiz-adv-x="837" 
d="M53 0q-31 0 -31 27q0 17 14 28l669 563h-695l39 51h719q14 0 23.5 -7t9.5 -21q0 -16 -15 -28l-670 -563h713l-37 -50h-739zM451 804q0 -14 -9.5 -21t-23.5 -7t-23.5 7t-9.5 21t9.5 21.5t23.5 7.5t23.5 -7.5t9.5 -21.5z" />
    <glyph glyph-name="Zcaron" unicode="&#x17d;" horiz-adv-x="837" 
d="M53 0q-31 0 -31 27q0 17 14 28l669 563h-695l39 51h719q14 0 23.5 -7t9.5 -21q0 -16 -15 -28l-670 -563h713l-37 -50h-739zM383 715l-129 152h35l115 -135h4l114 135h36l-130 -152h-45z" />
    <glyph glyph-name="zcaron" unicode="&#x17e;" horiz-adv-x="837" 
d="M53 0q-31 0 -31 27q0 17 14 28l669 563h-695l39 51h719q14 0 23.5 -7t9.5 -21q0 -16 -15 -28l-670 -563h713l-37 -50h-739zM383 715l-129 152h35l115 -135h4l114 135h36l-130 -152h-45z" />
    <glyph glyph-name="Aringacute" unicode="&#x1fa;" 
d="M259 0l37 50h557l-368 559l-406 -609h-69l436 653q5 8 15.5 15.5t23.5 7.5q14 0 24 -7t16 -16l433 -653h-699zM450 715q-103 0 -103 83v63q0 84 103 84h67q104 0 104 -84v-63q0 -83 -104 -83h-67zM594 855q0 36 -21 50.5t-63 14.5h-55q-42 0 -62 -15t-20 -50v-52
q0 -37 21 -50.5t61 -13.5h55q40 0 62 13.5t22 46.5v56zM654 794v27l283 125v-36z" />
    <glyph glyph-name="aringacute" unicode="&#x1fb;" 
d="M259 0l37 50h557l-368 559l-406 -609h-69l436 653q5 8 15.5 15.5t23.5 7.5q14 0 24 -7t16 -16l433 -653h-699zM450 715q-103 0 -103 83v63q0 84 103 84h67q104 0 104 -84v-63q0 -83 -104 -83h-67zM594 855q0 36 -21 50.5t-63 14.5h-55q-42 0 -62 -15t-20 -50v-52
q0 -37 21 -50.5t61 -13.5h55q40 0 62 13.5t22 46.5v56zM654 794v27l283 125v-36z" />
    <glyph glyph-name="AEacute" unicode="&#x1fc;" horiz-adv-x="1352" 
d="M661 0v618h-140l-442 -618h-69l459 644q8 11 19 18t27 7h824l-39 -51h-580v-257h592l-35 -45h-557v-266h625l-39 -50h-645zM527 715v27l283 125v-36z" />
    <glyph glyph-name="aeacute" unicode="&#x1fd;" horiz-adv-x="1352" 
d="M661 0v618h-140l-442 -618h-69l459 644q8 11 19 18t27 7h824l-39 -51h-580v-257h592l-35 -45h-557v-266h625l-39 -50h-645zM527 715v27l283 125v-36z" />
    <glyph glyph-name="Oslashacute" unicode="&#x1fe;" horiz-adv-x="936" 
d="M897 335q0 -180 -106.5 -263t-322.5 -83q-169 0 -268 49l-82 -85l-18 16l78 81q-70 42 -104.5 112t-34.5 173q0 179 107.5 262t321.5 83q163 0 264 -48l81 84l19 -16l-77 -80q142 -82 142 -285zM838 335q0 179 -121 245l-479 -502q45 -20 101.5 -29.5t128.5 -9.5
q188 0 279 69t91 227zM97 335q0 -179 118 -246l479 502q-87 38 -226 38q-95 0 -164.5 -16.5t-115.5 -52t-68.5 -91t-22.5 -134.5zM354 715v27l283 125v-36z" />
    <glyph glyph-name="oslashacute" unicode="&#x1ff;" horiz-adv-x="936" 
d="M897 335q0 -180 -106.5 -263t-322.5 -83q-169 0 -268 49l-82 -85l-18 16l78 81q-70 42 -104.5 112t-34.5 173q0 179 107.5 262t321.5 83q163 0 264 -48l81 84l19 -16l-77 -80q142 -82 142 -285zM838 335q0 179 -121 245l-479 -502q45 -20 101.5 -29.5t128.5 -9.5
q188 0 279 69t91 227zM97 335q0 -179 118 -246l479 502q-87 38 -226 38q-95 0 -164.5 -16.5t-115.5 -52t-68.5 -91t-22.5 -134.5zM354 715v27l283 125v-36z" />
    <glyph glyph-name="uni0218" unicode="&#x218;" horiz-adv-x="873" 
d="M21 0l40 50h534q100 0 147 33t47 102q0 38 -14 63t-41 39.5t-67.5 20t-93.5 5.5h-268q-127 0 -186.5 41.5t-59.5 131.5q0 91 61 137t193 46h523l-39 -51h-487q-99 0 -147 -33t-48 -102q0 -38 14 -62t41 -38t67.5 -19.5t94.5 -5.5h269q124 0 184.5 -41t60.5 -132
q0 -94 -61 -139.5t-194 -45.5h-570zM409 -255l28 224h48l-52 -224h-24z" />
    <glyph glyph-name="uni0219" unicode="&#x219;" horiz-adv-x="873" 
d="M21 0l40 50h534q100 0 147 33t47 102q0 38 -14 63t-41 39.5t-67.5 20t-93.5 5.5h-268q-127 0 -186.5 41.5t-59.5 131.5q0 91 61 137t193 46h523l-39 -51h-487q-99 0 -147 -33t-48 -102q0 -38 14 -62t41 -38t67.5 -19.5t94.5 -5.5h269q124 0 184.5 -41t60.5 -132
q0 -94 -61 -139.5t-194 -45.5h-570zM409 -255l28 224h48l-52 -224h-24z" />
    <glyph glyph-name="uni021A" unicode="&#x21a;" horiz-adv-x="823" 
d="M376 0v618h-376l42 51h781l-39 -51h-350v-618h-58zM353 -255l28 224h48l-52 -224h-24z" />
    <glyph glyph-name="uni021B" unicode="&#x21b;" horiz-adv-x="823" 
d="M376 0v618h-376l42 51h781l-39 -51h-350v-618h-58zM353 -255l28 224h48l-52 -224h-24z" />
    <glyph glyph-name="circumflex" unicode="&#x2c6;" horiz-adv-x="392" 
d="M312 715l-115 133h-3l-115 -133h-35l129 152h46l129 -152h-36z" />
    <glyph glyph-name="caron" unicode="&#x2c7;" horiz-adv-x="392" 
d="M173 715l-129 152h35l115 -135h4l114 135h36l-130 -152h-45z" />
    <glyph glyph-name="breve" unicode="&#x2d8;" horiz-adv-x="375" 
d="M165 715q-33 0 -56.5 16.5t-37.5 40t-20.5 49.5t-6.5 46h32q1 -20 6.5 -43t16.5 -42.5t29 -32.5t44 -13h33q24 0 41.5 12.5t28.5 32t17 42.5t7 44h32q0 -20 -6.5 -46t-20.5 -49.5t-37.5 -40t-56.5 -16.5h-45z" />
    <glyph glyph-name="dotaccent" unicode="&#x2d9;" horiz-adv-x="141" 
d="M104 804q0 -14 -9.5 -21t-23.5 -7t-23.5 7t-9.5 21t9.5 21.5t23.5 7.5t23.5 -7.5t9.5 -21.5z" />
    <glyph glyph-name="ring" unicode="&#x2da;" horiz-adv-x="362" 
d="M147 715q-103 0 -103 83v63q0 84 103 84h67q104 0 104 -84v-63q0 -83 -104 -83h-67zM291 855q0 36 -21 50.5t-63 14.5h-55q-42 0 -62 -15t-20 -50v-52q0 -37 21 -50.5t61 -13.5h55q40 0 62 13.5t22 46.5v56z" />
    <glyph glyph-name="ogonek" unicode="&#x2db;" horiz-adv-x="309" 
d="M108 -250q-34 0 -52.5 15.5t-18.5 36.5q0 30 34 60l162 138h32l-179 -154q-17 -17 -17 -30q0 -11 10 -19t30 -8h156v-39h-157z" />
    <glyph glyph-name="tilde" unicode="&#x2dc;" horiz-adv-x="371" 
d="M327 792q-14 -29 -31.5 -39t-40.5 -10q-20 0 -37.5 11t-34 24t-33 24t-34.5 11q-20 0 -38.5 -12.5t-33.5 -47.5v36q14 29 31.5 39t40.5 10q19 0 36.5 -11t34 -24t33 -24t35.5 -11q20 0 38 12.5t34 47.5v-36z" />
    <glyph glyph-name="hungarumlaut" unicode="&#x2dd;" horiz-adv-x="358" 
d="M207 725l68 142h39l-81 -142h-26zM44 725l68 142h38l-81 -142h-25z" />
    <glyph glyph-name="uni0326" unicode="&#x326;" horiz-adv-x="173" 
d="M60 -255l28 224h48l-52 -224h-24z" />
    <glyph glyph-name="Wgrave" unicode="&#x1e80;" horiz-adv-x="1156" 
d="M1085 669h57l-243 -647q-11 -29 -36 -29q-26 0 -35 23l-252 595l-250 -595q-11 -23 -35 -23q-27 0 -36 29l-243 647h59l227 -602l243 584q7 16 16.5 20.5t19.5 4.5q11 0 20.5 -4.5t16.5 -20.5l243 -584zM408 831v36l283 -125v-27z" />
    <glyph glyph-name="Wacute" unicode="&#x1e82;" horiz-adv-x="1156" 
d="M1085 669h57l-243 -647q-11 -29 -36 -29q-26 0 -35 23l-252 595l-250 -595q-11 -23 -35 -23q-27 0 -36 29l-243 647h59l227 -602l243 584q7 16 16.5 20.5t19.5 4.5q11 0 20.5 -4.5t16.5 -20.5l243 -584zM465 715v27l283 125v-36z" />
    <glyph glyph-name="Wdieresis" unicode="&#x1e84;" horiz-adv-x="1156" 
d="M1085 669h57l-243 -647q-11 -29 -36 -29q-26 0 -35 23l-252 595l-250 -595q-11 -23 -35 -23q-27 0 -36 29l-243 647h59l227 -602l243 584q7 16 16.5 20.5t19.5 4.5q11 0 20.5 -4.5t16.5 -20.5l243 -584zM712 804q0 -14 -9.5 -21t-23.5 -7t-23.5 7t-9.5 21t9.5 21.5
t23.5 7.5t23.5 -7.5t9.5 -21.5zM510 804q0 -14 -9.5 -21t-23.5 -7t-23.5 7t-9.5 21t9.5 21.5t23.5 7.5t23.5 -7.5t9.5 -21.5z" />
    <glyph glyph-name="Ygrave" unicode="&#x1ef2;" horiz-adv-x="927" 
d="M436 0v261l-429 408h76l384 -362l379 362h76l-427 -408v-261h-59zM294 831v36l283 -125v-27z" />
    <glyph glyph-name="ygrave" unicode="&#x1ef3;" horiz-adv-x="927" 
d="M436 0v261l-429 408h76l384 -362l379 362h76l-427 -408v-261h-59zM294 831v36l283 -125v-27z" />
    <glyph glyph-name="endash" unicode="&#x2013;" horiz-adv-x="530" 
d="M13 318l31 40h474l-32 -40h-473z" />
    <glyph glyph-name="emdash" unicode="&#x2014;" horiz-adv-x="906" 
d="M13 318l31 40h849l-31 -40h-849z" />
    <glyph glyph-name="quoteleft" unicode="&#x2018;" horiz-adv-x="119" 
d="M76 401l-61 268h59l29 -268h-27z" />
    <glyph glyph-name="quoteright" unicode="&#x2019;" horiz-adv-x="119" 
d="M15 401l30 268h58l-60 -268h-28z" />
    <glyph glyph-name="quotesinglbase" unicode="&#x201a;" horiz-adv-x="119" 
d="M15 -96l30 268h58l-60 -268h-28z" />
    <glyph glyph-name="quotedblleft" unicode="&#x201c;" horiz-adv-x="275" 
d="M232 401l-61 268h59l29 -268h-27zM76 401l-61 268h59l29 -268h-27z" />
    <glyph glyph-name="quotedblright" unicode="&#x201d;" horiz-adv-x="275" 
d="M15 401l30 268h58l-60 -268h-28zM171 401l31 268h57l-60 -268h-28z" />
    <glyph glyph-name="quotedblbase" unicode="&#x201e;" horiz-adv-x="275" 
d="M15 -96l30 268h58l-60 -268h-28zM171 -96l31 268h57l-60 -268h-28z" />
    <glyph glyph-name="dagger" unicode="&#x2020;" horiz-adv-x="401" 
d="M193 0l-14 437l-140 13l140 14l13 205h10l14 -205l140 -14l-140 -13l-14 -437h-9z" />
    <glyph glyph-name="daggerdbl" unicode="&#x2021;" horiz-adv-x="413" 
d="M213 207l143 -13l-143 -13l-10 -181h-10l-11 181l-143 13l143 13v255l-143 13l143 13l10 181h10l11 -181l143 -13l-143 -13v-255z" />
    <glyph glyph-name="bullet" unicode="&#x2022;" horiz-adv-x="328" 
d="M164 224q-23 0 -43 9t-35 24t-23.5 35t-8.5 43q0 22 8.5 42t23.5 35t35 24t43 9q22 0 42 -9t35 -24t24 -35t9 -42q0 -23 -9 -43t-24 -35t-35 -24t-42 -9z" />
    <glyph glyph-name="ellipsis" unicode="&#x2026;" horiz-adv-x="776" 
d="M117 26q0 -16 -11 -25t-28 -9t-28 9t-11 25q0 17 11 26t28 9t28 -9t11 -26zM427 26q0 -16 -11 -25t-28 -9t-28 9t-11 25q0 17 11 26t28 9t28 -9t11 -26zM738 26q0 -16 -11 -25t-28 -9t-28 9t-11 25q0 17 11 26t28 9t28 -9t11 -26z" />
    <glyph glyph-name="perthousand" unicode="&#x2030;" horiz-adv-x="1180" 
d="M410 520q0 -91 -45.5 -132t-139.5 -41t-140 41t-46 132t46 131.5t140 40.5t139.5 -40.5t45.5 -131.5zM382 520q0 79 -38 113t-119 34t-119 -34t-38 -113q0 -81 38 -115t119 -34t119 34t38 115zM103 -38l555 744h30l-554 -744h-31zM739 158q0 -91 -45.5 -132t-139.5 -41
t-140 41t-46 132t46 131.5t140 40.5t139.5 -40.5t45.5 -131.5zM711 158q0 79 -38 113t-119 34t-119 -34t-38 -113q0 -81 38 -115t119 -34t119 34t38 115zM1141 158q0 -91 -45.5 -132t-139.5 -41t-140 41t-46 132t46 131.5t140 40.5t139.5 -40.5t45.5 -131.5zM1113 158
q0 79 -38 113t-119 34t-119 -34t-38 -113q0 -81 38 -115t119 -34t119 34t38 115z" />
    <glyph glyph-name="guilsinglleft" unicode="&#x2039;" horiz-adv-x="239" 
d="M26 309v29l175 138v-33l-152 -118l152 -120v-33z" />
    <glyph glyph-name="guilsinglright" unicode="&#x203a;" horiz-adv-x="239" 
d="M43 172v33l151 120l-151 118v33l174 -138v-29z" />
    <glyph glyph-name="fraction" unicode="&#x2044;" horiz-adv-x="272" 
d="M-152 -38l555 744h30l-554 -744h-31z" />
    <glyph glyph-name="uni2070" unicode="&#x2070;" horiz-adv-x="438" 
d="M404 520q0 -91 -45.5 -132t-139.5 -41t-140 41t-46 132t46 131.5t140 40.5t139.5 -40.5t45.5 -131.5zM376 520q0 79 -38 113t-119 34t-119 -34t-38 -113q0 -81 38 -115t119 -34t119 34t38 115z" />
    <glyph glyph-name="uni2074" unicode="&#x2074;" horiz-adv-x="452" 
d="M329 353v70h-285q-17 0 -17 13q0 7 7 14l288 232q8 8 18 8q7 0 12 -4.5t5 -14.5v-225h78l-18 -23h-60v-70h-28zM329 655l-260 -209h260v209z" />
    <glyph glyph-name="uni2075" unicode="&#x2075;" horiz-adv-x="425" 
d="M33 353l20 24h213q97 0 97 68q0 37 -26 50.5t-71 13.5h-220v178h339l-19 -26h-290v-130h193q61 0 92 -20.5t31 -66.5q0 -91 -128 -91h-231z" />
    <glyph glyph-name="uni2076" unicode="&#x2076;" horiz-adv-x="468" 
d="M215 661q-63 0 -105 -35t-47 -92h259q52 0 82.5 -21t30.5 -63q0 -31 -16 -51t-42 -31.5t-60 -16t-71 -4.5q-106 0 -159.5 41.5t-53.5 134.5q0 36 14 66.5t38.5 52t58 33.5t72.5 12h194l-19 -26h-176zM63 512q2 -75 49 -108t135 -33q34 0 63.5 3.5t51 12.5t33.5 24.5
t12 39.5q0 31 -22.5 46t-64.5 15h-257z" />
    <glyph glyph-name="uni2077" unicode="&#x2077;" horiz-adv-x="402" 
d="M99 353l246 308h-325l19 26h327q10 0 14 -4.5t4 -9.5t-2.5 -9.5t-6.5 -9.5l-239 -301h-37z" />
    <glyph glyph-name="uni2078" unicode="&#x2078;" horiz-adv-x="448" 
d="M128 511q-26 0 -46 -18t-20 -47q0 -28 20 -48.5t66 -20.5h152q45 0 65 20.5t20 48.5q0 29 -19.5 47t-45.5 18h-192zM148 353q-63 0 -89 26t-26 63t19.5 57t42.5 25q-19 5 -37 23.5t-18 50.5q0 42 27.5 65.5t78.5 23.5h156q51 0 78.5 -23.5t27.5 -65.5q0 -32 -18 -50.5
t-38 -23.5q23 -5 43 -25t20 -57t-26.5 -63t-88.5 -26h-152zM145 661q-37 0 -57.5 -17.5t-20.5 -49.5q0 -26 18.5 -43.5t41.5 -17.5h193q23 0 41 17.5t18 43.5q0 67 -76 67h-158z" />
    <glyph glyph-name="uni2079" unicode="&#x2079;" horiz-adv-x="468" 
d="M62 353q5 5 9.5 11.5t9.5 12.5h173q69 0 109.5 37t40.5 104q-38 -5 -90.5 -10t-125.5 -5q-34 0 -62.5 3.5t-49 13t-32 26t-11.5 43.5q0 31 16 51t42 31.5t60.5 16t70.5 4.5q106 0 159.5 -41t53.5 -132q0 -38 -13 -68.5t-37 -52t-57.5 -33.5t-74.5 -12h-191zM404 539
q-5 69 -51.5 98.5t-131.5 29.5q-34 0 -63 -3.5t-50.5 -12.5t-33.5 -24t-12 -39q0 -31 24 -46.5t69 -15.5q81 0 141 3t108 10z" />
    <glyph glyph-name="uni2080" unicode="&#x2080;" horiz-adv-x="438" 
d="M404 158q0 -91 -45.5 -132t-139.5 -41t-140 41t-46 132t46 131.5t140 40.5t139.5 -40.5t45.5 -131.5zM376 158q0 79 -38 113t-119 34t-119 -34t-38 -113q0 -81 38 -115t119 -34t119 34t38 115z" />
    <glyph glyph-name="uni2081" unicode="&#x2081;" horiz-adv-x="174" 
d="M101 -9v308h-9l-44 -61h-28l62 87h49v-334h-30z" />
    <glyph glyph-name="uni2082" unicode="&#x2082;" horiz-adv-x="454" 
d="M36 -9v93q0 45 28.5 65t85.5 20h139q54 0 75.5 17t21.5 49q0 31 -26 47.5t-86 16.5h-215l19 26h208q70 0 99.5 -25t29.5 -64q0 -42 -28.5 -65t-95.5 -23h-140q-42 0 -64.5 -14.5t-22.5 -49.5v-69h357l-19 -24h-366z" />
    <glyph glyph-name="uni2083" unicode="&#x2083;" horiz-adv-x="433" 
d="M18 -9l20 24h248q40 0 62 18.5t22 50.5q0 29 -19 47t-45 18h-198l16 22h182q21 0 40 17.5t19 43.5q0 32 -20 49.5t-57 17.5h-257l19 26h237q51 0 79 -23.5t28 -65.5q0 -32 -19 -50.5t-37 -23.5q22 -5 41.5 -25t19.5 -57t-26 -63t-87 -26h-268z" />
    <glyph glyph-name="uni2084" unicode="&#x2084;" horiz-adv-x="452" 
d="M329 -9v70h-285q-17 0 -17 13q0 7 7 14l288 232q8 8 18 8q7 0 12 -4.5t5 -14.5v-225h78l-18 -23h-60v-70h-28zM329 293l-260 -209h260v209z" />
    <glyph glyph-name="uni2085" unicode="&#x2085;" horiz-adv-x="425" 
d="M33 -9l20 24h213q97 0 97 68q0 37 -26 50.5t-71 13.5h-220v178h339l-19 -26h-290v-130h193q61 0 92 -20.5t31 -66.5q0 -91 -128 -91h-231z" />
    <glyph glyph-name="uni2086" unicode="&#x2086;" horiz-adv-x="468" 
d="M215 299q-63 0 -105 -35t-47 -92h259q52 0 82.5 -21t30.5 -63q0 -31 -16 -51t-42 -31.5t-60 -16t-71 -4.5q-106 0 -159.5 41.5t-53.5 134.5q0 36 14 66.5t38.5 52t58 33.5t72.5 12h194l-19 -26h-176zM63 150q2 -75 49 -108t135 -33q34 0 63.5 3.5t51 12.5t33.5 24.5
t12 39.5q0 31 -22.5 46t-64.5 15h-257z" />
    <glyph glyph-name="uni2087" unicode="&#x2087;" horiz-adv-x="402" 
d="M99 -9l246 308h-325l19 26h327q10 0 14 -4.5t4 -9.5t-2.5 -9.5t-6.5 -9.5l-239 -301h-37z" />
    <glyph glyph-name="uni2088" unicode="&#x2088;" horiz-adv-x="448" 
d="M128 149q-26 0 -46 -18t-20 -47q0 -28 20 -48.5t66 -20.5h152q45 0 65 20.5t20 48.5q0 29 -19.5 47t-45.5 18h-192zM148 -9q-63 0 -89 26t-26 63t19.5 57t42.5 25q-19 5 -37 23.5t-18 50.5q0 42 27.5 65.5t78.5 23.5h156q51 0 78.5 -23.5t27.5 -65.5q0 -32 -18 -50.5
t-38 -23.5q23 -5 43 -25t20 -57t-26.5 -63t-88.5 -26h-152zM145 299q-37 0 -57.5 -17.5t-20.5 -49.5q0 -26 18.5 -43.5t41.5 -17.5h193q23 0 41 17.5t18 43.5q0 67 -76 67h-158z" />
    <glyph glyph-name="uni2089" unicode="&#x2089;" horiz-adv-x="468" 
d="M62 -9q5 5 9.5 11.5t9.5 12.5h173q69 0 109.5 37t40.5 104q-38 -5 -90.5 -10t-125.5 -5q-34 0 -62.5 3.5t-49 13t-32 26t-11.5 43.5q0 31 16 51t42 31.5t60.5 16t70.5 4.5q106 0 159.5 -41t53.5 -132q0 -38 -13 -68.5t-37 -52t-57.5 -33.5t-74.5 -12h-191zM404 177
q-5 69 -51.5 98.5t-131.5 29.5q-34 0 -63 -3.5t-50.5 -12.5t-33.5 -24t-12 -39q0 -31 24 -46.5t69 -15.5q81 0 141 3t108 10z" />
    <glyph glyph-name="Euro" unicode="&#x20ac;" horiz-adv-x="788" 
d="M452 0q-69 0 -129 19t-107 52.5t-80 80.5t-48 104h-83l30 39h44q-3 21 -3 46q0 21 3 41h-74l30 40h52q14 57 47 102.5t80.5 77.5t108 49.5t129.5 17.5h315l-40 -51h-275q-53 0 -101.5 -13t-88 -38.5t-69 -62t-43.5 -82.5h424l-31 -40h-406q-3 -21 -3 -44q0 -22 3 -43h339
l-30 -39h-297q15 -48 45.5 -86t74 -64.5t97.5 -41t116 -14.5h151l-39 -50h-142z" />
    <glyph glyph-name="uni2117" unicode="&#x2117;" horiz-adv-x="778" 
d="M274 280v-130h-22v150h179q54 0 83 26t29 68t-29 67t-83 25h-173l17 22h155q66 0 102 -31.5t36 -82.5t-36 -82.5t-102 -31.5h-156zM386 -11q-72 0 -135 27t-110 74t-74 110t-27 135t27 135t74 110t110 74t135 27t135 -27t110 -74t74 -110t27 -135t-27 -135t-74 -110
t-110 -74t-135 -27zM715 334q0 69 -26 129t-70.5 104.5t-104.5 70.5t-128 26t-128 -26t-104.5 -70.5t-70.5 -104.5t-26 -129q0 -68 26 -128t70.5 -104.5t104.5 -70t128 -25.5t128 25.5t104.5 70t70.5 104.5t26 128z" />
    <glyph glyph-name="trademark" unicode="&#x2122;" horiz-adv-x="560" 
d="M495 389v223l-84 -223h-20l-84 223v-223h-23v280h25l92 -243l92 243h25v-280h-23zM125 389v257h-94v23h210v-23h-93v-257h-23z" />
    <glyph glyph-name="onethird" unicode="&#x2153;" horiz-adv-x="850" 
d="M203 353v308h-9l-44 -61h-28l62 87h49v-334h-30zM39 -38l555 744h30l-554 -744h-31zM430 -9l20 24h248q40 0 62 18.5t22 50.5q0 29 -19 47t-45 18h-198l16 22h182q21 0 40 17.5t19 43.5q0 32 -20 49.5t-57 17.5h-257l19 26h237q51 0 79 -23.5t28 -65.5q0 -32 -19 -50.5
t-37 -23.5q22 -5 41.5 -25t19.5 -57t-26 -63t-87 -26h-268z" />
    <glyph glyph-name="twothirds" unicode="&#x2154;" horiz-adv-x="931" 
d="M39 353v93q0 45 28.5 65t85.5 20h139q54 0 75.5 17t21.5 49q0 31 -26 47.5t-86 16.5h-215l19 26h208q70 0 99.5 -25t29.5 -64q0 -42 -28.5 -65t-95.5 -23h-140q-42 0 -64.5 -14.5t-22.5 -49.5v-69h357l-19 -24h-366zM174 -38l555 744h30l-554 -744h-31zM511 -9l20 24h248
q40 0 62 18.5t22 50.5q0 29 -19 47t-45 18h-198l16 22h182q21 0 40 17.5t19 43.5q0 32 -20 49.5t-57 17.5h-257l19 26h237q51 0 79 -23.5t28 -65.5q0 -32 -19 -50.5t-37 -23.5q22 -5 41.5 -25t19.5 -57t-26 -63t-87 -26h-268z" />
    <glyph glyph-name="oneeighth" unicode="&#x215b;" horiz-adv-x="835" 
d="M204 353v308h-9l-44 -61h-28l62 87h49v-334h-30zM39 -38l555 744h30l-554 -744h-31zM509 149q-26 0 -46 -18t-20 -47q0 -28 20 -48.5t66 -20.5h152q45 0 65 20.5t20 48.5q0 29 -19.5 47t-45.5 18h-192zM529 -9q-63 0 -89 26t-26 63t19.5 57t42.5 25q-19 5 -37 23.5
t-18 50.5q0 42 27.5 65.5t78.5 23.5h156q51 0 78.5 -23.5t27.5 -65.5q0 -32 -18 -50.5t-38 -23.5q23 -5 43 -25t20 -57t-26.5 -63t-88.5 -26h-152zM526 299q-37 0 -57.5 -17.5t-20.5 -49.5q0 -26 18.5 -43.5t41.5 -17.5h193q23 0 41 17.5t18 43.5q0 67 -76 67h-158z" />
    <glyph glyph-name="threeeighths" unicode="&#x215c;" horiz-adv-x="913" 
d="M39 353l20 24h248q40 0 62 18.5t22 50.5q0 29 -19 47t-45 18h-198l16 22h182q21 0 40 17.5t19 43.5q0 32 -20 49.5t-57 17.5h-257l19 26h237q51 0 79 -23.5t28 -65.5q0 -32 -19 -50.5t-37 -23.5q22 -5 41.5 -25t19.5 -57t-26 -63t-87 -26h-268zM162 -38l555 744h30
l-554 -744h-31zM588 149q-26 0 -46 -18t-20 -47q0 -28 20 -48.5t66 -20.5h152q45 0 65 20.5t20 48.5q0 29 -19.5 47t-45.5 18h-192zM608 -9q-63 0 -89 26t-26 63t19.5 57t42.5 25q-19 5 -37 23.5t-18 50.5q0 42 27.5 65.5t78.5 23.5h156q51 0 78.5 -23.5t27.5 -65.5
q0 -32 -18 -50.5t-38 -23.5q23 -5 43 -25t20 -57t-26.5 -63t-88.5 -26h-152zM605 299q-37 0 -57.5 -17.5t-20.5 -49.5q0 -26 18.5 -43.5t41.5 -17.5h193q23 0 41 17.5t18 43.5q0 67 -76 67h-158z" />
    <glyph glyph-name="fiveeighths" unicode="&#x215d;" horiz-adv-x="894" 
d="M39 353l20 24h213q97 0 97 68q0 37 -26 50.5t-71 13.5h-220v178h339l-19 -26h-290v-130h193q61 0 92 -20.5t31 -66.5q0 -91 -128 -91h-231zM140 -38l555 744h30l-554 -744h-31zM569 149q-26 0 -46 -18t-20 -47q0 -28 20 -48.5t66 -20.5h152q45 0 65 20.5t20 48.5
q0 29 -19.5 47t-45.5 18h-192zM589 -9q-63 0 -89 26t-26 63t19.5 57t42.5 25q-19 5 -37 23.5t-18 50.5q0 42 27.5 65.5t78.5 23.5h156q51 0 78.5 -23.5t27.5 -65.5q0 -32 -18 -50.5t-38 -23.5q23 -5 43 -25t20 -57t-26.5 -63t-88.5 -26h-152zM586 299q-37 0 -57.5 -17.5
t-20.5 -49.5q0 -26 18.5 -43.5t41.5 -17.5h193q23 0 41 17.5t18 43.5q0 67 -76 67h-158z" />
    <glyph glyph-name="seveneighths" unicode="&#x215e;" horiz-adv-x="857" 
d="M118 353l246 308h-325l19 26h327q10 0 14 -4.5t4 -9.5t-2.5 -9.5t-6.5 -9.5l-239 -301h-37zM61 -38l555 744h30l-554 -744h-31zM532 149q-26 0 -46 -18t-20 -47q0 -28 20 -48.5t66 -20.5h152q45 0 65 20.5t20 48.5q0 29 -19.5 47t-45.5 18h-192zM552 -9q-63 0 -89 26
t-26 63t19.5 57t42.5 25q-19 5 -37 23.5t-18 50.5q0 42 27.5 65.5t78.5 23.5h156q51 0 78.5 -23.5t27.5 -65.5q0 -32 -18 -50.5t-38 -23.5q23 -5 43 -25t20 -57t-26.5 -63t-88.5 -26h-152zM549 299q-37 0 -57.5 -17.5t-20.5 -49.5q0 -26 18.5 -43.5t41.5 -17.5h193
q23 0 41 17.5t18 43.5q0 67 -76 67h-158z" />
    <glyph glyph-name="minus" unicode="&#x2212;" horiz-adv-x="623" 
d="M39 324v35h546v-35h-546z" />
    <glyph glyph-name="approxequal" unicode="&#x2248;" horiz-adv-x="560" 
d="M518 420q-38 -40 -72.5 -53t-66.5 -13q-28 0 -54.5 11t-52.5 24.5t-51.5 24.5t-50.5 11q-27 0 -60.5 -14.5t-72.5 -58.5v50q38 40 72 53.5t65 13.5q27 0 53 -11t52 -24.5t51.5 -24.5t52.5 -11q28 0 61 14t74 58v-50zM521 269q-38 -40 -72.5 -53t-66.5 -13q-28 0 -54.5 11
t-52.5 24.5t-51.5 24.5t-50.5 11q-27 0 -60.5 -14.5t-72.5 -58.5v50q38 40 72 53.5t65 13.5q27 0 53 -11t52 -24.5t51.5 -24.5t52.5 -11q28 0 61 14t74 58v-50z" />
    <glyph glyph-name="notequal" unicode="&#x2260;" horiz-adv-x="623" 
d="M418 457l-176 -236h343v-35h-368l-168 -224h-31l167 224h-146v35h172l176 236h-348v35h375l160 214h30l-160 -214h141v-35h-167z" />
    <glyph glyph-name="lessequal" unicode="&#x2264;" horiz-adv-x="594" 
d="M52 316q-13 7 -13 21q0 13 13 20l504 242v-38l-466 -224l466 -224v-39zM39 -48v35h546v-35h-546z" />
    <glyph glyph-name="greaterequal" unicode="&#x2265;" horiz-adv-x="594" 
d="M39 74v39l465 224l-465 224v38l503 -242q7 -3 10.5 -9t3.5 -11q0 -13 -14 -21zM39 -48v35h546v-35h-546z" />
    <glyph glyph-name="uniF8FF" unicode="&#xf8ff;" horiz-adv-x="354" 
 />
    <glyph glyph-name="glyph384" horiz-adv-x="354" 
 />
    </font>
</defs>
</svg>
