<?xml version="1.0" standalone="no"?>
<!DOCTYPE svg PUBLIC "-//W3C//DTD SVG 1.1//EN" "http://www.w3.org/Graphics/SVG/1.1/DTD/svg11.dtd" >
<svg xmlns="http://www.w3.org/2000/svg" xmlns:xlink="http://www.w3.org/1999/xlink" version="1.1">
<metadata>
Created by FontForge 20170910 at Tue Sep  9 13:11:28 2014
 By Jimmy Wärting
(c) 1999-2009 Ray Larabie. See attached license agreement for more information. If EULA is missing, visit www.larabiefonts.com for an updated version of this font.
</metadata>
<defs>
<font id="EthnocentricW00-UltLightIt" horiz-adv-x="894" >
  <font-face 
    font-family="EthnocentricW00-UltLightIt"
    font-weight="250"
    font-style="italic"
    font-stretch="normal"
    units-per-em="1000"
    panose-1="2 0 4 0 0 0 0 0 0 0"
    ascent="800"
    descent="-200"
    x-height="669"
    cap-height="669"
    bbox="-199 -255 1771 945"
    underline-thickness="50"
    underline-position="-175"
    slope="-10"
    unicode-range="U+0017-F8FF"
  />
<missing-glyph horiz-adv-x="428" 
d="M122 0q-92 0 -92 79v510q0 80 92 80h183q92 0 92 -80v-510q0 -79 -92 -79h-183zM348 589q0 37 -43 37h-183q-43 0 -43 -37v-510q0 -36 43 -36h183q43 0 43 36v510z" />
    <glyph glyph-name=".notdef" horiz-adv-x="428" 
d="M122 0q-92 0 -92 79v510q0 80 92 80h183q92 0 92 -80v-510q0 -79 -92 -79h-183zM348 589q0 37 -43 37h-183q-43 0 -43 -37v-510q0 -36 43 -36h183q43 0 43 36v510z" />
    <glyph glyph-name=".null" horiz-adv-x="0" 
 />
    <glyph glyph-name="nonmarkingreturn" horiz-adv-x="333" 
 />
    <glyph glyph-name="glyph384" horiz-adv-x="0" 
 />
    <glyph glyph-name="glyph384" horiz-adv-x="0" 
 />
    <glyph glyph-name="uni0017" horiz-adv-x="344" 
 />
    <glyph glyph-name="space" unicode=" " horiz-adv-x="344" 
 />
    <glyph glyph-name="exclam" unicode="!" horiz-adv-x="119" 
d="M79 126l21 142l71 401h17l-71 -401l-30 -142h-8zM79 9q0 -7 -5.5 -11t-12.5 -4q-14 0 -14 12q0 7 5.5 11t12.5 4q14 0 14 -12z" />
    <glyph glyph-name="quotedbl" unicode="&#x22;" horiz-adv-x="162" 
d="M93 401l40 268h18l-54 -268h-4zM206 401l41 268h18l-54 -268h-5z" />
    <glyph glyph-name="numbersign" unicode="#" horiz-adv-x="622" 
d="M299 0l114 229h-203l-113 -229h-12l114 229h-132l4 9h132l108 220h-134l5 10h134l100 201h12l-101 -201h203l100 201h12l-101 -201h147l-5 -10h-146l-109 -220h149l-3 -9h-150l-114 -229h-11zM525 458h-202l-109 -220h202z" />
    <glyph glyph-name="dollar" unicode="$" horiz-adv-x="592" 
d="M303 0l19 108h-272l12 9h262l38 223h-68q-78 0 -116 21.5t-38 72.5q0 73 47.5 109.5t149.5 36.5h68l16 89h10l-16 -89h241l-12 -9h-231l-39 -222h73q78 0 116 -22t38 -73q0 -73 -47.5 -109.5t-149.5 -36.5h-73l-19 -108h-9zM405 117q97 0 141.5 33.5t44.5 102.5
q0 48 -36.5 67.5t-109.5 19.5h-73l-39 -223h72zM403 571h-67q-97 0 -141.5 -33.5t-44.5 -102.5q0 -48 36.5 -67t109.5 -19h68z" />
    <glyph glyph-name="percent" unicode="%" horiz-adv-x="828" 
d="M483 520q-17 -91 -68 -133t-142 -42q-75 0 -113 30t-38 94q0 58 15.5 100.5t43 70t67 41t87.5 13.5q75 0 113.5 -30t38.5 -96q0 -11 -1 -22.5t-3 -25.5zM474 520q2 14 3.5 25.5t1.5 21.5q0 63 -36.5 91t-108.5 28q-45 0 -82.5 -12.5t-64.5 -38.5t-42 -66.5t-15 -96.5
q0 -63 36.5 -91t108.5 -28q85 0 134 39.5t65 127.5zM117 -38l693 744h13l-694 -744h-12zM820 158q-17 -91 -68 -133t-142 -42q-75 0 -113 30t-38 94q0 58 15.5 100.5t43 70t67 41t87.5 13.5q75 0 113.5 -30t38.5 -96q0 -11 -1 -22.5t-3 -25.5zM811 158q2 14 3.5 25.5
t1.5 21.5q0 63 -36.5 91t-108.5 28q-45 0 -82.5 -12.5t-64.5 -38.5t-42 -66.5t-15 -96.5q0 -63 36.5 -91t108.5 -28q85 0 134 39.5t65 127.5z" />
    <glyph glyph-name="ampersand" unicode="&#x26;" horiz-adv-x="703" 
d="M252 0q-50 0 -85 11.5t-57.5 32t-33 47.5t-10.5 58q0 43 15.5 77.5t39.5 59t52.5 39t54.5 19.5q-17 3 -33.5 13.5t-30 27t-22 38.5t-8.5 49q0 43 16 79.5t45.5 62.5t72 40.5t96.5 14.5h230l-9 -9h-223q-53 0 -93 -13.5t-68 -38.5t-42 -59t-14 -75q0 -27 9 -50t25 -40
t37 -26.5t44 -9.5h490l-10 -9h-183l-57 -330h197l-9 -9h-436zM548 339h-290q-32 0 -64.5 -14t-58.5 -39t-42.5 -60t-16.5 -76q0 -28 10 -53.5t31 -45t55 -31t82 -11.5h236z" />
    <glyph glyph-name="quotesingle" unicode="'" horiz-adv-x="48" 
d="M93 401l40 268h18l-54 -268h-4z" />
    <glyph glyph-name="parenleft" unicode="(" horiz-adv-x="244" 
d="M173 -129q-26 84 -38 171.5t-12 162.5t12.5 144.5t38 139.5t65.5 144.5t95 159.5h10q-57 -89 -97 -164t-65.5 -144.5t-37.5 -137t-12 -140.5q0 -75 13 -161.5t39 -174.5h-11z" />
    <glyph glyph-name="parenright" unicode=")" horiz-adv-x="244" 
d="M15 -129q66 100 107.5 180.5t65 149.5t32 130.5t8.5 124.5q0 75 -12 162.5t-36 174.5h10q23 -84 35.5 -171.5t12.5 -162.5q0 -69 -10.5 -135.5t-35.5 -137t-65.5 -148t-100.5 -167.5h-11z" />
    <glyph glyph-name="asterisk" unicode="*" horiz-adv-x="428" 
d="M405 329l-106 158l-106 -158l-8 6l106 158l-168 45l2 10l169 -46v167h10v-167l169 46l2 -10l-168 -45l106 -158z" />
    <glyph glyph-name="plus" unicode="+" horiz-adv-x="621" 
d="M318 68l47 269h-268l2 9h268l47 268h9l-46 -268h268l-1 -9h-269l-48 -269h-9z" />
    <glyph glyph-name="comma" unicode="," horiz-adv-x="127" 
d="M26 -96l88 268h16l-96 -268h-8z" />
    <glyph glyph-name="hyphen" unicode="-" horiz-adv-x="329" 
d="M72 333l9 10h297l-10 -10h-296z" />
    <glyph glyph-name="period" unicode="." horiz-adv-x="105" 
d="M70 9q0 -15 -18 -15q-13 0 -13 12q0 15 18 15q13 0 13 -12z" />
    <glyph glyph-name="slash" unicode="/" horiz-adv-x="361" 
d="M-7 -38l482 744h10l-481 -744h-11z" />
    <glyph glyph-name="zero" unicode="0" horiz-adv-x="781" 
d="M811 415q0 -209 -104 -317.5t-318 -108.5q-152 0 -227 64t-75 202q0 211 103.5 318t320.5 107q151 0 225.5 -63.5t74.5 -201.5zM802 414q0 133 -73.5 195t-219.5 62q-209 0 -310.5 -105t-101.5 -310q0 -133 74 -195.5t220 -62.5q208 0 309.5 105.5t101.5 310.5z" />
    <glyph glyph-name="one" unicode="1" horiz-adv-x="240" 
d="M174 0l117 660h-34l-147 -165h-12l157 174h47l-118 -669h-10z" />
    <glyph glyph-name="two" unicode="2" horiz-adv-x="824" 
d="M44 0l31 178q16 89 78 126.5t169 37.5h266q76 0 127.5 13.5t82.5 37.5t44 58t13 75q0 29 -11.5 53.5t-37 42.5t-66.5 28t-99 10h-431l9 9h424q60 0 102 -10.5t69 -29.5t39 -44.5t12 -56.5q0 -44 -14 -80t-46.5 -61.5t-86 -40t-132.5 -14.5h-266q-101 0 -161.5 -35
t-74.5 -119l-29 -169h734l-7 -9h-738z" />
    <glyph glyph-name="three" unicode="3" horiz-adv-x="777" 
d="M9 0l9 9h509q61 0 106 16.5t74 44t43 62t14 70.5q0 30 -10 55.5t-27.5 43.5t-40.5 28t-48 10h-393l10 9h385q28 0 58 13.5t54.5 37t40 56t15.5 70.5q0 64 -40 99.5t-121 35.5h-498l9 9h491q81 0 125 -37t44 -106q0 -40 -15 -71.5t-37 -55t-48 -37.5t-48 -18
q19 -4 37.5 -15t33 -28t23.5 -41t9 -55q0 -40 -14.5 -77t-45 -65.5t-77.5 -45.5t-111 -17h-516z" />
    <glyph glyph-name="four" unicode="4" horiz-adv-x="811" 
d="M652 0l28 160h-616q-8 0 -8 7q0 5 6 10l701 494q4 4 9 4q7 0 7 -10l-87 -496h144l-10 -9h-136l-28 -160h-10zM769 665l-703 -496h616z" />
    <glyph glyph-name="five" unicode="5" horiz-adv-x="760" 
d="M38 0l9 9h432q139 0 203.5 47.5t64.5 146.5q0 69 -52 98t-158 29h-417l60 339h652l-10 -9h-635l-56 -320h407q109 0 163.5 -31.5t54.5 -103.5q0 -103 -67.5 -154t-210.5 -51h-440z" />
    <glyph glyph-name="six" unicode="6" horiz-adv-x="851" 
d="M506 660q-73 0 -138.5 -22.5t-118 -63t-89 -97.5t-51.5 -126h547q91 0 142.5 -34.5t51.5 -103.5q0 -68 -34.5 -111t-90.5 -68.5t-129 -35t-149 -9.5q-178 0 -267.5 67.5t-89.5 211.5q0 91 33.5 165t90.5 126.5t133 81t161 28.5h375l-10 -9h-367zM108 342q-9 -48 -9 -87
q0 -133 89.5 -195t260.5 -62q74 0 144.5 9t125 33t88 65t33.5 106q0 63 -49 97t-136 34h-547z" />
    <glyph glyph-name="seven" unicode="7" horiz-adv-x="717" 
d="M190 0l625 660h-687l9 9h682q6 0 6 -6q0 -5 -4 -9l-619 -654h-12z" />
    <glyph glyph-name="eight" unicode="8" horiz-adv-x="801" 
d="M252 0q-50 0 -85 11.5t-57.5 32t-33 47.5t-10.5 58q0 43 15.5 77.5t39.5 59t52.5 39t54.5 19.5q-17 3 -33.5 13.5t-30 27t-22 38.5t-8.5 49q0 43 16 79.5t45.5 62.5t72 40.5t96.5 14.5h310q81 0 124.5 -37t43.5 -106q0 -39 -15 -71t-37 -55.5t-47.5 -37.5t-47.5 -18
q19 -4 37.5 -15t33 -28t23.5 -41t9 -55q0 -40 -14.5 -77t-45 -65.5t-77.5 -45.5t-111 -17h-298zM258 339q-32 0 -64.5 -14t-58.5 -39t-42.5 -60t-16.5 -76q0 -28 10 -53.5t31 -45t55 -31t82 -11.5h298q61 0 106 16.5t73.5 44t42.5 62t14 70.5q0 30 -10 55.5t-27 43.5t-40 28
t-49 10h-404zM362 660q-53 0 -93 -13.5t-68 -38.5t-42 -59t-14 -75q0 -27 9 -50t25 -40t37 -26.5t44 -9.5h404q28 0 58 13.5t55 37t40.5 56t15.5 70.5q0 64 -40 99.5t-121 35.5h-310z" />
    <glyph glyph-name="nine" unicode="9" horiz-adv-x="851" 
d="M95 0l9 9h360q73 0 140 23t120.5 65t89.5 101t48 130q3 12 3 23q-132 -18 -273 -25.5t-279 -7.5q-91 0 -142 34.5t-51 103.5q0 67 34 110.5t90.5 69t129 35t149.5 9.5q178 0 267.5 -67.5t89.5 -211.5q0 -91 -33.5 -165t-90.5 -126.5t-133 -81t-161 -28.5h-367zM867 361
q3 27 3 54q0 133 -88 194.5t-261 61.5q-75 0 -145 -9t-125 -33t-88 -65.5t-33 -105.5q0 -63 48.5 -97t136.5 -34q138 0 278 8t274 26z" />
    <glyph glyph-name="colon" unicode=":" horiz-adv-x="159" 
d="M162 399q0 -7 -5 -11t-12 -4q-13 0 -13 12q0 15 18 15q12 0 12 -12zM94 9q0 -7 -5.5 -11t-12.5 -4q-14 0 -14 12q0 7 5.5 11t12.5 4q14 0 14 -12z" />
    <glyph glyph-name="semicolon" unicode=";" horiz-adv-x="138" 
d="M25 -96l87 268h16l-96 -268h-7zM175 399q0 -15 -17 -15q-13 0 -13 12q0 15 18 15q12 0 12 -12z" />
    <glyph glyph-name="less" unicode="&#x3c;" horiz-adv-x="589" 
d="M102 327q-5 3 -5 9q0 5 9 10l550 246l-2 -10l-547 -245l461 -245l-2 -11z" />
    <glyph glyph-name="equal" unicode="=" horiz-adv-x="621" 
d="M73 199l2 9h546l-2 -9h-546zM121 471l2 10h546l-2 -10h-546z" />
    <glyph glyph-name="greater" unicode="&#x3e;" horiz-adv-x="589" 
d="M52 81l2 11l548 245l-462 245l2 10l465 -246q4 -4 4 -8q0 -8 -8 -11z" />
    <glyph glyph-name="question" unicode="?" horiz-adv-x="634" 
d="M389 312q-63 0 -93.5 -26t-39.5 -77l-15 -85h-9l15 85q10 54 42 83.5t102 29.5h79q56 0 97.5 14.5t68.5 40.5t40.5 62t13.5 78q0 66 -44 104.5t-144 38.5h-374l9 9h366q52 0 89 -11t61 -30.5t35 -47t11 -61.5q0 -45 -14 -82.5t-42.5 -65.5t-72 -43.5t-102.5 -15.5h-79z
M232 9q0 -7 -5.5 -11t-12.5 -4q-13 0 -13 12q0 15 18 15q13 0 13 -12z" />
    <glyph glyph-name="at" unicode="@" horiz-adv-x="770" 
d="M396 0q-69 0 -125.5 19.5t-96.5 55.5t-62 87t-22 113q0 83 34 155t92.5 125t135 83.5t162.5 30.5h318l-86 -489h-338q-29 0 -50.5 10t-36.5 27t-22.5 40t-7.5 50q0 36 12.5 68t35 56.5t53.5 39t69 14.5h170l-52 -296h158l84 471h-309q-83 0 -158 -29.5t-131.5 -81.5
t-90 -121.5t-33.5 -150.5q0 -61 21.5 -110.5t60.5 -84.5t94 -54t122 -19h310l6 -9h-317zM621 476h-161q-36 0 -65.5 -13.5t-50.5 -37t-32.5 -53.5t-11.5 -63q0 -51 28.5 -85.5t80.5 -34.5h161z" />
    <glyph glyph-name="A" unicode="A" horiz-adv-x="912" 
d="M231 0l9 9h648l-314 656l-552 -665h-12l557 669q4 6 9 6q3 0 8 -6l319 -669h-672z" />
    <glyph glyph-name="B" unicode="B" horiz-adv-x="809" 
d="M57 0l61 348h554q28 0 58 13.5t54.5 37t40 56t15.5 70.5q0 64 -40 99.5t-121 35.5h-498l9 9h491q81 0 125 -37t44 -106q0 -40 -15 -71.5t-37 -55t-48 -37.5t-48 -18q19 -4 37.5 -15t33 -28t23.5 -41t9 -55q0 -40 -14.5 -77t-44.5 -65.5t-77 -45.5t-112 -17h-500zM126 339
l-58 -330h491q61 0 106 16.5t74 44t43 62t14 70.5q0 30 -10 55.5t-27.5 43.5t-40.5 28t-48 10h-544z" />
    <glyph glyph-name="C" unicode="C" horiz-adv-x="789" 
d="M405 0q-71 0 -128.5 22t-98 61t-63 92t-22.5 116q0 83 34 152.5t92.5 119.5t136.5 78t167 28h377l-9 -9h-370q-86 0 -162 -27.5t-133 -76t-90.5 -116t-33.5 -148.5q0 -60 22 -112t61.5 -90t96 -59.5t125.5 -21.5h377l-10 -9h-369z" />
    <glyph glyph-name="D" unicode="D" horiz-adv-x="824" 
d="M57 0l74 417h9l-72 -408h375q80 0 152.5 30t127 81.5t87 121t32.5 149.5q0 59 -20 108.5t-57.5 85t-90 55.5t-117.5 20h-384l10 9h376q66 0 120.5 -20t92.5 -57t59 -88t21 -112q0 -82 -33 -153.5t-89.5 -124.5t-131 -83.5t-157.5 -30.5h-384z" />
    <glyph glyph-name="E" unicode="E" horiz-adv-x="716" 
d="M57 0l118 669h646l-9 -9h-629l-55 -314h612l-9 -9h-605l-58 -328h644l-10 -9h-645z" />
    <glyph glyph-name="F" unicode="F" horiz-adv-x="697" 
d="M123 324l-57 -324h-9l118 669h635l-9 -9h-618l-58 -327h590l-9 -9h-583z" />
    <glyph glyph-name="G" unicode="G" horiz-adv-x="820" 
d="M405 0q-71 0 -128.5 22t-98 61t-63 92t-22.5 116q0 83 34 152.5t92.5 119.5t136.5 78t167 28h382l-10 -9h-374q-86 0 -162 -27.5t-133 -76t-90.5 -116t-33.5 -148.5q0 -60 22 -112t61.5 -90t96 -59.5t125.5 -21.5h340l57 332h-434l9 9h437l-62 -350h-349z" />
    <glyph glyph-name="H" unicode="H" horiz-adv-x="763" 
d="M696 0l60 344h-629l-61 -344h-9l118 669h10l-56 -315h629l56 315h9l-118 -669h-9z" />
    <glyph glyph-name="I" unicode="I" horiz-adv-x="129" 
d="M60 0l118 669h9l-118 -669h-9z" />
    <glyph glyph-name="J" unicode="J" horiz-adv-x="591" 
d="M651 669h10l-65 -365q-54 -304 -423 -304h-163l10 9h155q360 0 412 295z" />
    <glyph glyph-name="K" unicode="K" horiz-adv-x="765" 
d="M739 0l-611 350l-62 -350h-9l118 669h10l-55 -307l693 307h19l-708 -313l625 -356h-20z" />
    <glyph glyph-name="L" unicode="L" horiz-adv-x="669" 
d="M57 0l118 669h10l-117 -660h598l-9 -9h-600z" />
    <glyph glyph-name="M" unicode="M" horiz-adv-x="1121" 
d="M1100 0l-149 665l-380 -663q-5 -8 -11 -8t-8 8l-146 663l-383 -665h-10l384 667q3 8 11 8q7 0 7 -8l147 -663l380 663q3 8 11 8q6 0 8 -8l148 -667h-9z" />
    <glyph glyph-name="N" unicode="N" horiz-adv-x="799" 
d="M856 675h9l-117 -666q-2 -9 -10 -9q-5 0 -8 5l-549 659l-118 -664h-9l117 666q1 9 10 9q3 0 8 -5l549 -660z" />
    <glyph glyph-name="O" unicode="O" 
d="M924 407q0 -209 -118 -313.5t-360 -104.5q-180 0 -268.5 66t-88.5 208q0 210 117.5 313.5t361.5 103.5q179 0 267.5 -65.5t88.5 -207.5zM914 405q0 138 -86.5 202t-261.5 64q-236 0 -352 -101t-116 -305q0 -138 87 -202.5t263 -64.5q236 0 351 102t115 305z" />
    <glyph glyph-name="P" unicode="P" horiz-adv-x="844" 
d="M115 265l-47 -265h-9l48 274h475q64 0 119 13t95.5 40t63 68t22.5 97q0 41 -16.5 72.5t-47 52.5t-73.5 32t-95 11h-479l10 9h471q54 0 98 -11t75.5 -33t48.5 -55t17 -76q0 -59 -23.5 -102t-64.5 -71t-98.5 -42t-124.5 -14h-465z" />
    <glyph glyph-name="Q" unicode="Q" horiz-adv-x="914" 
d="M376 0q-63 0 -115.5 18t-90.5 52.5t-59 85.5t-21 118q0 201 117 303.5t361 102.5q178 0 267 -65.5t89 -207.5q0 -63 -15 -107.5t-36 -76.5h-11q22 35 37 79.5t15 102.5q0 138 -86.5 202t-261.5 64q-236 0 -351.5 -100t-115.5 -296q0 -65 20.5 -114.5t57.5 -83.5t88 -51
t113 -17h488l-234 278h14l242 -287h-512z" />
    <glyph glyph-name="R" unicode="R" horiz-adv-x="874" 
d="M848 0l-283 265h-450l-47 -265h-9l48 274h475q64 0 119 13t95.5 40t63 68t22.5 97q0 41 -16.5 72.5t-47 52.5t-73.5 32t-95 11h-479l10 9h471q54 0 98 -11t75.5 -33t48.5 -55t17 -76q0 -59 -23.5 -102t-64.5 -71t-98.5 -42t-124.5 -14l284 -265h-16z" />
    <glyph glyph-name="S" unicode="S" horiz-adv-x="844" 
d="M21 0l9 9h544q139 0 203.5 48t64.5 146q0 69 -52 98t-158 29h-267q-109 0 -164 31t-55 103q0 103 67.5 154t211.5 51h502l-9 -9h-494q-139 0 -203.5 -48t-64.5 -146q0 -69 52 -97.5t158 -28.5h267q111 0 165 -31.5t54 -103.5q0 -103 -67.5 -154t-210.5 -51h-553z" />
    <glyph glyph-name="T" unicode="T" horiz-adv-x="800" 
d="M397 0l116 660h-397l14 9h788l-9 -9h-387l-116 -660h-9z" />
    <glyph glyph-name="U" unicode="U" horiz-adv-x="851" 
d="M910 669h10l-67 -377q-54 -303 -412 -303q-180 0 -264 58t-84 174q0 17 1 34.5t5 36.5l68 377h9l-67 -377q-3 -17 -5.5 -34.5t-1.5 -34.5q0 -113 82 -169t259 -56q347 0 400 294z" />
    <glyph glyph-name="V" unicode="V" horiz-adv-x="911" 
d="M1010 669h10l-555 -669q-6 -6 -10 -6q-6 0 -7 6l-319 669h10l318 -665z" />
    <glyph glyph-name="W" unicode="W" horiz-adv-x="1122" 
d="M1217 669h9l-384 -667q-5 -8 -10 -8q-7 0 -9 8l-145 663l-381 -663q-5 -8 -10 -8q-7 0 -9 8l-147 667h9l149 -665l379 663q2 5 5.5 6.5t5.5 1.5q6 0 8 -8l147 -663z" />
    <glyph glyph-name="X" unicode="X" horiz-adv-x="891" 
d="M867 0l-358 344l-478 -344h-16l487 350l-331 319h14l324 -313l436 313h17l-445 -319l364 -350h-14z" />
    <glyph glyph-name="Y" unicode="Y" 
d="M443 0l48 274l-366 395h13l359 -386l495 386h15l-506 -395l-49 -274h-9z" />
    <glyph glyph-name="Z" unicode="Z" horiz-adv-x="817" 
d="M27 0q-8 0 -8 8q0 7 5 10l865 642h-762l9 9h755q8 0 8 -7q0 -8 -6 -11l-864 -642h782l-9 -9h-775z" />
    <glyph glyph-name="bracketleft" unicode="[" horiz-adv-x="238" 
d="M49 -129l163 922h124l-2 -9h-114l-159 -903h114l-2 -10h-124z" />
    <glyph glyph-name="backslash" unicode="\" horiz-adv-x="361" 
d="M344 -38l-219 744h10l219 -744h-10z" />
    <glyph glyph-name="bracketright" unicode="]" horiz-adv-x="238" 
d="M20 -129l2 10h114l159 903h-114l2 9h124l-163 -922h-124z" />
    <glyph glyph-name="asciicircum" unicode="^" horiz-adv-x="504" 
d="M506 296l-137 365l-266 -365h-11l273 373h10l141 -373h-10z" />
    <glyph glyph-name="underscore" unicode="_" horiz-adv-x="675" 
d="M-16 -92l2 10h678l-2 -10h-678z" />
    <glyph glyph-name="grave" unicode="`" horiz-adv-x="364" 
d="M193 856l2 11l255 -142l-2 -10z" />
    <glyph glyph-name="a" unicode="a" horiz-adv-x="912" 
d="M231 0l9 9h648l-314 656l-552 -665h-12l557 669q4 6 9 6q3 0 8 -6l319 -669h-672z" />
    <glyph glyph-name="b" unicode="b" horiz-adv-x="809" 
d="M57 0l61 348h554q28 0 58 13.5t54.5 37t40 56t15.5 70.5q0 64 -40 99.5t-121 35.5h-498l9 9h491q81 0 125 -37t44 -106q0 -40 -15 -71.5t-37 -55t-48 -37.5t-48 -18q19 -4 37.5 -15t33 -28t23.5 -41t9 -55q0 -40 -14.5 -77t-44.5 -65.5t-77 -45.5t-112 -17h-500zM126 339
l-58 -330h491q61 0 106 16.5t74 44t43 62t14 70.5q0 30 -10 55.5t-27.5 43.5t-40.5 28t-48 10h-544z" />
    <glyph glyph-name="c" unicode="c" horiz-adv-x="789" 
d="M405 0q-71 0 -128.5 22t-98 61t-63 92t-22.5 116q0 83 34 152.5t92.5 119.5t136.5 78t167 28h377l-9 -9h-370q-86 0 -162 -27.5t-133 -76t-90.5 -116t-33.5 -148.5q0 -60 22 -112t61.5 -90t96 -59.5t125.5 -21.5h377l-10 -9h-369z" />
    <glyph glyph-name="d" unicode="d" horiz-adv-x="824" 
d="M57 0l74 417h9l-72 -408h375q80 0 152.5 30t127 81.5t87 121t32.5 149.5q0 59 -20 108.5t-57.5 85t-90 55.5t-117.5 20h-384l10 9h376q66 0 120.5 -20t92.5 -57t59 -88t21 -112q0 -82 -33 -153.5t-89.5 -124.5t-131 -83.5t-157.5 -30.5h-384z" />
    <glyph glyph-name="e" unicode="e" horiz-adv-x="716" 
d="M57 0l118 669h646l-9 -9h-629l-55 -314h612l-9 -9h-605l-58 -328h644l-10 -9h-645z" />
    <glyph glyph-name="f" unicode="f" horiz-adv-x="697" 
d="M123 324l-57 -324h-9l118 669h635l-9 -9h-618l-58 -327h590l-9 -9h-583z" />
    <glyph glyph-name="g" unicode="g" horiz-adv-x="820" 
d="M405 0q-71 0 -128.5 22t-98 61t-63 92t-22.5 116q0 83 34 152.5t92.5 119.5t136.5 78t167 28h382l-10 -9h-374q-86 0 -162 -27.5t-133 -76t-90.5 -116t-33.5 -148.5q0 -60 22 -112t61.5 -90t96 -59.5t125.5 -21.5h340l57 332h-434l9 9h437l-62 -350h-349z" />
    <glyph glyph-name="h" unicode="h" horiz-adv-x="763" 
d="M696 0l60 344h-629l-61 -344h-9l118 669h10l-56 -315h629l56 315h9l-118 -669h-9z" />
    <glyph glyph-name="i" unicode="i" horiz-adv-x="129" 
d="M60 0l118 669h9l-118 -669h-9z" />
    <glyph glyph-name="j" unicode="j" horiz-adv-x="591" 
d="M651 669h10l-65 -365q-54 -304 -423 -304h-163l10 9h155q360 0 412 295z" />
    <glyph glyph-name="k" unicode="k" horiz-adv-x="765" 
d="M739 0l-611 350l-62 -350h-9l118 669h10l-55 -307l693 307h19l-708 -313l625 -356h-20z" />
    <glyph glyph-name="l" unicode="l" horiz-adv-x="669" 
d="M57 0l118 669h10l-117 -660h598l-9 -9h-600z" />
    <glyph glyph-name="m" unicode="m" horiz-adv-x="1121" 
d="M1100 0l-149 665l-380 -663q-5 -8 -11 -8t-8 8l-146 663l-383 -665h-10l384 667q3 8 11 8q7 0 7 -8l147 -663l380 663q3 8 11 8q6 0 8 -8l148 -667h-9z" />
    <glyph glyph-name="n" unicode="n" horiz-adv-x="799" 
d="M856 675h9l-117 -666q-2 -9 -10 -9q-5 0 -8 5l-549 659l-118 -664h-9l117 666q1 9 10 9q3 0 8 -5l549 -660z" />
    <glyph glyph-name="o" unicode="o" 
d="M924 407q0 -209 -118 -313.5t-360 -104.5q-180 0 -268.5 66t-88.5 208q0 210 117.5 313.5t361.5 103.5q179 0 267.5 -65.5t88.5 -207.5zM914 405q0 138 -86.5 202t-261.5 64q-236 0 -352 -101t-116 -305q0 -138 87 -202.5t263 -64.5q236 0 351 102t115 305z" />
    <glyph glyph-name="p" unicode="p" horiz-adv-x="844" 
d="M115 265l-47 -265h-9l48 274h475q64 0 119 13t95.5 40t63 68t22.5 97q0 41 -16.5 72.5t-47 52.5t-73.5 32t-95 11h-479l10 9h471q54 0 98 -11t75.5 -33t48.5 -55t17 -76q0 -59 -23.5 -102t-64.5 -71t-98.5 -42t-124.5 -14h-465z" />
    <glyph glyph-name="q" unicode="q" horiz-adv-x="914" 
d="M376 0q-63 0 -115.5 18t-90.5 52.5t-59 85.5t-21 118q0 201 117 303.5t361 102.5q178 0 267 -65.5t89 -207.5q0 -63 -15 -107.5t-36 -76.5h-11q22 35 37 79.5t15 102.5q0 138 -86.5 202t-261.5 64q-236 0 -351.5 -100t-115.5 -296q0 -65 20.5 -114.5t57.5 -83.5t88 -51
t113 -17h488l-234 278h14l242 -287h-512z" />
    <glyph glyph-name="r" unicode="r" horiz-adv-x="874" 
d="M848 0l-283 265h-450l-47 -265h-9l48 274h475q64 0 119 13t95.5 40t63 68t22.5 97q0 41 -16.5 72.5t-47 52.5t-73.5 32t-95 11h-479l10 9h471q54 0 98 -11t75.5 -33t48.5 -55t17 -76q0 -59 -23.5 -102t-64.5 -71t-98.5 -42t-124.5 -14l284 -265h-16z" />
    <glyph glyph-name="s" unicode="s" horiz-adv-x="844" 
d="M21 0l9 9h544q139 0 203.5 48t64.5 146q0 69 -52 98t-158 29h-267q-109 0 -164 31t-55 103q0 103 67.5 154t211.5 51h502l-9 -9h-494q-139 0 -203.5 -48t-64.5 -146q0 -69 52 -97.5t158 -28.5h267q111 0 165 -31.5t54 -103.5q0 -103 -67.5 -154t-210.5 -51h-553z" />
    <glyph glyph-name="t" unicode="t" horiz-adv-x="800" 
d="M397 0l116 660h-397l14 9h788l-9 -9h-387l-116 -660h-9z" />
    <glyph glyph-name="u" unicode="u" horiz-adv-x="851" 
d="M910 669h10l-67 -377q-54 -303 -412 -303q-180 0 -264 58t-84 174q0 17 1 34.5t5 36.5l68 377h9l-67 -377q-3 -17 -5.5 -34.5t-1.5 -34.5q0 -113 82 -169t259 -56q347 0 400 294z" />
    <glyph glyph-name="v" unicode="v" horiz-adv-x="911" 
d="M1010 669h10l-555 -669q-6 -6 -10 -6q-6 0 -7 6l-319 669h10l318 -665z" />
    <glyph glyph-name="w" unicode="w" horiz-adv-x="1122" 
d="M1217 669h9l-384 -667q-5 -8 -10 -8q-7 0 -9 8l-145 663l-381 -663q-5 -8 -10 -8q-7 0 -9 8l-147 667h9l149 -665l379 663q2 5 5.5 6.5t5.5 1.5q6 0 8 -8l147 -663z" />
    <glyph glyph-name="x" unicode="x" horiz-adv-x="891" 
d="M867 0l-358 344l-478 -344h-16l487 350l-331 319h14l324 -313l436 313h17l-445 -319l364 -350h-14z" />
    <glyph glyph-name="y" unicode="y" 
d="M443 0l48 274l-366 395h13l359 -386l495 386h15l-506 -395l-49 -274h-9z" />
    <glyph glyph-name="z" unicode="z" horiz-adv-x="817" 
d="M27 0q-8 0 -8 8q0 7 5 10l865 642h-762l9 9h755q8 0 8 -7q0 -8 -6 -11l-864 -642h782l-9 -9h-775z" />
    <glyph glyph-name="braceleft" unicode="{" horiz-adv-x="314" 
d="M216 -129q-84 0 -84 84q0 9 0.5 19t2.5 21l45 256q1 6 1.5 12t0.5 11q0 53 -61 53l1 10q73 0 87 77l45 255q11 63 41 93.5t83 30.5h33l-2 -9h-33q-94 0 -113 -115l-44 -255q-8 -39 -28 -58t-40 -24q15 -4 27.5 -18t12.5 -41q0 -5 -0.5 -11t-1.5 -11l-44 -256
q-4 -13 -4 -31q0 -42 18 -62.5t58 -20.5h33l-1 -10h-33z" />
    <glyph glyph-name="bar" unicode="|" horiz-adv-x="179" 
d="M66 -99l152 854h9l-151 -854h-10z" />
    <glyph glyph-name="braceright" unicode="}" horiz-adv-x="315" 
d="M20 -129l1 10h33q94 0 114 114l44 256q7 39 25 57.5t41 23.5q-17 5 -28 20t-11 47v7t2 8l45 255q2 10 3 19.5t1 16.5q0 79 -77 79h-33l2 9h33q84 0 84 -84q0 -9 -1 -19t-3 -21l-44 -255q-3 -14 -3 -24q0 -53 61 -53v-10q-40 0 -60.5 -18.5t-27.5 -57.5l-44 -256
q-21 -124 -124 -124h-33z" />
    <glyph glyph-name="asciitilde" unicode="~" horiz-adv-x="558" 
d="M581 363q-45 -40 -82 -53t-67 -13q-28 0 -53 11t-48 24t-46 24t-47 11q-14 0 -30 -2.5t-34 -10t-39 -21t-46 -35.5l2 12q45 40 81.5 53.5t66.5 13.5q27 0 51 -11t47 -24t46.5 -24t49.5 -11q15 0 30.5 2.5t33.5 10t39 21t47 35.5z" />
    <glyph glyph-name="uni00A0" unicode="&#xa0;" horiz-adv-x="344" 
 />
    <glyph glyph-name="exclamdown" unicode="&#xa1;" horiz-adv-x="119" 
d="M160.005 541.008l-20.999 -141.991l-70.9951 -400.976h-16.999l70.9951 400.976l29.998 141.991h8zM160.005 658.001q0 6.99902 5.5 10.999q5.49902 4 12.499 4q13.999 0 13.999 -12q0 -6.99902 -5.5 -10.999q-5.49902 -4 -12.499 -4q-13.999 0 -13.999 12z" />
    <glyph glyph-name="cent" unicode="&#xa2;" horiz-adv-x="554" 
d="M335 109l-19 -109h-9l19 109q-50 0 -91.5 15.5t-70.5 43t-45 65t-16 81.5q0 58 24.5 107t66 84t97 55t118.5 20l16 89h9l-16 -89h209l-9 -9h-202l-79 -453h207l-9 -9h-200zM407 571q-60 0 -113 -19t-93.5 -52.5t-64 -80.5t-23.5 -103q0 -42 15.5 -78.5t43.5 -63
t67.5 -41.5t87.5 -15z" />
    <glyph glyph-name="sterling" unicode="&#xa3;" horiz-adv-x="724" 
d="M40 0l9 9h164l57 324h-211l9 10h204l20 118q8 47 30 85.5t59 65.5t90 42t122 15h238l-10 -9h-230q-67 0 -117.5 -14t-86 -40.5t-56.5 -63t-29 -81.5l-21 -118h321l-10 -10h-313l-57 -324h497l-9 -9h-670z" />
    <glyph glyph-name="yen" unicode="&#xa5;" 
d="M443 0l25 142h-369l1 9h369l22 122h-369l1 10h359l-358 386h13l359 -386l494 386h16l-495 -386h358l-1 -10h-368l-22 -122h368l-1 -9h-368l-25 -142h-9z" />
    <glyph glyph-name="brokenbar" unicode="&#xa6;" horiz-adv-x="179" 
d="M66 -99l67 383h10l-67 -383h-10zM166 411h-10l61 344h9z" />
    <glyph glyph-name="dieresis" unicode="&#xa8;" horiz-adv-x="316" 
d="M215 806q0 -7 -5.5 -11t-12.5 -4q-13 0 -13 12q0 15 18 15q13 0 13 -12zM415 806q0 -15 -18 -15q-13 0 -13 12q0 7 5.5 11t12.5 4q13 0 13 -12z" />
    <glyph glyph-name="copyright" unicode="&#xa9;" horiz-adv-x="769" 
d="M445 -11q-72 0 -135 27t-110 74t-74.5 110t-27.5 135t27.5 135t74.5 110t110 74t135 27t135 -27t110 -74t74 -110t27 -135t-27 -135t-74 -110t-110 -74t-135 -27zM782 335q0 70 -26.5 131t-72.5 107t-107.5 72.5t-130.5 26.5q-70 0 -131.5 -26.5t-107 -72.5t-72 -107
t-26.5 -131q0 -69 26.5 -130.5t72 -107.5t107 -72.5t131.5 -26.5q69 0 130.5 26.5t107.5 72.5t72.5 107.5t26.5 130.5zM441 174q-37 0 -68.5 12.5t-54.5 34t-36 51.5t-13 65t13 64t36 49.5t54.5 32t68.5 11.5h100l-7 -9h-93q-35 0 -65 -11t-52 -30.5t-34 -46.5t-12 -60
t12 -61t34 -48.5t52 -32t65 -11.5h101l-7 -10h-94z" />
    <glyph glyph-name="ordfeminine" unicode="&#xaa;" horiz-adv-x="558" 
d="M201 282l10 9h352q-45 91 -85.5 177.5t-83.5 177.5l-152 -182t-151 -182h-12l305 367q4 6 12 6q2 0 7 -5l175 -368h-377z" />
    <glyph glyph-name="guillemotleft" unicode="&#xab;" horiz-adv-x="409" 
d="M83 321l1 7l200 143l-2 -12l-189 -134l141 -135l-2 -12zM254 321l1 7l199 143l-2 -12l-189 -134l141 -135l-2 -12z" />
    <glyph glyph-name="registered" unicode="&#xae;" horiz-adv-x="495" 
d="M544 484q0 -39 -16 -74.5t-44.5 -62.5t-67 -43t-83.5 -16q-46 0 -84 16t-65.5 43t-43 62.5t-15.5 74.5t15.5 74.5t43 62.5t65.5 43t84 16t84.5 -15.5t66.5 -42t44 -62.5t16 -76zM535 484q0 39 -15 73t-42 59.5t-64 40t-81 14.5t-80.5 -15t-62.5 -41t-41 -60t-15 -71
t15 -71t41 -59.5t62.5 -41t80.5 -15.5q43 0 80 15.5t64 41t42.5 59.5t15.5 71zM427 404l-82 67h-89v-62h-10v72h103q26 0 43 10t17 31q0 23 -17 34t-43 11h-96l7 9h89q32 0 50.5 -13t18.5 -41q0 -24 -15 -36.5t-41 -14.5l82 -67h-17z" />
    <glyph glyph-name="macron" unicode="&#xaf;" horiz-adv-x="364" 
d="M181 787l2 10h279l-2 -10h-279z" />
    <glyph glyph-name="degree" unicode="&#xb0;" horiz-adv-x="324" 
d="M262 415q-122 0 -122 132q0 133 122 133t122 -133q0 -132 -122 -132zM262 424q113 0 113 123q0 124 -113 124q-112 0 -112 -124q0 -123 112 -123z" />
    <glyph glyph-name="plusminus" unicode="&#xb1;" horiz-adv-x="621" 
d="M318 68l47 269h-268l2 9h268l47 268h9l-46 -268h268l-1 -9h-269l-48 -269h-9zM35 -25l1 9h546l-1 -9h-546z" />
    <glyph glyph-name="uni00B2" unicode="&#xb2;" horiz-adv-x="440" 
d="M94 351l16 90q8 45 40 64.5t86 19.5h133q69 0 100 24t31 69q0 28 -23.5 45t-81.5 17h-219l8 8h212q61 0 87 -19t26 -49q0 -49 -35 -76.5t-107 -27.5h-133q-51 0 -79.5 -16.5t-35.5 -58.5l-14 -82h369l-9 -8h-371z" />
    <glyph glyph-name="uni00B3" unicode="&#xb3;" horiz-adv-x="416" 
d="M74 351l10 8h254q30 0 52 8.5t36 22t21 31t7 35.5q0 29 -18 46.5t-43 17.5h-199l9 9h192q15 0 30 7t27 19t19 28.5t7 34.5q0 29 -20.5 45.5t-59.5 16.5h-253l9 8h245q42 0 64.5 -18t22.5 -52q0 -18 -6.5 -34t-16.5 -28.5t-22 -20.5t-23 -11q17 -7 31 -23t14 -43
q0 -43 -31.5 -75t-94.5 -32h-263z" />
    <glyph glyph-name="acute" unicode="&#xb4;" horiz-adv-x="364" 
d="M168 715l2 10l304 142l-2 -11z" />
    <glyph glyph-name="periodcentered" unicode="&#xb7;" horiz-adv-x="105" 
d="M127 337q-1 -7 -6 -10t-11 -3q-13 0 -13 11q0 7 5.5 11t12.5 4q12 0 12 -10v-3v0z" />
    <glyph glyph-name="cedilla" unicode="&#xb8;" horiz-adv-x="179" 
d="M14 -255l76 224h13l-80 -224h-9zM13 -255l77 224h13l-81 -224h-9z" />
    <glyph glyph-name="uni00B9" unicode="&#xb9;" horiz-adv-x="149" 
d="M160 351l58 329h-14l-74 -82h-10l81 90h27l-60 -337h-8z" />
    <glyph glyph-name="ordmasculine" unicode="&#xba;" horiz-adv-x="549" 
d="M584 468q-18 -100 -82 -146.5t-179 -46.5q-100 0 -149 34.5t-49 109.5q0 63 18.5 108.5t53 75t83.5 43.5t110 14q100 0 149.5 -34.5t49.5 -109.5q0 -10 -1.5 -22t-3.5 -26zM574 468q4 23 4 47q0 72 -46 104t-143 32q-59 0 -106 -13.5t-80 -41.5t-51 -71.5t-18 -103.5
q0 -72 47.5 -104t143.5 -32q109 0 170.5 43t78.5 140z" />
    <glyph glyph-name="guillemotright" unicode="&#xbb;" horiz-adv-x="409" 
d="M243 178l2 12l188 135l-140 134l2 12l149 -143l-1 -7zM73 178l2 12l188 135l-140 134l2 12l149 -143l-1 -7z" />
    <glyph glyph-name="onequarter" unicode="&#xbc;" horiz-adv-x="816" 
d="M192 351l58 329h-14l-74 -82h-10l81 90h27l-60 -337h-8zM31 -38l693 744h13l-694 -744h-12zM697 -11l14 79h-305q-6 0 -6 7q1 2 2 3l2 2l351 247q6 2 5 2q5 0 5 -4l-43 -248h73l-9 -9h-66l-14 -79h-9zM756 319l-343 -242h300z" />
    <glyph glyph-name="onehalf" unicode="&#xbd;" horiz-adv-x="834" 
d="M192 351l58 329h-14l-74 -82h-10l81 90h27l-60 -337h-8zM31 -38l693 744h13l-694 -744h-12zM419 -11l16 90q8 45 40 64.5t86 19.5h133q69 0 100 24t31 69q0 28 -23.5 45t-81.5 17h-219l8 8h212q61 0 87 -19t26 -49q0 -49 -35 -76.5t-107 -27.5h-133q-51 0 -79.5 -16.5
t-35.5 -58.5l-14 -82h369l-9 -8h-371z" />
    <glyph glyph-name="threequarters" unicode="&#xbe;" horiz-adv-x="900" 
d="M94 351l10 8h254q30 0 52 8.5t36 22t21 31t7 35.5q0 29 -18 46.5t-43 17.5h-199l9 9h192q15 0 30 7t27 19t19 28.5t7 34.5q0 29 -20.5 45.5t-59.5 16.5h-253l9 8h245q42 0 64.5 -18t22.5 -52q0 -18 -6.5 -34t-16.5 -28.5t-22 -20.5t-23 -11q17 -7 31 -23t14 -43
q0 -43 -31.5 -75t-94.5 -32h-263zM156 -38l693 744h13l-694 -744h-12zM781 -11l14 79h-305q-6 0 -6 7q1 2 2 3l2 2l351 247q6 2 5 2q5 0 5 -4l-43 -248h73l-9 -9h-66l-14 -79h-9zM840 319l-343 -242h300z" />
    <glyph glyph-name="questiondown" unicode="&#xbf;" horiz-adv-x="634" 
d="M360.023 357.02q62.9961 0 93.4941 25.998q30.499 25.998 39.498 76.9951l14.999 84.9951h8.99902l-14.999 -84.9951q-9.99902 -53.9971 -41.9971 -83.4951t-101.994 -29.498h-78.9951q-55.9961 0 -97.4941 -14.499q-41.4971 -14.499 -68.4951 -40.4971
q-26.999 -25.999 -40.498 -61.9971q-13.499 -35.9971 -13.499 -77.9951q0 -65.9961 43.9971 -104.493q43.998 -38.498 143.991 -38.498h373.978l-8.99902 -8.99902h-365.979q-51.9961 0 -88.9941 10.999t-60.9961 30.498q-23.999 19.499 -34.998 46.9971
q-10.999 27.499 -10.999 61.4961q0 44.998 13.999 82.4951q13.999 37.498 42.4971 65.4961t71.9961 43.4971q43.4971 15.5 102.493 15.5h78.9951zM517.014 660.001q0 6.99902 5.5 10.999t12.499 4q13 0 13 -12q0 -14.999 -17.999 -14.999q-13 0 -13 12z" />
    <glyph glyph-name="Agrave" unicode="&#xc0;" horiz-adv-x="912" 
d="M231 0l9 9h648l-314 656l-552 -665h-12l557 669q4 6 9 6q3 0 8 -6l319 -669h-672zM438 856l2 11l255 -142l-2 -10z" />
    <glyph glyph-name="Aacute" unicode="&#xc1;" horiz-adv-x="912" 
d="M231 0l9 9h648l-314 656l-552 -665h-12l557 669q4 6 9 6q3 0 8 -6l319 -669h-672zM470 715l2 10l304 142l-2 -11z" />
    <glyph glyph-name="Acircumflex" unicode="&#xc2;" horiz-adv-x="912" 
d="M231 0l9 9h648l-314 656l-552 -665h-12l557 669q4 6 9 6q3 0 8 -6l319 -669h-672zM716 715l-109 144l-160 -144h-16l168 152h16l116 -152h-15z" />
    <glyph glyph-name="Atilde" unicode="&#xc3;" horiz-adv-x="912" 
d="M231 0l9 9h648l-314 656l-552 -665h-12l557 669q4 6 9 6q3 0 8 -6l319 -669h-672zM737 803q-20 -32 -39.5 -44t-42.5 -12q-20 0 -35 12.5t-28.5 27t-27.5 27t-31 12.5q-20 0 -39.5 -12.5t-43.5 -54.5l4 21q20 32 39 44t42 12q19 0 34 -12.5t28.5 -27.5t27 -27.5
t31.5 -12.5q20 0 40 13t45 54z" />
    <glyph glyph-name="Adieresis" unicode="&#xc4;" horiz-adv-x="912" 
d="M231 0l9 9h648l-314 656l-552 -665h-12l557 669q4 6 9 6q3 0 8 -6l319 -669h-672zM513 806q0 -7 -5.5 -11t-12.5 -4q-13 0 -13 12q0 15 18 15q13 0 13 -12zM713 806q0 -15 -18 -15q-13 0 -13 12q0 7 5.5 11t12.5 4q13 0 13 -12z" />
    <glyph glyph-name="Aring" unicode="&#xc5;" horiz-adv-x="912" 
d="M231 0l9 9h648l-314 656l-552 -665h-12l557 669q4 6 9 6q3 0 8 -6l319 -669h-672zM550 715q-91 0 -91 64q0 5 0.5 9.5t1.5 9.5l11 63q8 42 36 63t82 21h63q91 0 91 -64q0 -5 -0.5 -10t-1.5 -10l-12 -63q-17 -83 -118 -83h-62zM732 861q1 5 1 9v7q0 59 -82 59h-63
q-94 0 -107 -75l-11 -63q-1 -5 -1.5 -9t-0.5 -8q0 -57 84 -57h62q93 0 107 74z" />
    <glyph glyph-name="AE" unicode="&#xc6;" horiz-adv-x="1323" 
d="M662 0l117 660h-170l-588 -660h-11l589 662q8 7 18 7h810l-9 -9h-630l-55 -314h613l-10 -9h-604l-58 -328h643l-9 -9h-646z" />
    <glyph glyph-name="Ccedilla" unicode="&#xc7;" horiz-adv-x="789" 
d="M405 0q-71 0 -128.5 21t-98.5 58t-63.5 88.5t-22.5 112.5q0 85 35 156.5t94 123.5t137 80.5t164 28.5h377l-9 -9h-369q-84 0 -160 -28t-134 -78t-92 -119.5t-34 -152.5q0 -60 22 -110t61.5 -86t96 -56.5t125.5 -20.5h377l-9 -9h-369zM367 -255l77 224h13l-81 -224h-9z
" />
    <glyph glyph-name="Egrave" unicode="&#xc8;" horiz-adv-x="716" 
d="M57 0l118 669h646l-9 -9h-629l-55 -314h612l-9 -9h-605l-58 -328h644l-10 -9h-645zM378 856l2 11l255 -142l-2 -10z" />
    <glyph glyph-name="Eacute" unicode="&#xc9;" horiz-adv-x="716" 
d="M57 0l118 669h646l-9 -9h-629l-55 -314h612l-9 -9h-605l-58 -328h644l-10 -9h-645zM376 715l2 10l304 142l-2 -11z" />
    <glyph glyph-name="Ecircumflex" unicode="&#xca;" horiz-adv-x="716" 
d="M57 0l118 669h646l-9 -9h-629l-55 -314h612l-9 -9h-605l-58 -328h644l-10 -9h-645zM630 715l-109 144l-160 -144h-16l168 152h16l116 -152h-15z" />
    <glyph glyph-name="Edieresis" unicode="&#xcb;" horiz-adv-x="716" 
d="M57 0l118 669h646l-9 -9h-629l-55 -314h612l-9 -9h-605l-58 -328h644l-10 -9h-645zM436 806q0 -7 -5.5 -11t-12.5 -4q-13 0 -13 12q0 15 18 15q13 0 13 -12zM636 806q0 -15 -18 -15q-13 0 -13 12q0 7 5.5 11t12.5 4q13 0 13 -12z" />
    <glyph glyph-name="Igrave" unicode="&#xcc;" horiz-adv-x="129" 
d="M60 0l118 669h9l-118 -669h-9zM48 856l2 11l255 -142l-2 -10z" />
    <glyph glyph-name="Iacute" unicode="&#xcd;" horiz-adv-x="129" 
d="M60 0l118 669h9l-118 -669h-9zM80 715l2 10l304 142l-2 -11z" />
    <glyph glyph-name="Icircumflex" unicode="&#xce;" horiz-adv-x="129" 
d="M60 0l118 669h9l-118 -669h-9zM326 715l-109 144l-160 -144h-16l168 152h16l116 -152h-15z" />
    <glyph glyph-name="Idieresis" unicode="&#xcf;" horiz-adv-x="129" 
d="M60 0l118 669h9l-118 -669h-9zM122 806q0 -7 -5.5 -11t-12.5 -4q-13 0 -13 12q0 15 18 15q13 0 13 -12zM322 806q0 -15 -18 -15q-13 0 -13 12q0 7 5.5 11t12.5 4q13 0 13 -12z" />
    <glyph glyph-name="Eth" unicode="&#xd0;" horiz-adv-x="882" 
d="M115 0l59 337h-114l9 9h563l-9 -9h-439l-58 -328h375q80 0 152.5 30t127 81.5t87 121t32.5 149.5q0 59 -20.5 108.5t-57.5 85t-90 55.5t-117 20h-384l9 9h377q66 0 120 -20t92.5 -57t59 -88t20.5 -112q0 -82 -33 -153.5t-89.5 -124.5t-131 -83.5t-156.5 -30.5h-384z" />
    <glyph glyph-name="Ntilde" unicode="&#xd1;" horiz-adv-x="799" 
d="M856 675h9l-117 -666q-2 -9 -10 -9q-5 0 -8 5l-549 659l-118 -664h-9l117 666q1 9 10 9q3 0 8 -5l549 -660zM689 803q-20 -32 -39.5 -44t-42.5 -12q-20 0 -35 12.5t-28.5 27t-27.5 27t-31 12.5q-20 0 -39.5 -12.5t-43.5 -54.5l4 21q20 32 39 44t42 12q19 0 34 -12.5
t28.5 -27.5t27 -27.5t31.5 -12.5q20 0 40 13t45 54z" />
    <glyph glyph-name="Ograve" unicode="&#xd2;" 
d="M924 407q0 -209 -118 -313.5t-360 -104.5q-180 0 -268.5 66t-88.5 208q0 210 117.5 313.5t361.5 103.5q179 0 267.5 -65.5t88.5 -207.5zM914 405q0 138 -86.5 202t-261.5 64q-236 0 -352 -101t-116 -305q0 -138 87 -202.5t263 -64.5q236 0 351 102t115 305zM430 856l2 11
l255 -142l-2 -10z" />
    <glyph glyph-name="Oacute" unicode="&#xd3;" 
d="M924 407q0 -209 -118 -313.5t-360 -104.5q-180 0 -268.5 66t-88.5 208q0 210 117.5 313.5t361.5 103.5q179 0 267.5 -65.5t88.5 -207.5zM914 405q0 138 -86.5 202t-261.5 64q-236 0 -352 -101t-116 -305q0 -138 87 -202.5t263 -64.5q236 0 351 102t115 305zM461 715l2 10
l304 142l-2 -11z" />
    <glyph glyph-name="Ocircumflex" unicode="&#xd4;" 
d="M924 407q0 -209 -118 -313.5t-360 -104.5q-180 0 -268.5 66t-88.5 208q0 210 117.5 313.5t361.5 103.5q179 0 267.5 -65.5t88.5 -207.5zM914 405q0 138 -86.5 202t-261.5 64q-236 0 -352 -101t-116 -305q0 -138 87 -202.5t263 -64.5q236 0 351 102t115 305zM708 715
l-109 144l-160 -144h-16l168 152h16l116 -152h-15z" />
    <glyph glyph-name="Otilde" unicode="&#xd5;" 
d="M924 407q0 -209 -118 -313.5t-360 -104.5q-180 0 -268.5 66t-88.5 208q0 210 117.5 313.5t361.5 103.5q179 0 267.5 -65.5t88.5 -207.5zM914 405q0 138 -86.5 202t-261.5 64q-236 0 -352 -101t-116 -305q0 -138 87 -202.5t263 -64.5q236 0 351 102t115 305zM728 803
q-20 -32 -39.5 -44t-42.5 -12q-20 0 -35 12.5t-28.5 27t-27.5 27t-31 12.5q-20 0 -39.5 -12.5t-43.5 -54.5l4 21q20 32 39 44t42 12q19 0 34 -12.5t28.5 -27.5t27 -27.5t31.5 -12.5q20 0 40 13t45 54z" />
    <glyph glyph-name="Odieresis" unicode="&#xd6;" 
d="M924 407q0 -209 -118 -313.5t-360 -104.5q-180 0 -268.5 66t-88.5 208q0 210 117.5 313.5t361.5 103.5q179 0 267.5 -65.5t88.5 -207.5zM914 405q0 138 -86.5 202t-261.5 64q-236 0 -352 -101t-116 -305q0 -138 87 -202.5t263 -64.5q236 0 351 102t115 305zM504 806
q0 -7 -5.5 -11t-12.5 -4q-13 0 -13 12q0 15 18 15q13 0 13 -12zM704 806q0 -15 -18 -15q-13 0 -13 12q0 7 5.5 11t12.5 4q13 0 13 -12z" />
    <glyph glyph-name="multiply" unicode="&#xd7;" horiz-adv-x="621" 
d="M524 145l-156 190l-222 -189l-6 6l222 190l-156 189l9 7l155 -190l224 190l6 -6l-224 -190l157 -191z" />
    <glyph glyph-name="Oslash" unicode="&#xd8;" 
d="M82 -42l100 90q-48 32 -70.5 87t-22.5 128q0 210 117.5 313.5t361.5 103.5q165 0 253 -53l97 89l7 -5l-98 -88q48 -32 72.5 -87.5t24.5 -128.5q0 -209 -118 -313.5t-360 -104.5q-169 0 -257 55l-100 -91zM198 51q87 -53 250 -53q236 0 351 101.5t115 304.5
q0 73 -23 126.5t-71 84.5zM811 620q-86 51 -245 51q-236 0 -352 -101t-116 -305q0 -146 92 -209z" />
    <glyph glyph-name="Ugrave" unicode="&#xd9;" horiz-adv-x="851" 
d="M910 669h10l-67 -377q-54 -303 -412 -303q-180 0 -264 58t-84 174q0 17 1 34.5t5 36.5l68 377h9l-67 -377q-3 -17 -5.5 -34.5t-1.5 -34.5q0 -113 82 -169t259 -56q347 0 400 294zM408 856l2 11l255 -142l-2 -10z" />
    <glyph glyph-name="Uacute" unicode="&#xda;" horiz-adv-x="851" 
d="M910 669h10l-67 -377q-54 -303 -412 -303q-180 0 -264 58t-84 174q0 17 1 34.5t5 36.5l68 377h9l-67 -377q-3 -17 -5.5 -34.5t-1.5 -34.5q0 -113 82 -169t259 -56q347 0 400 294zM440 715l2 10l304 142l-2 -11z" />
    <glyph glyph-name="Ucircumflex" unicode="&#xdb;" horiz-adv-x="851" 
d="M910 669h10l-67 -377q-54 -303 -412 -303q-180 0 -264 58t-84 174q0 17 1 34.5t5 36.5l68 377h9l-67 -377q-3 -17 -5.5 -34.5t-1.5 -34.5q0 -113 82 -169t259 -56q347 0 400 294zM686 715l-109 144l-160 -144h-16l168 152h16l116 -152h-15z" />
    <glyph glyph-name="Udieresis" unicode="&#xdc;" horiz-adv-x="851" 
d="M910 669h10l-67 -377q-54 -303 -412 -303q-180 0 -264 58t-84 174q0 17 1 34.5t5 36.5l68 377h9l-67 -377q-3 -17 -5.5 -34.5t-1.5 -34.5q0 -113 82 -169t259 -56q347 0 400 294zM482 806q0 -7 -5.5 -11t-12.5 -4q-13 0 -13 12q0 15 18 15q13 0 13 -12zM682 806
q0 -15 -18 -15q-13 0 -13 12q0 7 5.5 11t12.5 4q13 0 13 -12z" />
    <glyph glyph-name="Yacute" unicode="&#xdd;" 
d="M443 0l48 274l-366 395h13l359 -386l495 386h15l-506 -395l-49 -274h-9zM435 715l2 10l304 142l-2 -11z" />
    <glyph glyph-name="Thorn" unicode="&#xde;" horiz-adv-x="800" 
d="M235 119l9 10h273q64 0 119 15t95.5 43.5t63.5 70.5t23 97q0 40 -17 70t-47.5 50t-73.5 29.5t-95 9.5h-428l-91 -514h-9l118 669h10l-26 -146h428q54 0 98.5 -10t76 -30.5t48.5 -52t17 -73.5q0 -58 -23.5 -102.5t-65.5 -74.5t-99 -45.5t-124 -15.5h-280z" />
    <glyph glyph-name="germandbls" unicode="&#xdf;" horiz-adv-x="1688" 
d="M21 0l9 9h544q139 0 203.5 48t64.5 146q0 69 -52 98t-158 29h-267q-109 0 -164 31t-55 103q0 103 67.5 154t211.5 51h502l-9 -9h-494q-139 0 -203.5 -48t-64.5 -146q0 -69 52 -97.5t158 -28.5h267q111 0 165 -31.5t54 -103.5q0 -103 -67.5 -154t-210.5 -51h-553zM865 0
l9 9h544q139 0 203.5 48t64.5 146q0 69 -52 98t-158 29h-267q-109 0 -164 31t-55 103q0 103 67.5 154t211.5 51h502l-9 -9h-494q-139 0 -203.5 -48t-64.5 -146q0 -69 52 -97.5t158 -28.5h267q111 0 165 -31.5t54 -103.5q0 -103 -67.5 -154t-210.5 -51h-553z" />
    <glyph glyph-name="agrave" unicode="&#xe0;" horiz-adv-x="912" 
d="M231 0l9 9h648l-314 656l-552 -665h-12l557 669q4 6 9 6q3 0 8 -6l319 -669h-672zM438 856l2 11l255 -142l-2 -10z" />
    <glyph glyph-name="aacute" unicode="&#xe1;" horiz-adv-x="912" 
d="M231 0l9 9h648l-314 656l-552 -665h-12l557 669q4 6 9 6q3 0 8 -6l319 -669h-672zM470 715l2 10l304 142l-2 -11z" />
    <glyph glyph-name="acircumflex" unicode="&#xe2;" horiz-adv-x="912" 
d="M231 0l9 9h648l-314 656l-552 -665h-12l557 669q4 6 9 6q3 0 8 -6l319 -669h-672zM716 715l-109 144l-160 -144h-16l168 152h16l116 -152h-15z" />
    <glyph glyph-name="atilde" unicode="&#xe3;" horiz-adv-x="912" 
d="M231 0l9 9h648l-314 656l-552 -665h-12l557 669q4 6 9 6q3 0 8 -6l319 -669h-672zM737 803q-20 -32 -39.5 -44t-42.5 -12q-20 0 -35 12.5t-28.5 27t-27.5 27t-31 12.5q-20 0 -39.5 -12.5t-43.5 -54.5l4 21q20 32 39 44t42 12q19 0 34 -12.5t28.5 -27.5t27 -27.5
t31.5 -12.5q20 0 40 13t45 54z" />
    <glyph glyph-name="adieresis" unicode="&#xe4;" horiz-adv-x="912" 
d="M231 0l9 9h648l-314 656l-552 -665h-12l557 669q4 6 9 6q3 0 8 -6l319 -669h-672zM513 806q0 -7 -5.5 -11t-12.5 -4q-13 0 -13 12q0 15 18 15q13 0 13 -12zM713 806q0 -15 -18 -15q-13 0 -13 12q0 7 5.5 11t12.5 4q13 0 13 -12z" />
    <glyph glyph-name="aring" unicode="&#xe5;" horiz-adv-x="912" 
d="M231 0l9 9h648l-314 656l-552 -665h-12l557 669q4 6 9 6q3 0 8 -6l319 -669h-672zM550 715q-91 0 -91 64q0 5 0.5 9.5t1.5 9.5l11 63q8 42 36 63t82 21h63q91 0 91 -64q0 -5 -0.5 -10t-1.5 -10l-12 -63q-17 -83 -118 -83h-62zM732 861q1 5 1 9v7q0 59 -82 59h-63
q-94 0 -107 -75l-11 -63q-1 -5 -1.5 -9t-0.5 -8q0 -57 84 -57h62q93 0 107 74z" />
    <glyph glyph-name="ae" unicode="&#xe6;" horiz-adv-x="1323" 
d="M662 0l117 660h-170l-588 -660h-11l589 662q8 7 18 7h810l-9 -9h-630l-55 -314h613l-10 -9h-604l-58 -328h643l-9 -9h-646z" />
    <glyph glyph-name="ccedilla" unicode="&#xe7;" horiz-adv-x="789" 
d="M405 0q-71 0 -128.5 21t-98.5 58t-63.5 88.5t-22.5 112.5q0 85 35 156.5t94 123.5t137 80.5t164 28.5h377l-9 -9h-369q-84 0 -160 -28t-134 -78t-92 -119.5t-34 -152.5q0 -60 22 -110t61.5 -86t96 -56.5t125.5 -20.5h377l-9 -9h-369zM367 -255l77 224h13l-81 -224h-9z
" />
    <glyph glyph-name="egrave" unicode="&#xe8;" horiz-adv-x="716" 
d="M57 0l118 669h646l-9 -9h-629l-55 -314h612l-9 -9h-605l-58 -328h644l-10 -9h-645zM378 856l2 11l255 -142l-2 -10z" />
    <glyph glyph-name="eacute" unicode="&#xe9;" horiz-adv-x="716" 
d="M57 0l118 669h646l-9 -9h-629l-55 -314h612l-9 -9h-605l-58 -328h644l-10 -9h-645zM376 715l2 10l304 142l-2 -11z" />
    <glyph glyph-name="ecircumflex" unicode="&#xea;" horiz-adv-x="716" 
d="M57 0l118 669h646l-9 -9h-629l-55 -314h612l-9 -9h-605l-58 -328h644l-10 -9h-645zM630 715l-109 144l-160 -144h-16l168 152h16l116 -152h-15z" />
    <glyph glyph-name="edieresis" unicode="&#xeb;" horiz-adv-x="716" 
d="M57 0l118 669h646l-9 -9h-629l-55 -314h612l-9 -9h-605l-58 -328h644l-10 -9h-645zM436 806q0 -7 -5.5 -11t-12.5 -4q-13 0 -13 12q0 15 18 15q13 0 13 -12zM636 806q0 -15 -18 -15q-13 0 -13 12q0 7 5.5 11t12.5 4q13 0 13 -12z" />
    <glyph glyph-name="igrave" unicode="&#xec;" horiz-adv-x="129" 
d="M60 0l118 669h9l-118 -669h-9zM48 856l2 11l255 -142l-2 -10z" />
    <glyph glyph-name="iacute" unicode="&#xed;" horiz-adv-x="129" 
d="M60 0l118 669h9l-118 -669h-9zM80 715l2 10l304 142l-2 -11z" />
    <glyph glyph-name="icircumflex" unicode="&#xee;" horiz-adv-x="129" 
d="M60 0l118 669h9l-118 -669h-9zM326 715l-109 144l-160 -144h-16l168 152h16l116 -152h-15z" />
    <glyph glyph-name="idieresis" unicode="&#xef;" horiz-adv-x="129" 
d="M60 0l118 669h9l-118 -669h-9zM122 806q0 -7 -5.5 -11t-12.5 -4q-13 0 -13 12q0 15 18 15q13 0 13 -12zM322 806q0 -15 -18 -15q-13 0 -13 12q0 7 5.5 11t12.5 4q13 0 13 -12z" />
    <glyph glyph-name="eth" unicode="&#xf0;" horiz-adv-x="882" 
d="M115 0l59 337h-114l9 9h563l-9 -9h-439l-58 -328h375q80 0 152.5 30t127 81.5t87 121t32.5 149.5q0 59 -20.5 108.5t-57.5 85t-90 55.5t-117 20h-384l9 9h377q66 0 120 -20t92.5 -57t59 -88t20.5 -112q0 -82 -33 -153.5t-89.5 -124.5t-131 -83.5t-156.5 -30.5h-384z" />
    <glyph glyph-name="ntilde" unicode="&#xf1;" horiz-adv-x="799" 
d="M856 675h9l-117 -666q-2 -9 -10 -9q-5 0 -8 5l-549 659l-118 -664h-9l117 666q1 9 10 9q3 0 8 -5l549 -660zM689 803q-20 -32 -39.5 -44t-42.5 -12q-20 0 -35 12.5t-28.5 27t-27.5 27t-31 12.5q-20 0 -39.5 -12.5t-43.5 -54.5l4 21q20 32 39 44t42 12q19 0 34 -12.5
t28.5 -27.5t27 -27.5t31.5 -12.5q20 0 40 13t45 54z" />
    <glyph glyph-name="ograve" unicode="&#xf2;" 
d="M924 407q0 -209 -118 -313.5t-360 -104.5q-180 0 -268.5 66t-88.5 208q0 210 117.5 313.5t361.5 103.5q179 0 267.5 -65.5t88.5 -207.5zM914 405q0 138 -86.5 202t-261.5 64q-236 0 -352 -101t-116 -305q0 -138 87 -202.5t263 -64.5q236 0 351 102t115 305zM430 856l2 11
l255 -142l-2 -10z" />
    <glyph glyph-name="oacute" unicode="&#xf3;" 
d="M924 407q0 -209 -118 -313.5t-360 -104.5q-180 0 -268.5 66t-88.5 208q0 210 117.5 313.5t361.5 103.5q179 0 267.5 -65.5t88.5 -207.5zM914 405q0 138 -86.5 202t-261.5 64q-236 0 -352 -101t-116 -305q0 -138 87 -202.5t263 -64.5q236 0 351 102t115 305zM461 715l2 10
l304 142l-2 -11z" />
    <glyph glyph-name="ocircumflex" unicode="&#xf4;" 
d="M924 407q0 -209 -118 -313.5t-360 -104.5q-180 0 -268.5 66t-88.5 208q0 210 117.5 313.5t361.5 103.5q179 0 267.5 -65.5t88.5 -207.5zM914 405q0 138 -86.5 202t-261.5 64q-236 0 -352 -101t-116 -305q0 -138 87 -202.5t263 -64.5q236 0 351 102t115 305zM708 715
l-109 144l-160 -144h-16l168 152h16l116 -152h-15z" />
    <glyph glyph-name="otilde" unicode="&#xf5;" 
d="M924 407q0 -209 -118 -313.5t-360 -104.5q-180 0 -268.5 66t-88.5 208q0 210 117.5 313.5t361.5 103.5q179 0 267.5 -65.5t88.5 -207.5zM914 405q0 138 -86.5 202t-261.5 64q-236 0 -352 -101t-116 -305q0 -138 87 -202.5t263 -64.5q236 0 351 102t115 305zM728 803
q-20 -32 -39.5 -44t-42.5 -12q-20 0 -35 12.5t-28.5 27t-27.5 27t-31 12.5q-20 0 -39.5 -12.5t-43.5 -54.5l4 21q20 32 39 44t42 12q19 0 34 -12.5t28.5 -27.5t27 -27.5t31.5 -12.5q20 0 40 13t45 54z" />
    <glyph glyph-name="odieresis" unicode="&#xf6;" 
d="M924 407q0 -209 -118 -313.5t-360 -104.5q-180 0 -268.5 66t-88.5 208q0 210 117.5 313.5t361.5 103.5q179 0 267.5 -65.5t88.5 -207.5zM914 405q0 138 -86.5 202t-261.5 64q-236 0 -352 -101t-116 -305q0 -138 87 -202.5t263 -64.5q236 0 351 102t115 305zM504 806
q0 -7 -5.5 -11t-12.5 -4q-13 0 -13 12q0 15 18 15q13 0 13 -12zM704 806q0 -15 -18 -15q-13 0 -13 12q0 7 5.5 11t12.5 4q13 0 13 -12z" />
    <glyph glyph-name="divide" unicode="&#xf7;" horiz-adv-x="621" 
d="M97 337l1 9h546l-1 -9h-546zM421 543q0 -15 -18 -15q-13 0 -13 12q0 15 18 15q13 0 13 -12zM350 140q0 -15 -18 -15q-13 0 -13 12q0 15 18 15q13 0 13 -12z" />
    <glyph glyph-name="oslash" unicode="&#xf8;" 
d="M82 -42l100 90q-48 32 -70.5 87t-22.5 128q0 210 117.5 313.5t361.5 103.5q165 0 253 -53l97 89l7 -5l-98 -88q48 -32 72.5 -87.5t24.5 -128.5q0 -209 -118 -313.5t-360 -104.5q-169 0 -257 55l-100 -91zM198 51q87 -53 250 -53q236 0 351 101.5t115 304.5
q0 73 -23 126.5t-71 84.5zM811 620q-86 51 -245 51q-236 0 -352 -101t-116 -305q0 -146 92 -209z" />
    <glyph glyph-name="ugrave" unicode="&#xf9;" horiz-adv-x="851" 
d="M910 669h10l-67 -377q-54 -303 -412 -303q-180 0 -264 58t-84 174q0 17 1 34.5t5 36.5l68 377h9l-67 -377q-3 -17 -5.5 -34.5t-1.5 -34.5q0 -113 82 -169t259 -56q347 0 400 294zM408 856l2 11l255 -142l-2 -10z" />
    <glyph glyph-name="uacute" unicode="&#xfa;" horiz-adv-x="851" 
d="M910 669h10l-67 -377q-54 -303 -412 -303q-180 0 -264 58t-84 174q0 17 1 34.5t5 36.5l68 377h9l-67 -377q-3 -17 -5.5 -34.5t-1.5 -34.5q0 -113 82 -169t259 -56q347 0 400 294zM440 715l2 10l304 142l-2 -11z" />
    <glyph glyph-name="ucircumflex" unicode="&#xfb;" horiz-adv-x="851" 
d="M910 669h10l-67 -377q-54 -303 -412 -303q-180 0 -264 58t-84 174q0 17 1 34.5t5 36.5l68 377h9l-67 -377q-3 -17 -5.5 -34.5t-1.5 -34.5q0 -113 82 -169t259 -56q347 0 400 294zM686 715l-109 144l-160 -144h-16l168 152h16l116 -152h-15z" />
    <glyph glyph-name="udieresis" unicode="&#xfc;" horiz-adv-x="851" 
d="M910 669h10l-67 -377q-54 -303 -412 -303q-180 0 -264 58t-84 174q0 17 1 34.5t5 36.5l68 377h9l-67 -377q-3 -17 -5.5 -34.5t-1.5 -34.5q0 -113 82 -169t259 -56q347 0 400 294zM482 806q0 -7 -5.5 -11t-12.5 -4q-13 0 -13 12q0 15 18 15q13 0 13 -12zM682 806
q0 -15 -18 -15q-13 0 -13 12q0 7 5.5 11t12.5 4q13 0 13 -12z" />
    <glyph glyph-name="yacute" unicode="&#xfd;" 
d="M443 0l48 274l-366 395h13l359 -386l495 386h15l-506 -395l-49 -274h-9zM435 715l2 10l304 142l-2 -11z" />
    <glyph glyph-name="thorn" unicode="&#xfe;" horiz-adv-x="800" 
d="M235 119l9 10h273q64 0 119 15t95.5 43.5t63.5 70.5t23 97q0 40 -17 70t-47.5 50t-73.5 29.5t-95 9.5h-428l-91 -514h-9l118 669h10l-26 -146h428q54 0 98.5 -10t76 -30.5t48.5 -52t17 -73.5q0 -58 -23.5 -102.5t-65.5 -74.5t-99 -45.5t-124 -15.5h-280z" />
    <glyph glyph-name="ydieresis" unicode="&#xff;" 
d="M443 0l48 274l-366 395h13l359 -386l495 386h15l-506 -395l-49 -274h-9zM505 806q0 -7 -5.5 -11t-12.5 -4q-13 0 -13 12q0 15 18 15q13 0 13 -12zM705 806q0 -15 -18 -15q-13 0 -13 12q0 7 5.5 11t12.5 4q13 0 13 -12z" />
    <glyph glyph-name="Amacron" unicode="&#x100;" horiz-adv-x="912" 
d="M231 0l9 9h648l-314 656l-552 -665h-12l557 669q4 6 9 6q3 0 8 -6l319 -669h-672zM455 787l2 10h279l-2 -10h-279z" />
    <glyph glyph-name="amacron" unicode="&#x101;" horiz-adv-x="912" 
d="M231 0l9 9h648l-314 656l-552 -665h-12l557 669q4 6 9 6q3 0 8 -6l319 -669h-672zM455 787l2 10h279l-2 -10h-279z" />
    <glyph glyph-name="Abreve" unicode="&#x102;" horiz-adv-x="912" 
d="M231 0l9 9h648l-314 656l-552 -665h-12l557 669q4 6 9 6q3 0 8 -6l319 -669h-672zM562 715q-31 0 -49.5 14t-28.5 34t-13.5 43.5t-3.5 43.5v8.5t2 8.5h9q-1 -7 -1 -13.5v-14.5q0 -20 4.5 -40.5t14.5 -37t26.5 -27t41.5 -10.5h39q28 0 51 14t39.5 35t27.5 46t16 48h9
q-3 -20 -13.5 -46t-29 -49.5t-44 -40t-58.5 -16.5h-39z" />
    <glyph glyph-name="abreve" unicode="&#x103;" horiz-adv-x="912" 
d="M231 0l9 9h648l-314 656l-552 -665h-12l557 669q4 6 9 6q3 0 8 -6l319 -669h-672zM562 715q-31 0 -49.5 14t-28.5 34t-13.5 43.5t-3.5 43.5v8.5t2 8.5h9q-1 -7 -1 -13.5v-14.5q0 -20 4.5 -40.5t14.5 -37t26.5 -27t41.5 -10.5h39q28 0 51 14t39.5 35t27.5 46t16 48h9
q-3 -20 -13.5 -46t-29 -49.5t-44 -40t-58.5 -16.5h-39z" />
    <glyph glyph-name="Aogonek" unicode="&#x104;" horiz-adv-x="912" 
d="M683 -250q-23 0 -36 10t-13 24q0 11 7.5 23.5t23.5 24.5l223 168h-657l8 9h648l-313 656l-552 -665h-12l556 669q6 6 9 6q6 0 8 -6l320 -669l-233 -176q-14 -11 -20 -20t-6 -18q0 -11 10.5 -18.5t30.5 -7.5h175l-2 -10h-175z" />
    <glyph glyph-name="aogonek" unicode="&#x105;" horiz-adv-x="912" 
d="M683 -250q-23 0 -36 10t-13 24q0 11 7.5 23.5t23.5 24.5l223 168h-657l8 9h648l-313 656l-552 -665h-12l556 669q6 6 9 6q6 0 8 -6l320 -669l-233 -176q-14 -11 -20 -20t-6 -18q0 -11 10.5 -18.5t30.5 -7.5h175l-2 -10h-175z" />
    <glyph glyph-name="Cacute" unicode="&#x106;" horiz-adv-x="789" 
d="M405 0q-71 0 -128.5 22t-98 61t-63 92t-22.5 116q0 83 34 152.5t92.5 119.5t136.5 78t167 28h377l-9 -9h-370q-86 0 -162 -27.5t-133 -76t-90.5 -116t-33.5 -148.5q0 -60 22 -112t61.5 -90t96 -59.5t125.5 -21.5h377l-10 -9h-369zM478 715l2 10l304 142l-2 -11z" />
    <glyph glyph-name="cacute" unicode="&#x107;" horiz-adv-x="789" 
d="M405 0q-71 0 -128.5 22t-98 61t-63 92t-22.5 116q0 83 34 152.5t92.5 119.5t136.5 78t167 28h377l-9 -9h-370q-86 0 -162 -27.5t-133 -76t-90.5 -116t-33.5 -148.5q0 -60 22 -112t61.5 -90t96 -59.5t125.5 -21.5h377l-10 -9h-369zM478 715l2 10l304 142l-2 -11z" />
    <glyph glyph-name="Ccircumflex" unicode="&#x108;" horiz-adv-x="789" 
d="M405 0q-71 0 -128.5 22t-98 61t-63 92t-22.5 116q0 83 34 152.5t92.5 119.5t136.5 78t167 28h377l-9 -9h-370q-86 0 -162 -27.5t-133 -76t-90.5 -116t-33.5 -148.5q0 -60 22 -112t61.5 -90t96 -59.5t125.5 -21.5h377l-10 -9h-369zM745 715l-109 144l-160 -144h-16
l168 152h16l116 -152h-15z" />
    <glyph glyph-name="ccircumflex" unicode="&#x109;" horiz-adv-x="789" 
d="M405 0q-71 0 -128.5 22t-98 61t-63 92t-22.5 116q0 83 34 152.5t92.5 119.5t136.5 78t167 28h377l-9 -9h-370q-86 0 -162 -27.5t-133 -76t-90.5 -116t-33.5 -148.5q0 -60 22 -112t61.5 -90t96 -59.5t125.5 -21.5h377l-10 -9h-369zM745 715l-109 144l-160 -144h-16
l168 152h16l116 -152h-15z" />
    <glyph glyph-name="Cdotaccent" unicode="&#x10a;" horiz-adv-x="789" 
d="M405 0q-71 0 -128.5 22t-98 61t-63 92t-22.5 116q0 83 34 152.5t92.5 119.5t136.5 78t167 28h377l-9 -9h-370q-86 0 -162 -27.5t-133 -76t-90.5 -116t-33.5 -148.5q0 -60 22 -112t61.5 -90t96 -59.5t125.5 -21.5h377l-10 -9h-369zM656 806q0 -7 -5.5 -11t-12.5 -4
q-13 0 -13 12q0 15 18 15q13 0 13 -12z" />
    <glyph glyph-name="cdotaccent" unicode="&#x10b;" horiz-adv-x="789" 
d="M405 0q-71 0 -128.5 22t-98 61t-63 92t-22.5 116q0 83 34 152.5t92.5 119.5t136.5 78t167 28h377l-9 -9h-370q-86 0 -162 -27.5t-133 -76t-90.5 -116t-33.5 -148.5q0 -60 22 -112t61.5 -90t96 -59.5t125.5 -21.5h377l-10 -9h-369zM656 806q0 -7 -5.5 -11t-12.5 -4
q-13 0 -13 12q0 15 18 15q13 0 13 -12z" />
    <glyph glyph-name="Ccaron" unicode="&#x10c;" horiz-adv-x="789" 
d="M405 0q-71 0 -128.5 22t-98 61t-63 92t-22.5 116q0 83 34 152.5t92.5 119.5t136.5 78t167 28h377l-9 -9h-370q-86 0 -162 -27.5t-133 -76t-90.5 -116t-33.5 -148.5q0 -60 22 -112t61.5 -90t96 -59.5t125.5 -21.5h377l-10 -9h-369zM601 715l-115 152h14l109 -145l161 145
h16l-169 -152h-16z" />
    <glyph glyph-name="ccaron" unicode="&#x10d;" horiz-adv-x="789" 
d="M405 0q-71 0 -128.5 22t-98 61t-63 92t-22.5 116q0 83 34 152.5t92.5 119.5t136.5 78t167 28h377l-9 -9h-370q-86 0 -162 -27.5t-133 -76t-90.5 -116t-33.5 -148.5q0 -60 22 -112t61.5 -90t96 -59.5t125.5 -21.5h377l-10 -9h-369zM601 715l-115 152h14l109 -145l161 145
h16l-169 -152h-16z" />
    <glyph glyph-name="Dcaron" unicode="&#x10e;" horiz-adv-x="824" 
d="M57 0l74 417h9l-72 -408h375q80 0 152.5 30t127 81.5t87 121t32.5 149.5q0 59 -20 108.5t-57.5 85t-90 55.5t-117.5 20h-384l10 9h376q66 0 120.5 -20t92.5 -57t59 -88t21 -112q0 -82 -33 -153.5t-89.5 -124.5t-131 -83.5t-157.5 -30.5h-384zM465 715l-115 152h14
l109 -145l161 145h16l-169 -152h-16z" />
    <glyph glyph-name="dcaron" unicode="&#x10f;" horiz-adv-x="824" 
d="M57 0l74 417h9l-72 -408h375q80 0 152.5 30t127 81.5t87 121t32.5 149.5q0 59 -20 108.5t-57.5 85t-90 55.5t-117.5 20h-384l10 9h376q66 0 120.5 -20t92.5 -57t59 -88t21 -112q0 -82 -33 -153.5t-89.5 -124.5t-131 -83.5t-157.5 -30.5h-384zM465 715l-115 152h14
l109 -145l161 145h16l-169 -152h-16z" />
    <glyph glyph-name="Dcroat" unicode="&#x110;" horiz-adv-x="882" 
d="M115 0l59 337h-114l9 9h563l-9 -9h-439l-58 -328h375q80 0 152.5 30t127 81.5t87 121t32.5 149.5q0 59 -20.5 108.5t-57.5 85t-90 55.5t-117 20h-384l9 9h377q66 0 120 -20t92.5 -57t59 -88t20.5 -112q0 -82 -33 -153.5t-89.5 -124.5t-131 -83.5t-156.5 -30.5h-384z" />
    <glyph glyph-name="dcroat" unicode="&#x111;" horiz-adv-x="882" 
d="M115 0l59 337h-114l9 9h563l-9 -9h-439l-58 -328h375q80 0 152.5 30t127 81.5t87 121t32.5 149.5q0 59 -20.5 108.5t-57.5 85t-90 55.5t-117 20h-384l9 9h377q66 0 120 -20t92.5 -57t59 -88t20.5 -112q0 -82 -33 -153.5t-89.5 -124.5t-131 -83.5t-156.5 -30.5h-384z" />
    <glyph glyph-name="Emacron" unicode="&#x112;" horiz-adv-x="716" 
d="M57 0l118 669h646l-9 -9h-629l-55 -314h612l-9 -9h-605l-58 -328h644l-10 -9h-645zM378 787l2 10h279l-2 -10h-279z" />
    <glyph glyph-name="emacron" unicode="&#x113;" horiz-adv-x="716" 
d="M57 0l118 669h646l-9 -9h-629l-55 -314h612l-9 -9h-605l-58 -328h644l-10 -9h-645zM378 787l2 10h279l-2 -10h-279z" />
    <glyph glyph-name="Ebreve" unicode="&#x114;" horiz-adv-x="716" 
d="M57 0l118 669h646l-9 -9h-629l-55 -314h612l-9 -9h-605l-58 -328h644l-10 -9h-645zM477 715q-31 0 -49.5 14t-28.5 34t-13.5 43.5t-3.5 43.5v8.5t2 8.5h9q-1 -7 -1 -13.5v-14.5q0 -20 4.5 -40.5t14.5 -37t26.5 -27t41.5 -10.5h39q28 0 51 14t39.5 35t27.5 46t16 48h9
q-3 -20 -13.5 -46t-29 -49.5t-44 -40t-58.5 -16.5h-39z" />
    <glyph glyph-name="ebreve" unicode="&#x115;" horiz-adv-x="716" 
d="M57 0l118 669h646l-9 -9h-629l-55 -314h612l-9 -9h-605l-58 -328h644l-10 -9h-645zM477 715q-31 0 -49.5 14t-28.5 34t-13.5 43.5t-3.5 43.5v8.5t2 8.5h9q-1 -7 -1 -13.5v-14.5q0 -20 4.5 -40.5t14.5 -37t26.5 -27t41.5 -10.5h39q28 0 51 14t39.5 35t27.5 46t16 48h9
q-3 -20 -13.5 -46t-29 -49.5t-44 -40t-58.5 -16.5h-39z" />
    <glyph glyph-name="Edotaccent" unicode="&#x116;" horiz-adv-x="716" 
d="M57 0l118 669h646l-9 -9h-629l-55 -314h612l-9 -9h-605l-58 -328h644l-10 -9h-645zM541 806q0 -7 -5.5 -11t-12.5 -4q-13 0 -13 12q0 15 18 15q13 0 13 -12z" />
    <glyph glyph-name="edotaccent" unicode="&#x117;" horiz-adv-x="716" 
d="M57 0l118 669h646l-9 -9h-629l-55 -314h612l-9 -9h-605l-58 -328h644l-10 -9h-645zM541 806q0 -7 -5.5 -11t-12.5 -4q-13 0 -13 12q0 15 18 15q13 0 13 -12z" />
    <glyph glyph-name="Eogonek" unicode="&#x118;" horiz-adv-x="716" 
d="M481 -250q-23 0 -36 10t-13 24q0 12 7 23t24 25l222 168h-628l117 669h647l-10 -9h-629l-55 -314h612l-9 -9h-605l-58 -328h644l-243 -185q-27 -21 -27 -38q0 -11 11 -18.5t31 -7.5h177l-2 -10h-177z" />
    <glyph glyph-name="eogonek" unicode="&#x119;" horiz-adv-x="716" 
d="M481 -250q-23 0 -36 10t-13 24q0 12 7 23t24 25l222 168h-628l117 669h647l-10 -9h-629l-55 -314h612l-9 -9h-605l-58 -328h644l-243 -185q-27 -21 -27 -38q0 -11 11 -18.5t31 -7.5h177l-2 -10h-177z" />
    <glyph glyph-name="Ecaron" unicode="&#x11a;" horiz-adv-x="716" 
d="M57 0l118 669h646l-9 -9h-629l-55 -314h612l-9 -9h-605l-58 -328h644l-10 -9h-645zM499 715l-115 152h14l109 -145l161 145h16l-169 -152h-16z" />
    <glyph glyph-name="ecaron" unicode="&#x11b;" horiz-adv-x="716" 
d="M57 0l118 669h646l-9 -9h-629l-55 -314h612l-9 -9h-605l-58 -328h644l-10 -9h-645zM499 715l-115 152h14l109 -145l161 145h16l-169 -152h-16z" />
    <glyph glyph-name="Gcircumflex" unicode="&#x11c;" horiz-adv-x="820" 
d="M405 0q-71 0 -128.5 22t-98 61t-63 92t-22.5 116q0 83 34 152.5t92.5 119.5t136.5 78t167 28h382l-10 -9h-374q-86 0 -162 -27.5t-133 -76t-90.5 -116t-33.5 -148.5q0 -60 22 -112t61.5 -90t96 -59.5t125.5 -21.5h340l57 332h-434l9 9h437l-62 -350h-349zM733 715
l-109 144l-160 -144h-16l168 152h16l116 -152h-15z" />
    <glyph glyph-name="gcircumflex" unicode="&#x11d;" horiz-adv-x="820" 
d="M405 0q-71 0 -128.5 22t-98 61t-63 92t-22.5 116q0 83 34 152.5t92.5 119.5t136.5 78t167 28h382l-10 -9h-374q-86 0 -162 -27.5t-133 -76t-90.5 -116t-33.5 -148.5q0 -60 22 -112t61.5 -90t96 -59.5t125.5 -21.5h340l57 332h-434l9 9h437l-62 -350h-349zM733 715
l-109 144l-160 -144h-16l168 152h16l116 -152h-15z" />
    <glyph glyph-name="Gbreve" unicode="&#x11e;" horiz-adv-x="820" 
d="M405 0q-71 0 -128.5 22t-98 61t-63 92t-22.5 116q0 83 34 152.5t92.5 119.5t136.5 78t167 28h382l-10 -9h-374q-86 0 -162 -27.5t-133 -76t-90.5 -116t-33.5 -148.5q0 -60 22 -112t61.5 -90t96 -59.5t125.5 -21.5h340l57 332h-434l9 9h437l-62 -350h-349zM582 715
q-31 0 -49.5 14t-28.5 34t-13.5 43.5t-3.5 43.5v8.5t2 8.5h9q-1 -7 -1 -13.5v-14.5q0 -20 4.5 -40.5t14.5 -37t26.5 -27t41.5 -10.5h39q28 0 51 14t39.5 35t27.5 46t16 48h9q-3 -20 -13.5 -46t-29 -49.5t-44 -40t-58.5 -16.5h-39z" />
    <glyph glyph-name="gbreve" unicode="&#x11f;" horiz-adv-x="820" 
d="M405 0q-71 0 -128.5 22t-98 61t-63 92t-22.5 116q0 83 34 152.5t92.5 119.5t136.5 78t167 28h382l-10 -9h-374q-86 0 -162 -27.5t-133 -76t-90.5 -116t-33.5 -148.5q0 -60 22 -112t61.5 -90t96 -59.5t125.5 -21.5h340l57 332h-434l9 9h437l-62 -350h-349zM582 715
q-31 0 -49.5 14t-28.5 34t-13.5 43.5t-3.5 43.5v8.5t2 8.5h9q-1 -7 -1 -13.5v-14.5q0 -20 4.5 -40.5t14.5 -37t26.5 -27t41.5 -10.5h39q28 0 51 14t39.5 35t27.5 46t16 48h9q-3 -20 -13.5 -46t-29 -49.5t-44 -40t-58.5 -16.5h-39z" />
    <glyph glyph-name="Gdotaccent" unicode="&#x120;" horiz-adv-x="820" 
d="M405 0q-71 0 -128.5 22t-98 61t-63 92t-22.5 116q0 83 34 152.5t92.5 119.5t136.5 78t167 28h382l-10 -9h-374q-86 0 -162 -27.5t-133 -76t-90.5 -116t-33.5 -148.5q0 -60 22 -112t61.5 -90t96 -59.5t125.5 -21.5h340l57 332h-434l9 9h437l-62 -350h-349zM619 806
q0 -7 -5.5 -11t-12.5 -4q-13 0 -13 12q0 15 18 15q13 0 13 -12z" />
    <glyph glyph-name="gdotaccent" unicode="&#x121;" horiz-adv-x="820" 
d="M405 0q-71 0 -128.5 22t-98 61t-63 92t-22.5 116q0 83 34 152.5t92.5 119.5t136.5 78t167 28h382l-10 -9h-374q-86 0 -162 -27.5t-133 -76t-90.5 -116t-33.5 -148.5q0 -60 22 -112t61.5 -90t96 -59.5t125.5 -21.5h340l57 332h-434l9 9h437l-62 -350h-349zM619 806
q0 -7 -5.5 -11t-12.5 -4q-13 0 -13 12q0 15 18 15q13 0 13 -12z" />
    <glyph glyph-name="uni0122" unicode="&#x122;" horiz-adv-x="820" 
d="M405 0q-71 0 -128.5 22t-98 61t-63 92t-22.5 116q0 83 34 152.5t92.5 119.5t136.5 78t167 28h382l-10 -9h-374q-86 0 -162 -27.5t-133 -76t-90.5 -116t-33.5 -148.5q0 -60 22 -112t61.5 -90t96 -59.5t125.5 -21.5h340l57 332h-434l9 9h437l-62 -350h-349zM385 -255
l76 224h13l-80 -224h-9z" />
    <glyph glyph-name="uni0123" unicode="&#x123;" horiz-adv-x="820" 
d="M405 0q-71 0 -128.5 22t-98 61t-63 92t-22.5 116q0 83 34 152.5t92.5 119.5t136.5 78t167 28h382l-10 -9h-374q-86 0 -162 -27.5t-133 -76t-90.5 -116t-33.5 -148.5q0 -60 22 -112t61.5 -90t96 -59.5t125.5 -21.5h340l57 332h-434l9 9h437l-62 -350h-349zM385 -255
l76 224h13l-80 -224h-9z" />
    <glyph glyph-name="Hcircumflex" unicode="&#x124;" horiz-adv-x="763" 
d="M696 0l60 344h-629l-61 -344h-9l118 669h10l-56 -315h629l56 315h9l-118 -669h-9zM641 715l-109 144l-160 -144h-16l168 152h16l116 -152h-15z" />
    <glyph glyph-name="hcircumflex" unicode="&#x125;" horiz-adv-x="763" 
d="M696 0l60 344h-629l-61 -344h-9l118 669h10l-56 -315h629l56 315h9l-118 -669h-9zM641 715l-109 144l-160 -144h-16l168 152h16l116 -152h-15z" />
    <glyph glyph-name="Hbar" unicode="&#x126;" horiz-adv-x="763" 
d="M696 0l60 344h-629l-61 -344h-9l117 669h10l-21 -121h629l21 121h9l-117 -669h-9zM757 354l33 184h-629l-33 -184h629z" />
    <glyph glyph-name="hbar" unicode="&#x127;" horiz-adv-x="763" 
d="M696 0l60 344h-629l-61 -344h-9l117 669h10l-21 -121h629l21 121h9l-117 -669h-9zM757 354l33 184h-629l-33 -184h629z" />
    <glyph glyph-name="Itilde" unicode="&#x128;" horiz-adv-x="129" 
d="M60 0l118 669h9l-118 -669h-9zM347 803q-20 -32 -39.5 -44t-42.5 -12q-20 0 -35 12.5t-28.5 27t-27.5 27t-31 12.5q-20 0 -39.5 -12.5t-43.5 -54.5l4 21q20 32 39 44t42 12q19 0 34 -12.5t28.5 -27.5t27 -27.5t31.5 -12.5q20 0 40 13t45 54z" />
    <glyph glyph-name="itilde" unicode="&#x129;" horiz-adv-x="129" 
d="M60 0l118 669h9l-118 -669h-9zM347 803q-20 -32 -39.5 -44t-42.5 -12q-20 0 -35 12.5t-28.5 27t-27.5 27t-31 12.5q-20 0 -39.5 -12.5t-43.5 -54.5l4 21q20 32 39 44t42 12q19 0 34 -12.5t28.5 -27.5t27 -27.5t31.5 -12.5q20 0 40 13t45 54z" />
    <glyph glyph-name="Imacron" unicode="&#x12a;" horiz-adv-x="129" 
d="M60 0l118 669h9l-118 -669h-9zM65 787l2 10h279l-2 -10h-279z" />
    <glyph glyph-name="imacron" unicode="&#x12b;" horiz-adv-x="129" 
d="M60 0l118 669h9l-118 -669h-9zM65 787l2 10h279l-2 -10h-279z" />
    <glyph glyph-name="Ibreve" unicode="&#x12c;" horiz-adv-x="129" 
d="M60 0l118 669h9l-118 -669h-9zM173 715q-31 0 -49.5 14t-28.5 34t-13.5 43.5t-3.5 43.5v8.5t2 8.5h9q-1 -7 -1 -13.5v-14.5q0 -20 4.5 -40.5t14.5 -37t26.5 -27t41.5 -10.5h39q28 0 51 14t39.5 35t27.5 46t16 48h9q-3 -20 -13.5 -46t-29 -49.5t-44 -40t-58.5 -16.5h-39z
" />
    <glyph glyph-name="ibreve" unicode="&#x12d;" horiz-adv-x="129" 
d="M60 0l118 669h9l-118 -669h-9zM173 715q-31 0 -49.5 14t-28.5 34t-13.5 43.5t-3.5 43.5v8.5t2 8.5h9q-1 -7 -1 -13.5v-14.5q0 -20 4.5 -40.5t14.5 -37t26.5 -27t41.5 -10.5h39q28 0 51 14t39.5 35t27.5 46t16 48h9q-3 -20 -13.5 -46t-29 -49.5t-44 -40t-58.5 -16.5h-39z
" />
    <glyph glyph-name="Iogonek" unicode="&#x12e;" horiz-adv-x="129" 
d="M-150 -250q-23 0 -36 10t-13 24q0 12 7 23t24 25l228 173l117 664h9l-117 -669l-232 -176q-14 -11 -20 -20t-6 -18q0 -11 10.5 -18.5t30.5 -7.5h174l-1 -10h-175z" />
    <glyph glyph-name="iogonek" unicode="&#x12f;" horiz-adv-x="129" 
d="M-150 -250q-23 0 -36 10t-13 24q0 12 7 23t24 25l228 173l117 664h9l-117 -669l-232 -176q-14 -11 -20 -20t-6 -18q0 -11 10.5 -18.5t30.5 -7.5h174l-1 -10h-175z" />
    <glyph glyph-name="Idotaccent" unicode="&#x130;" horiz-adv-x="129" 
d="M60 0l118 669h9l-118 -669h-9zM222 806q0 -7 -5.5 -11t-12.5 -4q-13 0 -13 12q0 15 18 15q13 0 13 -12z" />
    <glyph glyph-name="dotlessi" unicode="&#x131;" horiz-adv-x="129" 
d="M60 0l118 669h9l-118 -669h-9z" />
    <glyph glyph-name="IJ" unicode="&#x132;" horiz-adv-x="720" 
d="M60 0l118 669h9l-118 -669h-9zM780 669h10l-65 -365q-54 -304 -423 -304h-163l10 9h155q360 0 412 295z" />
    <glyph glyph-name="ij" unicode="&#x133;" horiz-adv-x="720" 
d="M60 0l118 669h9l-118 -669h-9zM780 669h10l-65 -365q-54 -304 -423 -304h-163l10 9h155q360 0 412 295z" />
    <glyph glyph-name="Jcircumflex" unicode="&#x134;" horiz-adv-x="591" 
d="M651 669h10l-65 -365q-54 -304 -423 -304h-163l10 9h155q360 0 412 295zM652 715l-109 144l-160 -144h-16l168 152h16l116 -152h-15z" />
    <glyph glyph-name="jcircumflex" unicode="&#x135;" horiz-adv-x="591" 
d="M651 669h10l-65 -365q-54 -304 -423 -304h-163l10 9h155q360 0 412 295zM652 715l-109 144l-160 -144h-16l168 152h16l116 -152h-15z" />
    <glyph glyph-name="uni0136" unicode="&#x136;" horiz-adv-x="765" 
d="M739 0l-611 350l-62 -350h-9l118 669h10l-55 -307l693 307h19l-708 -313l625 -356h-20zM298 -255l76 224h13l-80 -224h-9z" />
    <glyph glyph-name="uni0137" unicode="&#x137;" horiz-adv-x="765" 
d="M739 0l-611 350l-62 -350h-9l118 669h10l-55 -307l693 307h19l-708 -313l625 -356h-20zM298 -255l76 224h13l-80 -224h-9z" />
    <glyph glyph-name="Lacute" unicode="&#x139;" horiz-adv-x="669" 
d="M57 0l118 669h10l-117 -660h598l-9 -9h-600zM188 715l2 10l304 142l-2 -11z" />
    <glyph glyph-name="lacute" unicode="&#x13a;" horiz-adv-x="669" 
d="M57 0l118 669h10l-117 -660h598l-9 -9h-600zM188 715l2 10l304 142l-2 -11z" />
    <glyph glyph-name="uni013B" unicode="&#x13b;" horiz-adv-x="669" 
d="M57 0l118 669h10l-117 -660h598l-9 -9h-600zM252 -255l76 224h13l-80 -224h-9z" />
    <glyph glyph-name="uni013C" unicode="&#x13c;" horiz-adv-x="669" 
d="M57 0l118 669h10l-117 -660h598l-9 -9h-600zM252 -255l76 224h13l-80 -224h-9z" />
    <glyph glyph-name="Lcaron" unicode="&#x13d;" horiz-adv-x="669" 
d="M57 0l118 669h10l-117 -660h598l-9 -9h-600zM282 401l87 268h16l-95 -268h-8z" />
    <glyph glyph-name="lcaron" unicode="&#x13e;" horiz-adv-x="669" 
d="M57 0l118 669h10l-117 -660h598l-9 -9h-600zM282 401l87 268h16l-95 -268h-8z" />
    <glyph glyph-name="Ldot" unicode="&#x13f;" horiz-adv-x="669" 
d="M57 0l118 669h10l-117 -660h598l-9 -9h-600zM307 304q0 -7 -5.5 -11t-12.5 -4q-13 0 -13 12q0 15 18 15q13 0 13 -12z" />
    <glyph glyph-name="ldot" unicode="&#x140;" horiz-adv-x="669" 
d="M57 0l118 669h10l-117 -660h598l-9 -9h-600zM307 304q0 -7 -5.5 -11t-12.5 -4q-13 0 -13 12q0 15 18 15q13 0 13 -12z" />
    <glyph glyph-name="Lslash" unicode="&#x141;" horiz-adv-x="669" 
d="M57 0l118 669h10l-53 -299h406l-9 -9h-399l-62 -352h598l-9 -9h-600z" />
    <glyph glyph-name="lslash" unicode="&#x142;" horiz-adv-x="669" 
d="M57 0l118 669h10l-53 -299h406l-9 -9h-399l-62 -352h598l-9 -9h-600z" />
    <glyph glyph-name="Nacute" unicode="&#x143;" horiz-adv-x="799" 
d="M856 675h9l-117 -666q-2 -9 -10 -9q-5 0 -8 5l-549 659l-118 -664h-9l117 666q1 9 10 9q3 0 8 -5l549 -660zM390 715l2 10l304 142l-2 -11z" />
    <glyph glyph-name="nacute" unicode="&#x144;" horiz-adv-x="799" 
d="M856 675h9l-117 -666q-2 -9 -10 -9q-5 0 -8 5l-549 659l-118 -664h-9l117 666q1 9 10 9q3 0 8 -5l549 -660zM390 715l2 10l304 142l-2 -11z" />
    <glyph glyph-name="uni0145" unicode="&#x145;" horiz-adv-x="799" 
d="M856 675h9l-117 -666q-2 -9 -10 -9q-5 0 -8 5l-549 659l-118 -664h-9l117 666q1 9 10 9q3 0 8 -5l549 -660zM310 -255l76 224h13l-80 -224h-9z" />
    <glyph glyph-name="uni0146" unicode="&#x146;" horiz-adv-x="799" 
d="M856 675h9l-117 -666q-2 -9 -10 -9q-5 0 -8 5l-549 659l-118 -664h-9l117 666q1 9 10 9q3 0 8 -5l549 -660zM310 -255l76 224h13l-80 -224h-9z" />
    <glyph glyph-name="Ncaron" unicode="&#x147;" horiz-adv-x="799" 
d="M856 675h9l-117 -666q-2 -9 -10 -9q-5 0 -8 5l-549 659l-118 -664h-9l117 666q1 9 10 9q3 0 8 -5l549 -660zM513 715l-115 152h14l109 -145l161 145h16l-169 -152h-16z" />
    <glyph glyph-name="ncaron" unicode="&#x148;" horiz-adv-x="799" 
d="M856 675h9l-117 -666q-2 -9 -10 -9q-5 0 -8 5l-549 659l-118 -664h-9l117 666q1 9 10 9q3 0 8 -5l549 -660zM513 715l-115 152h14l109 -145l161 145h16l-169 -152h-16z" />
    <glyph glyph-name="Eng" unicode="&#x14a;" horiz-adv-x="799" 
d="M854 669h9l-116 -660q-14 -77 -47 -127.5t-84.5 -81t-123.5 -43t-164 -12.5h-72l9 10h65q88 0 157.5 11.5t119.5 39t82 74t46 117.5l-555 667l-117 -664h-9l117 666q1 9 9 9q5 0 8 -5l549 -660z" />
    <glyph glyph-name="eng" unicode="&#x14b;" horiz-adv-x="799" 
d="M854 669h9l-116 -660q-14 -77 -47 -127.5t-84.5 -81t-123.5 -43t-164 -12.5h-72l9 10h65q88 0 157.5 11.5t119.5 39t82 74t46 117.5l-555 667l-117 -664h-9l117 666q1 9 9 9q5 0 8 -5l549 -660z" />
    <glyph glyph-name="Omacron" unicode="&#x14c;" 
d="M924 407q0 -209 -118 -313.5t-360 -104.5q-180 0 -268.5 66t-88.5 208q0 210 117.5 313.5t361.5 103.5q179 0 267.5 -65.5t88.5 -207.5zM914 405q0 138 -86.5 202t-261.5 64q-236 0 -352 -101t-116 -305q0 -138 87 -202.5t263 -64.5q236 0 351 102t115 305zM446 787l2 10
h279l-2 -10h-279z" />
    <glyph glyph-name="omacron" unicode="&#x14d;" 
d="M924 407q0 -209 -118 -313.5t-360 -104.5q-180 0 -268.5 66t-88.5 208q0 210 117.5 313.5t361.5 103.5q179 0 267.5 -65.5t88.5 -207.5zM914 405q0 138 -86.5 202t-261.5 64q-236 0 -352 -101t-116 -305q0 -138 87 -202.5t263 -64.5q236 0 351 102t115 305zM446 787l2 10
h279l-2 -10h-279z" />
    <glyph glyph-name="Obreve" unicode="&#x14e;" 
d="M924 407q0 -209 -118 -313.5t-360 -104.5q-180 0 -268.5 66t-88.5 208q0 210 117.5 313.5t361.5 103.5q179 0 267.5 -65.5t88.5 -207.5zM914 405q0 138 -86.5 202t-261.5 64q-236 0 -352 -101t-116 -305q0 -138 87 -202.5t263 -64.5q236 0 351 102t115 305zM554 715
q-31 0 -49.5 14t-28.5 34t-13.5 43.5t-3.5 43.5v8.5t2 8.5h9q-1 -7 -1 -13.5v-14.5q0 -20 4.5 -40.5t14.5 -37t26.5 -27t41.5 -10.5h39q28 0 51 14t39.5 35t27.5 46t16 48h9q-3 -20 -13.5 -46t-29 -49.5t-44 -40t-58.5 -16.5h-39z" />
    <glyph glyph-name="obreve" unicode="&#x14f;" 
d="M924 407q0 -209 -118 -313.5t-360 -104.5q-180 0 -268.5 66t-88.5 208q0 210 117.5 313.5t361.5 103.5q179 0 267.5 -65.5t88.5 -207.5zM914 405q0 138 -86.5 202t-261.5 64q-236 0 -352 -101t-116 -305q0 -138 87 -202.5t263 -64.5q236 0 351 102t115 305zM554 715
q-31 0 -49.5 14t-28.5 34t-13.5 43.5t-3.5 43.5v8.5t2 8.5h9q-1 -7 -1 -13.5v-14.5q0 -20 4.5 -40.5t14.5 -37t26.5 -27t41.5 -10.5h39q28 0 51 14t39.5 35t27.5 46t16 48h9q-3 -20 -13.5 -46t-29 -49.5t-44 -40t-58.5 -16.5h-39z" />
    <glyph glyph-name="Ohungarumlaut" unicode="&#x150;" 
d="M924 407q0 -209 -118 -313.5t-360 -104.5q-180 0 -268.5 66t-88.5 208q0 210 117.5 313.5t361.5 103.5q179 0 267.5 -65.5t88.5 -207.5zM914 405q0 138 -86.5 202t-261.5 64q-236 0 -352 -101t-116 -305q0 -138 87 -202.5t263 -64.5q236 0 351 102t115 305zM632 725
l100 142h9l-99 -142h-10zM475 725l100 142h9l-99 -142h-10z" />
    <glyph glyph-name="ohungarumlaut" unicode="&#x151;" 
d="M924 407q0 -209 -118 -313.5t-360 -104.5q-180 0 -268.5 66t-88.5 208q0 210 117.5 313.5t361.5 103.5q179 0 267.5 -65.5t88.5 -207.5zM914 405q0 138 -86.5 202t-261.5 64q-236 0 -352 -101t-116 -305q0 -138 87 -202.5t263 -64.5q236 0 351 102t115 305zM632 725
l100 142h9l-99 -142h-10zM475 725l100 142h9l-99 -142h-10z" />
    <glyph glyph-name="OE" unicode="&#x152;" horiz-adv-x="1358" 
d="M727 0q-16 -3 -55 -5t-83 -3.5t-84 -2t-59 -0.5q-180 0 -268.5 66t-88.5 208q0 210 117.5 313.5t361.5 103.5q18 0 58 -0.5t83.5 -2t82 -3.5t53.5 -5h618l-9 -9h-601l-55 -314h584l-10 -9h-576l-58 -328h615l-9 -9h-617zM843 660q-15 2 -53 4t-81.5 3.5t-83.5 2.5t-59 1
q-236 0 -352 -101t-116 -305q0 -138 87 -202.5t263 -64.5q19 0 59 0.5t84 2t82.5 3.5t55.5 5z" />
    <glyph glyph-name="oe" unicode="&#x153;" horiz-adv-x="1358" 
d="M727 0q-16 -3 -55 -5t-83 -3.5t-84 -2t-59 -0.5q-180 0 -268.5 66t-88.5 208q0 210 117.5 313.5t361.5 103.5q18 0 58 -0.5t83.5 -2t82 -3.5t53.5 -5h618l-9 -9h-601l-55 -314h584l-10 -9h-576l-58 -328h615l-9 -9h-617zM843 660q-15 2 -53 4t-81.5 3.5t-83.5 2.5t-59 1
q-236 0 -352 -101t-116 -305q0 -138 87 -202.5t263 -64.5q19 0 59 0.5t84 2t82.5 3.5t55.5 5z" />
    <glyph glyph-name="Racute" unicode="&#x154;" horiz-adv-x="874" 
d="M848 0l-283 265h-450l-47 -265h-9l48 274h475q64 0 119 13t95.5 40t63 68t22.5 97q0 41 -16.5 72.5t-47 52.5t-73.5 32t-95 11h-479l10 9h471q54 0 98 -11t75.5 -33t48.5 -55t17 -76q0 -59 -23.5 -102t-64.5 -71t-98.5 -42t-124.5 -14l284 -265h-16zM381 715l2 10
l304 142l-2 -11z" />
    <glyph glyph-name="racute" unicode="&#x155;" horiz-adv-x="874" 
d="M848 0l-283 265h-450l-47 -265h-9l48 274h475q64 0 119 13t95.5 40t63 68t22.5 97q0 41 -16.5 72.5t-47 52.5t-73.5 32t-95 11h-479l10 9h471q54 0 98 -11t75.5 -33t48.5 -55t17 -76q0 -59 -23.5 -102t-64.5 -71t-98.5 -42t-124.5 -14l284 -265h-16zM381 715l2 10
l304 142l-2 -11z" />
    <glyph glyph-name="uni0156" unicode="&#x156;" horiz-adv-x="874" 
d="M848 0l-283 265h-450l-47 -265h-9l48 274h475q64 0 119 13t95.5 40t63 68t22.5 97q0 41 -16.5 72.5t-47 52.5t-73.5 32t-95 11h-479l10 9h471q54 0 98 -11t75.5 -33t48.5 -55t17 -76q0 -59 -23.5 -102t-64.5 -71t-98.5 -42t-124.5 -14l284 -265h-16zM324 -255l76 224h13
l-80 -224h-9z" />
    <glyph glyph-name="uni0157" unicode="&#x157;" horiz-adv-x="874" 
d="M848 0l-283 265h-450l-47 -265h-9l48 274h475q64 0 119 13t95.5 40t63 68t22.5 97q0 41 -16.5 72.5t-47 52.5t-73.5 32t-95 11h-479l10 9h471q54 0 98 -11t75.5 -33t48.5 -55t17 -76q0 -59 -23.5 -102t-64.5 -71t-98.5 -42t-124.5 -14l284 -265h-16zM324 -255l76 224h13
l-80 -224h-9z" />
    <glyph glyph-name="Rcaron" unicode="&#x158;" horiz-adv-x="874" 
d="M848 0l-283 265h-450l-47 -265h-9l48 274h475q64 0 119 13t95.5 40t63 68t22.5 97q0 41 -16.5 72.5t-47 52.5t-73.5 32t-95 11h-479l10 9h471q54 0 98 -11t75.5 -33t48.5 -55t17 -76q0 -59 -23.5 -102t-64.5 -71t-98.5 -42t-124.5 -14l284 -265h-16zM486 715l-115 152h14
l109 -145l161 145h16l-169 -152h-16z" />
    <glyph glyph-name="rcaron" unicode="&#x159;" horiz-adv-x="874" 
d="M848 0l-283 265h-450l-47 -265h-9l48 274h475q64 0 119 13t95.5 40t63 68t22.5 97q0 41 -16.5 72.5t-47 52.5t-73.5 32t-95 11h-479l10 9h471q54 0 98 -11t75.5 -33t48.5 -55t17 -76q0 -59 -23.5 -102t-64.5 -71t-98.5 -42t-124.5 -14l284 -265h-16zM486 715l-115 152h14
l109 -145l161 145h16l-169 -152h-16z" />
    <glyph glyph-name="Sacute" unicode="&#x15a;" horiz-adv-x="844" 
d="M21 0l9 9h544q139 0 203.5 48t64.5 146q0 69 -52 98t-158 29h-267q-109 0 -164 31t-55 103q0 103 67.5 154t211.5 51h502l-9 -9h-494q-139 0 -203.5 -48t-64.5 -146q0 -69 52 -97.5t158 -28.5h267q111 0 165 -31.5t54 -103.5q0 -103 -67.5 -154t-210.5 -51h-553zM424 715
l2 10l304 142l-2 -11z" />
    <glyph glyph-name="sacute" unicode="&#x15b;" horiz-adv-x="844" 
d="M21 0l9 9h544q139 0 203.5 48t64.5 146q0 69 -52 98t-158 29h-267q-109 0 -164 31t-55 103q0 103 67.5 154t211.5 51h502l-9 -9h-494q-139 0 -203.5 -48t-64.5 -146q0 -69 52 -97.5t158 -28.5h267q111 0 165 -31.5t54 -103.5q0 -103 -67.5 -154t-210.5 -51h-553zM424 715
l2 10l304 142l-2 -11z" />
    <glyph glyph-name="Scircumflex" unicode="&#x15c;" horiz-adv-x="844" 
d="M21 0l9 9h544q139 0 203.5 48t64.5 146q0 69 -52 98t-158 29h-267q-109 0 -164 31t-55 103q0 103 67.5 154t211.5 51h502l-9 -9h-494q-139 0 -203.5 -48t-64.5 -146q0 -69 52 -97.5t158 -28.5h267q111 0 165 -31.5t54 -103.5q0 -103 -67.5 -154t-210.5 -51h-553zM703 715
l-109 144l-160 -144h-16l168 152h16l116 -152h-15z" />
    <glyph glyph-name="scircumflex" unicode="&#x15d;" horiz-adv-x="844" 
d="M21 0l9 9h544q139 0 203.5 48t64.5 146q0 69 -52 98t-158 29h-267q-109 0 -164 31t-55 103q0 103 67.5 154t211.5 51h502l-9 -9h-494q-139 0 -203.5 -48t-64.5 -146q0 -69 52 -97.5t158 -28.5h267q111 0 165 -31.5t54 -103.5q0 -103 -67.5 -154t-210.5 -51h-553zM703 715
l-109 144l-160 -144h-16l168 152h16l116 -152h-15z" />
    <glyph glyph-name="Scedilla" unicode="&#x15e;" horiz-adv-x="844" 
d="M21 0l8 9h545q127 0 197 48t70 153q0 66 -52 93t-158 27h-267q-109 0 -163.5 29t-54.5 98q0 109 72.5 160.5t205.5 51.5h502l-9 -9h-494q-128 0 -198 -48.5t-70 -153.5q0 -66 52.5 -92t158.5 -26h267q109 0 164 -30t55 -99q0 -109 -73 -160t-205 -51h-553zM333 -255
l77 224h13l-81 -224h-9z" />
    <glyph glyph-name="scedilla" unicode="&#x15f;" horiz-adv-x="844" 
d="M21 0l8 9h545q127 0 197 48t70 153q0 66 -52 93t-158 27h-267q-109 0 -163.5 29t-54.5 98q0 109 72.5 160.5t205.5 51.5h502l-9 -9h-494q-128 0 -198 -48.5t-70 -153.5q0 -66 52.5 -92t158.5 -26h267q109 0 164 -30t55 -99q0 -109 -73 -160t-205 -51h-553zM333 -255
l77 224h13l-81 -224h-9z" />
    <glyph glyph-name="Scaron" unicode="&#x160;" horiz-adv-x="844" 
d="M21 0l9 9h544q139 0 203.5 48t64.5 146q0 69 -52 98t-158 29h-267q-109 0 -164 31t-55 103q0 103 67.5 154t211.5 51h502l-9 -9h-494q-139 0 -203.5 -48t-64.5 -146q0 -69 52 -97.5t158 -28.5h267q111 0 165 -31.5t54 -103.5q0 -103 -67.5 -154t-210.5 -51h-553zM573 715
l-115 152h14l109 -145l161 145h16l-169 -152h-16z" />
    <glyph glyph-name="scaron" unicode="&#x161;" horiz-adv-x="844" 
d="M21 0l9 9h544q139 0 203.5 48t64.5 146q0 69 -52 98t-158 29h-267q-109 0 -164 31t-55 103q0 103 67.5 154t211.5 51h502l-9 -9h-494q-139 0 -203.5 -48t-64.5 -146q0 -69 52 -97.5t158 -28.5h267q111 0 165 -31.5t54 -103.5q0 -103 -67.5 -154t-210.5 -51h-553zM573 715
l-115 152h14l109 -145l161 145h16l-169 -152h-16z" />
    <glyph glyph-name="uni0162" unicode="&#x162;" horiz-adv-x="800" 
d="M397 0l116 660h-397l14 9h788l-9 -9h-387l-116 -660h-9zM313 -255l76 224h13l-80 -224h-9z" />
    <glyph glyph-name="uni0163" unicode="&#x163;" horiz-adv-x="800" 
d="M397 0l116 660h-397l14 9h788l-9 -9h-387l-116 -660h-9zM313 -255l76 224h13l-80 -224h-9z" />
    <glyph glyph-name="Tcaron" unicode="&#x164;" horiz-adv-x="800" 
d="M397 0l116 660h-397l14 9h788l-9 -9h-387l-116 -660h-9zM519 715l-115 152h14l109 -145l161 145h16l-169 -152h-16z" />
    <glyph glyph-name="tcaron" unicode="&#x165;" horiz-adv-x="800" 
d="M397 0l116 660h-397l14 9h788l-9 -9h-387l-116 -660h-9zM519 715l-115 152h14l109 -145l161 145h16l-169 -152h-16z" />
    <glyph glyph-name="Tbar" unicode="&#x166;" horiz-adv-x="800" 
d="M397 0l115 660h-397l14 9h788l-9 -9h-387l-115 -660h-9zM291 333l9 10h325l-9 -10h-325z" />
    <glyph glyph-name="tbar" unicode="&#x167;" horiz-adv-x="800" 
d="M397 0l115 660h-397l14 9h788l-9 -9h-387l-115 -660h-9zM291 333l9 10h325l-9 -10h-325z" />
    <glyph glyph-name="Utilde" unicode="&#x168;" horiz-adv-x="851" 
d="M910 669h10l-67 -377q-54 -303 -412 -303q-180 0 -264 58t-84 174q0 17 1 34.5t5 36.5l68 377h9l-67 -377q-3 -17 -5.5 -34.5t-1.5 -34.5q0 -113 82 -169t259 -56q347 0 400 294zM706 803q-20 -32 -39.5 -44t-42.5 -12q-20 0 -35 12.5t-28.5 27t-27.5 27t-31 12.5
q-20 0 -39.5 -12.5t-43.5 -54.5l4 21q20 32 39 44t42 12q19 0 34 -12.5t28.5 -27.5t27 -27.5t31.5 -12.5q20 0 40 13t45 54z" />
    <glyph glyph-name="utilde" unicode="&#x169;" horiz-adv-x="851" 
d="M910 669h10l-67 -377q-54 -303 -412 -303q-180 0 -264 58t-84 174q0 17 1 34.5t5 36.5l68 377h9l-67 -377q-3 -17 -5.5 -34.5t-1.5 -34.5q0 -113 82 -169t259 -56q347 0 400 294zM706 803q-20 -32 -39.5 -44t-42.5 -12q-20 0 -35 12.5t-28.5 27t-27.5 27t-31 12.5
q-20 0 -39.5 -12.5t-43.5 -54.5l4 21q20 32 39 44t42 12q19 0 34 -12.5t28.5 -27.5t27 -27.5t31.5 -12.5q20 0 40 13t45 54z" />
    <glyph glyph-name="Umacron" unicode="&#x16a;" horiz-adv-x="851" 
d="M910 669h10l-67 -377q-54 -303 -412 -303q-180 0 -264 58t-84 174q0 17 1 34.5t5 36.5l68 377h9l-67 -377q-3 -17 -5.5 -34.5t-1.5 -34.5q0 -113 82 -169t259 -56q347 0 400 294zM424 787l2 10h279l-2 -10h-279z" />
    <glyph glyph-name="umacron" unicode="&#x16b;" horiz-adv-x="851" 
d="M910 669h10l-67 -377q-54 -303 -412 -303q-180 0 -264 58t-84 174q0 17 1 34.5t5 36.5l68 377h9l-67 -377q-3 -17 -5.5 -34.5t-1.5 -34.5q0 -113 82 -169t259 -56q347 0 400 294zM424 787l2 10h279l-2 -10h-279z" />
    <glyph glyph-name="Ubreve" unicode="&#x16c;" horiz-adv-x="851" 
d="M910 669h10l-67 -377q-54 -303 -412 -303q-180 0 -264 58t-84 174q0 17 1 34.5t5 36.5l68 377h9l-67 -377q-3 -17 -5.5 -34.5t-1.5 -34.5q0 -113 82 -169t259 -56q347 0 400 294zM532 715q-31 0 -49.5 14t-28.5 34t-13.5 43.5t-3.5 43.5v8.5t2 8.5h9q-1 -7 -1 -13.5
v-14.5q0 -20 4.5 -40.5t14.5 -37t26.5 -27t41.5 -10.5h39q28 0 51 14t39.5 35t27.5 46t16 48h9q-3 -20 -13.5 -46t-29 -49.5t-44 -40t-58.5 -16.5h-39z" />
    <glyph glyph-name="ubreve" unicode="&#x16d;" horiz-adv-x="851" 
d="M910 669h10l-67 -377q-54 -303 -412 -303q-180 0 -264 58t-84 174q0 17 1 34.5t5 36.5l68 377h9l-67 -377q-3 -17 -5.5 -34.5t-1.5 -34.5q0 -113 82 -169t259 -56q347 0 400 294zM532 715q-31 0 -49.5 14t-28.5 34t-13.5 43.5t-3.5 43.5v8.5t2 8.5h9q-1 -7 -1 -13.5
v-14.5q0 -20 4.5 -40.5t14.5 -37t26.5 -27t41.5 -10.5h39q28 0 51 14t39.5 35t27.5 46t16 48h9q-3 -20 -13.5 -46t-29 -49.5t-44 -40t-58.5 -16.5h-39z" />
    <glyph glyph-name="Uring" unicode="&#x16e;" horiz-adv-x="851" 
d="M910 669h10l-67 -377q-54 -303 -412 -303q-180 0 -264 58t-84 174q0 17 1 34.5t5 36.5l68 377h9l-67 -377q-3 -17 -5.5 -34.5t-1.5 -34.5q0 -113 82 -169t259 -56q347 0 400 294zM520 715q-91 0 -91 64q0 5 0.5 9.5t1.5 9.5l11 63q8 42 36 63t82 21h63q91 0 91 -64
q0 -5 -0.5 -10t-1.5 -10l-12 -63q-17 -83 -118 -83h-62zM702 861q1 5 1 9v7q0 59 -82 59h-63q-94 0 -107 -75l-11 -63q-1 -5 -1.5 -9t-0.5 -8q0 -57 84 -57h62q93 0 107 74z" />
    <glyph glyph-name="uring" unicode="&#x16f;" horiz-adv-x="851" 
d="M910 669h10l-67 -377q-54 -303 -412 -303q-180 0 -264 58t-84 174q0 17 1 34.5t5 36.5l68 377h9l-67 -377q-3 -17 -5.5 -34.5t-1.5 -34.5q0 -113 82 -169t259 -56q347 0 400 294zM520 715q-91 0 -91 64q0 5 0.5 9.5t1.5 9.5l11 63q8 42 36 63t82 21h63q91 0 91 -64
q0 -5 -0.5 -10t-1.5 -10l-12 -63q-17 -83 -118 -83h-62zM702 861q1 5 1 9v7q0 59 -82 59h-63q-94 0 -107 -75l-11 -63q-1 -5 -1.5 -9t-0.5 -8q0 -57 84 -57h62q93 0 107 74z" />
    <glyph glyph-name="Uhungarumlaut" unicode="&#x170;" horiz-adv-x="851" 
d="M910 669h10l-67 -377q-54 -303 -412 -303q-180 0 -264 58t-84 174q0 17 1 34.5t5 36.5l68 377h9l-67 -377q-3 -17 -5.5 -34.5t-1.5 -34.5q0 -113 82 -169t259 -56q347 0 400 294zM602 725l100 142h9l-99 -142h-10zM445 725l100 142h9l-99 -142h-10z" />
    <glyph glyph-name="uhungarumlaut" unicode="&#x171;" horiz-adv-x="851" 
d="M910 669h10l-67 -377q-54 -303 -412 -303q-180 0 -264 58t-84 174q0 17 1 34.5t5 36.5l68 377h9l-67 -377q-3 -17 -5.5 -34.5t-1.5 -34.5q0 -113 82 -169t259 -56q347 0 400 294zM602 725l100 142h9l-99 -142h-10zM445 725l100 142h9l-99 -142h-10z" />
    <glyph glyph-name="Uogonek" unicode="&#x172;" horiz-adv-x="851" 
d="M344 -250q-24 0 -37 10t-13 24q0 12 7.5 23t24.5 25l215 163q-47 -6 -101 -6q-180 0 -264 57.5t-84 173.5q0 34 7 72l67 377h9l-66 -377q-4 -17 -5.5 -35t-1.5 -36q0 -112 81.5 -167.5t258.5 -55.5q174 0 274.5 73t126.5 221l66 377h10l-66 -377q-44 -248 -292 -293
l-231 -175q-14 -11 -20 -20t-6 -18q0 -11 10.5 -18.5t30.5 -7.5h176l-2 -10h-175z" />
    <glyph glyph-name="uogonek" unicode="&#x173;" horiz-adv-x="851" 
d="M344 -250q-24 0 -37 10t-13 24q0 12 7.5 23t24.5 25l215 163q-47 -6 -101 -6q-180 0 -264 57.5t-84 173.5q0 34 7 72l67 377h9l-66 -377q-4 -17 -5.5 -35t-1.5 -36q0 -112 81.5 -167.5t258.5 -55.5q174 0 274.5 73t126.5 221l66 377h10l-66 -377q-44 -248 -292 -293
l-231 -175q-14 -11 -20 -20t-6 -18q0 -11 10.5 -18.5t30.5 -7.5h176l-2 -10h-175z" />
    <glyph glyph-name="Wcircumflex" unicode="&#x174;" horiz-adv-x="1122" 
d="M1217 669h9l-384 -667q-5 -8 -10 -8q-7 0 -9 8l-145 663l-381 -663q-5 -8 -10 -8q-7 0 -9 8l-147 667h9l149 -665l379 663q2 5 5.5 6.5t5.5 1.5q6 0 8 -8l147 -663zM821 715l-109 144l-160 -144h-16l168 152h16l116 -152h-15z" />
    <glyph glyph-name="wcircumflex" unicode="&#x175;" horiz-adv-x="1122" 
d="M1217 669h9l-384 -667q-5 -8 -10 -8q-7 0 -9 8l-145 663l-381 -663q-5 -8 -10 -8q-7 0 -9 8l-147 667h9l149 -665l379 663q2 5 5.5 6.5t5.5 1.5q6 0 8 -8l147 -663zM821 715l-109 144l-160 -144h-16l168 152h16l116 -152h-15z" />
    <glyph glyph-name="Ycircumflex" unicode="&#x176;" 
d="M443 0l48 274l-366 395h13l359 -386l495 386h15l-506 -395l-49 -274h-9zM709 715l-109 144l-160 -144h-16l168 152h16l116 -152h-15z" />
    <glyph glyph-name="ycircumflex" unicode="&#x177;" 
d="M443 0l48 274l-366 395h13l359 -386l495 386h15l-506 -395l-49 -274h-9zM709 715l-109 144l-160 -144h-16l168 152h16l116 -152h-15z" />
    <glyph glyph-name="Ydieresis" unicode="&#x178;" 
d="M443 0l48 274l-366 395h13l359 -386l495 386h15l-506 -395l-49 -274h-9zM505 806q0 -7 -5.5 -11t-12.5 -4q-13 0 -13 12q0 15 18 15q13 0 13 -12zM705 806q0 -15 -18 -15q-13 0 -13 12q0 7 5.5 11t12.5 4q13 0 13 -12z" />
    <glyph glyph-name="Zacute" unicode="&#x179;" horiz-adv-x="817" 
d="M27 0q-8 0 -8 8q0 7 5 10l865 642h-762l9 9h755q8 0 8 -7q0 -8 -6 -11l-864 -642h782l-9 -9h-775zM423 715l2 10l304 142l-2 -11z" />
    <glyph glyph-name="zacute" unicode="&#x17a;" horiz-adv-x="817" 
d="M27 0q-8 0 -8 8q0 7 5 10l865 642h-762l9 9h755q8 0 8 -7q0 -8 -6 -11l-864 -642h782l-9 -9h-775zM423 715l2 10l304 142l-2 -11z" />
    <glyph glyph-name="Zdotaccent" unicode="&#x17b;" horiz-adv-x="817" 
d="M27 0q-8 0 -8 8q0 7 5 10l865 642h-762l9 9h755q8 0 8 -7q0 -8 -6 -11l-864 -642h782l-9 -9h-775zM565 806q0 -7 -5.5 -11t-12.5 -4q-13 0 -13 12q0 15 18 15q13 0 13 -12z" />
    <glyph glyph-name="zdotaccent" unicode="&#x17c;" horiz-adv-x="817" 
d="M27 0q-8 0 -8 8q0 7 5 10l865 642h-762l9 9h755q8 0 8 -7q0 -8 -6 -11l-864 -642h782l-9 -9h-775zM565 806q0 -7 -5.5 -11t-12.5 -4q-13 0 -13 12q0 15 18 15q13 0 13 -12z" />
    <glyph glyph-name="Zcaron" unicode="&#x17d;" horiz-adv-x="817" 
d="M27 0q-8 0 -8 8q0 7 5 10l865 642h-762l9 9h755q8 0 8 -7q0 -8 -6 -11l-864 -642h782l-9 -9h-775zM526 715l-115 152h14l109 -145l161 145h16l-169 -152h-16z" />
    <glyph glyph-name="zcaron" unicode="&#x17e;" horiz-adv-x="817" 
d="M27 0q-8 0 -8 8q0 7 5 10l865 642h-762l9 9h755q8 0 8 -7q0 -8 -6 -11l-864 -642h782l-9 -9h-775zM526 715l-115 152h14l109 -145l161 145h16l-169 -152h-16z" />
    <glyph glyph-name="Aringacute" unicode="&#x1fa;" horiz-adv-x="912" 
d="M231 0l9 9h648l-314 656l-552 -665h-12l557 669q4 6 9 6q3 0 8 -6l319 -669h-672zM550 715q-91 0 -91 64q0 5 0.5 9.5t1.5 9.5l11 63q8 42 36 63t82 21h63q91 0 91 -64q0 -5 -0.5 -10t-1.5 -10l-12 -63q-17 -83 -118 -83h-62zM732 861q1 5 1 9v7q0 59 -82 59h-63
q-94 0 -107 -75l-11 -63q-1 -5 -1.5 -9t-0.5 -8q0 -57 84 -57h62q93 0 107 74zM746 787l2 10l304 142l-2 -11z" />
    <glyph glyph-name="aringacute" unicode="&#x1fb;" horiz-adv-x="912" 
d="M231 0l9 9h648l-314 656l-552 -665h-12l557 669q4 6 9 6q3 0 8 -6l319 -669h-672zM550 715q-91 0 -91 64q0 5 0.5 9.5t1.5 9.5l11 63q8 42 36 63t82 21h63q91 0 91 -64q0 -5 -0.5 -10t-1.5 -10l-12 -63q-17 -83 -118 -83h-62zM732 861q1 5 1 9v7q0 59 -82 59h-63
q-94 0 -107 -75l-11 -63q-1 -5 -1.5 -9t-0.5 -8q0 -57 84 -57h62q93 0 107 74zM746 787l2 10l304 142l-2 -11z" />
    <glyph glyph-name="AEacute" unicode="&#x1fc;" horiz-adv-x="1323" 
d="M662 0l117 660h-170l-588 -660h-11l589 662q8 7 18 7h810l-9 -9h-630l-55 -314h613l-10 -9h-604l-58 -328h643l-9 -9h-646zM630 715l2 10l304 142l-2 -11z" />
    <glyph glyph-name="aeacute" unicode="&#x1fd;" horiz-adv-x="1323" 
d="M662 0l117 660h-170l-588 -660h-11l589 662q8 7 18 7h810l-9 -9h-630l-55 -314h613l-10 -9h-604l-58 -328h643l-9 -9h-646zM630 715l2 10l304 142l-2 -11z" />
    <glyph glyph-name="Oslashacute" unicode="&#x1fe;" 
d="M82 -42l100 90q-48 32 -70.5 87t-22.5 128q0 210 117.5 313.5t361.5 103.5q165 0 253 -53l97 89l7 -5l-98 -88q48 -32 72.5 -87.5t24.5 -128.5q0 -209 -118 -313.5t-360 -104.5q-169 0 -257 55l-100 -91zM198 51q87 -53 250 -53q236 0 351 101.5t115 304.5
q0 73 -23 126.5t-71 84.5zM811 620q-86 51 -245 51q-236 0 -352 -101t-116 -305q0 -146 92 -209zM461 715l2 10l304 142l-2 -11z" />
    <glyph glyph-name="oslashacute" unicode="&#x1ff;" 
d="M82 -42l100 90q-48 32 -70.5 87t-22.5 128q0 210 117.5 313.5t361.5 103.5q165 0 253 -53l97 89l7 -5l-98 -88q48 -32 72.5 -87.5t24.5 -128.5q0 -209 -118 -313.5t-360 -104.5q-169 0 -257 55l-100 -91zM198 51q87 -53 250 -53q236 0 351 101.5t115 304.5
q0 73 -23 126.5t-71 84.5zM811 620q-86 51 -245 51q-236 0 -352 -101t-116 -305q0 -146 92 -209zM461 715l2 10l304 142l-2 -11z" />
    <glyph glyph-name="uni0218" unicode="&#x218;" horiz-adv-x="844" 
d="M21 0l9 9h544q139 0 203.5 48t64.5 146q0 69 -52 98t-158 29h-267q-109 0 -164 31t-55 103q0 103 67.5 154t211.5 51h502l-9 -9h-494q-139 0 -203.5 -48t-64.5 -146q0 -69 52 -97.5t158 -28.5h267q111 0 165 -31.5t54 -103.5q0 -103 -67.5 -154t-210.5 -51h-553z
M369 -255l76 224h13l-80 -224h-9z" />
    <glyph glyph-name="uni0219" unicode="&#x219;" horiz-adv-x="844" 
d="M21 0l9 9h544q139 0 203.5 48t64.5 146q0 69 -52 98t-158 29h-267q-109 0 -164 31t-55 103q0 103 67.5 154t211.5 51h502l-9 -9h-494q-139 0 -203.5 -48t-64.5 -146q0 -69 52 -97.5t158 -28.5h267q111 0 165 -31.5t54 -103.5q0 -103 -67.5 -154t-210.5 -51h-553z
M369 -255l76 224h13l-80 -224h-9z" />
    <glyph glyph-name="uni021A" unicode="&#x21a;" horiz-adv-x="800" 
d="M397 0l116 660h-397l14 9h788l-9 -9h-387l-116 -660h-9zM313 -255l76 224h13l-80 -224h-9z" />
    <glyph glyph-name="uni021B" unicode="&#x21b;" horiz-adv-x="800" 
d="M397 0l116 660h-397l14 9h788l-9 -9h-387l-116 -660h-9zM313 -255l76 224h13l-80 -224h-9z" />
    <glyph glyph-name="circumflex" unicode="&#x2c6;" horiz-adv-x="385" 
d="M453 715l-109 144l-160 -144h-16l168 152h16l116 -152h-15z" />
    <glyph glyph-name="caron" unicode="&#x2c7;" horiz-adv-x="385" 
d="M310 715l-115 152h14l109 -145l161 145h16l-169 -152h-16z" />
    <glyph glyph-name="breve" unicode="&#x2d8;" horiz-adv-x="362" 
d="M288 715q-31 0 -49.5 14t-28.5 34t-13.5 43.5t-3.5 43.5v8.5t2 8.5h9q-1 -7 -1 -13.5v-14.5q0 -20 4.5 -40.5t14.5 -37t26.5 -27t41.5 -10.5h39q28 0 51 14t39.5 35t27.5 46t16 48h9q-3 -20 -13.5 -46t-29 -49.5t-44 -40t-58.5 -16.5h-39z" />
    <glyph glyph-name="dotaccent" unicode="&#x2d9;" horiz-adv-x="115" 
d="M215 806q0 -7 -5.5 -11t-12.5 -4q-13 0 -13 12q0 15 18 15q13 0 13 -12z" />
    <glyph glyph-name="ring" unicode="&#x2da;" horiz-adv-x="355" 
d="M272 715q-91 0 -91 64q0 5 0.5 9.5t1.5 9.5l11 63q8 42 36 63t82 21h63q91 0 91 -64q0 -5 -0.5 -10t-1.5 -10l-12 -63q-17 -83 -118 -83h-62zM454 861q1 5 1 9v7q0 59 -82 59h-63q-94 0 -107 -75l-11 -63q-1 -5 -1.5 -9t-0.5 -8q0 -57 84 -57h62q93 0 107 74z" />
    <glyph glyph-name="ogonek" unicode="&#x2db;" horiz-adv-x="309" 
d="M46 -250q-23 0 -36 10.5t-13 25.5q0 11 7.5 21.5t24.5 24.5l222 168h15l-233 -176q-25 -19 -25 -37q0 -11 10 -19t30 -8h175l-2 -10h-175z" />
    <glyph glyph-name="tilde" unicode="&#x2dc;" horiz-adv-x="364" 
d="M463 803q-20 -32 -39.5 -44t-42.5 -12q-20 0 -35 12.5t-28.5 27t-27.5 27t-31 12.5q-20 0 -39.5 -12.5t-43.5 -54.5l4 21q20 32 39 44t42 12q19 0 34 -12.5t28.5 -27.5t27 -27.5t31.5 -12.5q20 0 40 13t45 54z" />
    <glyph glyph-name="hungarumlaut" unicode="&#x2dd;" horiz-adv-x="326" 
d="M327 725l100 142h9l-99 -142h-10zM170 725l100 142h9l-99 -142h-10z" />
    <glyph glyph-name="uni0326" unicode="&#x326;" horiz-adv-x="145" 
d="M14 -255l76 224h13l-80 -224h-9z" />
    <glyph glyph-name="Wgrave" unicode="&#x1e80;" horiz-adv-x="1122" 
d="M1217 669h9l-384 -667q-5 -8 -10 -8q-7 0 -9 8l-145 663l-381 -663q-5 -8 -10 -8q-7 0 -9 8l-147 667h9l149 -665l379 663q2 5 5.5 6.5t5.5 1.5q6 0 8 -8l147 -663zM543 856l2 11l255 -142l-2 -10z" />
    <glyph glyph-name="Wacute" unicode="&#x1e82;" horiz-adv-x="1122" 
d="M1217 669h9l-384 -667q-5 -8 -10 -8q-7 0 -9 8l-145 663l-381 -663q-5 -8 -10 -8q-7 0 -9 8l-147 667h9l149 -665l379 663q2 5 5.5 6.5t5.5 1.5q6 0 8 -8l147 -663zM575 715l2 10l304 142l-2 -11z" />
    <glyph glyph-name="Wdieresis" unicode="&#x1e84;" horiz-adv-x="1122" 
d="M1217 669h9l-384 -667q-5 -8 -10 -8q-7 0 -9 8l-145 663l-381 -663q-5 -8 -10 -8q-7 0 -9 8l-147 667h9l149 -665l379 663q2 5 5.5 6.5t5.5 1.5q6 0 8 -8l147 -663zM618 806q0 -7 -5.5 -11t-12.5 -4q-13 0 -13 12q0 15 18 15q13 0 13 -12zM818 806q0 -15 -18 -15
q-13 0 -13 12q0 7 5.5 11t12.5 4q13 0 13 -12z" />
    <glyph glyph-name="Ygrave" unicode="&#x1ef2;" 
d="M443 0l48 274l-366 395h13l359 -386l495 386h15l-506 -395l-49 -274h-9zM459 856l2 11l255 -142l-2 -10z" />
    <glyph glyph-name="ygrave" unicode="&#x1ef3;" 
d="M443 0l48 274l-366 395h13l359 -386l495 386h15l-506 -395l-49 -274h-9zM459 856l2 11l255 -142l-2 -10z" />
    <glyph glyph-name="endash" unicode="&#x2013;" horiz-adv-x="499" 
d="M72 333l9 10h466l-9 -10h-466z" />
    <glyph glyph-name="emdash" unicode="&#x2014;" horiz-adv-x="873" 
d="M72 333l9 10h841l-10 -10h-840z" />
    <glyph glyph-name="quoteleft" unicode="&#x2018;" horiz-adv-x="86" 
d="M133 401v268h17l-8 -268h-9z" />
    <glyph glyph-name="quoteright" unicode="&#x2019;" horiz-adv-x="86" 
d="M86 401l87 268h16l-95 -268h-8z" />
    <glyph glyph-name="quotesinglbase" unicode="&#x201a;" horiz-adv-x="86" 
d="M-2 -96l87 268h16l-95 -268h-8z" />
    <glyph glyph-name="quotedblleft" unicode="&#x201c;" horiz-adv-x="219" 
d="M266 401v268h16l-8 -268h-8zM133 401v268h17l-8 -268h-9z" />
    <glyph glyph-name="quotedblright" unicode="&#x201d;" horiz-adv-x="219" 
d="M86 401l87 268h16l-95 -268h-8zM219 401l87 268h16l-96 -268h-7z" />
    <glyph glyph-name="quotedblbase" unicode="&#x201e;" horiz-adv-x="219" 
d="M-2 -96l87 268h16l-95 -268h-8zM131 -96l87 268h16l-96 -268h-7z" />
    <glyph glyph-name="dagger" unicode="&#x2020;" horiz-adv-x="393" 
d="M252 0v447h-120l-31 4l31 5h120v213h9v-213h120l31 -5l-31 -4h-120v-447h-9z" />
    <glyph glyph-name="daggerdbl" unicode="&#x2021;" horiz-adv-x="405" 
d="M256 0v189h-120l-30 5l30 5h120v271h-120l-30 5l30 5h120v189h10v-189h120l30 -5l-30 -5h-120v-271h120l30 -5l-30 -5h-120v-189h-10z" />
    <glyph glyph-name="bullet" unicode="&#x2022;" horiz-adv-x="286" 
d="M206 245q-37 0 -63.5 26.5t-26.5 63.5t26.5 63.5t63.5 26.5q19 0 35.5 -7t28.5 -19.5t19 -29t7 -34.5t-7 -34.5t-19 -29t-28.5 -19.5t-35.5 -7z" />
    <glyph glyph-name="ellipsis" unicode="&#x2026;" horiz-adv-x="525" 
d="M70 9q0 -15 -18 -15q-13 0 -13 12q0 15 18 15q13 0 13 -12zM280 9q0 -15 -18 -15q-13 0 -13 12q0 15 18 15q13 0 13 -12zM490 9q0 -15 -18 -15q-13 0 -13 12q0 15 18 15q13 0 13 -12z" />
    <glyph glyph-name="perthousand" unicode="&#x2030;" horiz-adv-x="1117" 
d="M483 520q-17 -91 -68 -133t-142 -42q-75 0 -113 30t-38 94q0 58 15.5 100.5t43 70t67 41t87.5 13.5q75 0 113.5 -30t38.5 -96q0 -11 -1 -22.5t-3 -25.5zM474 520q2 14 3.5 25.5t1.5 21.5q0 63 -36.5 91t-108.5 28q-45 0 -82.5 -12.5t-64.5 -38.5t-42 -66.5t-15 -96.5
q0 -63 36.5 -91t108.5 -28q85 0 134 39.5t65 127.5zM69 -38l693 744h13l-694 -744h-12zM724 158q-17 -91 -68 -133t-142 -42q-75 0 -113 30t-38 94q0 58 15.5 100.5t43 70t67 41t87.5 13.5q75 0 113.5 -30t38.5 -96q0 -11 -1 -22.5t-3 -25.5zM715 158q2 14 3.5 25.5
t1.5 21.5q0 63 -36.5 91t-108.5 28q-45 0 -82.5 -12.5t-64.5 -38.5t-42 -66.5t-15 -96.5q0 -63 36.5 -91t108.5 -28q85 0 134 39.5t65 127.5zM1109 158q-17 -91 -68 -133t-142 -42q-75 0 -113 30t-38 94q0 58 15.5 100.5t43 70t67 41t87.5 13.5q75 0 113.5 -30t38.5 -96
q0 -11 -1 -22.5t-3 -25.5zM1100 158q2 14 3.5 25.5t1.5 21.5q0 63 -36.5 91t-108.5 28q-45 0 -82.5 -12.5t-64.5 -38.5t-42 -66.5t-15 -96.5q0 -63 36.5 -91t108.5 -28q85 0 134 39.5t65 127.5z" />
    <glyph glyph-name="guilsinglleft" unicode="&#x2039;" horiz-adv-x="238" 
d="M82 321l2 7l199 143l-2 -12l-188 -134l141 -135l-2 -12z" />
    <glyph glyph-name="guilsinglright" unicode="&#x203a;" horiz-adv-x="238" 
d="M73 178l2 12l188 135l-141 134l2 12l150 -143l-2 -7z" />
    <glyph glyph-name="fraction" unicode="&#x2044;" horiz-adv-x="268" 
d="M-155 -38l693 744h13l-694 -744h-12z" />
    <glyph glyph-name="uni2070" unicode="&#x2070;" horiz-adv-x="418" 
d="M478 520q-17 -91 -68 -133t-142 -42q-75 0 -113 30t-38 94q0 58 15.5 100.5t43 70t67 41t87.5 13.5q75 0 113.5 -30t38.5 -96q0 -11 -1 -22.5t-3 -25.5zM469 520q2 14 3.5 25.5t1.5 21.5q0 63 -36.5 91t-108.5 28q-45 0 -82.5 -12.5t-64.5 -38.5t-42 -66.5t-15 -96.5
q0 -63 36.5 -91t108.5 -28q85 0 134 39.5t65 127.5z" />
    <glyph glyph-name="uni2074" unicode="&#x2074;" horiz-adv-x="433" 
d="M398 351l14 79h-305q-6 0 -6 7q1 2 2 3l2 2l351 247q6 2 5 2q5 0 5 -4l-43 -248h73l-9 -9h-66l-14 -79h-9zM457 681l-343 -242h300z" />
    <glyph glyph-name="uni2075" unicode="&#x2075;" horiz-adv-x="408" 
d="M89 351l10 8h216q63 0 97 23t34 75q0 32 -25 45t-79 13h-210l30 173h333l-9 -8h-316l-28 -156h202q57 0 84 -15t27 -50q0 -57 -37.5 -82.5t-104.5 -25.5h-224z" />
    <glyph glyph-name="uni2076" unicode="&#x2076;" horiz-adv-x="453" 
d="M328 680q-36 0 -68 -11t-58.5 -30.5t-44.5 -47.5t-25 -61h272q45 0 71 -17.5t26 -51.5q0 -36 -18 -58.5t-47.5 -35t-65.5 -17.5t-72 -5q-91 0 -135.5 32t-44.5 101q0 46 16.5 84.5t45 66.5t67 43.5t82.5 15.5h191l-8 -8h-184zM130 521q-2 -10 -3 -21t-1 -22
q0 -66 43.5 -95.5t130.5 -29.5q34 0 68.5 4.5t62.5 16.5t45 32.5t17 52.5q0 31 -24.5 46.5t-66.5 15.5h-272z" />
    <glyph glyph-name="uni2077" unicode="&#x2077;" horiz-adv-x="387" 
d="M165 351l313 329h-343l8 8h341q6 0 6 -4t-4 -8l-310 -325h-11z" />
    <glyph glyph-name="uni2078" unicode="&#x2078;" horiz-adv-x="429" 
d="M200 351q-51 0 -72.5 20.5t-21.5 51.5q0 21 7 38t18 29.5t24.5 21t25.5 12.5q-16 5 -28.5 21t-12.5 39q0 49 33 76.5t84 27.5h154q42 0 64.5 -18t22.5 -52q0 -18 -6.5 -34t-16.5 -28.5t-22 -20.5t-23 -11q17 -7 31.5 -23t14.5 -43q0 -43 -32 -75t-95 -32h-149zM204 520
q-16 0 -32 -7t-29 -20t-21 -30.5t-8 -38.5q0 -27 20 -46t68 -19h149q30 0 51.5 8.5t35.5 22t21 31t7 35.5q0 29 -17.5 46.5t-42.5 17.5h-202zM256 680q-46 0 -76.5 -24t-30.5 -69q0 -26 17 -42t40 -16h201q15 0 30 7t27 19t19 28.5t7 34.5q0 29 -20.5 45.5t-59.5 16.5h-154z
" />
    <glyph glyph-name="uni2079" unicode="&#x2079;" horiz-adv-x="453" 
d="M118 351l9 8h180q37 0 70 11.5t59 32t44 49.5t24 64q1 3 1 10q-66 -9 -135.5 -12.5t-138.5 -3.5q-45 0 -71.5 17t-26.5 49q0 36 18 59t47 36t65.5 18t73.5 5q88 0 133.5 -32t45.5 -101q0 -46 -16 -84.5t-44.5 -66.5t-67 -43.5t-83.5 -15.5h-187zM233 518q67 0 137 3.5
t136 11.5q1 7 1.5 13t0.5 13q0 66 -43.5 96.5t-128.5 30.5q-36 0 -70.5 -4.5t-62 -16.5t-44.5 -33t-17 -54q0 -30 24.5 -45t66.5 -15z" />
    <glyph glyph-name="uni2080" unicode="&#x2080;" horiz-adv-x="418" 
d="M415 158q-17 -91 -68 -133t-142 -42q-75 0 -113 30t-38 94q0 58 15.5 100.5t43 70t67 41t87.5 13.5q75 0 113.5 -30t38.5 -96q0 -11 -1 -22.5t-3 -25.5zM406 158q2 14 3.5 25.5t1.5 21.5q0 63 -36.5 91t-108.5 28q-45 0 -82.5 -12.5t-64.5 -38.5t-42 -66.5t-15 -96.5
q0 -63 36.5 -91t108.5 -28q85 0 134 39.5t65 127.5z" />
    <glyph glyph-name="uni2081" unicode="&#x2081;" horiz-adv-x="149" 
d="M97 -11l58 329h-14l-74 -82h-10l81 90h27l-60 -337h-8z" />
    <glyph glyph-name="uni2082" unicode="&#x2082;" horiz-adv-x="440" 
d="M31 -11l16 90q8 45 40 64.5t86 19.5h133q69 0 100 24t31 69q0 28 -23.5 45t-81.5 17h-219l8 8h212q61 0 87 -19t26 -49q0 -49 -35 -76.5t-107 -27.5h-133q-51 0 -79.5 -16.5t-35.5 -58.5l-14 -82h369l-9 -8h-371z" />
    <glyph glyph-name="uni2083" unicode="&#x2083;" horiz-adv-x="416" 
d="M11 -11l10 8h254q30 0 52 8.5t36 22t21 31t7 35.5q0 29 -18 46.5t-43 17.5h-199l9 9h192q15 0 30 7t27 19t19 28.5t7 34.5q0 29 -20.5 45.5t-59.5 16.5h-253l9 8h245q42 0 64.5 -18t22.5 -52q0 -18 -6.5 -34t-16.5 -28.5t-22 -20.5t-23 -11q17 -7 31 -23t14 -43
q0 -43 -31.5 -75t-94.5 -32h-263z" />
    <glyph glyph-name="uni2084" unicode="&#x2084;" horiz-adv-x="433" 
d="M335 -11l14 79h-305q-6 0 -6 7q1 2 2 3l2 2l351 247q6 2 5 2q5 0 5 -4l-43 -248h73l-9 -9h-66l-14 -79h-9zM394 319l-343 -242h300z" />
    <glyph glyph-name="uni2085" unicode="&#x2085;" horiz-adv-x="408" 
d="M26 -11l10 8h216q63 0 97 23t34 75q0 32 -25 45t-79 13h-210l30 173h333l-9 -8h-316l-28 -156h202q57 0 84 -15t27 -50q0 -57 -37.5 -82.5t-104.5 -25.5h-224z" />
    <glyph glyph-name="uni2086" unicode="&#x2086;" horiz-adv-x="453" 
d="M265 318q-36 0 -68 -11t-58.5 -30.5t-44.5 -47.5t-25 -61h272q45 0 71 -17.5t26 -51.5q0 -36 -18 -58.5t-47.5 -35t-65.5 -17.5t-72 -5q-91 0 -135.5 32t-44.5 101q0 46 16.5 84.5t45 66.5t67 43.5t82.5 15.5h191l-8 -8h-184zM67 159q-2 -10 -3 -21t-1 -22
q0 -66 43.5 -95.5t130.5 -29.5q34 0 68.5 4.5t62.5 16.5t45 32.5t17 52.5q0 31 -24.5 46.5t-66.5 15.5h-272z" />
    <glyph glyph-name="uni2087" unicode="&#x2087;" horiz-adv-x="387" 
d="M102 -11l313 329h-343l8 8h341q6 0 6 -4t-4 -8l-310 -325h-11z" />
    <glyph glyph-name="uni2088" unicode="&#x2088;" horiz-adv-x="429" 
d="M137 -11q-51 0 -72.5 20.5t-21.5 51.5q0 21 7 38t18 29.5t24.5 21t25.5 12.5q-16 5 -28.5 21t-12.5 39q0 49 33 76.5t84 27.5h154q42 0 64.5 -18t22.5 -52q0 -18 -6.5 -34t-16.5 -28.5t-22 -20.5t-23 -11q17 -7 31.5 -23t14.5 -43q0 -43 -32 -75t-95 -32h-149zM141 158
q-16 0 -32 -7t-29 -20t-21 -30.5t-8 -38.5q0 -27 20 -46t68 -19h149q30 0 51.5 8.5t35.5 22t21 31t7 35.5q0 29 -17.5 46.5t-42.5 17.5h-202zM193 318q-46 0 -76.5 -24t-30.5 -69q0 -26 17 -42t40 -16h201q15 0 30 7t27 19t19 28.5t7 34.5q0 29 -20.5 45.5t-59.5 16.5h-154z
" />
    <glyph glyph-name="uni2089" unicode="&#x2089;" horiz-adv-x="453" 
d="M55 -11l9 8h180q37 0 70 11.5t59 32t44 49.5t24 64q1 3 1 10q-66 -9 -135.5 -12.5t-138.5 -3.5q-45 0 -71.5 17t-26.5 49q0 36 18 59t47 36t65.5 18t73.5 5q88 0 133.5 -32t45.5 -101q0 -46 -16 -84.5t-44.5 -66.5t-67 -43.5t-83.5 -15.5h-187zM170 156q67 0 137 3.5
t136 11.5q1 7 1.5 13t0.5 13q0 66 -43.5 96.5t-128.5 30.5q-36 0 -70.5 -4.5t-62 -16.5t-44.5 -33t-17 -54q0 -30 24.5 -45t66.5 -15z" />
    <glyph glyph-name="Euro" unicode="&#x20ac;" horiz-adv-x="755" 
d="M439 0q-70 0 -127.5 20.5t-98.5 57t-63.5 87.5t-22.5 112h-72l8 10h63q2 25 6 52.5t13 53.5h-70l9 9h65q21 61 61 110t93.5 84t118 54t135.5 19h296l-10 -9h-287q-68 0 -131 -18.5t-115.5 -52t-91.5 -81.5t-60 -106h438l-9 -9h-433q-8 -26 -12.5 -53.5t-6.5 -52.5h352
l-8 -10h-343q1 -59 23.5 -108t62 -84.5t95.5 -55.5t124 -20h131l-10 -9h-123z" />
    <glyph glyph-name="uni2117" unicode="&#x2117;" horiz-adv-x="776" 
d="M441 -11q-72 0 -135 27t-110 74t-74 110t-27 135t27 135t74 110t110 74t135 27t135 -27t110 -74t74 -110t27 -135t-27 -135t-74 -110t-110 -74t-135 -27zM778 335q0 70 -26.5 131t-72.5 107t-107.5 72.5t-130.5 26.5t-130.5 -26.5t-107.5 -72.5t-72.5 -107t-26.5 -131
q0 -69 26.5 -130.5t72.5 -107.5t107.5 -72.5t130.5 -26.5t130.5 26.5t107.5 72.5t72.5 107.5t26.5 130.5zM324 285v-143h-10v152h171q61 0 94.5 28t33.5 76t-33.5 76.5t-94.5 28.5h-168l8 10h160q66 0 102 -32t36 -83t-36 -82t-102 -31h-161z" />
    <glyph glyph-name="trademark" unicode="&#x2122;" horiz-adv-x="555" 
d="M598 389v263l-97 -263h-12l-97 263v-263h-10v280h15l98 -265l98 265h15v-280h-10zM225 389v271h-100v9h210v-9h-100v-271h-10z" />
    <glyph glyph-name="onethird" unicode="&#x2153;" horiz-adv-x="828" 
d="M207 351l58 329h-14l-74 -82h-10l81 90h27l-60 -337h-8zM31 -38l693 744h13l-694 -744h-12zM418 -11l10 8h254q30 0 52 8.5t36 22t21 31t7 35.5q0 29 -18 46.5t-43 17.5h-199l9 9h192q15 0 30 7t27 19t19 28.5t7 34.5q0 29 -20.5 45.5t-59.5 16.5h-253l9 8h245
q42 0 64.5 -18t22.5 -52q0 -18 -6.5 -34t-16.5 -28.5t-22 -20.5t-23 -11q17 -7 31 -23t14 -43q0 -43 -31.5 -75t-94.5 -32h-263z" />
    <glyph glyph-name="twothirds" unicode="&#x2154;" horiz-adv-x="928" 
d="M96 351l16 90q8 45 40 64.5t86 19.5h133q69 0 100 24t31 69q0 28 -23.5 45t-81.5 17h-219l8 8h212q61 0 87 -19t26 -49q0 -49 -35 -76.5t-107 -27.5h-133q-51 0 -79.5 -16.5t-35.5 -58.5l-14 -82h369l-9 -8h-371zM170 -38l693 744h13l-694 -744h-12zM518 -11l10 8h254
q30 0 52 8.5t36 22t21 31t7 35.5q0 29 -18 46.5t-43 17.5h-199l9 9h192q15 0 30 7t27 19t19 28.5t7 34.5q0 29 -20.5 45.5t-59.5 16.5h-253l9 8h245q42 0 64.5 -18t22.5 -52q0 -18 -6.5 -34t-16.5 -28.5t-22 -20.5t-23 -11q17 -7 31 -23t14 -43q0 -43 -31.5 -75t-94.5 -32
h-263z" />
    <glyph glyph-name="oneeighth" unicode="&#x215b;" horiz-adv-x="816" 
d="M195 351l58 329h-14l-74 -82h-10l81 90h27l-60 -337h-8zM31 -38l693 744h13l-694 -744h-12zM519 -11q-51 0 -72.5 20.5t-21.5 51.5q0 21 7 38t18 29.5t24.5 21t25.5 12.5q-16 5 -28.5 21t-12.5 39q0 49 33 76.5t84 27.5h154q42 0 64.5 -18t22.5 -52q0 -18 -6.5 -34
t-16.5 -28.5t-22 -20.5t-23 -11q17 -7 31.5 -23t14.5 -43q0 -43 -32 -75t-95 -32h-149zM523 158q-16 0 -32 -7t-29 -20t-21 -30.5t-8 -38.5q0 -27 20 -46t68 -19h149q30 0 51.5 8.5t35.5 22t21 31t7 35.5q0 29 -17.5 46.5t-42.5 17.5h-202zM575 318q-46 0 -76.5 -24
t-30.5 -69q0 -26 17 -42t40 -16h201q15 0 30 7t27 19t19 28.5t7 34.5q0 29 -20.5 45.5t-59.5 16.5h-154z" />
    <glyph glyph-name="threeeighths" unicode="&#x215c;" horiz-adv-x="891" 
d="M94 351l10 8h254q30 0 52 8.5t36 22t21 31t7 35.5q0 29 -18 46.5t-43 17.5h-199l9 9h192q15 0 30 7t27 19t19 28.5t7 34.5q0 29 -20.5 45.5t-59.5 16.5h-253l9 8h245q42 0 64.5 -18t22.5 -52q0 -18 -6.5 -34t-16.5 -28.5t-22 -20.5t-23 -11q17 -7 31 -23t14 -43
q0 -43 -31.5 -75t-94.5 -32h-263zM154 -38l693 744h13l-694 -744h-12zM595 -11q-51 0 -72.5 20.5t-21.5 51.5q0 21 7 38t18 29.5t24.5 21t25.5 12.5q-16 5 -28.5 21t-12.5 39q0 49 33 76.5t84 27.5h154q42 0 64.5 -18t22.5 -52q0 -18 -6.5 -34t-16.5 -28.5t-22 -20.5
t-23 -11q17 -7 31.5 -23t14.5 -43q0 -43 -32 -75t-95 -32h-149zM599 158q-16 0 -32 -7t-29 -20t-21 -30.5t-8 -38.5q0 -27 20 -46t68 -19h149q30 0 51.5 8.5t35.5 22t21 31t7 35.5q0 29 -17.5 46.5t-42.5 17.5h-202zM651 318q-46 0 -76.5 -24t-30.5 -69q0 -26 17 -42t40 -16
h201q15 0 30 7t27 19t19 28.5t7 34.5q0 29 -20.5 45.5t-59.5 16.5h-154z" />
    <glyph glyph-name="fiveeighths" unicode="&#x215d;" horiz-adv-x="864" 
d="M94 351l10 8h216q63 0 97 23t34 75q0 32 -25 45t-79 13h-210l30 173h333l-9 -8h-316l-28 -156h202q57 0 84 -15t27 -50q0 -57 -37.5 -82.5t-104.5 -25.5h-224zM120 -38l693 744h13l-694 -744h-12zM568 -11q-51 0 -72.5 20.5t-21.5 51.5q0 21 7 38t18 29.5t24.5 21
t25.5 12.5q-16 5 -28.5 21t-12.5 39q0 49 33 76.5t84 27.5h154q42 0 64.5 -18t22.5 -52q0 -18 -6.5 -34t-16.5 -28.5t-22 -20.5t-23 -11q17 -7 31.5 -23t14.5 -43q0 -43 -32 -75t-95 -32h-149zM572 158q-16 0 -32 -7t-29 -20t-21 -30.5t-8 -38.5q0 -27 20 -46t68 -19h149
q30 0 51.5 8.5t35.5 22t21 31t7 35.5q0 29 -17.5 46.5t-42.5 17.5h-202zM624 318q-46 0 -76.5 -24t-30.5 -69q0 -26 17 -42t40 -16h201q15 0 30 7t27 19t19 28.5t7 34.5q0 29 -20.5 45.5t-59.5 16.5h-154z" />
    <glyph glyph-name="seveneighths" unicode="&#x215e;" horiz-adv-x="815" 
d="M183 351l313 329h-343l8 8h341q6 0 6 -4t-4 -8l-310 -325h-11zM34 -38l693 744h13l-694 -744h-12zM518 -11q-51 0 -72.5 20.5t-21.5 51.5q0 21 7 38t18 29.5t24.5 21t25.5 12.5q-16 5 -28.5 21t-12.5 39q0 49 33 76.5t84 27.5h154q42 0 64.5 -18t22.5 -52q0 -18 -6.5 -34
t-16.5 -28.5t-22 -20.5t-23 -11q17 -7 31.5 -23t14.5 -43q0 -43 -32 -75t-95 -32h-149zM522 158q-16 0 -32 -7t-29 -20t-21 -30.5t-8 -38.5q0 -27 20 -46t68 -19h149q30 0 51.5 8.5t35.5 22t21 31t7 35.5q0 29 -17.5 46.5t-42.5 17.5h-202zM574 318q-46 0 -76.5 -24
t-30.5 -69q0 -26 17 -42t40 -16h201q15 0 30 7t27 19t19 28.5t7 34.5q0 29 -20.5 45.5t-59.5 16.5h-154z" />
    <glyph glyph-name="minus" unicode="&#x2212;" horiz-adv-x="621" 
d="M97 337l1 9h546l-1 -9h-546z" />
    <glyph glyph-name="approxequal" unicode="&#x2248;" horiz-adv-x="558" 
d="M594 439q-45 -40 -82 -53t-67 -13q-28 0 -53 11t-48 24t-46 24t-47 11q-14 0 -30 -2.5t-34 -10t-39 -21t-46 -35.5l2 12q45 40 81.5 53.5t66.5 13.5q27 0 51 -11t47 -24t46.5 -24t49.5 -11q15 0 30.5 2.5t33.5 10t39 21t47 35.5zM572 288q-45 -40 -82 -53t-67 -13
q-28 0 -53 11t-48 24t-46 24t-47 11q-14 0 -30 -2.5t-34 -10t-39 -21t-46 -35.5l2 12q45 40 81.5 53.5t66.5 13.5q27 0 51 -11t47 -24t46.5 -24t49.5 -11q15 0 30.5 2.5t33.5 10t39 21t47 35.5z" />
    <glyph glyph-name="notequal" unicode="&#x2260;" horiz-adv-x="621" 
d="M502 471l-246 -263h364l-1 -9h-370l-222 -237h-12l222 237h-164l1 9h170l245 263h-369l2 10h377l210 225h12l-210 -225h157l-2 -10h-164z" />
    <glyph glyph-name="lessequal" unicode="&#x2264;" horiz-adv-x="589" 
d="M102 327q-5 2 -5 10q0 4 8 9l551 246l-2 -10l-548 -245l462 -245l-2 -11zM34 -26l1 9h546l-1 -9h-546z" />
    <glyph glyph-name="greaterequal" unicode="&#x2265;" horiz-adv-x="589" 
d="M52 81l2 11l547 245l-461 245l2 10l464 -246q4 -3 4 -7q0 -9 -7 -12zM34 -26l1 9h546l-1 -9h-546z" />
    <glyph glyph-name="uniF8FF" unicode="&#xf8ff;" horiz-adv-x="344" 
 />
    <glyph glyph-name="glyph385" horiz-adv-x="344" 
 />
    </font>
</defs>
</svg>
