<?xml version="1.0" standalone="no"?>
<!DOCTYPE svg PUBLIC "-//W3C//DTD SVG 1.1//EN" "http://www.w3.org/Graphics/SVG/1.1/DTD/svg11.dtd" >
<svg xmlns="http://www.w3.org/2000/svg" xmlns:xlink="http://www.w3.org/1999/xlink" version="1.1">
<metadata>
Created by FontForge 20170910 at Tue Sep  9 13:11:20 2014
 By Jimmy Wärting
(c) 1999-2009 Ray Larabie. See attached license agreement for more information. If EULA is missing, visit www.larabiefonts.com for an updated version of this font.
</metadata>
<defs>
<font id="EthnocentricW00-UltraLight" horiz-adv-x="894" >
  <font-face 
    font-family="EthnocentricW00-UltraLight"
    font-weight="250"
    font-stretch="normal"
    units-per-em="1000"
    panose-1="2 0 4 0 0 0 0 0 0 0"
    ascent="800"
    descent="-200"
    x-height="669"
    cap-height="669"
    bbox="-162 -255 1662 945"
    underline-thickness="50"
    underline-position="-175"
    unicode-range="U+0017-F8FF"
  />
<missing-glyph horiz-adv-x="422" 
d="M119 0q-92 0 -92 79v510q0 80 92 80h183q45 0 69 -20t24 -60v-510q0 -40 -24 -59.5t-69 -19.5h-183zM345 589q0 37 -43 37h-183q-43 0 -43 -37v-510q0 -36 43 -36h183q43 0 43 36v510z" />
    <glyph glyph-name=".notdef" horiz-adv-x="422" 
d="M119 0q-92 0 -92 79v510q0 80 92 80h183q45 0 69 -20t24 -60v-510q0 -40 -24 -59.5t-69 -19.5h-183zM345 589q0 37 -43 37h-183q-43 0 -43 -37v-510q0 -36 43 -36h183q43 0 43 36v510z" />
    <glyph glyph-name=".null" horiz-adv-x="0" 
 />
    <glyph glyph-name="nonmarkingreturn" horiz-adv-x="333" 
 />
    <glyph glyph-name="glyph385" horiz-adv-x="0" 
 />
    <glyph glyph-name="glyph385" horiz-adv-x="0" 
 />
    <glyph glyph-name="uni0017" horiz-adv-x="344" 
 />
    <glyph glyph-name="space" unicode=" " horiz-adv-x="344" 
 />
    <glyph glyph-name="exclam" unicode="!" horiz-adv-x="119" 
d="M58 126l-5 142v401h17v-401l-5 -142h-7zM77 8q0 -7 -4.5 -10.5t-10.5 -3.5q-16 0 -16 14q0 13 16 13q6 0 10.5 -3.5t4.5 -9.5z" />
    <glyph glyph-name="quotedbl" unicode="&#x22;" horiz-adv-x="162" 
d="M22 401l-7 268h18l-7 -268h-4zM135 401l-6 268h18l-7 -268h-5z" />
    <glyph glyph-name="numbersign" unicode="#" horiz-adv-x="622" 
d="M299 0l73 229h-203l-72 -229h-12l73 229h-132l3 9h132l70 220h-134l2 10h135l64 201h11l-64 -201h203l64 201h11l-64 -201h147l-3 -10h-147l-70 -220h150l-3 -9h-150l-73 -229h-11zM445 458h-203l-70 -220h203z" />
    <glyph glyph-name="dollar" unicode="$" horiz-adv-x="592" 
d="M303 0v108h-272l10 9h262v223h-68q-88 0 -130.5 26.5t-42.5 89.5q0 124 173 124h68v89h9v-89h242l-10 -9h-232v-222h73q88 0 130 -27t42 -90q0 -124 -172 -124h-73v-108h-9zM384 117q85 0 124.5 27.5t39.5 87.5t-39.5 84t-123.5 24h-73v-223h72zM303 571h-67
q-85 0 -124.5 -27.5t-39.5 -87.5t39.5 -83.5t123.5 -23.5h68v222z" />
    <glyph glyph-name="percent" unicode="%" horiz-adv-x="828" 
d="M392 520q0 -91 -44 -133t-134 -42t-134 42t-44 133t44 132.5t134 41.5t134 -41.5t44 -132.5zM384 520q0 88 -42.5 127t-127.5 39t-127 -39t-42 -127t42 -127.5t127 -39.5t127.5 39.5t42.5 127.5zM123 -38l563 744h12l-562 -744h-13zM792 158q0 -91 -44 -133t-134 -42
t-134 42t-44 133t44 132.5t134 41.5t134 -41.5t44 -132.5zM784 158q0 88 -42.5 127t-127.5 39t-127 -39t-42 -127t42 -127.5t127 -39.5t127.5 39.5t42.5 127.5z" />
    <glyph glyph-name="ampersand" unicode="&#x26;" horiz-adv-x="703" 
d="M252 0q-57 0 -97.5 14t-66.5 38t-38 56.5t-12 68.5q0 38 12 67t30.5 49.5t41.5 33t46 17.5q-20 4 -40.5 16t-38 31.5t-28.5 45t-11 57.5q0 85 51 130t145 45h230l-8 -9h-222q-91 0 -138.5 -43.5t-47.5 -122.5q0 -30 12 -57t31.5 -46.5t44.5 -31t51 -11.5h489l-8 -9h-182
v-330h198l-8 -9h-436zM488 339h-289q-29 0 -56.5 -12t-48.5 -33t-34 -51t-13 -66q0 -33 11.5 -63.5t36.5 -53.5t64 -37t93 -14h236v330z" />
    <glyph glyph-name="quotesingle" unicode="'" horiz-adv-x="48" 
d="M22 401l-7 268h18l-7 -268h-4z" />
    <glyph glyph-name="parenleft" unicode="(" horiz-adv-x="244" 
d="M196 -129q-62 127 -89.5 239.5t-27.5 223.5q0 112 28 223t87 236h10q-59 -129 -87.5 -239.5t-28.5 -219.5q0 -54 6.5 -108.5t20.5 -111t36.5 -117t54.5 -126.5h-10z" />
    <glyph glyph-name="parenright" unicode=")" horiz-adv-x="244" 
d="M38 -129q32 66 54.5 126.5t36.5 117t20.5 111t6.5 108.5q0 109 -28.5 219.5t-87.5 239.5h10q58 -125 87 -236t29 -223q0 -111 -28 -223.5t-90 -239.5h-10z" />
    <glyph glyph-name="asterisk" unicode="*" horiz-adv-x="428" 
d="M320 329l-106 158l-106 -158l-8 6l106 158l-168 45l2 10l169 -46v167h10v-167l169 46l2 -10l-169 -45l106 -158z" />
    <glyph glyph-name="plus" unicode="+" horiz-adv-x="621" 
d="M306 68v269h-268v9h268v268h9v-268h269v-9h-269v-269h-9z" />
    <glyph glyph-name="comma" unicode="," horiz-adv-x="127" 
d="M44 -96l39 268h16l-48 -268h-7z" />
    <glyph glyph-name="hyphen" unicode="-" horiz-adv-x="329" 
d="M13 333l8 10h296l-8 -10h-296z" />
    <glyph glyph-name="period" unicode="." horiz-adv-x="105" 
d="M68 8q0 -14 -15 -14t-15 14q0 13 15 13t15 -13z" />
    <glyph glyph-name="slash" unicode="/" horiz-adv-x="361" 
d="M0 -38l350 744h11l-351 -744h-10z" />
    <glyph glyph-name="zero" unicode="0" horiz-adv-x="781" 
d="M743 335q0 -180 -87.5 -263t-264.5 -83t-265 83t-88 263q0 179 88.5 262t264.5 83q175 0 263.5 -83t88.5 -262zM733 335q0 175 -86 255.5t-256 80.5q-171 0 -257.5 -80.5t-86.5 -255.5t86.5 -256t257.5 -81q170 0 256 81t86 256z" />
    <glyph glyph-name="one" unicode="1" horiz-adv-x="240" 
d="M174 0v660h-33l-118 -165h-12l125 174h48v-669h-10z" />
    <glyph glyph-name="two" unicode="2" horiz-adv-x="824" 
d="M44 0v178q0 89 55 126.5t162 37.5h266q65 0 110 10.5t73.5 31t41 50t12.5 68.5q0 34 -13 63t-41.5 50t-74 33t-111.5 12h-430l6 9h424q69 0 116.5 -12.5t77 -34.5t42.5 -53t13 -67q0 -41 -13 -72.5t-42.5 -53t-76.5 -33t-114 -11.5h-266q-101 0 -154.5 -35t-53.5 -119
v-169h734l-5 -9h-738z" />
    <glyph glyph-name="three" unicode="3" horiz-adv-x="777" 
d="M9 0l7 9h509q54 0 93 14t64 37t36.5 53.5t11.5 63.5q0 36 -13 66t-34 51t-48.5 33t-56.5 12h-393l8 9h385q26 0 51 11.5t44.5 31t31.5 46.5t12 57q0 79 -47.5 122.5t-138.5 43.5h-499l8 9h491q94 0 145 -45t51 -130q0 -32 -11 -57.5t-28.5 -45t-38.5 -31.5t-40 -16
q22 -5 45.5 -17.5t42 -33t30.5 -49.5t12 -67q0 -36 -12 -68.5t-38 -56.5t-66.5 -38t-97.5 -14h-516z" />
    <glyph glyph-name="four" unicode="4" horiz-adv-x="811" 
d="M652 0v160h-616q-10 0 -10 8q0 4 5 9l613 494q4 4 9 4q9 0 9 -10v-496h143l-7 -9h-136v-160h-10zM652 665l-616 -496h616v496z" />
    <glyph glyph-name="five" unicode="5" horiz-adv-x="760" 
d="M38 0l7 9h432q121 0 178.5 39t57.5 126q0 86 -58.5 121t-176.5 35h-416v339h652l-8 -9h-635v-320h407q124 0 184 -38t60 -128q0 -91 -59.5 -132.5t-184.5 -41.5h-440z" />
    <glyph glyph-name="six" unicode="6" horiz-adv-x="851" 
d="M390 660q-72 0 -134 -22.5t-107.5 -63t-72.5 -97.5t-29 -126h547q102 0 161 -41t59 -122q0 -60 -30.5 -99t-81.5 -61t-117 -30.5t-136 -8.5q-203 0 -307 84.5t-104 267.5q0 73 26.5 133.5t73.5 104t111.5 67t140.5 23.5h375l-8 -9h-367zM47 342q0 -179 102 -261.5
t300 -82.5q69 0 133 8t113.5 29.5t79 58.5t29.5 94q0 75 -56.5 114.5t-153.5 39.5h-547z" />
    <glyph glyph-name="seven" unicode="7" horiz-adv-x="717" 
d="M190 0l508 660h-687l8 9h681q9 0 9 -7q0 -4 -3 -8l-504 -654h-12z" />
    <glyph glyph-name="eight" unicode="8" horiz-adv-x="801" 
d="M252 0q-57 0 -97.5 14t-66.5 38t-38 56.5t-12 68.5q0 38 12 67t30.5 49.5t41.5 33t46 17.5q-20 4 -40.5 16t-38 31.5t-28.5 45t-11 57.5q0 85 51 130t145 45h310q94 0 144.5 -45t50.5 -130q0 -32 -11 -57.5t-28.5 -45t-38 -31.5t-39.5 -16q22 -5 45.5 -17.5t42 -33
t30.5 -49.5t12 -67q0 -36 -12.5 -68.5t-38.5 -56.5t-66.5 -38t-96.5 -14h-298zM199 339q-29 0 -56.5 -12t-48.5 -33t-34 -51t-13 -66q0 -33 11.5 -63.5t36.5 -53.5t64 -37t93 -14h298q54 0 93 14t63.5 37t36 53.5t11.5 63.5q0 36 -13 66t-34 51t-48.5 33t-55.5 12h-404z
M246 660q-91 0 -138.5 -43.5t-47.5 -122.5q0 -30 12 -57t31.5 -46.5t44.5 -31t51 -11.5h404q26 0 51 11.5t44.5 31t31.5 46.5t12 57q0 79 -47.5 122.5t-138.5 43.5h-310z" />
    <glyph glyph-name="nine" unicode="9" horiz-adv-x="851" 
d="M95 0l7 9h360q74 0 136.5 23t108.5 65t71.5 101t25.5 130v12t-1 11q-129 -18 -268.5 -25.5t-277.5 -7.5q-100 0 -159.5 41t-59.5 122q0 60 30.5 99t81.5 61t116.5 30.5t136.5 8.5q202 0 306.5 -84.5t104.5 -267.5q0 -74 -26.5 -134t-73.5 -103.5t-111.5 -67t-140.5 -23.5
h-367zM803 361q-9 160 -110.5 235t-289.5 75q-69 0 -133 -8t-113.5 -29.5t-79.5 -58.5t-30 -94q0 -38 15 -66.5t42.5 -48t66 -29.5t86.5 -10q138 0 276.5 8t269.5 26z" />
    <glyph glyph-name="colon" unicode=":" horiz-adv-x="159" 
d="M92 397q0 -6 -4.5 -9.5t-10.5 -3.5q-15 0 -15 13q0 14 15 14q6 0 10.5 -3.5t4.5 -10.5zM92 8q0 -7 -4.5 -10.5t-10.5 -3.5q-15 0 -15 14q0 13 15 13q6 0 10.5 -3.5t4.5 -9.5z" />
    <glyph glyph-name="semicolon" unicode=";" horiz-adv-x="138" 
d="M42 -96l39 268h16l-48 -268h-7zM105 397q0 -6 -4.5 -9.5t-10.5 -3.5q-15 0 -15 13q0 14 15 14q6 0 10.5 -3.5t4.5 -10.5z" />
    <glyph glyph-name="less" unicode="&#x3c;" horiz-adv-x="589" 
d="M44 327q-6 4 -6 10q0 4 6 9l508 246v-10l-505 -245l505 -245v-11z" />
    <glyph glyph-name="equal" unicode="=" horiz-adv-x="621" 
d="M38 199v9h546v-9h-546zM38 471v10h546v-10h-546z" />
    <glyph glyph-name="greater" unicode="&#x3e;" horiz-adv-x="589" 
d="M38 81v11l504 245l-504 245v10l507 -246q7 -4 7 -9q0 -7 -7 -10z" />
    <glyph glyph-name="question" unicode="?" horiz-adv-x="634" 
d="M334 312q-63 0 -88.5 -26t-25.5 -77v-85h-10v85q0 54 27.5 83.5t96.5 29.5h80q96 0 141.5 44.5t45.5 117.5q0 80 -50.5 128t-165.5 48h-374l8 9h366q60 0 102.5 -13.5t70 -37.5t40 -58t12.5 -76q0 -77 -47.5 -124.5t-148.5 -47.5h-80zM230 8q0 -7 -4.5 -10.5t-10.5 -3.5
q-15 0 -15 14q0 13 15 13q6 0 10.5 -3.5t4.5 -9.5z" />
    <glyph glyph-name="at" unicode="@" horiz-adv-x="770" 
d="M396 0q-78 0 -143.5 23.5t-113.5 66t-74.5 103t-26.5 134.5q0 73 27 136t75 108.5t113.5 71.5t142.5 26h318v-489h-338q-32 0 -58 12t-44.5 32.5t-28.5 48.5t-10 60q0 31 9.5 59t28 48.5t44.5 32.5t59 12h170v-296h158v471h-308q-75 0 -138.5 -25t-110.5 -69.5
t-73.5 -105.5t-26.5 -133t26 -130.5t72.5 -100.5t110.5 -64.5t140 -22.5h309l8 -9h-317zM537 476h-161q-31 0 -55.5 -11t-41.5 -30.5t-26 -45.5t-9 -56t9.5 -56t26.5 -45.5t41.5 -31t54.5 -11.5h161v287z" />
    <glyph glyph-name="A" unicode="A" horiz-adv-x="912" 
d="M231 0l7 9h648l-429 656l-435 -665h-12l439 669q1 6 8 6q4 0 9 -6l437 -669h-672z" />
    <glyph glyph-name="B" unicode="B" horiz-adv-x="809" 
d="M57 0v348h553q26 0 51 11.5t45 31t32 46.5t12 57q0 79 -48 122.5t-139 43.5h-499l8 9h491q94 0 145 -45t51 -130q0 -32 -11 -57.5t-28.5 -45t-38 -31.5t-39.5 -16q22 -5 45 -17.5t41.5 -33t30.5 -49.5t12 -67q0 -36 -12 -68.5t-38 -56.5t-66.5 -38t-97.5 -14h-500z
M66 339v-330h491q54 0 93 14t64 37t36.5 53.5t11.5 63.5q0 36 -13 66t-34 51t-48.5 33t-56.5 12h-544z" />
    <glyph glyph-name="C" unicode="C" horiz-adv-x="789" 
d="M405 0q-80 0 -147 26t-116 71.5t-76.5 108t-27.5 135.5t27.5 133.5t76.5 104t116 67t147 23.5h377l-8 -9h-369q-77 0 -142.5 -23t-113.5 -65t-75 -101t-27 -130t27 -131.5t75 -105t113.5 -70t142.5 -25.5h377l-8 -9h-369z" />
    <glyph glyph-name="D" unicode="D" horiz-adv-x="824" 
d="M57 0v417h9v-408h375q72 0 133.5 25.5t106.5 70t70.5 105t25.5 131.5q0 70 -25 128.5t-70 101t-106.5 66t-134.5 23.5h-384l7 9h377q75 0 138.5 -24t109 -67.5t71.5 -104t26 -132.5q0 -73 -26 -135.5t-72 -108t-109.5 -71.5t-137.5 -26h-384z" />
    <glyph glyph-name="E" unicode="E" horiz-adv-x="716" 
d="M57 0v669h646l-7 -9h-630v-314h613l-8 -9h-605v-328h644l-8 -9h-645z" />
    <glyph glyph-name="F" unicode="F" horiz-adv-x="697" 
d="M66 324v-324h-9v669h635l-8 -9h-618v-327h591l-8 -9h-583z" />
    <glyph glyph-name="G" unicode="G" horiz-adv-x="820" 
d="M405 0q-80 0 -147 26t-116 71.5t-76.5 108t-27.5 135.5t27.5 133.5t76.5 104t116 67t147 23.5h381l-7 -9h-374q-77 0 -142.5 -23t-113.5 -65t-75 -101t-27 -130t27 -131.5t75 -105t113.5 -70t142.5 -25.5h340v332h-435l8 9h436v-350h-349z" />
    <glyph glyph-name="H" unicode="H" horiz-adv-x="763" 
d="M696 0v344h-630v-344h-9v669h9v-315h630v315h9v-669h-9z" />
    <glyph glyph-name="I" unicode="I" horiz-adv-x="129" 
d="M60 0v669h9v-669h-9z" />
    <glyph glyph-name="J" unicode="J" horiz-adv-x="591" 
d="M533 669h9v-365q0 -304 -369 -304h-163l8 9h155q360 0 360 295v365z" />
    <glyph glyph-name="K" unicode="K" horiz-adv-x="765" 
d="M739 0l-673 350v-350h-9v669h9v-307l639 307h19l-652 -313l687 -356h-20z" />
    <glyph glyph-name="L" unicode="L" horiz-adv-x="669" 
d="M57 0v669h9v-660h598l-7 -9h-600z" />
    <glyph glyph-name="M" unicode="M" horiz-adv-x="1121" 
d="M1100 0l-266 665l-263 -663q-3 -8 -10 -8q-6 0 -9 8l-263 663l-266 -665h-10l266 667q3 8 10 8q6 0 9 -8l263 -663l263 663q3 8 10 8q6 0 9 -8l266 -667h-9z" />
    <glyph glyph-name="N" unicode="N" horiz-adv-x="799" 
d="M736 669h10v-660q0 -9 -8 -9q-4 0 -9 5l-666 659v-664h-9v666q0 9 8 9q4 0 9 -5l665 -660v659z" />
    <glyph glyph-name="O" unicode="O" 
d="M856 335q0 -180 -101.5 -263t-306.5 -83q-206 0 -308 83t-102 263q0 179 102.5 262t307.5 83q204 0 306 -83t102 -262zM847 335q0 175 -100 255.5t-299 80.5q-200 0 -300.5 -80.5t-100.5 -255.5t100.5 -256t300.5 -81q199 0 299 81t100 256z" />
    <glyph glyph-name="P" unicode="P" horiz-adv-x="844" 
d="M68 265v-265h-9v274h475q58 0 106 11.5t83 34.5t54.5 59t19.5 84t-19.5 85t-54.5 61.5t-83 37.5t-106 13h-479l7 9h472q60 0 110 -13t86 -39t56 -64.5t20 -89.5t-20 -88.5t-56 -62t-86 -36t-110 -11.5h-466z" />
    <glyph glyph-name="Q" unicode="Q" horiz-adv-x="914" 
d="M376 0q-72 0 -133.5 21.5t-107 63.5t-71.5 104.5t-26 145.5q0 179 102.5 262t307.5 83q203 0 305.5 -83t102.5 -262q0 -63 -23 -112h-11q14 29 19.5 56t5.5 56q0 175 -100 255.5t-299 80.5q-200 0 -300.5 -80.5t-100.5 -255.5q0 -80 25.5 -141t69.5 -102t104.5 -62
t129.5 -21h488l-282 278h14l292 -287h-512z" />
    <glyph glyph-name="R" unicode="R" horiz-adv-x="874" 
d="M848 0l-329 265h-451v-265h-9v274h475q58 0 106 11.5t83 34.5t54.5 59t19.5 84t-19.5 85t-54.5 61.5t-83 37.5t-106 13h-479l7 9h472q60 0 110 -13t86 -39t56 -64.5t20 -89.5t-20 -88.5t-56 -62t-86 -36t-110 -11.5l330 -265h-16z" />
    <glyph glyph-name="S" unicode="S" horiz-adv-x="844" 
d="M21 0l7 9h545q121 0 178 39t57 126q0 86 -58 121t-176 35h-267q-123 0 -184 38t-61 127q0 91 60 132.5t185 41.5h502l-7 -9h-494q-121 0 -178.5 -39t-57.5 -126q0 -86 58 -120.5t177 -34.5h267q123 0 183.5 -38t60.5 -128q0 -91 -60 -132.5t-184 -41.5h-553z" />
    <glyph glyph-name="T" unicode="T" horiz-adv-x="800" 
d="M397 0v660h-397l11 9h789l-8 -9h-386v-660h-9z" />
    <glyph glyph-name="U" unicode="U" horiz-adv-x="851" 
d="M792 669h10v-377q0 -303 -359 -303q-206 0 -300.5 75.5t-94.5 227.5v377h10v-377q0 -146 91.5 -220t293.5 -74q349 0 349 294v377z" />
    <glyph glyph-name="V" unicode="V" horiz-adv-x="911" 
d="M891 669h11l-437 -669q-5 -6 -9 -6t-8 6l-438 669h11l435 -665z" />
    <glyph glyph-name="W" unicode="W" horiz-adv-x="1122" 
d="M1099 669h9l-266 -667q-3 -8 -9 -8q-7 0 -10 8l-263 663l-263 -663q-3 -8 -9 -8q-7 0 -10 8l-266 667h10l266 -665l263 663q3 8 9 8q7 0 10 -8l263 -663z" />
    <glyph glyph-name="X" unicode="X" horiz-adv-x="891" 
d="M866 0l-418 344l-418 -344h-15l425 350l-387 319h15l380 -313l380 313h15l-388 -319l426 -350h-15z" />
    <glyph glyph-name="Y" unicode="Y" 
d="M443 0v274l-436 395h14l427 -386l426 386h15l-437 -395v-274h-9z" />
    <glyph glyph-name="Z" unicode="Z" horiz-adv-x="817" 
d="M27 0q-10 0 -10 9q0 6 4 9l752 642h-763l8 9h754q11 0 11 -9q0 -6 -4 -9l-753 -642h783l-7 -9h-775z" />
    <glyph glyph-name="bracketleft" unicode="[" horiz-adv-x="238" 
d="M72 -129v922h124v-9h-115v-903h115v-10h-124z" />
    <glyph glyph-name="backslash" unicode="\" horiz-adv-x="361" 
d="M350 -38l-350 744h10l351 -744h-11z" />
    <glyph glyph-name="bracketright" unicode="]" horiz-adv-x="238" 
d="M43 -129v10h114v903h-114v9h124v-922h-124z" />
    <glyph glyph-name="asciicircum" unicode="^" horiz-adv-x="504" 
d="M453 296l-201 365l-202 -365h-10l207 373h9l208 -373h-11z" />
    <glyph glyph-name="underscore" unicode="_" horiz-adv-x="675" 
d="M0 -92v10h679v-10h-679z" />
    <glyph glyph-name="grave" unicode="`" horiz-adv-x="364" 
d="M43 856v11l279 -142v-10z" />
    <glyph glyph-name="a" unicode="a" horiz-adv-x="912" 
d="M231 0l7 9h648l-429 656l-435 -665h-12l439 669q1 6 8 6q4 0 9 -6l437 -669h-672z" />
    <glyph glyph-name="b" unicode="b" horiz-adv-x="809" 
d="M57 0v348h553q26 0 51 11.5t45 31t32 46.5t12 57q0 79 -48 122.5t-139 43.5h-499l8 9h491q94 0 145 -45t51 -130q0 -32 -11 -57.5t-28.5 -45t-38 -31.5t-39.5 -16q22 -5 45 -17.5t41.5 -33t30.5 -49.5t12 -67q0 -36 -12 -68.5t-38 -56.5t-66.5 -38t-97.5 -14h-500z
M66 339v-330h491q54 0 93 14t64 37t36.5 53.5t11.5 63.5q0 36 -13 66t-34 51t-48.5 33t-56.5 12h-544z" />
    <glyph glyph-name="c" unicode="c" horiz-adv-x="789" 
d="M405 0q-80 0 -147 26t-116 71.5t-76.5 108t-27.5 135.5t27.5 133.5t76.5 104t116 67t147 23.5h377l-8 -9h-369q-77 0 -142.5 -23t-113.5 -65t-75 -101t-27 -130t27 -131.5t75 -105t113.5 -70t142.5 -25.5h377l-8 -9h-369z" />
    <glyph glyph-name="d" unicode="d" horiz-adv-x="824" 
d="M57 0v417h9v-408h375q72 0 133.5 25.5t106.5 70t70.5 105t25.5 131.5q0 70 -25 128.5t-70 101t-106.5 66t-134.5 23.5h-384l7 9h377q75 0 138.5 -24t109 -67.5t71.5 -104t26 -132.5q0 -73 -26 -135.5t-72 -108t-109.5 -71.5t-137.5 -26h-384z" />
    <glyph glyph-name="e" unicode="e" horiz-adv-x="716" 
d="M57 0v669h646l-7 -9h-630v-314h613l-8 -9h-605v-328h644l-8 -9h-645z" />
    <glyph glyph-name="f" unicode="f" horiz-adv-x="697" 
d="M66 324v-324h-9v669h635l-8 -9h-618v-327h591l-8 -9h-583z" />
    <glyph glyph-name="g" unicode="g" horiz-adv-x="820" 
d="M405 0q-80 0 -147 26t-116 71.5t-76.5 108t-27.5 135.5t27.5 133.5t76.5 104t116 67t147 23.5h381l-7 -9h-374q-77 0 -142.5 -23t-113.5 -65t-75 -101t-27 -130t27 -131.5t75 -105t113.5 -70t142.5 -25.5h340v332h-435l8 9h436v-350h-349z" />
    <glyph glyph-name="h" unicode="h" horiz-adv-x="763" 
d="M696 0v344h-630v-344h-9v669h9v-315h630v315h9v-669h-9z" />
    <glyph glyph-name="i" unicode="i" horiz-adv-x="129" 
d="M60 0v669h9v-669h-9z" />
    <glyph glyph-name="j" unicode="j" horiz-adv-x="591" 
d="M533 669h9v-365q0 -304 -369 -304h-163l8 9h155q360 0 360 295v365z" />
    <glyph glyph-name="k" unicode="k" horiz-adv-x="765" 
d="M739 0l-673 350v-350h-9v669h9v-307l639 307h19l-652 -313l687 -356h-20z" />
    <glyph glyph-name="l" unicode="l" horiz-adv-x="669" 
d="M57 0v669h9v-660h598l-7 -9h-600z" />
    <glyph glyph-name="m" unicode="m" horiz-adv-x="1121" 
d="M1100 0l-266 665l-263 -663q-3 -8 -10 -8q-6 0 -9 8l-263 663l-266 -665h-10l266 667q3 8 10 8q6 0 9 -8l263 -663l263 663q3 8 10 8q6 0 9 -8l266 -667h-9z" />
    <glyph glyph-name="n" unicode="n" horiz-adv-x="799" 
d="M736 669h10v-660q0 -9 -8 -9q-4 0 -9 5l-666 659v-664h-9v666q0 9 8 9q4 0 9 -5l665 -660v659z" />
    <glyph glyph-name="o" unicode="o" 
d="M856 335q0 -180 -101.5 -263t-306.5 -83q-206 0 -308 83t-102 263q0 179 102.5 262t307.5 83q204 0 306 -83t102 -262zM847 335q0 175 -100 255.5t-299 80.5q-200 0 -300.5 -80.5t-100.5 -255.5t100.5 -256t300.5 -81q199 0 299 81t100 256z" />
    <glyph glyph-name="p" unicode="p" horiz-adv-x="844" 
d="M68 265v-265h-9v274h475q58 0 106 11.5t83 34.5t54.5 59t19.5 84t-19.5 85t-54.5 61.5t-83 37.5t-106 13h-479l7 9h472q60 0 110 -13t86 -39t56 -64.5t20 -89.5t-20 -88.5t-56 -62t-86 -36t-110 -11.5h-466z" />
    <glyph glyph-name="q" unicode="q" horiz-adv-x="914" 
d="M376 0q-72 0 -133.5 21.5t-107 63.5t-71.5 104.5t-26 145.5q0 179 102.5 262t307.5 83q203 0 305.5 -83t102.5 -262q0 -63 -23 -112h-11q14 29 19.5 56t5.5 56q0 175 -100 255.5t-299 80.5q-200 0 -300.5 -80.5t-100.5 -255.5q0 -80 25.5 -141t69.5 -102t104.5 -62
t129.5 -21h488l-282 278h14l292 -287h-512z" />
    <glyph glyph-name="r" unicode="r" horiz-adv-x="874" 
d="M848 0l-329 265h-451v-265h-9v274h475q58 0 106 11.5t83 34.5t54.5 59t19.5 84t-19.5 85t-54.5 61.5t-83 37.5t-106 13h-479l7 9h472q60 0 110 -13t86 -39t56 -64.5t20 -89.5t-20 -88.5t-56 -62t-86 -36t-110 -11.5l330 -265h-16z" />
    <glyph glyph-name="s" unicode="s" horiz-adv-x="844" 
d="M21 0l7 9h545q121 0 178 39t57 126q0 86 -58 121t-176 35h-267q-123 0 -184 38t-61 127q0 91 60 132.5t185 41.5h502l-7 -9h-494q-121 0 -178.5 -39t-57.5 -126q0 -86 58 -120.5t177 -34.5h267q123 0 183.5 -38t60.5 -128q0 -91 -60 -132.5t-184 -41.5h-553z" />
    <glyph glyph-name="t" unicode="t" horiz-adv-x="800" 
d="M397 0v660h-397l11 9h789l-8 -9h-386v-660h-9z" />
    <glyph glyph-name="u" unicode="u" horiz-adv-x="851" 
d="M792 669h10v-377q0 -303 -359 -303q-206 0 -300.5 75.5t-94.5 227.5v377h10v-377q0 -146 91.5 -220t293.5 -74q349 0 349 294v377z" />
    <glyph glyph-name="v" unicode="v" horiz-adv-x="911" 
d="M891 669h11l-437 -669q-5 -6 -9 -6t-8 6l-438 669h11l435 -665z" />
    <glyph glyph-name="w" unicode="w" horiz-adv-x="1122" 
d="M1099 669h9l-266 -667q-3 -8 -9 -8q-7 0 -10 8l-263 663l-263 -663q-3 -8 -9 -8q-7 0 -10 8l-266 667h10l266 -665l263 663q3 8 9 8q7 0 10 -8l263 -663z" />
    <glyph glyph-name="x" unicode="x" horiz-adv-x="891" 
d="M866 0l-418 344l-418 -344h-15l425 350l-387 319h15l380 -313l380 313h15l-388 -319l426 -350h-15z" />
    <glyph glyph-name="y" unicode="y" 
d="M443 0v274l-436 395h14l427 -386l426 386h15l-437 -395v-274h-9z" />
    <glyph glyph-name="z" unicode="z" horiz-adv-x="817" 
d="M27 0q-10 0 -10 9q0 6 4 9l752 642h-763l8 9h754q11 0 11 -9q0 -6 -4 -9l-753 -642h783l-7 -9h-775z" />
    <glyph glyph-name="braceleft" unicode="{" horiz-adv-x="314" 
d="M238 -129q-102 0 -102 124v256q0 76 -73 76v10q73 0 73 77v255q0 124 102 124h34v-9h-34q-92 0 -92 -115v-255q0 -39 -17 -58t-35 -24q18 -5 35 -23.5t17 -57.5v-256q0 -114 92 -114h34v-10h-34z" />
    <glyph glyph-name="bar" unicode="|" horiz-adv-x="179" 
d="M84 -99v854h10v-854h-10z" />
    <glyph glyph-name="braceright" unicode="}" horiz-adv-x="315" 
d="M43 -129v10h33q92 0 92 114v256q0 39 17 57.5t36 23.5q-19 5 -36 24t-17 58v255q0 115 -92 115h-33v9h33q102 0 102 -124v-255q0 -77 73 -77v-10q-73 0 -73 -76v-256q0 -124 -102 -124h-33z" />
    <glyph glyph-name="asciitilde" unicode="~" horiz-adv-x="558" 
d="M517 363q-38 -40 -72.5 -53t-65.5 -13q-28 0 -54.5 11t-52 24t-50.5 24t-49 11q-14 0 -29 -2.5t-32 -10t-35.5 -21t-40.5 -35.5v12q38 40 72 53.5t65 13.5q27 0 53 -11t51.5 -24t50.5 -24t51 -11q28 0 61 12.5t77 56.5v-13z" />
    <glyph glyph-name="uni00A0" unicode="&#xa0;" horiz-adv-x="344" 
 />
    <glyph glyph-name="exclamdown" unicode="&#xa1;" horiz-adv-x="119" 
d="M64.0039 541.008l4.99902 -141.991v-400.976h-16.999v400.976l5 141.991h7zM45.0049 659q0 7 4.5 10.5q4.49902 3.5 10.499 3.5q15.999 0 15.999 -14q0 -12.999 -15.999 -12.999q-6 0 -10.499 3.5q-4.5 3.5 -4.5 9.49902z" />
    <glyph glyph-name="cent" unicode="&#xa2;" horiz-adv-x="554" 
d="M316 109v-109h-9v109q-56 0 -104 18t-83 50.5t-55 76.5t-20 95t20 93.5t55 73t83 47.5t104 17v89h9v-89h209l-7 -9h-202v-453h207l-7 -9h-200zM307 571q-54 0 -100 -16t-80 -45.5t-53 -70.5t-19 -90q0 -50 19 -92t53 -73t80 -48.5t100 -17.5v453z" />
    <glyph glyph-name="sterling" unicode="&#xa3;" horiz-adv-x="724" 
d="M40 0l7 9h164v324h-211l8 10h203v118q0 47 15 85.5t47.5 65.5t82.5 42t119 15h238l-8 -9h-230q-67 0 -115 -14t-79 -40.5t-45.5 -63t-14.5 -81.5v-118h320l-7 -10h-313v-324h496l-7 -9h-670z" />
    <glyph glyph-name="yen" unicode="&#xa5;" 
d="M443 0v142h-369v9h369v122h-369v10h359l-426 386h14l427 -386l426 386h15l-427 -386h358v-10h-368v-122h368v-9h-368v-142h-9z" />
    <glyph glyph-name="brokenbar" unicode="&#xa6;" horiz-adv-x="179" 
d="M84 -99v383h10v-383h-10zM94 411h-10v344h10v-344z" />
    <glyph glyph-name="dieresis" unicode="&#xa8;" horiz-adv-x="316" 
d="M73 804q0 -6 -4.5 -9.5t-10.5 -3.5q-15 0 -15 13q0 14 15 14q6 0 10.5 -3.5t4.5 -10.5zM274 804q0 -13 -16 -13q-6 0 -10.5 3.5t-4.5 9.5q0 7 4.5 10.5t10.5 3.5q16 0 16 -14z" />
    <glyph glyph-name="copyright" unicode="&#xa9;" horiz-adv-x="769" 
d="M385 -11q-72 0 -135 27t-110 74t-74 110t-27 135t27 135t74 110t110 74t135 27t135 -27t110 -74t74.5 -110t27.5 -135t-27.5 -135t-74.5 -110t-110 -74t-135 -27zM722 335q0 70 -26.5 131t-72.5 107t-107 72.5t-131 26.5q-69 0 -130.5 -26.5t-107.5 -72.5t-72.5 -107
t-26.5 -131q0 -69 26.5 -130.5t72.5 -107.5t107.5 -72.5t130.5 -26.5q70 0 131 26.5t107 72.5t72.5 107.5t26.5 130.5zM381 174q-37 0 -68.5 12.5t-54.5 34t-36 51.5t-13 65t13 64t36 49.5t54.5 32t68.5 11.5h101l-8 -9h-93q-35 0 -64.5 -11t-51.5 -30.5t-34 -46.5t-12 -60
t12 -61t34 -48.5t51.5 -32t64.5 -11.5h102l-8 -10h-94z" />
    <glyph glyph-name="ordfeminine" unicode="&#xaa;" horiz-adv-x="558" 
d="M151 282l9 9h352q-60 91 -116 177.5t-116 177.5l-238 -364h-12l241 367q3 6 9 6q4 0 9 -5l240 -368h-378z" />
    <glyph glyph-name="guillemotleft" unicode="&#xab;" horiz-adv-x="409" 
d="M26 321v7l175 143v-12l-165 -134l165 -135v-12zM197 321v7l174 143v-12l-165 -134l165 -135v-12z" />
    <glyph glyph-name="registered" unicode="&#xae;" horiz-adv-x="495" 
d="M457 484q0 -39 -16 -74.5t-44.5 -62.5t-67 -43t-83.5 -16q-46 0 -84 16t-65.5 43t-43 62.5t-15.5 74.5t15.5 74.5t43 62.5t65.5 43t84 16t84.5 -15.5t66.5 -42t44 -62.5t16 -76zM448 484q0 39 -15.5 73t-42.5 59.5t-64 40t-80 14.5q-44 0 -80.5 -15t-62.5 -41t-41 -60
t-15 -71t15 -71t41 -59.5t62.5 -41t80.5 -15.5q43 0 80 15.5t64 41t42.5 59.5t15.5 71zM340 404l-82 67h-90v-62h-9v72h103q26 0 43 10t17 31q0 23 -17 34t-43 11h-96l7 9h89q32 0 50.5 -13t18.5 -41q0 -24 -15 -36.5t-42 -14.5l83 -67h-17z" />
    <glyph glyph-name="macron" unicode="&#xaf;" horiz-adv-x="364" 
d="M43 787v10h279v-10h-279z" />
    <glyph glyph-name="degree" unicode="&#xb0;" horiz-adv-x="324" 
d="M165 415q-122 0 -122 132q0 133 122 133t122 -133q0 -132 -122 -132zM165 424q112 0 112 123q0 124 -112 124q-113 0 -113 -124q0 -123 113 -123z" />
    <glyph glyph-name="plusminus" unicode="&#xb1;" horiz-adv-x="621" 
d="M306 68v269h-268v9h268v268h9v-268h269v-9h-269v-269h-9zM38 -25v9h546v-9h-546z" />
    <glyph glyph-name="uni00B2" unicode="&#xb2;" horiz-adv-x="440" 
d="M34 351v90q0 45 28.5 64.5t82.5 19.5h132q66 0 91.5 20t25.5 58q0 34 -26.5 55.5t-91.5 21.5h-219l7 8h212q69 0 97.5 -23.5t28.5 -61.5q0 -42 -28 -64.5t-97 -22.5h-132q-51 0 -76.5 -16.5t-25.5 -58.5v-82h369l-7 -8h-371z" />
    <glyph glyph-name="uni00B3" unicode="&#xb3;" horiz-adv-x="416" 
d="M14 351l8 8h254q54 0 77.5 25t23.5 57q0 35 -22.5 57t-51.5 22h-200l8 9h192q26 0 47 20.5t21 50.5q0 38 -23.5 59t-68.5 21h-253l8 8h245q48 0 74 -23t26 -65q0 -30 -16.5 -50t-36.5 -26q21 -8 40 -28t19 -55q0 -38 -25.5 -64t-83.5 -26h-262z" />
    <glyph glyph-name="acute" unicode="&#xb4;" horiz-adv-x="364" 
d="M43 715v10l279 142v-11z" />
    <glyph glyph-name="periodcentered" unicode="&#xb7;" horiz-adv-x="105" 
d="M68 337q0 -13 -15 -13t-15 13t15 13t15 -13z" />
    <glyph glyph-name="cedilla" unicode="&#xb8;" horiz-adv-x="179" 
d="M59 -255l37 224h13l-42 -224h-8z" />
    <glyph glyph-name="uni00B9" unicode="&#xb9;" horiz-adv-x="149" 
d="M99 351v329h-14l-59 -82h-10l65 90h27v-337h-9z" />
    <glyph glyph-name="ordmasculine" unicode="&#xba;" horiz-adv-x="549" 
d="M502 468q0 -100 -56.5 -146.5t-171.5 -46.5q-114 0 -170.5 46.5t-56.5 146.5t56.5 146t170.5 46q115 0 171.5 -46t56.5 -146zM492 468q0 97 -53.5 140t-164.5 43q-109 0 -163 -43t-54 -140t54 -140t163 -43q111 0 164.5 43t53.5 140z" />
    <glyph glyph-name="guillemotright" unicode="&#xbb;" horiz-adv-x="409" 
d="M212 178v12l165 135l-165 134v12l174 -143v-7zM42 178v12l164 135l-164 134v12l174 -143v-7z" />
    <glyph glyph-name="onequarter" unicode="&#xbc;" horiz-adv-x="816" 
d="M130 351v329h-14l-59 -82h-10l65 90h27v-337h-9zM37 -38l563 744h12l-562 -744h-13zM700 -11v79h-306q-6 0 -6 7q0 3 2 5l307 247l6 2q5 0 5 -6v-246h74l-7 -9h-67v-79h-8zM700 319l-300 -242h300v242z" />
    <glyph glyph-name="onehalf" unicode="&#xbd;" horiz-adv-x="834" 
d="M130 351v329h-14l-59 -82h-10l65 90h27v-337h-9zM37 -38l563 744h12l-562 -744h-13zM422 -11v90q0 45 28.5 64.5t82.5 19.5h132q66 0 91.5 20t25.5 58q0 34 -26.5 55.5t-91.5 21.5h-219l7 8h212q69 0 97.5 -23.5t28.5 -61.5q0 -42 -28 -64.5t-97 -22.5h-132
q-51 0 -76.5 -16.5t-25.5 -58.5v-82h369l-7 -8h-371z" />
    <glyph glyph-name="threequarters" unicode="&#xbe;" horiz-adv-x="900" 
d="M34 351l8 8h254q54 0 77.5 25t23.5 57q0 35 -22.5 57t-51.5 22h-200l8 9h192q26 0 47 20.5t21 50.5q0 38 -23.5 59t-68.5 21h-253l8 8h245q48 0 74 -23t26 -65q0 -30 -16.5 -50t-36.5 -26q21 -8 40 -28t19 -55q0 -38 -25.5 -64t-83.5 -26h-262zM162 -38l563 744h12
l-562 -744h-13zM784 -11v79h-306q-6 0 -6 7q0 3 2 5l307 247l6 2q5 0 5 -6v-246h74l-7 -9h-67v-79h-8zM784 319l-300 -242h300v242z" />
    <glyph glyph-name="questiondown" unicode="&#xbf;" horiz-adv-x="634" 
d="M297.021 357.02q62.9961 0 88.4941 25.998q25.499 25.998 25.499 76.9951v84.9951h9.99902v-84.9951q0 -53.9971 -27.498 -83.4951t-96.4941 -29.498h-79.9951q-95.9941 0 -141.491 -44.4971t-45.4971 -117.493q0 -79.9951 50.4961 -127.992
q50.4971 -47.9971 165.49 -47.9971h373.978l-8 -8.99902h-365.978q-59.9961 0 -102.494 13.499q-42.4971 13.499 -69.9951 37.498q-27.498 23.998 -39.998 57.9961q-12.499 33.998 -12.499 75.9951q0 76.9951 47.4971 124.492q47.4971 47.498 148.491 47.498h79.9951z
M401.014 661q0 7 4.5 10.5t10.499 3.5q14.999 0 14.999 -14q0 -12.999 -14.999 -12.999q-5.99902 0 -10.499 3.5t-4.5 9.49902z" />
    <glyph glyph-name="Agrave" unicode="&#xc0;" horiz-adv-x="912" 
d="M231 0l7 9h648l-429 656l-435 -665h-12l439 669q1 6 8 6q4 0 9 -6l437 -669h-672zM288 856v11l279 -142v-10z" />
    <glyph glyph-name="Aacute" unicode="&#xc1;" horiz-adv-x="912" 
d="M231 0l7 9h648l-429 656l-435 -665h-12l439 669q1 6 8 6q4 0 9 -6l437 -669h-672zM345 715v10l279 142v-11z" />
    <glyph glyph-name="Acircumflex" unicode="&#xc2;" horiz-adv-x="912" 
d="M231 0l7 9h648l-429 656l-435 -665h-12l439 669q1 6 8 6q4 0 9 -6l437 -669h-672zM590 715l-134 144l-135 -144h-15l142 152h16l142 -152h-16z" />
    <glyph glyph-name="Atilde" unicode="&#xc3;" horiz-adv-x="912" 
d="M231 0l7 9h648l-429 656l-435 -665h-12l439 669q1 6 8 6q4 0 9 -6l437 -669h-672zM596 803q-14 -32 -31.5 -44t-40.5 -12q-20 0 -37 12.5t-33.5 27t-32.5 27t-32 12.5q-20 0 -37.5 -12.5t-34.5 -54.5v21q14 32 31.5 44t40.5 12q19 0 36 -12.5t33 -27.5t32 -27.5t34 -12.5
q19 0 37 13t35 54v-20z" />
    <glyph glyph-name="Adieresis" unicode="&#xc4;" horiz-adv-x="912" 
d="M231 0l7 9h648l-429 656l-435 -665h-12l439 669q1 6 8 6q4 0 9 -6l437 -669h-672zM371 804q0 -6 -4.5 -9.5t-10.5 -3.5q-15 0 -15 13q0 14 15 14q6 0 10.5 -3.5t4.5 -10.5zM572 804q0 -13 -16 -13q-6 0 -10.5 3.5t-4.5 9.5q0 7 4.5 10.5t10.5 3.5q16 0 16 -14z" />
    <glyph glyph-name="Aring" unicode="&#xc5;" horiz-adv-x="912" 
d="M231 0l7 9h648l-429 656l-435 -665h-12l439 669q1 6 8 6q4 0 9 -6l437 -669h-672zM424 715q-103 0 -103 83v63q0 84 103 84h62q104 0 104 -84v-63q0 -83 -104 -83h-62zM581 861q0 75 -95 75h-62q-94 0 -94 -75v-63q0 -74 94 -74h62q95 0 95 74v63z" />
    <glyph glyph-name="AE" unicode="&#xc6;" horiz-adv-x="1323" 
d="M662 0v660h-169l-472 -660h-11l473 662q4 7 16 7h810l-8 -9h-629v-314h612l-7 -9h-605v-328h643l-7 -9h-646z" />
    <glyph glyph-name="Ccedilla" unicode="&#xc7;" horiz-adv-x="789" 
d="M405 0q-80 0 -147 26t-116 71.5t-76.5 108t-27.5 135.5t27.5 133.5t76.5 104t116 67t147 23.5h377l-8 -9h-369q-77 0 -142.5 -23t-113.5 -65t-75 -101t-27 -130t27 -131.5t75 -105t113.5 -70t142.5 -25.5h377l-8 -9h-369zM413 -255l37 224h13l-42 -224h-8z" />
    <glyph glyph-name="Egrave" unicode="&#xc8;" horiz-adv-x="716" 
d="M57 0v669h646l-7 -9h-630v-314h613l-8 -9h-605v-328h644l-8 -9h-645zM228 856v11l279 -142v-10z" />
    <glyph glyph-name="Eacute" unicode="&#xc9;" horiz-adv-x="716" 
d="M57 0v669h646l-7 -9h-630v-314h613l-8 -9h-605v-328h644l-8 -9h-645zM251 715v10l279 142v-11z" />
    <glyph glyph-name="Ecircumflex" unicode="&#xca;" horiz-adv-x="716" 
d="M57 0v669h646l-7 -9h-630v-314h613l-8 -9h-605v-328h644l-8 -9h-645zM504 715l-134 144l-135 -144h-15l142 152h16l142 -152h-16z" />
    <glyph glyph-name="Edieresis" unicode="&#xcb;" horiz-adv-x="716" 
d="M57 0v669h646l-7 -9h-630v-314h613l-8 -9h-605v-328h644l-8 -9h-645zM294 804q0 -6 -4.5 -9.5t-10.5 -3.5q-15 0 -15 13q0 14 15 14q6 0 10.5 -3.5t4.5 -10.5zM495 804q0 -13 -16 -13q-6 0 -10.5 3.5t-4.5 9.5q0 7 4.5 10.5t10.5 3.5q16 0 16 -14z" />
    <glyph glyph-name="Igrave" unicode="&#xcc;" horiz-adv-x="129" 
d="M60 0v669h9v-669h-9zM-102 856v11l279 -142v-10z" />
    <glyph glyph-name="Iacute" unicode="&#xcd;" horiz-adv-x="129" 
d="M60 0v669h9v-669h-9zM-45 715v10l279 142v-11z" />
    <glyph glyph-name="Icircumflex" unicode="&#xce;" horiz-adv-x="129" 
d="M60 0v669h9v-669h-9zM200 715l-134 144l-135 -144h-15l142 152h16l142 -152h-16z" />
    <glyph glyph-name="Idieresis" unicode="&#xcf;" horiz-adv-x="129" 
d="M60 0v669h9v-669h-9zM-20 804q0 -6 -4.5 -9.5t-10.5 -3.5q-15 0 -15 13q0 14 15 14q6 0 10.5 -3.5t4.5 -10.5zM181 804q0 -13 -16 -13q-6 0 -10.5 3.5t-4.5 9.5q0 7 4.5 10.5t10.5 3.5q16 0 16 -14z" />
    <glyph glyph-name="Eth" unicode="&#xd0;" horiz-adv-x="882" 
d="M115 0v337h-115l8 9h563l-8 -9h-439v-328h375q72 0 133.5 25.5t106.5 70t70.5 105t25.5 131.5q0 70 -25 128.5t-70 101t-106.5 66t-134.5 23.5h-384l7 9h377q75 0 138 -24t109 -67.5t72 -104t26 -132.5q0 -73 -26 -135.5t-72 -108t-109.5 -71.5t-137.5 -26h-384z" />
    <glyph glyph-name="Ntilde" unicode="&#xd1;" horiz-adv-x="799" 
d="M736 669h10v-660q0 -9 -8 -9q-4 0 -9 5l-666 659v-664h-9v666q0 9 8 9q4 0 9 -5l665 -660v659zM548 803q-14 -32 -31.5 -44t-40.5 -12q-20 0 -37 12.5t-33.5 27t-32.5 27t-32 12.5q-20 0 -37.5 -12.5t-34.5 -54.5v21q14 32 31.5 44t40.5 12q19 0 36 -12.5t33 -27.5
t32 -27.5t34 -12.5q19 0 37 13t35 54v-20z" />
    <glyph glyph-name="Ograve" unicode="&#xd2;" 
d="M856 335q0 -180 -101.5 -263t-306.5 -83q-206 0 -308 83t-102 263q0 179 102.5 262t307.5 83q204 0 306 -83t102 -262zM847 335q0 175 -100 255.5t-299 80.5q-200 0 -300.5 -80.5t-100.5 -255.5t100.5 -256t300.5 -81q199 0 299 81t100 256zM280 856v11l279 -142v-10z
" />
    <glyph glyph-name="Oacute" unicode="&#xd3;" 
d="M856 335q0 -180 -101.5 -263t-306.5 -83q-206 0 -308 83t-102 263q0 179 102.5 262t307.5 83q204 0 306 -83t102 -262zM847 335q0 175 -100 255.5t-299 80.5q-200 0 -300.5 -80.5t-100.5 -255.5t100.5 -256t300.5 -81q199 0 299 81t100 256zM336 715v10l279 142v-11z" />
    <glyph glyph-name="Ocircumflex" unicode="&#xd4;" 
d="M856 335q0 -180 -101.5 -263t-306.5 -83q-206 0 -308 83t-102 263q0 179 102.5 262t307.5 83q204 0 306 -83t102 -262zM847 335q0 175 -100 255.5t-299 80.5q-200 0 -300.5 -80.5t-100.5 -255.5t100.5 -256t300.5 -81q199 0 299 81t100 256zM582 715l-134 144l-135 -144
h-15l142 152h16l142 -152h-16z" />
    <glyph glyph-name="Otilde" unicode="&#xd5;" 
d="M856 335q0 -180 -101.5 -263t-306.5 -83q-206 0 -308 83t-102 263q0 179 102.5 262t307.5 83q204 0 306 -83t102 -262zM847 335q0 175 -100 255.5t-299 80.5q-200 0 -300.5 -80.5t-100.5 -255.5t100.5 -256t300.5 -81q199 0 299 81t100 256zM587 803q-14 -32 -31.5 -44
t-40.5 -12q-20 0 -37 12.5t-33.5 27t-32.5 27t-32 12.5q-20 0 -37.5 -12.5t-34.5 -54.5v21q14 32 31.5 44t40.5 12q19 0 36 -12.5t33 -27.5t32 -27.5t34 -12.5q19 0 37 13t35 54v-20z" />
    <glyph glyph-name="Odieresis" unicode="&#xd6;" 
d="M856 335q0 -180 -101.5 -263t-306.5 -83q-206 0 -308 83t-102 263q0 179 102.5 262t307.5 83q204 0 306 -83t102 -262zM847 335q0 175 -100 255.5t-299 80.5q-200 0 -300.5 -80.5t-100.5 -255.5t100.5 -256t300.5 -81q199 0 299 81t100 256zM362 804q0 -6 -4.5 -9.5
t-10.5 -3.5q-15 0 -15 13q0 14 15 14q6 0 10.5 -3.5t4.5 -10.5zM563 804q0 -13 -16 -13q-6 0 -10.5 3.5t-4.5 9.5q0 7 4.5 10.5t10.5 3.5q16 0 16 -14z" />
    <glyph glyph-name="multiply" unicode="&#xd7;" horiz-adv-x="621" 
d="M500 145l-191 190l-189 -189l-6 6l189 190l-189 189l6 7l189 -190l191 190l6 -6l-190 -190l190 -191z" />
    <glyph glyph-name="Oslash" unicode="&#xd8;" 
d="M90 -42l83 90q-135 82 -135 287q0 179 102.5 262t307.5 83q163 0 262 -53l82 89l8 -5l-83 -88q139 -82 139 -288q0 -180 -101.5 -263t-306.5 -83q-169 0 -266 55l-85 -91zM188 51q97 -53 260 -53q199 0 299 81t100 256q0 201 -136 280zM702 620q-95 51 -254 51
q-200 0 -300.5 -80.5t-100.5 -255.5q0 -102 33.5 -169.5t100.5 -109.5z" />
    <glyph glyph-name="Ugrave" unicode="&#xd9;" horiz-adv-x="851" 
d="M792 669h10v-377q0 -303 -359 -303q-206 0 -300.5 75.5t-94.5 227.5v377h10v-377q0 -146 91.5 -220t293.5 -74q349 0 349 294v377zM258 856v11l279 -142v-10z" />
    <glyph glyph-name="Uacute" unicode="&#xda;" horiz-adv-x="851" 
d="M792 669h10v-377q0 -303 -359 -303q-206 0 -300.5 75.5t-94.5 227.5v377h10v-377q0 -146 91.5 -220t293.5 -74q349 0 349 294v377zM315 715v10l279 142v-11z" />
    <glyph glyph-name="Ucircumflex" unicode="&#xdb;" horiz-adv-x="851" 
d="M792 669h10v-377q0 -303 -359 -303q-206 0 -300.5 75.5t-94.5 227.5v377h10v-377q0 -146 91.5 -220t293.5 -74q349 0 349 294v377zM560 715l-134 144l-135 -144h-15l142 152h16l142 -152h-16z" />
    <glyph glyph-name="Udieresis" unicode="&#xdc;" horiz-adv-x="851" 
d="M792 669h10v-377q0 -303 -359 -303q-206 0 -300.5 75.5t-94.5 227.5v377h10v-377q0 -146 91.5 -220t293.5 -74q349 0 349 294v377zM340 804q0 -6 -4.5 -9.5t-10.5 -3.5q-15 0 -15 13q0 14 15 14q6 0 10.5 -3.5t4.5 -10.5zM541 804q0 -13 -16 -13q-6 0 -10.5 3.5t-4.5 9.5
q0 7 4.5 10.5t10.5 3.5q16 0 16 -14z" />
    <glyph glyph-name="Yacute" unicode="&#xdd;" 
d="M443 0v274l-436 395h14l427 -386l426 386h15l-437 -395v-274h-9zM310 715v10l279 142v-11z" />
    <glyph glyph-name="Thorn" unicode="&#xde;" horiz-adv-x="800" 
d="M214 119l7 10h273q58 0 106 12.5t83 37.5t54.5 62t19.5 85t-19.5 83.5t-54.5 58.5t-83 34.5t-106 11.5h-428v-514h-9v669h9v-146h428q60 0 110.5 -11.5t86.5 -36t56 -61.5t20 -88t-20 -90t-56.5 -65t-86.5 -39t-110 -13h-280z" />
    <glyph glyph-name="germandbls" unicode="&#xdf;" horiz-adv-x="1688" 
d="M21 0l7 9h545q121 0 178 39t57 126q0 86 -58 121t-176 35h-267q-123 0 -184 38t-61 127q0 91 60 132.5t185 41.5h502l-7 -9h-494q-121 0 -178.5 -39t-57.5 -126q0 -86 58 -120.5t177 -34.5h267q123 0 183.5 -38t60.5 -128q0 -91 -60 -132.5t-184 -41.5h-553zM865 0l7 9
h545q121 0 178 39t57 126q0 86 -58 121t-176 35h-267q-123 0 -184 38t-61 127q0 91 60 132.5t185 41.5h502l-7 -9h-494q-121 0 -178.5 -39t-57.5 -126q0 -86 58 -120.5t177 -34.5h267q123 0 183.5 -38t60.5 -128q0 -91 -60 -132.5t-184 -41.5h-553z" />
    <glyph glyph-name="agrave" unicode="&#xe0;" horiz-adv-x="912" 
d="M231 0l7 9h648l-429 656l-435 -665h-12l439 669q1 6 8 6q4 0 9 -6l437 -669h-672zM288 856v11l279 -142v-10z" />
    <glyph glyph-name="aacute" unicode="&#xe1;" horiz-adv-x="912" 
d="M231 0l7 9h648l-429 656l-435 -665h-12l439 669q1 6 8 6q4 0 9 -6l437 -669h-672zM345 715v10l279 142v-11z" />
    <glyph glyph-name="acircumflex" unicode="&#xe2;" horiz-adv-x="912" 
d="M231 0l7 9h648l-429 656l-435 -665h-12l439 669q1 6 8 6q4 0 9 -6l437 -669h-672zM590 715l-134 144l-135 -144h-15l142 152h16l142 -152h-16z" />
    <glyph glyph-name="atilde" unicode="&#xe3;" horiz-adv-x="912" 
d="M231 0l7 9h648l-429 656l-435 -665h-12l439 669q1 6 8 6q4 0 9 -6l437 -669h-672zM596 803q-14 -32 -31.5 -44t-40.5 -12q-20 0 -37 12.5t-33.5 27t-32.5 27t-32 12.5q-20 0 -37.5 -12.5t-34.5 -54.5v21q14 32 31.5 44t40.5 12q19 0 36 -12.5t33 -27.5t32 -27.5t34 -12.5
q19 0 37 13t35 54v-20z" />
    <glyph glyph-name="adieresis" unicode="&#xe4;" horiz-adv-x="912" 
d="M231 0l7 9h648l-429 656l-435 -665h-12l439 669q1 6 8 6q4 0 9 -6l437 -669h-672zM371 804q0 -6 -4.5 -9.5t-10.5 -3.5q-15 0 -15 13q0 14 15 14q6 0 10.5 -3.5t4.5 -10.5zM572 804q0 -13 -16 -13q-6 0 -10.5 3.5t-4.5 9.5q0 7 4.5 10.5t10.5 3.5q16 0 16 -14z" />
    <glyph glyph-name="aring" unicode="&#xe5;" horiz-adv-x="912" 
d="M231 0l7 9h648l-429 656l-435 -665h-12l439 669q1 6 8 6q4 0 9 -6l437 -669h-672zM424 715q-103 0 -103 83v63q0 84 103 84h62q104 0 104 -84v-63q0 -83 -104 -83h-62zM581 861q0 75 -95 75h-62q-94 0 -94 -75v-63q0 -74 94 -74h62q95 0 95 74v63z" />
    <glyph glyph-name="ae" unicode="&#xe6;" horiz-adv-x="1323" 
d="M662 0v660h-169l-472 -660h-11l473 662q4 7 16 7h810l-8 -9h-629v-314h612l-7 -9h-605v-328h643l-7 -9h-646z" />
    <glyph glyph-name="ccedilla" unicode="&#xe7;" horiz-adv-x="789" 
d="M405 0q-80 0 -147 26t-116 71.5t-76.5 108t-27.5 135.5t27.5 133.5t76.5 104t116 67t147 23.5h377l-8 -9h-369q-77 0 -142.5 -23t-113.5 -65t-75 -101t-27 -130t27 -131.5t75 -105t113.5 -70t142.5 -25.5h377l-8 -9h-369zM413 -255l37 224h13l-42 -224h-8z" />
    <glyph glyph-name="egrave" unicode="&#xe8;" horiz-adv-x="716" 
d="M57 0v669h646l-7 -9h-630v-314h613l-8 -9h-605v-328h644l-8 -9h-645zM228 856v11l279 -142v-10z" />
    <glyph glyph-name="eacute" unicode="&#xe9;" horiz-adv-x="716" 
d="M57 0v669h646l-7 -9h-630v-314h613l-8 -9h-605v-328h644l-8 -9h-645zM251 715v10l279 142v-11z" />
    <glyph glyph-name="ecircumflex" unicode="&#xea;" horiz-adv-x="716" 
d="M57 0v669h646l-7 -9h-630v-314h613l-8 -9h-605v-328h644l-8 -9h-645zM504 715l-134 144l-135 -144h-15l142 152h16l142 -152h-16z" />
    <glyph glyph-name="edieresis" unicode="&#xeb;" horiz-adv-x="716" 
d="M57 0v669h646l-7 -9h-630v-314h613l-8 -9h-605v-328h644l-8 -9h-645zM294 804q0 -6 -4.5 -9.5t-10.5 -3.5q-15 0 -15 13q0 14 15 14q6 0 10.5 -3.5t4.5 -10.5zM495 804q0 -13 -16 -13q-6 0 -10.5 3.5t-4.5 9.5q0 7 4.5 10.5t10.5 3.5q16 0 16 -14z" />
    <glyph glyph-name="igrave" unicode="&#xec;" horiz-adv-x="129" 
d="M60 0v669h9v-669h-9zM-102 856v11l279 -142v-10z" />
    <glyph glyph-name="iacute" unicode="&#xed;" horiz-adv-x="129" 
d="M60 0v669h9v-669h-9zM-45 715v10l279 142v-11z" />
    <glyph glyph-name="icircumflex" unicode="&#xee;" horiz-adv-x="129" 
d="M60 0v669h9v-669h-9zM200 715l-134 144l-135 -144h-15l142 152h16l142 -152h-16z" />
    <glyph glyph-name="idieresis" unicode="&#xef;" horiz-adv-x="129" 
d="M60 0v669h9v-669h-9zM-20 804q0 -6 -4.5 -9.5t-10.5 -3.5q-15 0 -15 13q0 14 15 14q6 0 10.5 -3.5t4.5 -10.5zM181 804q0 -13 -16 -13q-6 0 -10.5 3.5t-4.5 9.5q0 7 4.5 10.5t10.5 3.5q16 0 16 -14z" />
    <glyph glyph-name="eth" unicode="&#xf0;" horiz-adv-x="882" 
d="M115 0v337h-115l8 9h563l-8 -9h-439v-328h375q72 0 133.5 25.5t106.5 70t70.5 105t25.5 131.5q0 70 -25 128.5t-70 101t-106.5 66t-134.5 23.5h-384l7 9h377q75 0 138 -24t109 -67.5t72 -104t26 -132.5q0 -73 -26 -135.5t-72 -108t-109.5 -71.5t-137.5 -26h-384z" />
    <glyph glyph-name="ntilde" unicode="&#xf1;" horiz-adv-x="799" 
d="M736 669h10v-660q0 -9 -8 -9q-4 0 -9 5l-666 659v-664h-9v666q0 9 8 9q4 0 9 -5l665 -660v659zM548 803q-14 -32 -31.5 -44t-40.5 -12q-20 0 -37 12.5t-33.5 27t-32.5 27t-32 12.5q-20 0 -37.5 -12.5t-34.5 -54.5v21q14 32 31.5 44t40.5 12q19 0 36 -12.5t33 -27.5
t32 -27.5t34 -12.5q19 0 37 13t35 54v-20z" />
    <glyph glyph-name="ograve" unicode="&#xf2;" 
d="M856 335q0 -180 -101.5 -263t-306.5 -83q-206 0 -308 83t-102 263q0 179 102.5 262t307.5 83q204 0 306 -83t102 -262zM847 335q0 175 -100 255.5t-299 80.5q-200 0 -300.5 -80.5t-100.5 -255.5t100.5 -256t300.5 -81q199 0 299 81t100 256zM280 856v11l279 -142v-10z
" />
    <glyph glyph-name="oacute" unicode="&#xf3;" 
d="M856 335q0 -180 -101.5 -263t-306.5 -83q-206 0 -308 83t-102 263q0 179 102.5 262t307.5 83q204 0 306 -83t102 -262zM847 335q0 175 -100 255.5t-299 80.5q-200 0 -300.5 -80.5t-100.5 -255.5t100.5 -256t300.5 -81q199 0 299 81t100 256zM336 715v10l279 142v-11z" />
    <glyph glyph-name="ocircumflex" unicode="&#xf4;" 
d="M856 335q0 -180 -101.5 -263t-306.5 -83q-206 0 -308 83t-102 263q0 179 102.5 262t307.5 83q204 0 306 -83t102 -262zM847 335q0 175 -100 255.5t-299 80.5q-200 0 -300.5 -80.5t-100.5 -255.5t100.5 -256t300.5 -81q199 0 299 81t100 256zM582 715l-134 144l-135 -144
h-15l142 152h16l142 -152h-16z" />
    <glyph glyph-name="otilde" unicode="&#xf5;" 
d="M856 335q0 -180 -101.5 -263t-306.5 -83q-206 0 -308 83t-102 263q0 179 102.5 262t307.5 83q204 0 306 -83t102 -262zM847 335q0 175 -100 255.5t-299 80.5q-200 0 -300.5 -80.5t-100.5 -255.5t100.5 -256t300.5 -81q199 0 299 81t100 256zM587 803q-14 -32 -31.5 -44
t-40.5 -12q-20 0 -37 12.5t-33.5 27t-32.5 27t-32 12.5q-20 0 -37.5 -12.5t-34.5 -54.5v21q14 32 31.5 44t40.5 12q19 0 36 -12.5t33 -27.5t32 -27.5t34 -12.5q19 0 37 13t35 54v-20z" />
    <glyph glyph-name="odieresis" unicode="&#xf6;" 
d="M856 335q0 -180 -101.5 -263t-306.5 -83q-206 0 -308 83t-102 263q0 179 102.5 262t307.5 83q204 0 306 -83t102 -262zM847 335q0 175 -100 255.5t-299 80.5q-200 0 -300.5 -80.5t-100.5 -255.5t100.5 -256t300.5 -81q199 0 299 81t100 256zM362 804q0 -6 -4.5 -9.5
t-10.5 -3.5q-15 0 -15 13q0 14 15 14q6 0 10.5 -3.5t4.5 -10.5zM563 804q0 -13 -16 -13q-6 0 -10.5 3.5t-4.5 9.5q0 7 4.5 10.5t10.5 3.5q16 0 16 -14z" />
    <glyph glyph-name="divide" unicode="&#xf7;" horiz-adv-x="621" 
d="M38 337v9h546v-9h-546zM325 542q0 -14 -15 -14t-15 14q0 13 15 13t15 -13zM325 139q0 -14 -15 -14t-15 14q0 13 15 13t15 -13z" />
    <glyph glyph-name="oslash" unicode="&#xf8;" 
d="M90 -42l83 90q-135 82 -135 287q0 179 102.5 262t307.5 83q163 0 262 -53l82 89l8 -5l-83 -88q139 -82 139 -288q0 -180 -101.5 -263t-306.5 -83q-169 0 -266 55l-85 -91zM188 51q97 -53 260 -53q199 0 299 81t100 256q0 201 -136 280zM702 620q-95 51 -254 51
q-200 0 -300.5 -80.5t-100.5 -255.5q0 -102 33.5 -169.5t100.5 -109.5z" />
    <glyph glyph-name="ugrave" unicode="&#xf9;" horiz-adv-x="851" 
d="M792 669h10v-377q0 -303 -359 -303q-206 0 -300.5 75.5t-94.5 227.5v377h10v-377q0 -146 91.5 -220t293.5 -74q349 0 349 294v377zM258 856v11l279 -142v-10z" />
    <glyph glyph-name="uacute" unicode="&#xfa;" horiz-adv-x="851" 
d="M792 669h10v-377q0 -303 -359 -303q-206 0 -300.5 75.5t-94.5 227.5v377h10v-377q0 -146 91.5 -220t293.5 -74q349 0 349 294v377zM315 715v10l279 142v-11z" />
    <glyph glyph-name="ucircumflex" unicode="&#xfb;" horiz-adv-x="851" 
d="M792 669h10v-377q0 -303 -359 -303q-206 0 -300.5 75.5t-94.5 227.5v377h10v-377q0 -146 91.5 -220t293.5 -74q349 0 349 294v377zM560 715l-134 144l-135 -144h-15l142 152h16l142 -152h-16z" />
    <glyph glyph-name="udieresis" unicode="&#xfc;" horiz-adv-x="851" 
d="M792 669h10v-377q0 -303 -359 -303q-206 0 -300.5 75.5t-94.5 227.5v377h10v-377q0 -146 91.5 -220t293.5 -74q349 0 349 294v377zM340 804q0 -6 -4.5 -9.5t-10.5 -3.5q-15 0 -15 13q0 14 15 14q6 0 10.5 -3.5t4.5 -10.5zM541 804q0 -13 -16 -13q-6 0 -10.5 3.5t-4.5 9.5
q0 7 4.5 10.5t10.5 3.5q16 0 16 -14z" />
    <glyph glyph-name="yacute" unicode="&#xfd;" 
d="M443 0v274l-436 395h14l427 -386l426 386h15l-437 -395v-274h-9zM310 715v10l279 142v-11z" />
    <glyph glyph-name="thorn" unicode="&#xfe;" horiz-adv-x="800" 
d="M214 119l7 10h273q58 0 106 12.5t83 37.5t54.5 62t19.5 85t-19.5 83.5t-54.5 58.5t-83 34.5t-106 11.5h-428v-514h-9v669h9v-146h428q60 0 110.5 -11.5t86.5 -36t56 -61.5t20 -88t-20 -90t-56.5 -65t-86.5 -39t-110 -13h-280z" />
    <glyph glyph-name="ydieresis" unicode="&#xff;" 
d="M443 0v274l-436 395h14l427 -386l426 386h15l-437 -395v-274h-9zM363 804q0 -6 -4.5 -9.5t-10.5 -3.5q-15 0 -15 13q0 14 15 14q6 0 10.5 -3.5t4.5 -10.5zM564 804q0 -13 -16 -13q-6 0 -10.5 3.5t-4.5 9.5q0 7 4.5 10.5t10.5 3.5q16 0 16 -14z" />
    <glyph glyph-name="Amacron" unicode="&#x100;" horiz-adv-x="912" 
d="M231 0l7 9h648l-429 656l-435 -665h-12l439 669q1 6 8 6q4 0 9 -6l437 -669h-672zM317 787v10h279v-10h-279z" />
    <glyph glyph-name="amacron" unicode="&#x101;" horiz-adv-x="912" 
d="M231 0l7 9h648l-429 656l-435 -665h-12l439 669q1 6 8 6q4 0 9 -6l437 -669h-672zM317 787v10h279v-10h-279z" />
    <glyph glyph-name="Abreve" unicode="&#x102;" horiz-adv-x="912" 
d="M231 0l7 9h648l-429 656l-435 -665h-12l439 669q1 6 8 6q4 0 9 -6l437 -669h-672zM436 715q-33 0 -55.5 16.5t-37 40t-20.5 49.5t-6 46h9q1 -23 7.5 -48t19.5 -46t33.5 -35t49.5 -14h40q28 0 48 14t33 35t19.5 46t7.5 48h10q0 -20 -6 -46t-20 -49.5t-36.5 -40
t-55.5 -16.5h-40z" />
    <glyph glyph-name="abreve" unicode="&#x103;" horiz-adv-x="912" 
d="M231 0l7 9h648l-429 656l-435 -665h-12l439 669q1 6 8 6q4 0 9 -6l437 -669h-672zM436 715q-33 0 -55.5 16.5t-37 40t-20.5 49.5t-6 46h9q1 -23 7.5 -48t19.5 -46t33.5 -35t49.5 -14h40q28 0 48 14t33 35t19.5 46t7.5 48h10q0 -20 -6 -46t-20 -49.5t-36.5 -40
t-55.5 -16.5h-40z" />
    <glyph glyph-name="Aogonek" unicode="&#x104;" horiz-adv-x="912" 
d="M728 -250q-26 0 -41 12t-15 29q0 20 24 41l192 168h-657l7 9h648l-429 656l-435 -665h-12l439 669q1 6 8 6q4 0 9 -6l437 -669l-202 -176q-20 -18 -20 -33q0 -13 12 -22t35 -9h175v-10h-175z" />
    <glyph glyph-name="aogonek" unicode="&#x105;" horiz-adv-x="912" 
d="M728 -250q-26 0 -41 12t-15 29q0 20 24 41l192 168h-657l7 9h648l-429 656l-435 -665h-12l439 669q1 6 8 6q4 0 9 -6l437 -669l-202 -176q-20 -18 -20 -33q0 -13 12 -22t35 -9h175v-10h-175z" />
    <glyph glyph-name="Cacute" unicode="&#x106;" horiz-adv-x="789" 
d="M405 0q-80 0 -147 26t-116 71.5t-76.5 108t-27.5 135.5t27.5 133.5t76.5 104t116 67t147 23.5h377l-8 -9h-369q-77 0 -142.5 -23t-113.5 -65t-75 -101t-27 -130t27 -131.5t75 -105t113.5 -70t142.5 -25.5h377l-8 -9h-369zM353 715v10l279 142v-11z" />
    <glyph glyph-name="cacute" unicode="&#x107;" horiz-adv-x="789" 
d="M405 0q-80 0 -147 26t-116 71.5t-76.5 108t-27.5 135.5t27.5 133.5t76.5 104t116 67t147 23.5h377l-8 -9h-369q-77 0 -142.5 -23t-113.5 -65t-75 -101t-27 -130t27 -131.5t75 -105t113.5 -70t142.5 -25.5h377l-8 -9h-369zM353 715v10l279 142v-11z" />
    <glyph glyph-name="Ccircumflex" unicode="&#x108;" horiz-adv-x="789" 
d="M405 0q-80 0 -147 26t-116 71.5t-76.5 108t-27.5 135.5t27.5 133.5t76.5 104t116 67t147 23.5h377l-8 -9h-369q-77 0 -142.5 -23t-113.5 -65t-75 -101t-27 -130t27 -131.5t75 -105t113.5 -70t142.5 -25.5h377l-8 -9h-369zM619 715l-134 144l-135 -144h-15l142 152h16
l142 -152h-16z" />
    <glyph glyph-name="ccircumflex" unicode="&#x109;" horiz-adv-x="789" 
d="M405 0q-80 0 -147 26t-116 71.5t-76.5 108t-27.5 135.5t27.5 133.5t76.5 104t116 67t147 23.5h377l-8 -9h-369q-77 0 -142.5 -23t-113.5 -65t-75 -101t-27 -130t27 -131.5t75 -105t113.5 -70t142.5 -25.5h377l-8 -9h-369zM619 715l-134 144l-135 -144h-15l142 152h16
l142 -152h-16z" />
    <glyph glyph-name="Cdotaccent" unicode="&#x10a;" horiz-adv-x="789" 
d="M405 0q-80 0 -147 26t-116 71.5t-76.5 108t-27.5 135.5t27.5 133.5t76.5 104t116 67t147 23.5h377l-8 -9h-369q-77 0 -142.5 -23t-113.5 -65t-75 -101t-27 -130t27 -131.5t75 -105t113.5 -70t142.5 -25.5h377l-8 -9h-369zM514 804q0 -6 -4.5 -9.5t-10.5 -3.5
q-15 0 -15 13q0 14 15 14q6 0 10.5 -3.5t4.5 -10.5z" />
    <glyph glyph-name="cdotaccent" unicode="&#x10b;" horiz-adv-x="789" 
d="M405 0q-80 0 -147 26t-116 71.5t-76.5 108t-27.5 135.5t27.5 133.5t76.5 104t116 67t147 23.5h377l-8 -9h-369q-77 0 -142.5 -23t-113.5 -65t-75 -101t-27 -130t27 -131.5t75 -105t113.5 -70t142.5 -25.5h377l-8 -9h-369zM514 804q0 -6 -4.5 -9.5t-10.5 -3.5
q-15 0 -15 13q0 14 15 14q6 0 10.5 -3.5t4.5 -10.5z" />
    <glyph glyph-name="Ccaron" unicode="&#x10c;" horiz-adv-x="789" 
d="M405 0q-80 0 -147 26t-116 71.5t-76.5 108t-27.5 135.5t27.5 133.5t76.5 104t116 67t147 23.5h377l-8 -9h-369q-77 0 -142.5 -23t-113.5 -65t-75 -101t-27 -130t27 -131.5t75 -105t113.5 -70t142.5 -25.5h377l-8 -9h-369zM476 715l-142 152h15l134 -145l135 145h16
l-142 -152h-16z" />
    <glyph glyph-name="ccaron" unicode="&#x10d;" horiz-adv-x="789" 
d="M405 0q-80 0 -147 26t-116 71.5t-76.5 108t-27.5 135.5t27.5 133.5t76.5 104t116 67t147 23.5h377l-8 -9h-369q-77 0 -142.5 -23t-113.5 -65t-75 -101t-27 -130t27 -131.5t75 -105t113.5 -70t142.5 -25.5h377l-8 -9h-369zM476 715l-142 152h15l134 -145l135 145h16
l-142 -152h-16z" />
    <glyph glyph-name="Dcaron" unicode="&#x10e;" horiz-adv-x="824" 
d="M57 0v417h9v-408h375q72 0 133.5 25.5t106.5 70t70.5 105t25.5 131.5q0 70 -25 128.5t-70 101t-106.5 66t-134.5 23.5h-384l7 9h377q75 0 138.5 -24t109 -67.5t71.5 -104t26 -132.5q0 -73 -26 -135.5t-72 -108t-109.5 -71.5t-137.5 -26h-384zM340 715l-142 152h15
l134 -145l135 145h16l-142 -152h-16z" />
    <glyph glyph-name="dcaron" unicode="&#x10f;" horiz-adv-x="824" 
d="M57 0v417h9v-408h375q72 0 133.5 25.5t106.5 70t70.5 105t25.5 131.5q0 70 -25 128.5t-70 101t-106.5 66t-134.5 23.5h-384l7 9h377q75 0 138.5 -24t109 -67.5t71.5 -104t26 -132.5q0 -73 -26 -135.5t-72 -108t-109.5 -71.5t-137.5 -26h-384zM340 715l-142 152h15
l134 -145l135 145h16l-142 -152h-16z" />
    <glyph glyph-name="Dcroat" unicode="&#x110;" horiz-adv-x="882" 
d="M115 0v337h-115l8 9h563l-8 -9h-439v-328h375q72 0 133.5 25.5t106.5 70t70.5 105t25.5 131.5q0 70 -25 128.5t-70 101t-106.5 66t-134.5 23.5h-384l7 9h377q75 0 138 -24t109 -67.5t72 -104t26 -132.5q0 -73 -26 -135.5t-72 -108t-109.5 -71.5t-137.5 -26h-384z" />
    <glyph glyph-name="dcroat" unicode="&#x111;" horiz-adv-x="882" 
d="M115 0v337h-115l8 9h563l-8 -9h-439v-328h375q72 0 133.5 25.5t106.5 70t70.5 105t25.5 131.5q0 70 -25 128.5t-70 101t-106.5 66t-134.5 23.5h-384l7 9h377q75 0 138 -24t109 -67.5t72 -104t26 -132.5q0 -73 -26 -135.5t-72 -108t-109.5 -71.5t-137.5 -26h-384z" />
    <glyph glyph-name="Emacron" unicode="&#x112;" horiz-adv-x="716" 
d="M57 0v669h646l-7 -9h-630v-314h613l-8 -9h-605v-328h644l-8 -9h-645zM240 787v10h279v-10h-279z" />
    <glyph glyph-name="emacron" unicode="&#x113;" horiz-adv-x="716" 
d="M57 0v669h646l-7 -9h-630v-314h613l-8 -9h-605v-328h644l-8 -9h-645zM240 787v10h279v-10h-279z" />
    <glyph glyph-name="Ebreve" unicode="&#x114;" horiz-adv-x="716" 
d="M57 0v669h646l-7 -9h-630v-314h613l-8 -9h-605v-328h644l-8 -9h-645zM351 715q-33 0 -55.5 16.5t-37 40t-20.5 49.5t-6 46h9q1 -23 7.5 -48t19.5 -46t33.5 -35t49.5 -14h40q28 0 48 14t33 35t19.5 46t7.5 48h10q0 -20 -6 -46t-20 -49.5t-36.5 -40t-55.5 -16.5h-40z" />
    <glyph glyph-name="ebreve" unicode="&#x115;" horiz-adv-x="716" 
d="M57 0v669h646l-7 -9h-630v-314h613l-8 -9h-605v-328h644l-8 -9h-645zM351 715q-33 0 -55.5 16.5t-37 40t-20.5 49.5t-6 46h9q1 -23 7.5 -48t19.5 -46t33.5 -35t49.5 -14h40q28 0 48 14t33 35t19.5 46t7.5 48h10q0 -20 -6 -46t-20 -49.5t-36.5 -40t-55.5 -16.5h-40z" />
    <glyph glyph-name="Edotaccent" unicode="&#x116;" horiz-adv-x="716" 
d="M57 0v669h646l-7 -9h-630v-314h613l-8 -9h-605v-328h644l-8 -9h-645zM399 804q0 -6 -4.5 -9.5t-10.5 -3.5q-15 0 -15 13q0 14 15 14q6 0 10.5 -3.5t4.5 -10.5z" />
    <glyph glyph-name="edotaccent" unicode="&#x117;" horiz-adv-x="716" 
d="M57 0v669h646l-7 -9h-630v-314h613l-8 -9h-605v-328h644l-8 -9h-645zM399 804q0 -6 -4.5 -9.5t-10.5 -3.5q-15 0 -15 13q0 14 15 14q6 0 10.5 -3.5t4.5 -10.5z" />
    <glyph glyph-name="Eogonek" unicode="&#x118;" horiz-adv-x="716" 
d="M525 -250q-26 0 -41 12t-15 29q0 20 24 41l192 168h-628v669h646l-7 -9h-630v-314h613l-8 -9h-605v-328h644l-211 -185q-20 -17 -20 -33q0 -13 12 -22t34 -9h177v-10h-177z" />
    <glyph glyph-name="eogonek" unicode="&#x119;" horiz-adv-x="716" 
d="M525 -250q-26 0 -41 12t-15 29q0 20 24 41l192 168h-628v669h646l-7 -9h-630v-314h613l-8 -9h-605v-328h644l-211 -185q-20 -17 -20 -33q0 -13 12 -22t34 -9h177v-10h-177z" />
    <glyph glyph-name="Ecaron" unicode="&#x11a;" horiz-adv-x="716" 
d="M57 0v669h646l-7 -9h-630v-314h613l-8 -9h-605v-328h644l-8 -9h-645zM374 715l-142 152h15l134 -145l135 145h16l-142 -152h-16z" />
    <glyph glyph-name="ecaron" unicode="&#x11b;" horiz-adv-x="716" 
d="M57 0v669h646l-7 -9h-630v-314h613l-8 -9h-605v-328h644l-8 -9h-645zM374 715l-142 152h15l134 -145l135 145h16l-142 -152h-16z" />
    <glyph glyph-name="Gcircumflex" unicode="&#x11c;" horiz-adv-x="820" 
d="M405 0q-80 0 -147 26t-116 71.5t-76.5 108t-27.5 135.5t27.5 133.5t76.5 104t116 67t147 23.5h381l-7 -9h-374q-77 0 -142.5 -23t-113.5 -65t-75 -101t-27 -130t27 -131.5t75 -105t113.5 -70t142.5 -25.5h340v332h-435l8 9h436v-350h-349zM607 715l-134 144l-135 -144
h-15l142 152h16l142 -152h-16z" />
    <glyph glyph-name="gcircumflex" unicode="&#x11d;" horiz-adv-x="820" 
d="M405 0q-80 0 -147 26t-116 71.5t-76.5 108t-27.5 135.5t27.5 133.5t76.5 104t116 67t147 23.5h381l-7 -9h-374q-77 0 -142.5 -23t-113.5 -65t-75 -101t-27 -130t27 -131.5t75 -105t113.5 -70t142.5 -25.5h340v332h-435l8 9h436v-350h-349zM607 715l-134 144l-135 -144
h-15l142 152h16l142 -152h-16z" />
    <glyph glyph-name="Gbreve" unicode="&#x11e;" horiz-adv-x="820" 
d="M405 0q-80 0 -147 26t-116 71.5t-76.5 108t-27.5 135.5t27.5 133.5t76.5 104t116 67t147 23.5h381l-7 -9h-374q-77 0 -142.5 -23t-113.5 -65t-75 -101t-27 -130t27 -131.5t75 -105t113.5 -70t142.5 -25.5h340v332h-435l8 9h436v-350h-349zM456 715q-33 0 -55.5 16.5
t-37 40t-20.5 49.5t-6 46h9q1 -23 7.5 -48t19.5 -46t33.5 -35t49.5 -14h40q28 0 48 14t33 35t19.5 46t7.5 48h10q0 -20 -6 -46t-20 -49.5t-36.5 -40t-55.5 -16.5h-40z" />
    <glyph glyph-name="gbreve" unicode="&#x11f;" horiz-adv-x="820" 
d="M405 0q-80 0 -147 26t-116 71.5t-76.5 108t-27.5 135.5t27.5 133.5t76.5 104t116 67t147 23.5h381l-7 -9h-374q-77 0 -142.5 -23t-113.5 -65t-75 -101t-27 -130t27 -131.5t75 -105t113.5 -70t142.5 -25.5h340v332h-435l8 9h436v-350h-349zM456 715q-33 0 -55.5 16.5
t-37 40t-20.5 49.5t-6 46h9q1 -23 7.5 -48t19.5 -46t33.5 -35t49.5 -14h40q28 0 48 14t33 35t19.5 46t7.5 48h10q0 -20 -6 -46t-20 -49.5t-36.5 -40t-55.5 -16.5h-40z" />
    <glyph glyph-name="Gdotaccent" unicode="&#x120;" horiz-adv-x="820" 
d="M405 0q-80 0 -147 26t-116 71.5t-76.5 108t-27.5 135.5t27.5 133.5t76.5 104t116 67t147 23.5h381l-7 -9h-374q-77 0 -142.5 -23t-113.5 -65t-75 -101t-27 -130t27 -131.5t75 -105t113.5 -70t142.5 -25.5h340v332h-435l8 9h436v-350h-349zM477 804q0 -6 -4.5 -9.5
t-10.5 -3.5q-15 0 -15 13q0 14 15 14q6 0 10.5 -3.5t4.5 -10.5z" />
    <glyph glyph-name="gdotaccent" unicode="&#x121;" horiz-adv-x="820" 
d="M405 0q-80 0 -147 26t-116 71.5t-76.5 108t-27.5 135.5t27.5 133.5t76.5 104t116 67t147 23.5h381l-7 -9h-374q-77 0 -142.5 -23t-113.5 -65t-75 -101t-27 -130t27 -131.5t75 -105t113.5 -70t142.5 -25.5h340v332h-435l8 9h436v-350h-349zM477 804q0 -6 -4.5 -9.5
t-10.5 -3.5q-15 0 -15 13q0 14 15 14q6 0 10.5 -3.5t4.5 -10.5z" />
    <glyph glyph-name="uni0122" unicode="&#x122;" horiz-adv-x="820" 
d="M405 0q-80 0 -147 26t-116 71.5t-76.5 108t-27.5 135.5t27.5 133.5t76.5 104t116 67t147 23.5h381l-7 -9h-374q-77 0 -142.5 -23t-113.5 -65t-75 -101t-27 -130t27 -131.5t75 -105t113.5 -70t142.5 -25.5h340v332h-435l8 9h436v-350h-349zM430 -255l37 224h13l-42 -224
h-8z" />
    <glyph glyph-name="uni0123" unicode="&#x123;" horiz-adv-x="820" 
d="M405 0q-80 0 -147 26t-116 71.5t-76.5 108t-27.5 135.5t27.5 133.5t76.5 104t116 67t147 23.5h381l-7 -9h-374q-77 0 -142.5 -23t-113.5 -65t-75 -101t-27 -130t27 -131.5t75 -105t113.5 -70t142.5 -25.5h340v332h-435l8 9h436v-350h-349zM430 -255l37 224h13l-42 -224
h-8z" />
    <glyph glyph-name="Hcircumflex" unicode="&#x124;" horiz-adv-x="763" 
d="M696 0v344h-630v-344h-9v669h9v-315h630v315h9v-669h-9zM515 715l-134 144l-135 -144h-15l142 152h16l142 -152h-16z" />
    <glyph glyph-name="hcircumflex" unicode="&#x125;" horiz-adv-x="763" 
d="M696 0v344h-630v-344h-9v669h9v-315h630v315h9v-669h-9zM515 715l-134 144l-135 -144h-15l142 152h16l142 -152h-16z" />
    <glyph glyph-name="Hbar" unicode="&#x126;" horiz-adv-x="763" 
d="M696 0v344h-630v-344h-9v669h9v-121h630v121h9v-669h-9zM696 354v184h-630v-184h630z" />
    <glyph glyph-name="hbar" unicode="&#x127;" horiz-adv-x="763" 
d="M696 0v344h-630v-344h-9v669h9v-121h630v121h9v-669h-9zM696 354v184h-630v-184h630z" />
    <glyph glyph-name="Itilde" unicode="&#x128;" horiz-adv-x="129" 
d="M60 0v669h9v-669h-9zM206 803q-14 -32 -31.5 -44t-40.5 -12q-20 0 -37 12.5t-33.5 27t-32.5 27t-32 12.5q-20 0 -37.5 -12.5t-34.5 -54.5v21q14 32 31.5 44t40.5 12q19 0 36 -12.5t33 -27.5t32 -27.5t34 -12.5q19 0 37 13t35 54v-20z" />
    <glyph glyph-name="itilde" unicode="&#x129;" horiz-adv-x="129" 
d="M60 0v669h9v-669h-9zM206 803q-14 -32 -31.5 -44t-40.5 -12q-20 0 -37 12.5t-33.5 27t-32.5 27t-32 12.5q-20 0 -37.5 -12.5t-34.5 -54.5v21q14 32 31.5 44t40.5 12q19 0 36 -12.5t33 -27.5t32 -27.5t34 -12.5q19 0 37 13t35 54v-20z" />
    <glyph glyph-name="Imacron" unicode="&#x12a;" horiz-adv-x="129" 
d="M60 0v669h9v-669h-9zM-73 787v10h279v-10h-279z" />
    <glyph glyph-name="imacron" unicode="&#x12b;" horiz-adv-x="129" 
d="M60 0v669h9v-669h-9zM-73 787v10h279v-10h-279z" />
    <glyph glyph-name="Ibreve" unicode="&#x12c;" horiz-adv-x="129" 
d="M60 0v669h9v-669h-9zM47 715q-33 0 -55.5 16.5t-37 40t-20.5 49.5t-6 46h9q1 -23 7.5 -48t19.5 -46t33.5 -35t49.5 -14h40q28 0 48 14t33 35t19.5 46t7.5 48h10q0 -20 -6 -46t-20 -49.5t-36.5 -40t-55.5 -16.5h-40z" />
    <glyph glyph-name="ibreve" unicode="&#x12d;" horiz-adv-x="129" 
d="M60 0v669h9v-669h-9zM47 715q-33 0 -55.5 16.5t-37 40t-20.5 49.5t-6 46h9q1 -23 7.5 -48t19.5 -46t33.5 -35t49.5 -14h40q28 0 48 14t33 35t19.5 46t7.5 48h10q0 -20 -6 -46t-20 -49.5t-36.5 -40t-55.5 -16.5h-40z" />
    <glyph glyph-name="Iogonek" unicode="&#x12e;" horiz-adv-x="129" 
d="M-106 -250q-26 0 -41 12t-15 29q0 20 24 41l198 173v664h9v-669l-201 -176q-20 -17 -20 -33q0 -13 12 -22t34 -9h175v-10h-175z" />
    <glyph glyph-name="iogonek" unicode="&#x12f;" horiz-adv-x="129" 
d="M-106 -250q-26 0 -41 12t-15 29q0 20 24 41l198 173v664h9v-669l-201 -176q-20 -17 -20 -33q0 -13 12 -22t34 -9h175v-10h-175z" />
    <glyph glyph-name="Idotaccent" unicode="&#x130;" horiz-adv-x="129" 
d="M60 0v669h9v-669h-9zM80 804q0 -6 -4.5 -9.5t-10.5 -3.5q-15 0 -15 13q0 14 15 14q6 0 10.5 -3.5t4.5 -10.5z" />
    <glyph glyph-name="dotlessi" unicode="&#x131;" horiz-adv-x="129" 
d="M60 0v669h9v-669h-9z" />
    <glyph glyph-name="IJ" unicode="&#x132;" horiz-adv-x="720" 
d="M60 0v669h9v-669h-9zM662 669h9v-365q0 -304 -369 -304h-163l8 9h155q360 0 360 295v365z" />
    <glyph glyph-name="ij" unicode="&#x133;" horiz-adv-x="720" 
d="M60 0v669h9v-669h-9zM662 669h9v-365q0 -304 -369 -304h-163l8 9h155q360 0 360 295v365z" />
    <glyph glyph-name="Jcircumflex" unicode="&#x134;" horiz-adv-x="591" 
d="M533 669h9v-365q0 -304 -369 -304h-163l8 9h155q360 0 360 295v365zM526 715l-134 144l-135 -144h-15l142 152h16l142 -152h-16z" />
    <glyph glyph-name="jcircumflex" unicode="&#x135;" horiz-adv-x="591" 
d="M533 669h9v-365q0 -304 -369 -304h-163l8 9h155q360 0 360 295v365zM526 715l-134 144l-135 -144h-15l142 152h16l142 -152h-16z" />
    <glyph glyph-name="uni0136" unicode="&#x136;" horiz-adv-x="765" 
d="M739 0l-673 350v-350h-9v669h9v-307l639 307h19l-652 -313l687 -356h-20zM343 -255l37 224h13l-42 -224h-8z" />
    <glyph glyph-name="uni0137" unicode="&#x137;" horiz-adv-x="765" 
d="M739 0l-673 350v-350h-9v669h9v-307l639 307h19l-652 -313l687 -356h-20zM343 -255l37 224h13l-42 -224h-8z" />
    <glyph glyph-name="Lacute" unicode="&#x139;" horiz-adv-x="669" 
d="M57 0v669h9v-660h598l-7 -9h-600zM63 715v10l279 142v-11z" />
    <glyph glyph-name="lacute" unicode="&#x13a;" horiz-adv-x="669" 
d="M57 0v669h9v-660h598l-7 -9h-600zM63 715v10l279 142v-11z" />
    <glyph glyph-name="uni013B" unicode="&#x13b;" horiz-adv-x="669" 
d="M57 0v669h9v-660h598l-7 -9h-600zM297 -255l37 224h13l-42 -224h-8z" />
    <glyph glyph-name="uni013C" unicode="&#x13c;" horiz-adv-x="669" 
d="M57 0v669h9v-660h598l-7 -9h-600zM297 -255l37 224h13l-42 -224h-8z" />
    <glyph glyph-name="Lcaron" unicode="&#x13d;" horiz-adv-x="669" 
d="M57 0v669h9v-660h598l-7 -9h-600zM211 401l40 268h16l-48 -268h-8z" />
    <glyph glyph-name="lcaron" unicode="&#x13e;" horiz-adv-x="669" 
d="M57 0v669h9v-660h598l-7 -9h-600zM211 401l40 268h16l-48 -268h-8z" />
    <glyph glyph-name="Ldot" unicode="&#x13f;" horiz-adv-x="669" 
d="M57 0v669h9v-660h598l-7 -9h-600zM254 302q0 -6 -4.5 -9.5t-10.5 -3.5q-15 0 -15 13q0 14 15 14q6 0 10.5 -3.5t4.5 -10.5z" />
    <glyph glyph-name="ldot" unicode="&#x140;" horiz-adv-x="669" 
d="M57 0v669h9v-660h598l-7 -9h-600zM254 302q0 -6 -4.5 -9.5t-10.5 -3.5q-15 0 -15 13q0 14 15 14q6 0 10.5 -3.5t4.5 -10.5z" />
    <glyph glyph-name="Lslash" unicode="&#x141;" horiz-adv-x="669" 
d="M57 0v669h9v-299h407l-7 -9h-400v-352h598l-7 -9h-600z" />
    <glyph glyph-name="lslash" unicode="&#x142;" horiz-adv-x="669" 
d="M57 0v669h9v-299h407l-7 -9h-400v-352h598l-7 -9h-600z" />
    <glyph glyph-name="Nacute" unicode="&#x143;" horiz-adv-x="799" 
d="M736 669h10v-660q0 -9 -8 -9q-4 0 -9 5l-666 659v-664h-9v666q0 9 8 9q4 0 9 -5l665 -660v659zM265 715v10l279 142v-11z" />
    <glyph glyph-name="nacute" unicode="&#x144;" horiz-adv-x="799" 
d="M736 669h10v-660q0 -9 -8 -9q-4 0 -9 5l-666 659v-664h-9v666q0 9 8 9q4 0 9 -5l665 -660v659zM265 715v10l279 142v-11z" />
    <glyph glyph-name="uni0145" unicode="&#x145;" horiz-adv-x="799" 
d="M736 669h10v-660q0 -9 -8 -9q-4 0 -9 5l-666 659v-664h-9v666q0 9 8 9q4 0 9 -5l665 -660v659zM355 -255l37 224h13l-42 -224h-8z" />
    <glyph glyph-name="uni0146" unicode="&#x146;" horiz-adv-x="799" 
d="M736 669h10v-660q0 -9 -8 -9q-4 0 -9 5l-666 659v-664h-9v666q0 9 8 9q4 0 9 -5l665 -660v659zM355 -255l37 224h13l-42 -224h-8z" />
    <glyph glyph-name="Ncaron" unicode="&#x147;" horiz-adv-x="799" 
d="M736 669h10v-660q0 -9 -8 -9q-4 0 -9 5l-666 659v-664h-9v666q0 9 8 9q4 0 9 -5l665 -660v659zM388 715l-142 152h15l134 -145l135 145h16l-142 -152h-16z" />
    <glyph glyph-name="ncaron" unicode="&#x148;" horiz-adv-x="799" 
d="M736 669h10v-660q0 -9 -8 -9q-4 0 -9 5l-666 659v-664h-9v666q0 9 8 9q4 0 9 -5l665 -660v659zM388 715l-142 152h15l134 -145l135 145h16l-142 -152h-16z" />
    <glyph glyph-name="Eng" unicode="&#x14a;" horiz-adv-x="799" 
d="M736 669h10v-660q0 -77 -23.5 -127.5t-70 -81t-116.5 -43t-162 -12.5h-73l8 10h65q88 0 155 11.5t112.5 39t69 74t25.5 117.5l-673 667v-664h-9v666q0 9 8 9q4 0 9 -5l665 -660v659z" />
    <glyph glyph-name="eng" unicode="&#x14b;" horiz-adv-x="799" 
d="M736 669h10v-660q0 -77 -23.5 -127.5t-70 -81t-116.5 -43t-162 -12.5h-73l8 10h65q88 0 155 11.5t112.5 39t69 74t25.5 117.5l-673 667v-664h-9v666q0 9 8 9q4 0 9 -5l665 -660v659z" />
    <glyph glyph-name="Omacron" unicode="&#x14c;" 
d="M856 335q0 -180 -101.5 -263t-306.5 -83q-206 0 -308 83t-102 263q0 179 102.5 262t307.5 83q204 0 306 -83t102 -262zM847 335q0 175 -100 255.5t-299 80.5q-200 0 -300.5 -80.5t-100.5 -255.5t100.5 -256t300.5 -81q199 0 299 81t100 256zM308 787v10h279v-10h-279z
" />
    <glyph glyph-name="omacron" unicode="&#x14d;" 
d="M856 335q0 -180 -101.5 -263t-306.5 -83q-206 0 -308 83t-102 263q0 179 102.5 262t307.5 83q204 0 306 -83t102 -262zM847 335q0 175 -100 255.5t-299 80.5q-200 0 -300.5 -80.5t-100.5 -255.5t100.5 -256t300.5 -81q199 0 299 81t100 256zM308 787v10h279v-10h-279z
" />
    <glyph glyph-name="Obreve" unicode="&#x14e;" 
d="M856 335q0 -180 -101.5 -263t-306.5 -83q-206 0 -308 83t-102 263q0 179 102.5 262t307.5 83q204 0 306 -83t102 -262zM847 335q0 175 -100 255.5t-299 80.5q-200 0 -300.5 -80.5t-100.5 -255.5t100.5 -256t300.5 -81q199 0 299 81t100 256zM428 715q-33 0 -55.5 16.5
t-37 40t-20.5 49.5t-6 46h9q1 -23 7.5 -48t19.5 -46t33.5 -35t49.5 -14h40q28 0 48 14t33 35t19.5 46t7.5 48h10q0 -20 -6 -46t-20 -49.5t-36.5 -40t-55.5 -16.5h-40z" />
    <glyph glyph-name="obreve" unicode="&#x14f;" 
d="M856 335q0 -180 -101.5 -263t-306.5 -83q-206 0 -308 83t-102 263q0 179 102.5 262t307.5 83q204 0 306 -83t102 -262zM847 335q0 175 -100 255.5t-299 80.5q-200 0 -300.5 -80.5t-100.5 -255.5t100.5 -256t300.5 -81q199 0 299 81t100 256zM428 715q-33 0 -55.5 16.5
t-37 40t-20.5 49.5t-6 46h9q1 -23 7.5 -48t19.5 -46t33.5 -35t49.5 -14h40q28 0 48 14t33 35t19.5 46t7.5 48h10q0 -20 -6 -46t-20 -49.5t-36.5 -40t-55.5 -16.5h-40z" />
    <glyph glyph-name="Ohungarumlaut" unicode="&#x150;" 
d="M856 335q0 -180 -101.5 -263t-306.5 -83q-206 0 -308 83t-102 263q0 179 102.5 262t307.5 83q204 0 306 -83t102 -262zM847 335q0 175 -100 255.5t-299 80.5q-200 0 -300.5 -80.5t-100.5 -255.5t100.5 -256t300.5 -81q199 0 299 81t100 256zM505 725l74 142h10l-75 -142
h-9zM348 725l74 142h10l-75 -142h-9z" />
    <glyph glyph-name="ohungarumlaut" unicode="&#x151;" 
d="M856 335q0 -180 -101.5 -263t-306.5 -83q-206 0 -308 83t-102 263q0 179 102.5 262t307.5 83q204 0 306 -83t102 -262zM847 335q0 175 -100 255.5t-299 80.5q-200 0 -300.5 -80.5t-100.5 -255.5t100.5 -256t300.5 -81q199 0 299 81t100 256zM505 725l74 142h10l-75 -142
h-9zM348 725l74 142h10l-75 -142h-9z" />
    <glyph glyph-name="OE" unicode="&#x152;" horiz-adv-x="1358" 
d="M727 0q-16 -3 -54.5 -5t-82 -3.5t-83.5 -2t-59 -0.5q-206 0 -308 83t-102 263q0 179 102.5 262t307.5 83q19 0 59 -0.5t83.5 -2t82 -3.5t54.5 -5h618l-8 -9h-601v-314h584l-7 -9h-577v-328h615l-7 -9h-617zM727 660q-16 2 -54.5 4t-82 3.5t-83.5 2.5t-59 1
q-200 0 -300.5 -80.5t-100.5 -255.5t100.5 -256t300.5 -81q19 0 59 0.5t83.5 2t82 3.5t54.5 5v651z" />
    <glyph glyph-name="oe" unicode="&#x153;" horiz-adv-x="1358" 
d="M727 0q-16 -3 -54.5 -5t-82 -3.5t-83.5 -2t-59 -0.5q-206 0 -308 83t-102 263q0 179 102.5 262t307.5 83q19 0 59 -0.5t83.5 -2t82 -3.5t54.5 -5h618l-8 -9h-601v-314h584l-7 -9h-577v-328h615l-7 -9h-617zM727 660q-16 2 -54.5 4t-82 3.5t-83.5 2.5t-59 1
q-200 0 -300.5 -80.5t-100.5 -255.5t100.5 -256t300.5 -81q19 0 59 0.5t83.5 2t82 3.5t54.5 5v651z" />
    <glyph glyph-name="Racute" unicode="&#x154;" horiz-adv-x="874" 
d="M848 0l-329 265h-451v-265h-9v274h475q58 0 106 11.5t83 34.5t54.5 59t19.5 84t-19.5 85t-54.5 61.5t-83 37.5t-106 13h-479l7 9h472q60 0 110 -13t86 -39t56 -64.5t20 -89.5t-20 -88.5t-56 -62t-86 -36t-110 -11.5l330 -265h-16zM256 715v10l279 142v-11z" />
    <glyph glyph-name="racute" unicode="&#x155;" horiz-adv-x="874" 
d="M848 0l-329 265h-451v-265h-9v274h475q58 0 106 11.5t83 34.5t54.5 59t19.5 84t-19.5 85t-54.5 61.5t-83 37.5t-106 13h-479l7 9h472q60 0 110 -13t86 -39t56 -64.5t20 -89.5t-20 -88.5t-56 -62t-86 -36t-110 -11.5l330 -265h-16zM256 715v10l279 142v-11z" />
    <glyph glyph-name="uni0156" unicode="&#x156;" horiz-adv-x="874" 
d="M848 0l-329 265h-451v-265h-9v274h475q58 0 106 11.5t83 34.5t54.5 59t19.5 84t-19.5 85t-54.5 61.5t-83 37.5t-106 13h-479l7 9h472q60 0 110 -13t86 -39t56 -64.5t20 -89.5t-20 -88.5t-56 -62t-86 -36t-110 -11.5l330 -265h-16zM369 -255l37 224h13l-42 -224h-8z" />
    <glyph glyph-name="uni0157" unicode="&#x157;" horiz-adv-x="874" 
d="M848 0l-329 265h-451v-265h-9v274h475q58 0 106 11.5t83 34.5t54.5 59t19.5 84t-19.5 85t-54.5 61.5t-83 37.5t-106 13h-479l7 9h472q60 0 110 -13t86 -39t56 -64.5t20 -89.5t-20 -88.5t-56 -62t-86 -36t-110 -11.5l330 -265h-16zM369 -255l37 224h13l-42 -224h-8z" />
    <glyph glyph-name="Rcaron" unicode="&#x158;" horiz-adv-x="874" 
d="M848 0l-329 265h-451v-265h-9v274h475q58 0 106 11.5t83 34.5t54.5 59t19.5 84t-19.5 85t-54.5 61.5t-83 37.5t-106 13h-479l7 9h472q60 0 110 -13t86 -39t56 -64.5t20 -89.5t-20 -88.5t-56 -62t-86 -36t-110 -11.5l330 -265h-16zM361 715l-142 152h15l134 -145l135 145
h16l-142 -152h-16z" />
    <glyph glyph-name="rcaron" unicode="&#x159;" horiz-adv-x="874" 
d="M848 0l-329 265h-451v-265h-9v274h475q58 0 106 11.5t83 34.5t54.5 59t19.5 84t-19.5 85t-54.5 61.5t-83 37.5t-106 13h-479l7 9h472q60 0 110 -13t86 -39t56 -64.5t20 -89.5t-20 -88.5t-56 -62t-86 -36t-110 -11.5l330 -265h-16zM361 715l-142 152h15l134 -145l135 145
h16l-142 -152h-16z" />
    <glyph glyph-name="Sacute" unicode="&#x15a;" horiz-adv-x="844" 
d="M21 0l7 9h545q121 0 178 39t57 126q0 86 -58 121t-176 35h-267q-123 0 -184 38t-61 127q0 91 60 132.5t185 41.5h502l-7 -9h-494q-121 0 -178.5 -39t-57.5 -126q0 -86 58 -120.5t177 -34.5h267q123 0 183.5 -38t60.5 -128q0 -91 -60 -132.5t-184 -41.5h-553zM299 715v10
l279 142v-11z" />
    <glyph glyph-name="sacute" unicode="&#x15b;" horiz-adv-x="844" 
d="M21 0l7 9h545q121 0 178 39t57 126q0 86 -58 121t-176 35h-267q-123 0 -184 38t-61 127q0 91 60 132.5t185 41.5h502l-7 -9h-494q-121 0 -178.5 -39t-57.5 -126q0 -86 58 -120.5t177 -34.5h267q123 0 183.5 -38t60.5 -128q0 -91 -60 -132.5t-184 -41.5h-553zM299 715v10
l279 142v-11z" />
    <glyph glyph-name="Scircumflex" unicode="&#x15c;" horiz-adv-x="844" 
d="M21 0l7 9h545q121 0 178 39t57 126q0 86 -58 121t-176 35h-267q-123 0 -184 38t-61 127q0 91 60 132.5t185 41.5h502l-7 -9h-494q-121 0 -178.5 -39t-57.5 -126q0 -86 58 -120.5t177 -34.5h267q123 0 183.5 -38t60.5 -128q0 -91 -60 -132.5t-184 -41.5h-553zM577 715
l-134 144l-135 -144h-15l142 152h16l142 -152h-16z" />
    <glyph glyph-name="scircumflex" unicode="&#x15d;" horiz-adv-x="844" 
d="M21 0l7 9h545q121 0 178 39t57 126q0 86 -58 121t-176 35h-267q-123 0 -184 38t-61 127q0 91 60 132.5t185 41.5h502l-7 -9h-494q-121 0 -178.5 -39t-57.5 -126q0 -86 58 -120.5t177 -34.5h267q123 0 183.5 -38t60.5 -128q0 -91 -60 -132.5t-184 -41.5h-553zM577 715
l-134 144l-135 -144h-15l142 152h16l142 -152h-16z" />
    <glyph glyph-name="Scedilla" unicode="&#x15e;" horiz-adv-x="844" 
d="M21 0l7 9h545q121 0 178 39t57 126q0 86 -58 121t-176 35h-267q-123 0 -184 38t-61 127q0 91 60 132.5t185 41.5h502l-7 -9h-494q-121 0 -178.5 -39t-57.5 -126q0 -86 58 -120.5t177 -34.5h267q123 0 183.5 -38t60.5 -128q0 -91 -60 -132.5t-184 -41.5h-553zM379 -255
l36 224h14l-42 -224h-8z" />
    <glyph glyph-name="scedilla" unicode="&#x15f;" horiz-adv-x="844" 
d="M21 0l7 9h545q121 0 178 39t57 126q0 86 -58 121t-176 35h-267q-123 0 -184 38t-61 127q0 91 60 132.5t185 41.5h502l-7 -9h-494q-121 0 -178.5 -39t-57.5 -126q0 -86 58 -120.5t177 -34.5h267q123 0 183.5 -38t60.5 -128q0 -91 -60 -132.5t-184 -41.5h-553zM379 -255
l36 224h14l-42 -224h-8z" />
    <glyph glyph-name="Scaron" unicode="&#x160;" horiz-adv-x="844" 
d="M21 0l7 9h545q121 0 178 39t57 126q0 86 -58 121t-176 35h-267q-123 0 -184 38t-61 127q0 91 60 132.5t185 41.5h502l-7 -9h-494q-121 0 -178.5 -39t-57.5 -126q0 -86 58 -120.5t177 -34.5h267q123 0 183.5 -38t60.5 -128q0 -91 -60 -132.5t-184 -41.5h-553zM448 715
l-142 152h15l134 -145l135 145h16l-142 -152h-16z" />
    <glyph glyph-name="scaron" unicode="&#x161;" horiz-adv-x="844" 
d="M21 0l7 9h545q121 0 178 39t57 126q0 86 -58 121t-176 35h-267q-123 0 -184 38t-61 127q0 91 60 132.5t185 41.5h502l-7 -9h-494q-121 0 -178.5 -39t-57.5 -126q0 -86 58 -120.5t177 -34.5h267q123 0 183.5 -38t60.5 -128q0 -91 -60 -132.5t-184 -41.5h-553zM448 715
l-142 152h15l134 -145l135 145h16l-142 -152h-16z" />
    <glyph glyph-name="uni0162" unicode="&#x162;" horiz-adv-x="800" 
d="M397 0v660h-397l11 9h789l-8 -9h-386v-660h-9zM358 -255l37 224h13l-42 -224h-8z" />
    <glyph glyph-name="uni0163" unicode="&#x163;" horiz-adv-x="800" 
d="M397 0v660h-397l11 9h789l-8 -9h-386v-660h-9zM358 -255l37 224h13l-42 -224h-8z" />
    <glyph glyph-name="Tcaron" unicode="&#x164;" horiz-adv-x="800" 
d="M397 0v660h-397l11 9h789l-8 -9h-386v-660h-9zM394 715l-142 152h15l134 -145l135 145h16l-142 -152h-16z" />
    <glyph glyph-name="tcaron" unicode="&#x165;" horiz-adv-x="800" 
d="M397 0v660h-397l11 9h789l-8 -9h-386v-660h-9zM394 715l-142 152h15l134 -145l135 145h16l-142 -152h-16z" />
    <glyph glyph-name="Tbar" unicode="&#x166;" horiz-adv-x="800" 
d="M397 0v660h-397l11 9h789l-8 -9h-386v-660h-9zM233 333l7 10h325l-8 -10h-324z" />
    <glyph glyph-name="tbar" unicode="&#x167;" horiz-adv-x="800" 
d="M397 0v660h-397l11 9h789l-8 -9h-386v-660h-9zM233 333l7 10h325l-8 -10h-324z" />
    <glyph glyph-name="Utilde" unicode="&#x168;" horiz-adv-x="851" 
d="M792 669h10v-377q0 -303 -359 -303q-206 0 -300.5 75.5t-94.5 227.5v377h10v-377q0 -146 91.5 -220t293.5 -74q349 0 349 294v377zM565 803q-14 -32 -31.5 -44t-40.5 -12q-20 0 -37 12.5t-33.5 27t-32.5 27t-32 12.5q-20 0 -37.5 -12.5t-34.5 -54.5v21q14 32 31.5 44
t40.5 12q19 0 36 -12.5t33 -27.5t32 -27.5t34 -12.5q19 0 37 13t35 54v-20z" />
    <glyph glyph-name="utilde" unicode="&#x169;" horiz-adv-x="851" 
d="M792 669h10v-377q0 -303 -359 -303q-206 0 -300.5 75.5t-94.5 227.5v377h10v-377q0 -146 91.5 -220t293.5 -74q349 0 349 294v377zM565 803q-14 -32 -31.5 -44t-40.5 -12q-20 0 -37 12.5t-33.5 27t-32.5 27t-32 12.5q-20 0 -37.5 -12.5t-34.5 -54.5v21q14 32 31.5 44
t40.5 12q19 0 36 -12.5t33 -27.5t32 -27.5t34 -12.5q19 0 37 13t35 54v-20z" />
    <glyph glyph-name="Umacron" unicode="&#x16a;" horiz-adv-x="851" 
d="M792 669h10v-377q0 -303 -359 -303q-206 0 -300.5 75.5t-94.5 227.5v377h10v-377q0 -146 91.5 -220t293.5 -74q349 0 349 294v377zM286 787v10h279v-10h-279z" />
    <glyph glyph-name="umacron" unicode="&#x16b;" horiz-adv-x="851" 
d="M792 669h10v-377q0 -303 -359 -303q-206 0 -300.5 75.5t-94.5 227.5v377h10v-377q0 -146 91.5 -220t293.5 -74q349 0 349 294v377zM286 787v10h279v-10h-279z" />
    <glyph glyph-name="Ubreve" unicode="&#x16c;" horiz-adv-x="851" 
d="M792 669h10v-377q0 -303 -359 -303q-206 0 -300.5 75.5t-94.5 227.5v377h10v-377q0 -146 91.5 -220t293.5 -74q349 0 349 294v377zM406 715q-33 0 -55.5 16.5t-37 40t-20.5 49.5t-6 46h9q1 -23 7.5 -48t19.5 -46t33.5 -35t49.5 -14h40q28 0 48 14t33 35t19.5 46t7.5 48
h10q0 -20 -6 -46t-20 -49.5t-36.5 -40t-55.5 -16.5h-40z" />
    <glyph glyph-name="ubreve" unicode="&#x16d;" horiz-adv-x="851" 
d="M792 669h10v-377q0 -303 -359 -303q-206 0 -300.5 75.5t-94.5 227.5v377h10v-377q0 -146 91.5 -220t293.5 -74q349 0 349 294v377zM406 715q-33 0 -55.5 16.5t-37 40t-20.5 49.5t-6 46h9q1 -23 7.5 -48t19.5 -46t33.5 -35t49.5 -14h40q28 0 48 14t33 35t19.5 46t7.5 48
h10q0 -20 -6 -46t-20 -49.5t-36.5 -40t-55.5 -16.5h-40z" />
    <glyph glyph-name="Uring" unicode="&#x16e;" horiz-adv-x="851" 
d="M792 669h10v-377q0 -303 -359 -303q-206 0 -300.5 75.5t-94.5 227.5v377h10v-377q0 -146 91.5 -220t293.5 -74q349 0 349 294v377zM394 715q-103 0 -103 83v63q0 84 103 84h62q104 0 104 -84v-63q0 -83 -104 -83h-62zM551 861q0 75 -95 75h-62q-94 0 -94 -75v-63
q0 -74 94 -74h62q95 0 95 74v63z" />
    <glyph glyph-name="uring" unicode="&#x16f;" horiz-adv-x="851" 
d="M792 669h10v-377q0 -303 -359 -303q-206 0 -300.5 75.5t-94.5 227.5v377h10v-377q0 -146 91.5 -220t293.5 -74q349 0 349 294v377zM394 715q-103 0 -103 83v63q0 84 103 84h62q104 0 104 -84v-63q0 -83 -104 -83h-62zM551 861q0 75 -95 75h-62q-94 0 -94 -75v-63
q0 -74 94 -74h62q95 0 95 74v63z" />
    <glyph glyph-name="Uhungarumlaut" unicode="&#x170;" horiz-adv-x="851" 
d="M792 669h10v-377q0 -303 -359 -303q-206 0 -300.5 75.5t-94.5 227.5v377h10v-377q0 -146 91.5 -220t293.5 -74q349 0 349 294v377zM475 725l74 142h10l-75 -142h-9zM318 725l74 142h10l-75 -142h-9z" />
    <glyph glyph-name="uhungarumlaut" unicode="&#x171;" horiz-adv-x="851" 
d="M792 669h10v-377q0 -303 -359 -303q-206 0 -300.5 75.5t-94.5 227.5v377h10v-377q0 -146 91.5 -220t293.5 -74q349 0 349 294v377zM475 725l74 142h10l-75 -142h-9zM318 725l74 142h10l-75 -142h-9z" />
    <glyph glyph-name="Uogonek" unicode="&#x172;" horiz-adv-x="851" 
d="M388 -250q-26 0 -41 12t-15 29q0 20 24 41l186 163q-45 -6 -99 -6q-206 0 -300.5 75.5t-94.5 227.5v377h10v-377q0 -146 91.5 -220t293.5 -74q349 0 349 294v377h10v-377q0 -248 -240 -293l-200 -175q-20 -17 -20 -33q0 -13 12 -22t34 -9h175v-10h-175z" />
    <glyph glyph-name="uogonek" unicode="&#x173;" horiz-adv-x="851" 
d="M388 -250q-26 0 -41 12t-15 29q0 20 24 41l186 163q-45 -6 -99 -6q-206 0 -300.5 75.5t-94.5 227.5v377h10v-377q0 -146 91.5 -220t293.5 -74q349 0 349 294v377h10v-377q0 -248 -240 -293l-200 -175q-20 -17 -20 -33q0 -13 12 -22t34 -9h175v-10h-175z" />
    <glyph glyph-name="Wcircumflex" unicode="&#x174;" horiz-adv-x="1122" 
d="M1099 669h9l-266 -667q-3 -8 -9 -8q-7 0 -10 8l-263 663l-263 -663q-3 -8 -9 -8q-7 0 -10 8l-266 667h10l266 -665l263 663q3 8 9 8q7 0 10 -8l263 -663zM695 715l-134 144l-135 -144h-15l142 152h16l142 -152h-16z" />
    <glyph glyph-name="wcircumflex" unicode="&#x175;" horiz-adv-x="1122" 
d="M1099 669h9l-266 -667q-3 -8 -9 -8q-7 0 -10 8l-263 663l-263 -663q-3 -8 -9 -8q-7 0 -10 8l-266 667h10l266 -665l263 663q3 8 9 8q7 0 10 -8l263 -663zM695 715l-134 144l-135 -144h-15l142 152h16l142 -152h-16z" />
    <glyph glyph-name="Ycircumflex" unicode="&#x176;" 
d="M443 0v274l-436 395h14l427 -386l426 386h15l-437 -395v-274h-9zM583 715l-134 144l-135 -144h-15l142 152h16l142 -152h-16z" />
    <glyph glyph-name="ycircumflex" unicode="&#x177;" 
d="M443 0v274l-436 395h14l427 -386l426 386h15l-437 -395v-274h-9zM583 715l-134 144l-135 -144h-15l142 152h16l142 -152h-16z" />
    <glyph glyph-name="Ydieresis" unicode="&#x178;" 
d="M443 0v274l-436 395h14l427 -386l426 386h15l-437 -395v-274h-9zM363 804q0 -6 -4.5 -9.5t-10.5 -3.5q-15 0 -15 13q0 14 15 14q6 0 10.5 -3.5t4.5 -10.5zM564 804q0 -13 -16 -13q-6 0 -10.5 3.5t-4.5 9.5q0 7 4.5 10.5t10.5 3.5q16 0 16 -14z" />
    <glyph glyph-name="Zacute" unicode="&#x179;" horiz-adv-x="817" 
d="M27 0q-10 0 -10 9q0 6 4 9l752 642h-763l8 9h754q11 0 11 -9q0 -6 -4 -9l-753 -642h783l-7 -9h-775zM298 715v10l279 142v-11z" />
    <glyph glyph-name="zacute" unicode="&#x17a;" horiz-adv-x="817" 
d="M27 0q-10 0 -10 9q0 6 4 9l752 642h-763l8 9h754q11 0 11 -9q0 -6 -4 -9l-753 -642h783l-7 -9h-775zM298 715v10l279 142v-11z" />
    <glyph glyph-name="Zdotaccent" unicode="&#x17b;" horiz-adv-x="817" 
d="M27 0q-10 0 -10 9q0 6 4 9l752 642h-763l8 9h754q11 0 11 -9q0 -6 -4 -9l-753 -642h783l-7 -9h-775zM423 804q0 -6 -4.5 -9.5t-10.5 -3.5q-15 0 -15 13q0 14 15 14q6 0 10.5 -3.5t4.5 -10.5z" />
    <glyph glyph-name="zdotaccent" unicode="&#x17c;" horiz-adv-x="817" 
d="M27 0q-10 0 -10 9q0 6 4 9l752 642h-763l8 9h754q11 0 11 -9q0 -6 -4 -9l-753 -642h783l-7 -9h-775zM423 804q0 -6 -4.5 -9.5t-10.5 -3.5q-15 0 -15 13q0 14 15 14q6 0 10.5 -3.5t4.5 -10.5z" />
    <glyph glyph-name="Zcaron" unicode="&#x17d;" horiz-adv-x="817" 
d="M27 0q-10 0 -10 9q0 6 4 9l752 642h-763l8 9h754q11 0 11 -9q0 -6 -4 -9l-753 -642h783l-7 -9h-775zM401 715l-142 152h15l134 -145l135 145h16l-142 -152h-16z" />
    <glyph glyph-name="zcaron" unicode="&#x17e;" horiz-adv-x="817" 
d="M27 0q-10 0 -10 9q0 6 4 9l752 642h-763l8 9h754q11 0 11 -9q0 -6 -4 -9l-753 -642h783l-7 -9h-775zM401 715l-142 152h15l134 -145l135 145h16l-142 -152h-16z" />
    <glyph glyph-name="Aringacute" unicode="&#x1fa;" horiz-adv-x="912" 
d="M231 0l7 9h648l-429 656l-435 -665h-12l439 669q1 6 8 6q4 0 9 -6l437 -669h-672zM424 715q-103 0 -103 83v63q0 84 103 84h62q104 0 104 -84v-63q0 -83 -104 -83h-62zM581 861q0 75 -95 75h-62q-94 0 -94 -75v-63q0 -74 94 -74h62q95 0 95 74v63zM609 787v10l279 142
v-11z" />
    <glyph glyph-name="aringacute" unicode="&#x1fb;" horiz-adv-x="912" 
d="M231 0l7 9h648l-429 656l-435 -665h-12l439 669q1 6 8 6q4 0 9 -6l437 -669h-672zM424 715q-103 0 -103 83v63q0 84 103 84h62q104 0 104 -84v-63q0 -83 -104 -83h-62zM581 861q0 75 -95 75h-62q-94 0 -94 -75v-63q0 -74 94 -74h62q95 0 95 74v63zM609 787v10l279 142
v-11z" />
    <glyph glyph-name="AEacute" unicode="&#x1fc;" horiz-adv-x="1323" 
d="M662 0v660h-169l-472 -660h-11l473 662q4 7 16 7h810l-8 -9h-629v-314h612l-7 -9h-605v-328h643l-7 -9h-646zM505 715v10l279 142v-11z" />
    <glyph glyph-name="aeacute" unicode="&#x1fd;" horiz-adv-x="1323" 
d="M662 0v660h-169l-472 -660h-11l473 662q4 7 16 7h810l-8 -9h-629v-314h612l-7 -9h-605v-328h643l-7 -9h-646zM505 715v10l279 142v-11z" />
    <glyph glyph-name="Oslashacute" unicode="&#x1fe;" 
d="M90 -42l83 90q-135 82 -135 287q0 179 102.5 262t307.5 83q163 0 262 -53l82 89l8 -5l-83 -88q139 -82 139 -288q0 -180 -101.5 -263t-306.5 -83q-169 0 -266 55l-85 -91zM188 51q97 -53 260 -53q199 0 299 81t100 256q0 201 -136 280zM702 620q-95 51 -254 51
q-200 0 -300.5 -80.5t-100.5 -255.5q0 -102 33.5 -169.5t100.5 -109.5zM336 715v10l279 142v-11z" />
    <glyph glyph-name="oslashacute" unicode="&#x1ff;" 
d="M90 -42l83 90q-135 82 -135 287q0 179 102.5 262t307.5 83q163 0 262 -53l82 89l8 -5l-83 -88q139 -82 139 -288q0 -180 -101.5 -263t-306.5 -83q-169 0 -266 55l-85 -91zM188 51q97 -53 260 -53q199 0 299 81t100 256q0 201 -136 280zM702 620q-95 51 -254 51
q-200 0 -300.5 -80.5t-100.5 -255.5q0 -102 33.5 -169.5t100.5 -109.5zM336 715v10l279 142v-11z" />
    <glyph glyph-name="uni0218" unicode="&#x218;" horiz-adv-x="844" 
d="M21 0l7 9h545q121 0 178 39t57 126q0 86 -58 121t-176 35h-267q-123 0 -184 38t-61 127q0 91 60 132.5t185 41.5h502l-7 -9h-494q-121 0 -178.5 -39t-57.5 -126q0 -86 58 -120.5t177 -34.5h267q123 0 183.5 -38t60.5 -128q0 -91 -60 -132.5t-184 -41.5h-553zM414 -255
l37 224h13l-42 -224h-8z" />
    <glyph glyph-name="uni0219" unicode="&#x219;" horiz-adv-x="844" 
d="M21 0l7 9h545q121 0 178 39t57 126q0 86 -58 121t-176 35h-267q-123 0 -184 38t-61 127q0 91 60 132.5t185 41.5h502l-7 -9h-494q-121 0 -178.5 -39t-57.5 -126q0 -86 58 -120.5t177 -34.5h267q123 0 183.5 -38t60.5 -128q0 -91 -60 -132.5t-184 -41.5h-553zM414 -255
l37 224h13l-42 -224h-8z" />
    <glyph glyph-name="uni021A" unicode="&#x21a;" horiz-adv-x="800" 
d="M397 0v660h-397l11 9h789l-8 -9h-386v-660h-9zM358 -255l37 224h13l-42 -224h-8z" />
    <glyph glyph-name="uni021B" unicode="&#x21b;" horiz-adv-x="800" 
d="M397 0v660h-397l11 9h789l-8 -9h-386v-660h-9zM358 -255l37 224h13l-42 -224h-8z" />
    <glyph glyph-name="circumflex" unicode="&#x2c6;" horiz-adv-x="385" 
d="M327 715l-134 144l-135 -144h-15l142 152h16l142 -152h-16z" />
    <glyph glyph-name="caron" unicode="&#x2c7;" horiz-adv-x="385" 
d="M185 715l-142 152h15l134 -145l135 145h16l-142 -152h-16z" />
    <glyph glyph-name="breve" unicode="&#x2d8;" horiz-adv-x="362" 
d="M162 715q-33 0 -55.5 16.5t-37 40t-20.5 49.5t-6 46h9q1 -23 7.5 -48t19.5 -46t33.5 -35t49.5 -14h40q28 0 48 14t33 35t19.5 46t7.5 48h10q0 -20 -6 -46t-20 -49.5t-36.5 -40t-55.5 -16.5h-40z" />
    <glyph glyph-name="dotaccent" unicode="&#x2d9;" horiz-adv-x="115" 
d="M73 804q0 -6 -4.5 -9.5t-10.5 -3.5q-15 0 -15 13q0 14 15 14q6 0 10.5 -3.5t4.5 -10.5z" />
    <glyph glyph-name="ring" unicode="&#x2da;" horiz-adv-x="355" 
d="M146 715q-103 0 -103 83v63q0 84 103 84h62q104 0 104 -84v-63q0 -83 -104 -83h-62zM303 861q0 75 -95 75h-62q-94 0 -94 -75v-63q0 -74 94 -74h62q95 0 95 74v63z" />
    <glyph glyph-name="ogonek" unicode="&#x2db;" horiz-adv-x="309" 
d="M91 -250q-26 0 -41 12t-15 29q0 20 24 41l192 168h15l-202 -176q-20 -18 -20 -33q0 -13 12.5 -22t34.5 -9h175v-10h-175z" />
    <glyph glyph-name="tilde" unicode="&#x2dc;" horiz-adv-x="364" 
d="M322 803q-14 -32 -31.5 -44t-40.5 -12q-20 0 -37 12.5t-33.5 27t-32.5 27t-32 12.5q-20 0 -37.5 -12.5t-34.5 -54.5v21q14 32 31.5 44t40.5 12q19 0 36 -12.5t33 -27.5t32 -27.5t34 -12.5q19 0 37 13t35 54v-20z" />
    <glyph glyph-name="hungarumlaut" unicode="&#x2dd;" horiz-adv-x="326" 
d="M200 725l74 142h10l-75 -142h-9zM43 725l74 142h10l-75 -142h-9z" />
    <glyph glyph-name="uni0326" unicode="&#x326;" horiz-adv-x="145" 
d="M59 -255l37 224h13l-42 -224h-8z" />
    <glyph glyph-name="Wgrave" unicode="&#x1e80;" horiz-adv-x="1122" 
d="M1099 669h9l-266 -667q-3 -8 -9 -8q-7 0 -10 8l-263 663l-263 -663q-3 -8 -9 -8q-7 0 -10 8l-266 667h10l266 -665l263 663q3 8 9 8q7 0 10 -8l263 -663zM393 856v11l279 -142v-10z" />
    <glyph glyph-name="Wacute" unicode="&#x1e82;" horiz-adv-x="1122" 
d="M1099 669h9l-266 -667q-3 -8 -9 -8q-7 0 -10 8l-263 663l-263 -663q-3 -8 -9 -8q-7 0 -10 8l-266 667h10l266 -665l263 663q3 8 9 8q7 0 10 -8l263 -663zM450 715v10l279 142v-11z" />
    <glyph glyph-name="Wdieresis" unicode="&#x1e84;" horiz-adv-x="1122" 
d="M1099 669h9l-266 -667q-3 -8 -9 -8q-7 0 -10 8l-263 663l-263 -663q-3 -8 -9 -8q-7 0 -10 8l-266 667h10l266 -665l263 663q3 8 9 8q7 0 10 -8l263 -663zM476 804q0 -6 -4.5 -9.5t-10.5 -3.5q-15 0 -15 13q0 14 15 14q6 0 10.5 -3.5t4.5 -10.5zM677 804q0 -13 -16 -13
q-6 0 -10.5 3.5t-4.5 9.5q0 7 4.5 10.5t10.5 3.5q16 0 16 -14z" />
    <glyph glyph-name="Ygrave" unicode="&#x1ef2;" 
d="M443 0v274l-436 395h14l427 -386l426 386h15l-437 -395v-274h-9zM309 856v11l279 -142v-10z" />
    <glyph glyph-name="ygrave" unicode="&#x1ef3;" 
d="M443 0v274l-436 395h14l427 -386l426 386h15l-437 -395v-274h-9zM309 856v11l279 -142v-10z" />
    <glyph glyph-name="endash" unicode="&#x2013;" horiz-adv-x="499" 
d="M13 333l8 10h465l-7 -10h-466z" />
    <glyph glyph-name="emdash" unicode="&#x2014;" horiz-adv-x="873" 
d="M13 333l8 10h840l-7 -10h-841z" />
    <glyph glyph-name="quoteleft" unicode="&#x2018;" horiz-adv-x="86" 
d="M63 401l-48 268h16l40 -268h-8z" />
    <glyph glyph-name="quoteright" unicode="&#x2019;" horiz-adv-x="86" 
d="M15 401l40 268h16l-48 -268h-8z" />
    <glyph glyph-name="quotesinglbase" unicode="&#x201a;" horiz-adv-x="86" 
d="M15 -96l40 268h16l-48 -268h-8z" />
    <glyph glyph-name="quotedblleft" unicode="&#x201c;" horiz-adv-x="219" 
d="M196 401l-48 268h16l39 -268h-7zM63 401l-48 268h16l40 -268h-8z" />
    <glyph glyph-name="quotedblright" unicode="&#x201d;" horiz-adv-x="219" 
d="M15 401l40 268h16l-48 -268h-8zM148 401l39 268h16l-48 -268h-7z" />
    <glyph glyph-name="quotedblbase" unicode="&#x201e;" horiz-adv-x="219" 
d="M15 -96l40 268h16l-48 -268h-8zM148 -96l39 268h16l-48 -268h-7z" />
    <glyph glyph-name="dagger" unicode="&#x2020;" horiz-adv-x="393" 
d="M188 0v447h-120l-30 4l30 5h120v213h10v-213h120l30 -5l-30 -4h-120v-447h-10z" />
    <glyph glyph-name="daggerdbl" unicode="&#x2021;" horiz-adv-x="405" 
d="M193 0v189h-120l-30 5l30 5h120v271h-120l-30 5l30 5h120v189h10v-189h120l30 -5l-30 -5h-120v-271h120l30 -5l-30 -5h-120v-189h-10z" />
    <glyph glyph-name="bullet" unicode="&#x2022;" horiz-adv-x="286" 
d="M143 245q-37 0 -63.5 26.5t-26.5 63.5t26.5 63.5t63.5 26.5t63.5 -26.5t26.5 -63.5t-26.5 -63.5t-63.5 -26.5z" />
    <glyph glyph-name="ellipsis" unicode="&#x2026;" horiz-adv-x="525" 
d="M68 8q0 -14 -15 -14t-15 14q0 13 15 13t15 -13zM278 8q0 -14 -15 -14t-15 14q0 13 15 13t15 -13zM488 8q0 -14 -15 -14t-15 14q0 13 15 13t15 -13z" />
    <glyph glyph-name="perthousand" unicode="&#x2030;" horiz-adv-x="1117" 
d="M392 520q0 -91 -44 -133t-134 -42t-134 42t-44 133t44 132.5t134 41.5t134 -41.5t44 -132.5zM384 520q0 88 -42.5 127t-127.5 39t-127 -39t-42 -127t42 -127.5t127 -39.5t127.5 39.5t42.5 127.5zM75 -38l563 744h12l-562 -744h-13zM696 158q0 -91 -44 -133t-134 -42
t-134 42t-44 133t44 132.5t134 41.5t134 -41.5t44 -132.5zM688 158q0 88 -42.5 127t-127.5 39t-127 -39t-42 -127t42 -127.5t127 -39.5t127.5 39.5t42.5 127.5zM1081 158q0 -91 -44 -133t-134 -42t-134 42t-44 133t44 132.5t134 41.5t134 -41.5t44 -132.5zM1073 158
q0 88 -42.5 127t-127.5 39t-127 -39t-42 -127t42 -127.5t127 -39.5t127.5 39.5t42.5 127.5z" />
    <glyph glyph-name="guilsinglleft" unicode="&#x2039;" horiz-adv-x="238" 
d="M26 321v7l175 143v-12l-165 -134l165 -135v-12z" />
    <glyph glyph-name="guilsinglright" unicode="&#x203a;" horiz-adv-x="238" 
d="M42 178v12l164 135l-164 134v12l174 -143v-7z" />
    <glyph glyph-name="fraction" unicode="&#x2044;" horiz-adv-x="268" 
d="M-149 -38l563 744h12l-562 -744h-13z" />
    <glyph glyph-name="uni2070" unicode="&#x2070;" horiz-adv-x="418" 
d="M387 520q0 -91 -44 -133t-134 -42t-134 42t-44 133t44 132.5t134 41.5t134 -41.5t44 -132.5zM379 520q0 88 -42.5 127t-127.5 39t-127 -39t-42 -127t42 -127.5t127 -39.5t127.5 39.5t42.5 127.5z" />
    <glyph glyph-name="uni2074" unicode="&#x2074;" horiz-adv-x="433" 
d="M338 351v79h-306q-6 0 -6 7q0 3 2 5l307 247l6 2q5 0 5 -6v-246h74l-7 -9h-67v-79h-8zM338 681l-300 -242h300v242z" />
    <glyph glyph-name="uni2075" unicode="&#x2075;" horiz-adv-x="408" 
d="M29 351l8 8h216q60 0 87.5 19t27.5 62q0 42 -27.5 58.5t-87.5 16.5h-210v173h332l-8 -8h-316v-156h202q63 0 93.5 -19.5t30.5 -64.5q0 -89 -124 -89h-224z" />
    <glyph glyph-name="uni2076" unicode="&#x2076;" horiz-adv-x="453" 
d="M209 680q-35 0 -65.5 -11t-53 -30.5t-36 -47.5t-14.5 -61h271q51 0 81.5 -21t30.5 -63q0 -31 -15.5 -50.5t-41.5 -31t-59 -15.5t-69 -4q-103 0 -155 42t-52 136q0 37 13.5 67t37.5 52t56.5 34t70.5 12h191l-7 -8h-184zM40 521q0 -88 49.5 -128t148.5 -40q34 0 66 4
t56.5 14.5t39.5 28.5t15 46q0 37 -28 56t-76 19h-271z" />
    <glyph glyph-name="uni2077" unicode="&#x2077;" horiz-adv-x="387" 
d="M105 351l255 329h-344l8 8h340q7 0 7 -5q0 -4 -3 -7l-253 -325h-10z" />
    <glyph glyph-name="uni2078" unicode="&#x2078;" horiz-adv-x="429" 
d="M140 351q-58 0 -83.5 26t-25.5 64q0 35 19 55.5t40 27.5q-20 6 -36.5 26t-16.5 50q0 42 26 65t74 23h154q48 0 74.5 -23t26.5 -65q0 -30 -17 -50t-36 -26q20 -8 39 -28t19 -55q0 -38 -25.5 -64t-82.5 -26h-149zM114 520q-29 0 -51.5 -22t-22.5 -57q0 -32 23 -57t77 -25
h149q54 0 77 25t23 57q0 35 -22.5 57t-51.5 22h-201zM137 680q-45 0 -68.5 -21t-23.5 -59q0 -30 21.5 -50.5t47.5 -20.5h201q26 0 47 20.5t21 50.5q0 38 -23.5 59t-68.5 21h-154z" />
    <glyph glyph-name="uni2079" unicode="&#x2079;" horiz-adv-x="453" 
d="M58 351l7 8h180q37 0 68 11.5t53.5 32t35.5 49.5t13 64q0 7 -1 10q-64 -9 -133 -12.5t-138 -3.5q-51 0 -81.5 20.5t-30.5 62.5q0 31 15.5 50.5t41 30.5t59 15.5t69.5 4.5q103 0 155 -42t52 -136q0 -37 -13.5 -67.5t-37.5 -52t-56.5 -33.5t-70.5 -12h-187zM143 518
q67 0 136 3.5t135 11.5q-5 79 -54.5 116t-143.5 37q-35 0 -66.5 -4t-56 -14.5t-39 -28.5t-14.5 -46q0 -37 27.5 -56t75.5 -19z" />
    <glyph glyph-name="uni2080" unicode="&#x2080;" horiz-adv-x="418" 
d="M387 158q0 -91 -44 -133t-134 -42t-134 42t-44 133t44 132.5t134 41.5t134 -41.5t44 -132.5zM379 158q0 88 -42.5 127t-127.5 39t-127 -39t-42 -127t42 -127.5t127 -39.5t127.5 39.5t42.5 127.5z" />
    <glyph glyph-name="uni2081" unicode="&#x2081;" horiz-adv-x="149" 
d="M99 -11v329h-14l-59 -82h-10l65 90h27v-337h-9z" />
    <glyph glyph-name="uni2082" unicode="&#x2082;" horiz-adv-x="440" 
d="M34 -11v90q0 45 28.5 64.5t82.5 19.5h132q66 0 91.5 20t25.5 58q0 34 -26.5 55.5t-91.5 21.5h-219l7 8h212q69 0 97.5 -23.5t28.5 -61.5q0 -42 -28 -64.5t-97 -22.5h-132q-51 0 -76.5 -16.5t-25.5 -58.5v-82h369l-7 -8h-371z" />
    <glyph glyph-name="uni2083" unicode="&#x2083;" horiz-adv-x="416" 
d="M14 -11l8 8h254q54 0 77.5 25t23.5 57q0 35 -22.5 57t-51.5 22h-200l8 9h192q26 0 47 20.5t21 50.5q0 38 -23.5 59t-68.5 21h-253l8 8h245q48 0 74 -23t26 -65q0 -30 -16.5 -50t-36.5 -26q21 -8 40 -28t19 -55q0 -38 -25.5 -64t-83.5 -26h-262z" />
    <glyph glyph-name="uni2084" unicode="&#x2084;" horiz-adv-x="433" 
d="M338 -11v79h-306q-6 0 -6 7q0 3 2 5l307 247l6 2q5 0 5 -6v-246h74l-7 -9h-67v-79h-8zM338 319l-300 -242h300v242z" />
    <glyph glyph-name="uni2085" unicode="&#x2085;" horiz-adv-x="408" 
d="M29 -11l8 8h216q60 0 87.5 19t27.5 62q0 42 -27.5 58.5t-87.5 16.5h-210v173h332l-8 -8h-316v-156h202q63 0 93.5 -19.5t30.5 -64.5q0 -89 -124 -89h-224z" />
    <glyph glyph-name="uni2086" unicode="&#x2086;" horiz-adv-x="453" 
d="M209 318q-35 0 -65.5 -11t-53 -30.5t-36 -47.5t-14.5 -61h271q51 0 81.5 -21t30.5 -63q0 -31 -15.5 -50.5t-41.5 -31t-59 -15.5t-69 -4q-103 0 -155 42t-52 136q0 37 13.5 67t37.5 52t56.5 34t70.5 12h191l-7 -8h-184zM40 159q0 -88 49.5 -128t148.5 -40q34 0 66 4
t56.5 14.5t39.5 28.5t15 46q0 37 -28 56t-76 19h-271z" />
    <glyph glyph-name="uni2087" unicode="&#x2087;" horiz-adv-x="387" 
d="M105 -11l255 329h-344l8 8h340q7 0 7 -5q0 -4 -3 -7l-253 -325h-10z" />
    <glyph glyph-name="uni2088" unicode="&#x2088;" horiz-adv-x="429" 
d="M140 -11q-58 0 -83.5 26t-25.5 64q0 35 19 55.5t40 27.5q-20 6 -36.5 26t-16.5 50q0 42 26 65t74 23h154q48 0 74.5 -23t26.5 -65q0 -30 -17 -50t-36 -26q20 -8 39 -28t19 -55q0 -38 -25.5 -64t-82.5 -26h-149zM114 158q-29 0 -51.5 -22t-22.5 -57q0 -32 23 -57t77 -25
h149q54 0 77 25t23 57q0 35 -22.5 57t-51.5 22h-201zM137 318q-45 0 -68.5 -21t-23.5 -59q0 -30 21.5 -50.5t47.5 -20.5h201q26 0 47 20.5t21 50.5q0 38 -23.5 59t-68.5 21h-154z" />
    <glyph glyph-name="uni2089" unicode="&#x2089;" horiz-adv-x="453" 
d="M58 -11l7 8h180q37 0 68 11.5t53.5 32t35.5 49.5t13 64q0 7 -1 10q-64 -9 -133 -12.5t-138 -3.5q-51 0 -81.5 20.5t-30.5 62.5q0 31 15.5 50.5t41 30.5t59 15.5t69.5 4.5q103 0 155 -42t52 -136q0 -37 -13.5 -67.5t-37.5 -52t-56.5 -33.5t-70.5 -12h-187zM143 156
q67 0 136 3.5t135 11.5q-5 79 -54.5 116t-143.5 37q-35 0 -66.5 -4t-56 -14.5t-39 -28.5t-14.5 -46q0 -37 27.5 -56t75.5 -19z" />
    <glyph glyph-name="Euro" unicode="&#x20ac;" horiz-adv-x="755" 
d="M439 0q-70 0 -131 20.5t-108.5 57t-79 87.5t-42.5 112h-72l7 10h63q-4 20 -4 54q0 14 1 27.5t3 24.5h-70l7 9h65q11 61 42.5 110t78.5 84t108 54t132 19h295l-7 -9h-288q-69 0 -128.5 -18.5t-105.5 -52t-76.5 -81.5t-41.5 -106h438l-7 -9h-433q-2 -11 -3 -24.5t-1 -27.5
q0 -34 4 -54h352l-7 -10h-343q11 -59 42 -108t77 -84.5t105.5 -55.5t127.5 -20h131l-8 -9h-123z" />
    <glyph glyph-name="uni2117" unicode="&#x2117;" horiz-adv-x="776" 
d="M385 -11q-72 0 -135 27t-110 74t-74 110t-27 135t27 135t74 110t110 74t135 27t135 -27t110 -74t74.5 -110t27.5 -135t-27.5 -135t-74.5 -110t-110 -74t-135 -27zM722 335q0 70 -26.5 131t-72.5 107t-107 72.5t-131 26.5q-69 0 -130.5 -26.5t-107.5 -72.5t-72.5 -107
t-26.5 -131q0 -69 26.5 -130.5t72.5 -107.5t107.5 -72.5t130.5 -26.5q70 0 131 26.5t107 72.5t72.5 107.5t26.5 130.5zM268 285v-143h-10v152h171q61 0 94.5 28t33.5 76t-33.5 76.5t-94.5 28.5h-168l8 10h160q66 0 102 -32t36 -83t-36 -82t-102 -31h-161z" />
    <glyph glyph-name="trademark" unicode="&#x2122;" horiz-adv-x="555" 
d="M503 389v263l-97 -263h-11l-98 263v-263h-9v280h14l98 -265l99 265h14v-280h-10zM131 389v271h-101v9h210v-9h-100v-271h-9z" />
    <glyph glyph-name="onethird" unicode="&#x2153;" horiz-adv-x="828" 
d="M145 351v329h-14l-59 -82h-10l65 90h27v-337h-9zM37 -38l563 744h12l-562 -744h-13zM421 -11l8 8h254q54 0 77.5 25t23.5 57q0 35 -22.5 57t-51.5 22h-200l8 9h192q26 0 47 20.5t21 50.5q0 38 -23.5 59t-68.5 21h-253l8 8h245q48 0 74 -23t26 -65q0 -30 -16.5 -50
t-36.5 -26q21 -8 40 -28t19 -55q0 -38 -25.5 -64t-83.5 -26h-262z" />
    <glyph glyph-name="twothirds" unicode="&#x2154;" horiz-adv-x="928" 
d="M36 351v90q0 45 28.5 64.5t82.5 19.5h132q66 0 91.5 20t25.5 58q0 34 -26.5 55.5t-91.5 21.5h-219l7 8h212q69 0 97.5 -23.5t28.5 -61.5q0 -42 -28 -64.5t-97 -22.5h-132q-51 0 -76.5 -16.5t-25.5 -58.5v-82h369l-7 -8h-371zM176 -38l563 744h12l-562 -744h-13zM521 -11
l8 8h254q54 0 77.5 25t23.5 57q0 35 -22.5 57t-51.5 22h-200l8 9h192q26 0 47 20.5t21 50.5q0 38 -23.5 59t-68.5 21h-253l8 8h245q48 0 74 -23t26 -65q0 -30 -16.5 -50t-36.5 -26q21 -8 40 -28t19 -55q0 -38 -25.5 -64t-83.5 -26h-262z" />
    <glyph glyph-name="oneeighth" unicode="&#x215b;" horiz-adv-x="816" 
d="M134 351v329h-14l-59 -82h-10l65 90h27v-337h-9zM37 -38l563 744h12l-562 -744h-13zM522 -11q-58 0 -83.5 26t-25.5 64q0 35 19 55.5t40 27.5q-20 6 -36.5 26t-16.5 50q0 42 26 65t74 23h154q48 0 74.5 -23t26.5 -65q0 -30 -17 -50t-36 -26q20 -8 39 -28t19 -55
q0 -38 -25.5 -64t-82.5 -26h-149zM496 158q-29 0 -51.5 -22t-22.5 -57q0 -32 23 -57t77 -25h149q54 0 77 25t23 57q0 35 -22.5 57t-51.5 22h-201zM519 318q-45 0 -68.5 -21t-23.5 -59q0 -30 21.5 -50.5t47.5 -20.5h201q26 0 47 20.5t21 50.5q0 38 -23.5 59t-68.5 21h-154z
" />
    <glyph glyph-name="threeeighths" unicode="&#x215c;" horiz-adv-x="891" 
d="M34 351l8 8h254q54 0 77.5 25t23.5 57q0 35 -22.5 57t-51.5 22h-200l8 9h192q26 0 47 20.5t21 50.5q0 38 -23.5 59t-68.5 21h-253l8 8h245q48 0 74 -23t26 -65q0 -30 -16.5 -50t-36.5 -26q21 -8 40 -28t19 -55q0 -38 -25.5 -64t-83.5 -26h-262zM160 -38l563 744h12
l-562 -744h-13zM598 -11q-58 0 -83.5 26t-25.5 64q0 35 19 55.5t40 27.5q-20 6 -36.5 26t-16.5 50q0 42 26 65t74 23h154q48 0 74.5 -23t26.5 -65q0 -30 -17 -50t-36 -26q20 -8 39 -28t19 -55q0 -38 -25.5 -64t-82.5 -26h-149zM572 158q-29 0 -51.5 -22t-22.5 -57
q0 -32 23 -57t77 -25h149q54 0 77 25t23 57q0 35 -22.5 57t-51.5 22h-201zM595 318q-45 0 -68.5 -21t-23.5 -59q0 -30 21.5 -50.5t47.5 -20.5h201q26 0 47 20.5t21 50.5q0 38 -23.5 59t-68.5 21h-154z" />
    <glyph glyph-name="fiveeighths" unicode="&#x215d;" horiz-adv-x="864" 
d="M34 351l8 8h216q60 0 87.5 19t27.5 62q0 42 -27.5 58.5t-87.5 16.5h-210v173h332l-8 -8h-316v-156h202q63 0 93.5 -19.5t30.5 -64.5q0 -89 -124 -89h-224zM126 -38l563 744h12l-562 -744h-13zM571 -11q-58 0 -83.5 26t-25.5 64q0 35 19 55.5t40 27.5q-20 6 -36.5 26
t-16.5 50q0 42 26 65t74 23h154q48 0 74.5 -23t26.5 -65q0 -30 -17 -50t-36 -26q20 -8 39 -28t19 -55q0 -38 -25.5 -64t-82.5 -26h-149zM545 158q-29 0 -51.5 -22t-22.5 -57q0 -32 23 -57t77 -25h149q54 0 77 25t23 57q0 35 -22.5 57t-51.5 22h-201zM568 318
q-45 0 -68.5 -21t-23.5 -59q0 -30 21.5 -50.5t47.5 -20.5h201q26 0 47 20.5t21 50.5q0 38 -23.5 59t-68.5 21h-154z" />
    <glyph glyph-name="seveneighths" unicode="&#x215e;" horiz-adv-x="815" 
d="M123 351l255 329h-344l8 8h340q7 0 7 -5q0 -4 -3 -7l-253 -325h-10zM40 -38l563 744h12l-562 -744h-13zM521 -11q-58 0 -83.5 26t-25.5 64q0 35 19 55.5t40 27.5q-20 6 -36.5 26t-16.5 50q0 42 26 65t74 23h154q48 0 74.5 -23t26.5 -65q0 -30 -17 -50t-36 -26
q20 -8 39 -28t19 -55q0 -38 -25.5 -64t-82.5 -26h-149zM495 158q-29 0 -51.5 -22t-22.5 -57q0 -32 23 -57t77 -25h149q54 0 77 25t23 57q0 35 -22.5 57t-51.5 22h-201zM518 318q-45 0 -68.5 -21t-23.5 -59q0 -30 21.5 -50.5t47.5 -20.5h201q26 0 47 20.5t21 50.5
q0 38 -23.5 59t-68.5 21h-154z" />
    <glyph glyph-name="minus" unicode="&#x2212;" horiz-adv-x="621" 
d="M38 337v9h546v-9h-546z" />
    <glyph glyph-name="approxequal" unicode="&#x2248;" horiz-adv-x="558" 
d="M517 439q-38 -40 -72.5 -53t-65.5 -13q-28 0 -54.5 11t-52 24t-50.5 24t-49 11q-14 0 -29 -2.5t-32 -10t-35.5 -21t-40.5 -35.5v12q38 40 72 53.5t65 13.5q27 0 53 -11t51.5 -24t50.5 -24t51 -11q28 0 61 12.5t77 56.5v-13zM520 288q-38 -40 -72.5 -53t-65.5 -13
q-28 0 -54.5 11t-52 24t-50.5 24t-49 11q-14 0 -29 -2.5t-32 -10t-35.5 -21t-40.5 -35.5v12q38 40 72 53.5t65 13.5q27 0 53 -11t51.5 -24t50.5 -24t51 -11q28 0 61 12.5t77 56.5v-13z" />
    <glyph glyph-name="notequal" unicode="&#x2260;" horiz-adv-x="621" 
d="M419 471l-198 -263h363v-9h-370l-179 -237h-12l179 237h-164v9h170l199 263h-369v10h377l170 225h12l-170 -225h157v-10h-165z" />
    <glyph glyph-name="lessequal" unicode="&#x2264;" horiz-adv-x="589" 
d="M44 327q-6 4 -6 10q0 4 6 9l508 246v-10l-505 -245l505 -245v-11zM38 -26v9h546v-9h-546z" />
    <glyph glyph-name="greaterequal" unicode="&#x2265;" horiz-adv-x="589" 
d="M38 81v11l504 245l-504 245v10l507 -246q7 -4 7 -9q0 -7 -7 -10zM38 -26v9h546v-9h-546z" />
    <glyph glyph-name="uniF8FF" unicode="&#xf8ff;" horiz-adv-x="344" 
 />
    <glyph glyph-name="glyph384" horiz-adv-x="344" 
 />
    </font>
</defs>
</svg>
